<svg width="553" height="128" viewBox="0 0 553 128" fill="none" xmlns="http://www.w3.org/2000/svg">
<g filter="url(#filter0_d_1062_17439)">
<rect width="545" height="120" transform="translate(4)" fill="url(#paint0_linear_1062_17439)"/>
<mask id="path-1-outside-1_1062_17439" maskUnits="userSpaceOnUse" x="62" y="43" width="428" height="32" fill="black">
<rect fill="white" x="62" y="43" width="428" height="32"/>
<path d="M76.56 73.4C73.76 73.4 71.4267 73.0133 69.56 72.24C67.72 71.44 66.3333 70.4133 65.4 69.16C64.4933 67.88 64.0133 66.5333 63.96 65.12C63.96 64.88 64.04 64.68 64.2 64.52C64.36 64.36 64.56 64.28 64.8 64.28H71.16C71.5333 64.28 71.8267 64.3467 72.04 64.48C72.2533 64.5867 72.48 64.7467 72.72 64.96C72.96 65.2533 73.24 65.5333 73.56 65.8C73.88 66.04 74.2933 66.24 74.8 66.4C75.3067 66.5333 75.8933 66.6 76.56 66.6C77.7867 66.6 78.7333 66.44 79.4 66.12C80.0667 65.7733 80.4 65.3067 80.4 64.72C80.4 64.2667 80.2133 63.8933 79.84 63.6C79.4933 63.3067 78.8933 63.04 78.04 62.8C77.1867 62.56 76.0267 62.3067 74.56 62.04C72.5067 61.6933 70.7333 61.1867 69.24 60.52C67.7467 59.8267 66.6 58.9067 65.8 57.76C65.0267 56.5867 64.64 55.1467 64.64 53.44C64.64 51.7067 65.12 50.1733 66.08 48.84C67.0667 47.5067 68.4267 46.4667 70.16 45.72C71.92 44.9733 73.96 44.6 76.28 44.6C78.2 44.6 79.8933 44.8533 81.36 45.36C82.8533 45.8667 84.1067 46.5333 85.12 47.36C86.1333 48.16 86.9067 49.0267 87.44 49.96C87.9733 50.8933 88.2533 51.7867 88.28 52.64C88.28 52.88 88.1867 53.0933 88 53.28C87.84 53.44 87.6533 53.52 87.44 53.52H80.76C80.44 53.52 80.16 53.4667 79.92 53.36C79.7067 53.2533 79.5067 53.08 79.32 52.84C79.1867 52.4667 78.8533 52.1333 78.32 51.84C77.7867 51.5467 77.1067 51.4 76.28 51.4C75.3733 51.4 74.68 51.56 74.2 51.88C73.72 52.1733 73.48 52.6133 73.48 53.2C73.48 53.6 73.6267 53.9467 73.92 54.24C74.2133 54.5333 74.7333 54.8 75.48 55.04C76.2267 55.2533 77.2667 55.4933 78.6 55.76C81.1333 56.1333 83.1733 56.6667 84.72 57.36C86.2933 58.0533 87.44 58.96 88.16 60.08C88.88 61.2 89.24 62.6 89.24 64.28C89.24 66.1733 88.6933 67.8 87.6 69.16C86.5067 70.52 85 71.5733 83.08 72.32C81.1867 73.04 79.0133 73.4 76.56 73.4ZM93.7075 73C93.4408 73 93.2008 72.9067 92.9875 72.72C92.7742 72.5067 92.6675 72.2533 92.6675 71.96V46.04C92.6675 45.7467 92.7742 45.5067 92.9875 45.32C93.2008 45.1067 93.4408 45 93.7075 45H105.388C107.708 45 109.721 45.3467 111.428 46.04C113.161 46.7333 114.508 47.7867 115.468 49.2C116.428 50.6133 116.908 52.3867 116.908 54.52C116.908 56.6533 116.428 58.4133 115.468 59.8C114.508 61.16 113.161 62.16 111.428 62.8C109.721 63.44 107.708 63.76 105.388 63.76H101.588V71.96C101.588 72.2533 101.481 72.5067 101.268 72.72C101.081 72.9067 100.841 73 100.548 73H93.7075ZM101.428 57.32H105.188C105.961 57.32 106.614 57.0933 107.148 56.64C107.708 56.16 107.988 55.4267 107.988 54.44C107.988 53.6933 107.774 53.0133 107.348 52.4C106.921 51.7867 106.201 51.48 105.188 51.48H101.428V57.32ZM132.404 73.4C129.844 73.4 127.617 73 125.724 72.2C123.857 71.4 122.377 70.2 121.284 68.6C120.217 66.9733 119.644 64.96 119.564 62.56C119.537 61.44 119.524 60.2933 119.524 59.12C119.524 57.92 119.537 56.7333 119.564 55.56C119.644 53.1867 120.217 51.1867 121.284 49.56C122.377 47.9333 123.87 46.7067 125.764 45.88C127.657 45.0267 129.87 44.6 132.404 44.6C134.91 44.6 137.11 45.0267 139.004 45.88C140.897 46.7067 142.39 47.9333 143.484 49.56C144.577 51.1867 145.15 53.1867 145.204 55.56C145.257 56.7333 145.284 57.92 145.284 59.12C145.284 60.2933 145.257 61.44 145.204 62.56C145.124 64.96 144.537 66.9733 143.444 68.6C142.377 70.2 140.897 71.4 139.004 72.2C137.137 73 134.937 73.4 132.404 73.4ZM132.404 66.6C133.524 66.6 134.444 66.2667 135.164 65.6C135.884 64.9067 136.257 63.8133 136.284 62.32C136.337 61.1733 136.364 60.0667 136.364 59C136.364 57.9067 136.337 56.8 136.284 55.68C136.257 54.6933 136.07 53.88 135.724 53.24C135.404 52.6 134.95 52.1333 134.364 51.84C133.804 51.5467 133.15 51.4 132.404 51.4C131.657 51.4 130.99 51.5467 130.404 51.84C129.817 52.1333 129.35 52.6 129.004 53.24C128.684 53.88 128.51 54.6933 128.484 55.68C128.457 56.8 128.444 57.9067 128.444 59C128.444 60.0667 128.457 61.1733 128.484 62.32C128.537 63.8133 128.91 64.9067 129.604 65.6C130.324 66.2667 131.257 66.6 132.404 66.6ZM150.426 73C150.16 73 149.92 72.9067 149.706 72.72C149.493 72.5067 149.386 72.2533 149.386 71.96V46.04C149.386 45.7467 149.493 45.5067 149.706 45.32C149.92 45.1067 150.16 45 150.426 45H155.746C156.226 45 156.573 45.12 156.786 45.36C157 45.5733 157.146 45.7333 157.226 45.84L165.466 59.08V46.04C165.466 45.7467 165.573 45.5067 165.786 45.32C166 45.1067 166.24 45 166.506 45H172.546C172.84 45 173.08 45.1067 173.266 45.32C173.48 45.5067 173.586 45.7467 173.586 46.04V71.96C173.586 72.2533 173.48 72.5067 173.266 72.72C173.08 72.9067 172.84 73 172.546 73H167.266C166.76 73 166.4 72.8933 166.186 72.68C165.973 72.44 165.826 72.2667 165.746 72.16L157.506 59.68V71.96C157.506 72.2533 157.4 72.5067 157.186 72.72C157 72.9067 156.76 73 156.466 73H150.426ZM189.685 73.4C186.885 73.4 184.552 73.0133 182.685 72.24C180.845 71.44 179.458 70.4133 178.525 69.16C177.618 67.88 177.138 66.5333 177.085 65.12C177.085 64.88 177.165 64.68 177.325 64.52C177.485 64.36 177.685 64.28 177.925 64.28H184.285C184.658 64.28 184.952 64.3467 185.165 64.48C185.378 64.5867 185.605 64.7467 185.845 64.96C186.085 65.2533 186.365 65.5333 186.685 65.8C187.005 66.04 187.418 66.24 187.925 66.4C188.432 66.5333 189.018 66.6 189.685 66.6C190.912 66.6 191.858 66.44 192.525 66.12C193.192 65.7733 193.525 65.3067 193.525 64.72C193.525 64.2667 193.338 63.8933 192.965 63.6C192.618 63.3067 192.018 63.04 191.165 62.8C190.312 62.56 189.152 62.3067 187.685 62.04C185.632 61.6933 183.858 61.1867 182.365 60.52C180.872 59.8267 179.725 58.9067 178.925 57.76C178.152 56.5867 177.765 55.1467 177.765 53.44C177.765 51.7067 178.245 50.1733 179.205 48.84C180.192 47.5067 181.552 46.4667 183.285 45.72C185.045 44.9733 187.085 44.6 189.405 44.6C191.325 44.6 193.018 44.8533 194.485 45.36C195.978 45.8667 197.232 46.5333 198.245 47.36C199.258 48.16 200.032 49.0267 200.565 49.96C201.098 50.8933 201.378 51.7867 201.405 52.64C201.405 52.88 201.312 53.0933 201.125 53.28C200.965 53.44 200.778 53.52 200.565 53.52H193.885C193.565 53.52 193.285 53.4667 193.045 53.36C192.832 53.2533 192.632 53.08 192.445 52.84C192.312 52.4667 191.978 52.1333 191.445 51.84C190.912 51.5467 190.232 51.4 189.405 51.4C188.498 51.4 187.805 51.56 187.325 51.88C186.845 52.1733 186.605 52.6133 186.605 53.2C186.605 53.6 186.752 53.9467 187.045 54.24C187.338 54.5333 187.858 54.8 188.605 55.04C189.352 55.2533 190.392 55.4933 191.725 55.76C194.258 56.1333 196.298 56.6667 197.845 57.36C199.418 58.0533 200.565 58.96 201.285 60.08C202.005 61.2 202.365 62.6 202.365 64.28C202.365 66.1733 201.818 67.8 200.725 69.16C199.632 70.52 198.125 71.5733 196.205 72.32C194.312 73.04 192.138 73.4 189.685 73.4ZM217.873 73.4C215.313 73.4 213.086 73 211.193 72.2C209.326 71.4 207.846 70.2 206.753 68.6C205.686 66.9733 205.113 64.96 205.033 62.56C205.006 61.44 204.993 60.2933 204.993 59.12C204.993 57.92 205.006 56.7333 205.033 55.56C205.113 53.1867 205.686 51.1867 206.753 49.56C207.846 47.9333 209.339 46.7067 211.233 45.88C213.126 45.0267 215.339 44.6 217.873 44.6C220.379 44.6 222.579 45.0267 224.473 45.88C226.366 46.7067 227.859 47.9333 228.953 49.56C230.046 51.1867 230.619 53.1867 230.673 55.56C230.726 56.7333 230.753 57.92 230.753 59.12C230.753 60.2933 230.726 61.44 230.673 62.56C230.593 64.96 230.006 66.9733 228.913 68.6C227.846 70.2 226.366 71.4 224.473 72.2C222.606 73 220.406 73.4 217.873 73.4ZM217.873 66.6C218.993 66.6 219.913 66.2667 220.633 65.6C221.353 64.9067 221.726 63.8133 221.753 62.32C221.806 61.1733 221.833 60.0667 221.833 59C221.833 57.9067 221.806 56.8 221.753 55.68C221.726 54.6933 221.539 53.88 221.193 53.24C220.873 52.6 220.419 52.1333 219.833 51.84C219.273 51.5467 218.619 51.4 217.873 51.4C217.126 51.4 216.459 51.5467 215.873 51.84C215.286 52.1333 214.819 52.6 214.473 53.24C214.153 53.88 213.979 54.6933 213.953 55.68C213.926 56.8 213.913 57.9067 213.913 59C213.913 60.0667 213.926 61.1733 213.953 62.32C214.006 63.8133 214.379 64.9067 215.072 65.6C215.793 66.2667 216.726 66.6 217.873 66.6ZM235.895 73C235.628 73 235.388 72.9067 235.175 72.72C234.962 72.5067 234.855 72.2533 234.855 71.96V46.04C234.855 45.7467 234.962 45.5067 235.175 45.32C235.388 45.1067 235.628 45 235.895 45H247.295C250.922 45 253.762 45.8267 255.815 47.48C257.895 49.1333 258.935 51.44 258.935 54.4C258.935 56.2667 258.508 57.8533 257.655 59.16C256.802 60.4667 255.682 61.4933 254.295 62.24L259.495 71.68C259.575 71.84 259.615 71.9867 259.615 72.12C259.615 72.36 259.535 72.5733 259.375 72.76C259.215 72.92 259.015 73 258.775 73H252.015C251.508 73 251.122 72.88 250.855 72.64C250.588 72.3733 250.415 72.1333 250.335 71.92L246.335 63.68H243.455V71.96C243.455 72.2533 243.348 72.5067 243.135 72.72C242.948 72.9067 242.708 73 242.415 73H235.895ZM243.455 57.08H247.255C248.188 57.08 248.882 56.8267 249.335 56.32C249.788 55.7867 250.015 55.1333 250.015 54.36C250.015 53.56 249.788 52.88 249.335 52.32C248.908 51.76 248.215 51.48 247.255 51.48H243.455V57.08ZM264.176 73C263.91 73 263.67 72.9067 263.456 72.72C263.243 72.5067 263.136 72.2533 263.136 71.96V46.04C263.136 45.7467 263.243 45.5067 263.456 45.32C263.67 45.1067 263.91 45 264.176 45H283.776C284.07 45 284.323 45.1067 284.536 45.32C284.75 45.5067 284.856 45.7467 284.856 46.04V50.76C284.856 51.0267 284.75 51.2667 284.536 51.48C284.323 51.6933 284.07 51.8 283.776 51.8H271.416V55.76H282.896C283.19 55.76 283.443 55.8667 283.656 56.08C283.87 56.2667 283.976 56.5067 283.976 56.8V61.12C283.976 61.4133 283.87 61.6667 283.656 61.88C283.443 62.0667 283.19 62.16 282.896 62.16H271.416V66.2H284.096C284.39 66.2 284.643 66.3067 284.856 66.52C285.07 66.7333 285.176 66.9867 285.176 67.28V71.96C285.176 72.2533 285.07 72.5067 284.856 72.72C284.643 72.9067 284.39 73 284.096 73H264.176ZM290.309 73C290.042 73 289.802 72.9067 289.589 72.72C289.376 72.5067 289.269 72.2533 289.269 71.96V46.04C289.269 45.7467 289.376 45.5067 289.589 45.32C289.802 45.1067 290.042 45 290.309 45H301.269C303.856 45 306.096 45.4267 307.989 46.28C309.882 47.1067 311.376 48.3333 312.469 49.96C313.562 51.5867 314.149 53.5867 314.229 55.96C314.282 57.1067 314.309 58.12 314.309 59C314.309 59.88 314.282 60.88 314.229 62C314.122 64.5067 313.549 66.5733 312.509 68.2C311.496 69.8267 310.056 71.04 308.189 71.84C306.322 72.6133 304.082 73 301.469 73H290.309ZM297.869 66.2H301.269C302.149 66.2 302.896 66.0533 303.509 65.76C304.122 65.4667 304.602 65.0133 304.949 64.4C305.296 63.76 305.482 62.9467 305.509 61.96C305.536 61.1867 305.549 60.4933 305.549 59.88C305.576 59.2667 305.576 58.6533 305.549 58.04C305.549 57.4267 305.536 56.7467 305.509 56C305.456 54.5333 305.029 53.4667 304.229 52.8C303.456 52.1333 302.402 51.8 301.069 51.8H297.869V66.2ZM323.884 73C323.644 73 323.43 72.92 323.244 72.76C323.084 72.5733 323.004 72.36 323.004 72.12C323.004 72.0133 323.03 71.92 323.084 71.84L332.204 46.24C332.284 45.9467 332.457 45.6667 332.724 45.4C333.017 45.1333 333.404 45 333.884 45H341.204C341.71 45 342.097 45.1333 342.364 45.4C342.63 45.6667 342.804 45.9467 342.884 46.24L352.044 71.84C352.07 71.92 352.084 72.0133 352.084 72.12C352.084 72.36 351.99 72.5733 351.804 72.76C351.644 72.92 351.444 73 351.204 73H345.044C344.59 73 344.257 72.8933 344.044 72.68C343.83 72.4667 343.684 72.2667 343.604 72.08L342.364 68.72H332.724L331.484 72.08C331.404 72.2667 331.257 72.4667 331.044 72.68C330.857 72.8933 330.524 73 330.044 73H323.884ZM334.564 61.96H340.524L337.524 52.96L334.564 61.96ZM355.778 73C355.511 73 355.271 72.9067 355.058 72.72C354.844 72.5067 354.738 72.2533 354.738 71.96V46.04C354.738 45.7467 354.844 45.5067 355.058 45.32C355.271 45.1067 355.511 45 355.778 45H366.738C369.324 45 371.564 45.4267 373.458 46.28C375.351 47.1067 376.844 48.3333 377.938 49.96C379.031 51.5867 379.618 53.5867 379.698 55.96C379.751 57.1067 379.778 58.12 379.778 59C379.778 59.88 379.751 60.88 379.698 62C379.591 64.5067 379.018 66.5733 377.978 68.2C376.964 69.8267 375.524 71.04 373.658 71.84C371.791 72.6133 369.551 73 366.938 73H355.778ZM363.338 66.2H366.738C367.618 66.2 368.364 66.0533 368.978 65.76C369.591 65.4667 370.071 65.0133 370.418 64.4C370.764 63.76 370.951 62.9467 370.978 61.96C371.004 61.1867 371.018 60.4933 371.018 59.88C371.044 59.2667 371.044 58.6533 371.018 58.04C371.018 57.4267 371.004 56.7467 370.978 56C370.924 54.5333 370.498 53.4667 369.698 52.8C368.924 52.1333 367.871 51.8 366.538 51.8H363.338V66.2ZM390.821 73C390.341 73 389.954 72.8667 389.661 72.6C389.394 72.3333 389.221 72.0533 389.141 71.76L381.261 46.16C381.234 46.0533 381.221 45.96 381.221 45.88C381.221 45.64 381.301 45.44 381.461 45.28C381.648 45.0933 381.861 45 382.101 45H388.301C388.781 45 389.154 45.1333 389.421 45.4C389.688 45.6667 389.861 45.9333 389.941 46.2L394.661 62.88L399.381 46.2C399.461 45.9333 399.634 45.6667 399.901 45.4C400.168 45.1333 400.541 45 401.021 45H407.221C407.461 45 407.661 45.0933 407.821 45.28C407.981 45.44 408.061 45.64 408.061 45.88C408.061 45.96 408.048 46.0533 408.021 46.16L400.181 71.76C400.101 72.0533 399.914 72.3333 399.621 72.6C399.354 72.8667 398.968 73 398.461 73H390.821ZM412.379 73C412.113 73 411.873 72.9067 411.659 72.72C411.446 72.5067 411.339 72.2533 411.339 71.96V46.04C411.339 45.7467 411.446 45.5067 411.659 45.32C411.873 45.1067 412.113 45 412.379 45H431.979C432.273 45 432.526 45.1067 432.739 45.32C432.953 45.5067 433.059 45.7467 433.059 46.04V50.76C433.059 51.0267 432.953 51.2667 432.739 51.48C432.526 51.6933 432.273 51.8 431.979 51.8H419.619V55.76H431.099C431.393 55.76 431.646 55.8667 431.859 56.08C432.073 56.2667 432.179 56.5067 432.179 56.8V61.12C432.179 61.4133 432.073 61.6667 431.859 61.88C431.646 62.0667 431.393 62.16 431.099 62.16H419.619V66.2H432.299C432.593 66.2 432.846 66.3067 433.059 66.52C433.273 66.7333 433.379 66.9867 433.379 67.28V71.96C433.379 72.2533 433.273 72.5067 433.059 72.72C432.846 72.9067 432.593 73 432.299 73H412.379ZM438.512 73C438.246 73 438.006 72.9067 437.792 72.72C437.579 72.5067 437.472 72.2533 437.472 71.96V46.04C437.472 45.7467 437.579 45.5067 437.792 45.32C438.006 45.1067 438.246 45 438.512 45H449.912C453.539 45 456.379 45.8267 458.432 47.48C460.512 49.1333 461.552 51.44 461.552 54.4C461.552 56.2667 461.126 57.8533 460.272 59.16C459.419 60.4667 458.299 61.4933 456.912 62.24L462.112 71.68C462.192 71.84 462.232 71.9867 462.232 72.12C462.232 72.36 462.152 72.5733 461.992 72.76C461.832 72.92 461.632 73 461.392 73H454.632C454.126 73 453.739 72.88 453.472 72.64C453.206 72.3733 453.032 72.1333 452.952 71.92L448.952 63.68H446.072V71.96C446.072 72.2533 445.966 72.5067 445.752 72.72C445.566 72.9067 445.326 73 445.032 73H438.512ZM446.072 57.08H449.872C450.806 57.08 451.499 56.8267 451.952 56.32C452.406 55.7867 452.632 55.1333 452.632 54.36C452.632 53.56 452.406 52.88 451.952 52.32C451.526 51.76 450.832 51.48 449.872 51.48H446.072V57.08ZM472.72 73C472.427 73 472.173 72.9067 471.96 72.72C471.773 72.5067 471.68 72.2533 471.68 71.96V52.44H464.8C464.507 52.44 464.253 52.3467 464.04 52.16C463.853 51.9467 463.76 51.6933 463.76 51.4V46.04C463.76 45.7467 463.853 45.5067 464.04 45.32C464.253 45.1067 464.507 45 464.8 45H487.28C487.573 45 487.813 45.1067 488 45.32C488.213 45.5067 488.32 45.7467 488.32 46.04V51.4C488.32 51.6933 488.213 51.9467 488 52.16C487.813 52.3467 487.573 52.44 487.28 52.44H480.4V71.96C480.4 72.2533 480.293 72.5067 480.08 72.72C479.893 72.9067 479.653 73 479.36 73H472.72Z"/>
</mask>
<path d="M69.56 72.24L69.1613 73.1571L69.1692 73.1605L69.1773 73.1639L69.56 72.24ZM65.4 69.16L64.584 69.738L64.5909 69.7477L64.598 69.7573L65.4 69.16ZM63.96 65.12H62.96V65.1389L62.9607 65.1577L63.96 65.12ZM72.04 64.48L71.51 65.328L71.5503 65.3532L71.5928 65.3744L72.04 64.48ZM72.72 64.96L73.494 64.3268L73.4437 64.2653L73.3844 64.2126L72.72 64.96ZM73.56 65.8L72.9198 66.5682L72.9395 66.5846L72.96 66.6L73.56 65.8ZM74.8 66.4L74.4989 67.3536L74.522 67.3609L74.5455 67.3671L74.8 66.4ZM79.4 66.12L79.8327 67.0215L79.8472 67.0146L79.8614 67.0072L79.4 66.12ZM79.84 63.6L79.1941 64.3634L79.2079 64.3751L79.2222 64.3863L79.84 63.6ZM78.04 62.8L78.3107 61.8373L78.3107 61.8373L78.04 62.8ZM74.56 62.04L74.7389 61.0561L74.7265 61.054L74.56 62.04ZM69.24 60.52L68.8189 61.427L68.8256 61.4301L68.8323 61.4331L69.24 60.52ZM65.8 57.76L64.965 58.3103L64.9723 58.3213L64.9799 58.3322L65.8 57.76ZM66.08 48.84L65.2761 48.2451L65.2685 48.2557L66.08 48.84ZM70.16 45.72L69.7694 44.7994L69.7644 44.8016L70.16 45.72ZM81.36 45.36L81.0335 46.3052L81.0387 46.307L81.36 45.36ZM85.12 47.36L84.4879 48.1349L84.4941 48.1399L84.5004 48.1449L85.12 47.36ZM87.44 49.96L86.5718 50.4561L87.44 49.96ZM88.28 52.64H89.28V52.6244L89.2795 52.6088L88.28 52.64ZM88 53.28L87.2929 52.5729L87.2929 52.5729L88 53.28ZM79.92 53.36L79.4728 54.2544L79.4931 54.2646L79.5139 54.2738L79.92 53.36ZM79.32 52.84L78.3783 53.1763L78.4322 53.3274L78.5306 53.4539L79.32 52.84ZM78.32 51.84L78.8019 50.9638L78.8019 50.9638L78.32 51.84ZM74.2 51.88L74.7214 52.7333L74.7383 52.723L74.7547 52.712L74.2 51.88ZM73.92 54.24L73.2129 54.9471L73.2129 54.9471L73.92 54.24ZM75.48 55.04L75.174 55.992L75.1896 55.997L75.2053 56.0015L75.48 55.04ZM78.6 55.76L78.4039 56.7406L78.4289 56.7456L78.4542 56.7493L78.6 55.76ZM84.72 57.36L84.3109 58.2725L84.3167 58.2751L84.72 57.36ZM88.16 60.08L87.3188 60.6208L87.3188 60.6208L88.16 60.08ZM83.08 72.32L83.4355 73.2547L83.4424 73.252L83.08 72.32ZM76.56 72.4C73.8441 72.4 71.6509 72.0238 69.9427 71.3161L69.1773 73.1639C71.2024 74.0028 73.6759 74.4 76.56 74.4V72.4ZM69.9587 71.3229C68.2343 70.5732 67.0056 69.6418 66.202 68.5627L64.598 69.7573C65.6611 71.1849 67.2057 72.3068 69.1613 73.1571L69.9587 71.3229ZM66.216 68.582C65.4089 67.4425 65.0045 66.2807 64.9593 65.0823L62.9607 65.1577C63.0222 66.786 63.5777 68.3175 64.584 69.738L66.216 68.582ZM64.96 65.12C64.96 65.1127 64.9608 65.1305 64.9485 65.1614C64.9357 65.1934 64.9179 65.2163 64.9071 65.2271L63.4929 63.8129C63.1331 64.1727 62.96 64.6326 62.96 65.12H64.96ZM64.9071 65.2271C64.8963 65.2379 64.8734 65.2557 64.8414 65.2685C64.8105 65.2808 64.7927 65.28 64.8 65.28V63.28C64.3126 63.28 63.8527 63.4531 63.4929 63.8129L64.9071 65.2271ZM64.8 65.28H71.16V63.28H64.8V65.28ZM71.16 65.28C71.4308 65.28 71.5148 65.331 71.51 65.328L72.57 63.632C72.1385 63.3623 71.6358 63.28 71.16 63.28V65.28ZM71.5928 65.3744C71.7059 65.431 71.8602 65.5337 72.0556 65.7074L73.3844 64.2126C73.0998 63.9597 72.8008 63.7424 72.4872 63.5856L71.5928 65.3744ZM71.946 65.5932C72.23 65.9403 72.5558 66.2649 72.9198 66.5682L74.2002 65.0318C73.9242 64.8018 73.69 64.5664 73.494 64.3268L71.946 65.5932ZM72.96 66.6C73.3944 66.9258 73.9178 67.1701 74.4989 67.3536L75.1011 65.4464C74.6689 65.3099 74.3656 65.1542 74.16 65L72.96 66.6ZM74.5455 67.3671C75.1542 67.5273 75.8295 67.6 76.56 67.6V65.6C75.9571 65.6 75.4591 65.5394 75.0545 65.4329L74.5455 67.3671ZM76.56 67.6C77.85 67.6 78.9702 67.4355 79.8327 67.0215L78.9673 65.2185C78.4965 65.4445 77.7234 65.6 76.56 65.6V67.6ZM79.8614 67.0072C80.7495 66.5454 81.4 65.7889 81.4 64.72H79.4C79.4 64.8245 79.3838 65.0013 78.9386 65.2328L79.8614 67.0072ZM81.4 64.72C81.4 63.9433 81.0592 63.2862 80.4578 62.8137L79.2222 64.3863C79.3675 64.5005 79.4 64.59 79.4 64.72H81.4ZM80.4859 62.8366C79.9688 62.399 79.1953 62.0861 78.3107 61.8373L77.7693 63.7626C78.5913 63.9939 79.0179 64.2143 79.1941 64.3634L80.4859 62.8366ZM78.3107 61.8373C77.4137 61.5851 76.2187 61.3252 74.7389 61.0561L74.3811 63.0239C75.8346 63.2881 76.9596 63.5349 77.7693 63.7626L78.3107 61.8373ZM74.7265 61.054C72.7348 60.7177 71.0464 60.2313 69.6477 59.6069L68.8323 61.4331C70.4203 62.142 72.2785 62.669 74.3935 63.026L74.7265 61.054ZM69.6611 59.613C68.2994 58.9807 67.3024 58.1657 66.6201 57.1878L64.9799 58.3322C65.8976 59.6476 67.194 60.6726 68.8189 61.427L69.6611 59.613ZM66.635 57.2097C65.9904 56.2318 65.64 54.9934 65.64 53.44H63.64C63.64 55.2999 64.0629 56.9415 64.965 58.3103L66.635 57.2097ZM65.64 53.44C65.64 51.9041 66.061 50.5778 66.8915 49.4243L65.2685 48.2557C64.179 49.7689 63.64 51.5092 63.64 53.44H65.64ZM66.8838 49.4348C67.7516 48.2622 68.9618 47.325 70.5556 46.6384L69.7644 44.8016C67.8915 45.6083 66.3817 46.7511 65.2762 48.2452L66.8838 49.4348ZM70.5505 46.6406C72.1636 45.9562 74.0662 45.6 76.28 45.6V43.6C73.8538 43.6 71.6764 43.9904 69.7695 44.7994L70.5505 46.6406ZM76.28 45.6C78.1142 45.6 79.6934 45.8423 81.0335 46.3052L81.6865 44.4148C80.0933 43.8644 78.2858 43.6 76.28 43.6V45.6ZM81.0387 46.307C82.4416 46.783 83.5839 47.3974 84.4879 48.1349L85.7521 46.5851C84.6294 45.6692 83.2651 44.9504 81.6813 44.413L81.0387 46.307ZM84.5004 48.1449C85.4328 48.8811 86.1134 49.654 86.5718 50.4561L88.3082 49.4639C87.6999 48.3993 86.8338 47.4389 85.7396 46.5751L84.5004 48.1449ZM86.5718 50.4561C87.0446 51.2836 87.2601 52.0182 87.2805 52.6712L89.2795 52.6088C89.2466 51.5551 88.9021 50.5031 88.3082 49.4639L86.5718 50.4561ZM87.28 52.64C87.28 52.6348 87.2806 52.6254 87.283 52.6133C87.2856 52.6012 87.2894 52.5894 87.2938 52.5792C87.3034 52.5574 87.3098 52.556 87.2929 52.5729L88.7071 53.9871C89.0607 53.6335 89.28 53.173 89.28 52.64H87.28ZM87.2929 52.5729C87.2926 52.5732 87.3099 52.5564 87.3461 52.5409C87.3835 52.5248 87.4182 52.52 87.44 52.52V54.52C87.9359 54.52 88.3722 54.322 88.7071 53.9871L87.2929 52.5729ZM87.44 52.52H80.76V54.52H87.44V52.52ZM80.76 52.52C80.55 52.52 80.4135 52.485 80.3261 52.4462L79.5139 54.2738C79.9065 54.4483 80.33 54.52 80.76 54.52V52.52ZM80.3672 52.4656C80.3189 52.4414 80.2287 52.3795 80.1094 52.2261L78.5306 53.4539C78.7846 53.7805 79.0944 54.0652 79.4728 54.2544L80.3672 52.4656ZM80.2617 52.5037C80.012 51.8043 79.4391 51.3142 78.8019 50.9638L77.8381 52.7162C78.2676 52.9524 78.3613 53.129 78.3783 53.1763L80.2617 52.5037ZM78.8019 50.9638C78.0775 50.5653 77.2174 50.4 76.28 50.4V52.4C76.9959 52.4 77.4958 52.528 77.8381 52.7162L78.8019 50.9638ZM76.28 50.4C75.2798 50.4 74.3588 50.5723 73.6453 51.0479L74.7547 52.712C75.0012 52.5477 75.4668 52.4 76.28 52.4V50.4ZM73.6786 51.0267C72.8861 51.511 72.48 52.2832 72.48 53.2H74.48C74.48 52.9435 74.5539 52.8357 74.7214 52.7333L73.6786 51.0267ZM72.48 53.2C72.48 53.876 72.7398 54.474 73.2129 54.9471L74.6271 53.5329C74.5135 53.4193 74.48 53.324 74.48 53.2H72.48ZM73.2129 54.9471C73.6795 55.4137 74.388 55.7394 75.174 55.992L75.786 54.088C75.0787 53.8606 74.7471 53.6529 74.6271 53.5329L73.2129 54.9471ZM75.2053 56.0015C75.9901 56.2258 77.0605 56.4719 78.4039 56.7406L78.7961 54.7794C77.4728 54.5148 76.4632 54.2809 75.7547 54.0785L75.2053 56.0015ZM78.4542 56.7493C80.938 57.1153 82.8791 57.6307 84.3109 58.2725L85.1291 56.4475C83.4675 55.7027 81.3287 55.1513 78.7458 54.7707L78.4542 56.7493ZM84.3167 58.2751C85.7623 58.9121 86.7319 59.7077 87.3188 60.6208L89.0012 59.5392C88.1481 58.2123 86.8243 57.1945 85.1233 56.4449L84.3167 58.2751ZM87.3188 60.6208C87.9111 61.542 88.24 62.7418 88.24 64.28H90.24C90.24 62.4582 89.8489 60.858 89.0012 59.5392L87.3188 60.6208ZM88.24 64.28C88.24 65.9662 87.7587 67.3665 86.8206 68.5334L88.3794 69.7866C89.628 68.2335 90.24 66.3805 90.24 64.28H88.24ZM86.8206 68.5334C85.8555 69.734 84.5039 70.6933 82.7176 71.388L83.4424 73.252C85.4961 72.4534 87.1579 71.306 88.3794 69.7866L86.8206 68.5334ZM82.7246 71.3853C80.9659 72.0541 78.9168 72.4 76.56 72.4V74.4C79.1099 74.4 81.4074 74.0259 83.4354 73.2547L82.7246 71.3853ZM92.9875 72.72L92.2804 73.4271L92.3039 73.4506L92.329 73.4726L92.9875 72.72ZM92.9875 45.32L93.646 46.0726L93.6711 46.0506L93.6946 46.0271L92.9875 45.32ZM111.428 46.04L111.051 46.9665L111.056 46.9685L111.428 46.04ZM115.468 59.8L116.285 60.3767L116.29 60.3692L115.468 59.8ZM111.428 62.8L111.081 61.8619L111.076 61.8637L111.428 62.8ZM101.588 63.76V62.76H100.588V63.76H101.588ZM101.268 72.72L100.56 72.0129L101.268 72.72ZM101.428 57.32H100.428V58.32H101.428V57.32ZM107.147 56.64L107.795 57.4019L107.798 57.3993L107.147 56.64ZM107.347 52.4L108.168 51.8289L107.347 52.4ZM101.428 51.48V50.48H100.428V51.48H101.428ZM93.7075 72C93.6995 72 93.6952 71.9993 93.6937 71.999C93.6922 71.9988 93.6913 71.9985 93.6899 71.998C93.6887 71.9975 93.674 71.9919 93.646 71.9674L92.329 73.4726C92.7121 73.8078 93.1825 74 93.7075 74V72ZM93.6946 72.0129C93.6819 72.0002 93.6752 71.9914 93.6722 71.987C93.6693 71.9827 93.6688 71.9812 93.6691 71.9819C93.6695 71.9827 93.6693 71.9828 93.669 71.981C93.6686 71.979 93.6675 71.9725 93.6675 71.96H91.6675C91.6675 72.5269 91.8855 73.0322 92.2804 73.4271L93.6946 72.0129ZM93.6675 71.96V46.04H91.6675V71.96H93.6675ZM93.6675 46.04C93.6675 46.0274 93.6686 46.0234 93.6681 46.0261C93.6675 46.0291 93.6656 46.0365 93.6613 46.0461C93.657 46.0559 93.6519 46.0641 93.6475 46.07C93.6432 46.0757 93.6417 46.0763 93.646 46.0726L92.329 44.5674C91.8902 44.9514 91.6675 45.4698 91.6675 46.04H93.6675ZM93.6946 46.0271C93.7111 46.0106 93.7229 46.0014 93.7292 45.997C93.7353 45.9926 93.7368 45.9924 93.7336 45.9938C93.7303 45.9953 93.725 45.9972 93.7185 45.9985C93.7121 45.9999 93.708 46 93.7075 46V44C93.1399 44 92.6544 44.2389 92.2804 44.6129L93.6946 46.0271ZM93.7075 46H105.388V44H93.7075V46ZM105.388 46C107.611 46 109.491 46.3325 111.051 46.9665L111.804 45.1135C109.951 44.3608 107.804 44 105.388 44V46ZM111.056 46.9685C112.622 47.5949 113.803 48.5287 114.64 49.7619L116.295 48.6381C115.212 47.0446 113.699 45.8717 111.799 45.1115L111.056 46.9685ZM114.64 49.7619C115.463 50.9724 115.908 52.537 115.908 54.52H117.908C117.908 52.2363 117.392 50.2542 116.295 48.6381L114.64 49.7619ZM115.908 54.52C115.908 56.5039 115.462 58.0508 114.645 59.2308L116.29 60.3692C117.393 58.7758 117.908 56.8028 117.908 54.52H115.908ZM114.651 59.2233C113.82 60.4 112.646 61.284 111.081 61.8619L111.774 63.7381C113.675 63.036 115.195 61.92 116.284 60.3767L114.651 59.2233ZM111.076 61.8637C109.508 62.4518 107.619 62.76 105.388 62.76V64.76C107.796 64.76 109.934 64.4282 111.779 63.7363L111.076 61.8637ZM105.388 62.76H101.588V64.76H105.388V62.76ZM100.588 63.76V71.96H102.588V63.76H100.588ZM100.588 71.96C100.588 71.9725 100.586 71.979 100.586 71.981C100.586 71.9828 100.586 71.9827 100.586 71.9819C100.586 71.9812 100.586 71.9827 100.583 71.987C100.58 71.9914 100.573 72.0002 100.56 72.0129L101.975 73.4271C102.369 73.0322 102.588 72.5269 102.588 71.96H100.588ZM100.56 72.0129C100.56 72.013 100.563 72.0102 100.569 72.0065C100.575 72.0027 100.58 71.9998 100.585 71.998C100.59 71.9962 100.59 71.9966 100.585 71.9975C100.58 71.9984 100.568 72 100.548 72V74C101.074 74 101.579 73.823 101.975 73.4271L100.56 72.0129ZM100.548 72H93.7075V74H100.548V72ZM101.428 58.32H105.188V56.32H101.428V58.32ZM105.188 58.32C106.171 58.32 107.062 58.0254 107.795 57.4019L106.5 55.8781C106.167 56.1613 105.75 56.32 105.188 56.32V58.32ZM107.798 57.3993C108.648 56.6705 108.987 55.6143 108.987 54.44H106.987C106.987 55.2391 106.767 55.6495 106.497 55.8807L107.798 57.3993ZM108.987 54.44C108.987 53.489 108.712 52.6098 108.168 51.8289L106.527 52.9711C106.837 53.4169 106.987 53.8976 106.987 54.44H108.987ZM108.168 51.8289C107.492 50.857 106.401 50.48 105.188 50.48V52.48C106.001 52.48 106.349 52.7164 106.527 52.9711L108.168 51.8289ZM105.188 50.48H101.428V52.48H105.188V50.48ZM100.428 51.48V57.32H102.428V51.48H100.428ZM125.724 72.2L125.33 73.1192L125.335 73.1211L125.724 72.2ZM121.284 68.6L120.448 69.1484L120.453 69.1563L120.458 69.1642L121.284 68.6ZM119.564 62.56L118.564 62.5838L118.564 62.5933L119.564 62.56ZM119.564 55.56L118.564 55.5263L118.564 55.5373L119.564 55.56ZM121.284 49.56L120.454 49.0021L120.448 49.0116L121.284 49.56ZM125.764 45.88L126.164 46.7965L126.175 46.7917L125.764 45.88ZM139.004 45.88L138.593 46.7917L138.604 46.7965L139.004 45.88ZM145.204 55.56L144.204 55.5825L144.204 55.5939L144.205 55.6054L145.204 55.56ZM145.204 62.56L144.205 62.5124L144.205 62.5196L144.204 62.5267L145.204 62.56ZM143.444 68.6L142.614 68.0422L142.612 68.0453L143.444 68.6ZM139.004 72.2L138.615 71.2788L138.61 71.2809L139.004 72.2ZM135.164 65.6L135.843 66.3338L135.85 66.3271L135.857 66.3203L135.164 65.6ZM136.284 62.32L135.285 62.2735L135.284 62.2878L135.284 62.3021L136.284 62.32ZM136.284 55.68L135.284 55.707L135.284 55.7173L135.285 55.7276L136.284 55.68ZM135.724 53.24L134.829 53.6872L134.837 53.7019L134.844 53.7163L135.724 53.24ZM134.364 51.84L133.9 52.7258L133.908 52.7302L133.917 52.7344L134.364 51.84ZM130.404 51.84L129.957 50.9456V50.9456L130.404 51.84ZM129.004 53.24L128.124 52.7637L128.117 52.7781L128.109 52.7928L129.004 53.24ZM128.484 55.68L127.484 55.653L127.484 55.6562L128.484 55.68ZM128.484 62.32L127.484 62.3433L127.484 62.3557L128.484 62.32ZM129.604 65.6L128.897 66.3071L128.91 66.3207L128.924 66.3338L129.604 65.6ZM132.404 72.4C129.946 72.4 127.857 72.0157 126.113 71.2789L125.335 73.1211C127.377 73.9843 129.742 74.4 132.404 74.4V72.4ZM126.118 71.2809C124.417 70.552 123.09 69.4711 122.109 68.0358L120.458 69.1642C121.664 70.9289 123.297 72.248 125.33 73.1191L126.118 71.2809ZM122.12 68.0516C121.175 66.6107 120.639 64.7862 120.563 62.5267L118.564 62.5933C118.649 65.1338 119.259 67.3359 120.448 69.1484L122.12 68.0516ZM120.563 62.5362C120.537 61.4245 120.524 60.2858 120.524 59.12H118.524C118.524 60.3009 118.537 61.4555 118.564 62.5838L120.563 62.5362ZM120.524 59.12C120.524 57.9274 120.537 56.7483 120.563 55.5827L118.564 55.5373C118.537 56.7184 118.524 57.9126 118.524 59.12H120.524ZM120.563 55.5937C120.638 53.3631 121.174 51.551 122.12 50.1084L120.448 49.0116C119.26 50.8223 118.649 53.0102 118.564 55.5263L120.563 55.5937ZM122.114 50.1178C123.095 48.6579 124.435 47.5513 126.164 46.7965L125.364 44.9635C123.306 45.8621 121.659 47.2087 120.454 49.0022L122.114 50.1178ZM126.175 46.7917C127.914 46.0079 129.982 45.6 132.404 45.6V43.6C129.759 43.6 127.4 44.0454 125.353 44.9683L126.175 46.7917ZM132.404 45.6C134.798 45.6 136.853 46.0073 138.593 46.7917L139.415 44.9683C137.368 44.046 135.023 43.6 132.404 43.6V45.6ZM138.604 46.7965C140.332 47.5513 141.673 48.6579 142.654 50.1178L144.314 49.0022C143.108 47.2087 141.462 45.8621 139.404 44.9635L138.604 46.7965ZM142.654 50.1178C143.62 51.5553 144.154 53.3595 144.204 55.5825L146.203 55.5375C146.147 53.0138 145.534 50.8181 144.314 49.0022L142.654 50.1178ZM144.205 55.6054C144.257 56.7633 144.284 57.9348 144.284 59.12H146.284C146.284 57.9052 146.257 56.7034 146.203 55.5146L144.205 55.6054ZM144.284 59.12C144.284 60.2782 144.257 61.409 144.205 62.5124L146.203 62.6076C146.257 61.471 146.284 60.3085 146.284 59.12H144.284ZM144.204 62.5267C144.129 64.7817 143.581 66.6027 142.614 68.0422L144.274 69.1578C145.493 67.344 146.118 65.1383 146.203 62.5933L144.204 62.5267ZM142.612 68.0453C141.661 69.4711 140.341 70.5495 138.615 71.2789L139.393 73.1211C141.454 72.2505 143.093 70.9289 144.276 69.1547L142.612 68.0453ZM138.61 71.2809C136.894 72.0161 134.834 72.4 132.404 72.4V74.4C135.04 74.4 137.38 73.9839 139.398 73.1191L138.61 71.2809ZM132.404 67.6C133.737 67.6 134.912 67.1959 135.843 66.3338L134.484 64.8662C133.975 65.3374 133.31 65.6 132.404 65.6V67.6ZM135.857 66.3203C136.845 65.3689 137.255 63.9668 137.284 62.3379L135.284 62.3021C135.26 63.6599 134.922 64.4445 134.47 64.8797L135.857 66.3203ZM137.283 62.3665C137.337 61.2055 137.364 60.0833 137.364 59H135.364C135.364 60.0501 135.338 61.1412 135.285 62.2735L137.283 62.3665ZM137.364 59C137.364 57.8904 137.337 56.7679 137.283 55.6324L135.285 55.7276C135.337 56.8321 135.364 57.9229 135.364 59H137.364ZM137.283 55.653C137.254 54.5624 137.046 53.5822 136.603 52.7637L134.844 53.7163C135.094 54.1778 135.26 54.8243 135.284 55.707L137.283 55.653ZM136.618 52.7928C136.211 51.9779 135.609 51.3446 134.811 50.9456L133.917 52.7344C134.292 52.9221 134.597 53.2221 134.829 53.6872L136.618 52.7928ZM134.828 50.9542C134.101 50.5734 133.283 50.4 132.404 50.4V52.4C133.018 52.4 133.507 52.52 133.9 52.7258L134.828 50.9542ZM132.404 50.4C131.523 50.4 130.7 50.5738 129.957 50.9456L130.851 52.7344C131.281 52.5196 131.791 52.4 132.404 52.4V50.4ZM129.957 50.9456C129.166 51.3406 128.558 51.964 128.124 52.7637L129.883 53.7163C130.143 53.236 130.468 52.926 130.851 52.7344L129.957 50.9456ZM128.109 52.7928C127.704 53.6032 127.513 54.5724 127.484 55.653L129.483 55.707C129.508 54.8143 129.663 54.1568 129.898 53.6872L128.109 52.7928ZM127.484 55.6562C127.457 56.7839 127.444 57.8985 127.444 59H129.444C129.444 57.9148 129.457 56.8161 129.483 55.7038L127.484 55.6562ZM127.444 59C127.444 60.075 127.457 61.1894 127.484 62.3432L129.483 62.2967C129.457 61.1573 129.444 60.0584 129.444 59H127.444ZM127.484 62.3557C127.542 63.9731 127.951 65.361 128.897 66.3071L130.311 64.8929C129.87 64.4523 129.532 63.6536 129.483 62.2843L127.484 62.3557ZM128.924 66.3338C129.86 67.2001 131.05 67.6 132.404 67.6V65.6C131.464 65.6 130.788 65.3333 130.283 64.8662L128.924 66.3338ZM149.706 72.72L148.999 73.4271L149.023 73.4506L149.048 73.4726L149.706 72.72ZM149.706 45.32L150.365 46.0726L150.39 46.0506L150.413 46.0271L149.706 45.32ZM156.786 45.36L156.039 46.0244L156.058 46.0463L156.079 46.0671L156.786 45.36ZM157.226 45.84L158.075 45.3116L158.052 45.2747L158.026 45.24L157.226 45.84ZM165.466 59.08L164.617 59.6084L166.466 62.5794V59.08H165.466ZM165.786 45.32L166.445 46.0726L166.47 46.0507L166.493 46.0271L165.786 45.32ZM173.266 45.32L172.514 45.9785L172.558 46.0287L172.608 46.0726L173.266 45.32ZM173.266 72.72L173.973 73.4271L173.266 72.72ZM166.186 72.68L165.439 73.3444L165.458 73.3663L165.479 73.3871L166.186 72.68ZM165.746 72.16L164.912 72.711L164.928 72.736L164.946 72.76L165.746 72.16ZM157.506 59.68L158.341 59.129L156.506 56.3505V59.68H157.506ZM157.186 72.72L156.479 72.0129L157.186 72.72ZM150.426 72C150.418 72 150.414 71.9993 150.412 71.999C150.411 71.9988 150.41 71.9985 150.409 71.998C150.407 71.9975 150.393 71.9919 150.365 71.9674L149.048 73.4726C149.431 73.8078 149.901 74 150.426 74V72ZM150.413 72.0129C150.401 72.0002 150.394 71.9914 150.391 71.987C150.388 71.9827 150.388 71.9812 150.388 71.9819C150.388 71.9827 150.388 71.9828 150.388 71.981C150.387 71.979 150.386 71.9725 150.386 71.96H148.386C148.386 72.5269 148.604 73.0322 148.999 73.4271L150.413 72.0129ZM150.386 71.96V46.04H148.386V71.96H150.386ZM150.386 46.04C150.386 46.0274 150.387 46.0234 150.387 46.0261C150.386 46.0291 150.384 46.0365 150.38 46.0461C150.376 46.0559 150.371 46.0641 150.366 46.07C150.362 46.0757 150.36 46.0763 150.365 46.0726L149.048 44.5674C148.609 44.9514 148.386 45.4698 148.386 46.04H150.386ZM150.413 46.0271C150.43 46.0106 150.442 46.0014 150.448 45.997C150.454 45.9926 150.456 45.9924 150.452 45.9938C150.449 45.9953 150.444 45.9972 150.437 45.9985C150.431 45.9999 150.427 46 150.426 46V44C149.859 44 149.373 44.2389 148.999 44.6129L150.413 46.0271ZM150.426 46H155.746V44H150.426V46ZM155.746 46C155.907 46 155.998 46.0207 156.039 46.035C156.074 46.0471 156.061 46.0496 156.039 46.0244L157.534 44.6956C157.053 44.1548 156.369 44 155.746 44V46ZM156.079 46.0671C156.29 46.278 156.392 46.3949 156.426 46.44L158.026 45.24C157.9 45.0718 157.709 44.8687 157.493 44.6529L156.079 46.0671ZM156.377 46.3684L164.617 59.6084L166.315 58.5516L158.075 45.3116L156.377 46.3684ZM166.466 59.08V46.04H164.466V59.08H166.466ZM166.466 46.04C166.466 46.0274 166.467 46.0234 166.467 46.0261C166.466 46.0291 166.464 46.0365 166.46 46.0461C166.456 46.0559 166.451 46.0641 166.446 46.07C166.442 46.0757 166.44 46.0763 166.445 46.0726L165.128 44.5674C164.689 44.9514 164.466 45.4698 164.466 46.04H166.466ZM166.493 46.0271C166.51 46.0106 166.522 46.0014 166.528 45.997C166.534 45.9926 166.536 45.9924 166.532 45.9938C166.529 45.9953 166.524 45.9972 166.517 45.9985C166.511 45.9999 166.507 46 166.506 46V44C165.939 44 165.453 44.2389 165.079 44.6129L166.493 46.0271ZM166.506 46H172.546V44H166.506V46ZM172.546 46C172.559 46 172.563 46.0011 172.56 46.0006C172.557 46 172.55 45.9981 172.54 45.9938C172.53 45.9895 172.522 45.9844 172.516 45.98C172.511 45.9757 172.51 45.9742 172.514 45.9785L174.019 44.6615C173.635 44.2227 173.116 44 172.546 44V46ZM172.608 46.0726C172.612 46.0763 172.611 46.0757 172.606 46.07C172.602 46.0641 172.597 46.0559 172.592 46.0461C172.588 46.0365 172.586 46.0291 172.586 46.0261C172.585 46.0234 172.586 46.0274 172.586 46.04H174.586C174.586 45.4698 174.364 44.9514 173.925 44.5674L172.608 46.0726ZM172.586 46.04V71.96H174.586V46.04H172.586ZM172.586 71.96C172.586 71.9725 172.585 71.979 172.585 71.981C172.584 71.9828 172.584 71.9827 172.585 71.9819C172.585 71.9812 172.584 71.9827 172.582 71.987C172.579 71.9914 172.572 72.0002 172.559 72.0129L173.973 73.4271C174.368 73.0322 174.586 72.5269 174.586 71.96H172.586ZM172.559 72.0129C172.559 72.013 172.562 72.0102 172.568 72.0065C172.573 72.0027 172.579 71.9998 172.584 71.998C172.588 71.9962 172.589 71.9966 172.584 71.9975C172.579 71.9984 172.567 72 172.546 72V74C173.073 74 173.577 73.823 173.973 73.4271L172.559 72.0129ZM172.546 72H167.266V74H172.546V72ZM167.266 72C167.078 72 166.962 71.9796 166.9 71.9612C166.842 71.9438 166.857 71.9363 166.893 71.9729L165.479 73.3871C165.973 73.8811 166.664 74 167.266 74V72ZM166.934 72.0156C166.72 71.7757 166.599 71.6299 166.546 71.56L164.946 72.76C165.054 72.9034 165.225 73.1043 165.439 73.3444L166.934 72.0156ZM166.581 71.609L158.341 59.129L156.672 60.231L164.912 72.711L166.581 71.609ZM156.506 59.68V71.96H158.506V59.68H156.506ZM156.506 71.96C156.506 71.9725 156.505 71.979 156.505 71.981C156.504 71.9828 156.504 71.9827 156.505 71.9819C156.505 71.9812 156.504 71.9827 156.502 71.987C156.499 71.9914 156.492 72.0002 156.479 72.0129L157.893 73.4271C158.288 73.0322 158.506 72.5269 158.506 71.96H156.506ZM156.479 72.0129C156.479 72.013 156.482 72.0102 156.488 72.0065C156.493 72.0027 156.499 71.9998 156.504 71.998C156.508 71.9962 156.509 71.9966 156.504 71.9975C156.499 71.9984 156.487 72 156.466 72V74C156.993 74 157.497 73.823 157.893 73.4271L156.479 72.0129ZM156.466 72H150.426V74H156.466V72ZM182.685 72.24L182.286 73.1571L182.294 73.1605L182.302 73.1639L182.685 72.24ZM178.525 69.16L177.709 69.738L177.716 69.7477L177.723 69.7573L178.525 69.16ZM177.085 65.12H176.085V65.1389L176.086 65.1577L177.085 65.12ZM185.165 64.48L184.635 65.328L184.675 65.3532L184.718 65.3744L185.165 64.48ZM185.845 64.96L186.619 64.3268L186.569 64.2653L186.509 64.2126L185.845 64.96ZM186.685 65.8L186.045 66.5682L186.064 66.5846L186.085 66.6L186.685 65.8ZM187.925 66.4L187.624 67.3536L187.647 67.3609L187.671 67.3671L187.925 66.4ZM192.525 66.12L192.958 67.0215L192.972 67.0146L192.986 67.0072L192.525 66.12ZM192.965 63.6L192.319 64.3634L192.333 64.3751L192.347 64.3863L192.965 63.6ZM191.165 62.8L191.436 61.8373V61.8373L191.165 62.8ZM187.685 62.04L187.864 61.0561L187.851 61.054L187.685 62.04ZM182.365 60.52L181.944 61.427L181.951 61.4301L181.957 61.4331L182.365 60.52ZM178.925 57.76L178.09 58.3103L178.097 58.3213L178.105 58.3322L178.925 57.76ZM179.205 48.84L178.401 48.2451L178.393 48.2557L179.205 48.84ZM183.285 45.72L182.894 44.7994L182.889 44.8016L183.285 45.72ZM194.485 45.36L194.158 46.3052L194.164 46.307L194.485 45.36ZM198.245 47.36L197.613 48.1349L197.619 48.1399L197.625 48.1449L198.245 47.36ZM200.565 49.96L199.697 50.4561L200.565 49.96ZM201.405 52.64H202.405V52.6244L202.405 52.6088L201.405 52.64ZM201.125 53.28L200.418 52.5729V52.5729L201.125 53.28ZM193.045 53.36L192.598 54.2544L192.618 54.2646L192.639 54.2738L193.045 53.36ZM192.445 52.84L191.503 53.1763L191.557 53.3274L191.656 53.4539L192.445 52.84ZM191.445 51.84L191.927 50.9638V50.9638L191.445 51.84ZM187.325 51.88L187.846 52.7333L187.863 52.723L187.88 52.712L187.325 51.88ZM187.045 54.24L186.338 54.9471V54.9471L187.045 54.24ZM188.605 55.04L188.299 55.992L188.315 55.997L188.33 56.0015L188.605 55.04ZM191.725 55.76L191.529 56.7406L191.554 56.7456L191.579 56.7493L191.725 55.76ZM197.845 57.36L197.436 58.2725L197.442 58.2751L197.845 57.36ZM201.285 60.08L200.444 60.6208V60.6208L201.285 60.08ZM196.205 72.32L196.56 73.2547L196.567 73.252L196.205 72.32ZM189.685 72.4C186.969 72.4 184.776 72.0238 183.068 71.3161L182.302 73.1639C184.327 74.0028 186.801 74.4 189.685 74.4V72.4ZM183.084 71.3229C181.359 70.5732 180.131 69.6418 179.327 68.5627L177.723 69.7573C178.786 71.1849 180.331 72.3068 182.286 73.1571L183.084 71.3229ZM179.341 68.582C178.534 67.4425 178.13 66.2807 178.084 65.0823L176.086 65.1577C176.147 66.786 176.703 68.3175 177.709 69.738L179.341 68.582ZM178.085 65.12C178.085 65.1127 178.086 65.1305 178.073 65.1614C178.061 65.1934 178.043 65.2163 178.032 65.2271L176.618 63.8129C176.258 64.1727 176.085 64.6326 176.085 65.12H178.085ZM178.032 65.2271C178.021 65.2379 177.998 65.2557 177.966 65.2685C177.936 65.2808 177.918 65.28 177.925 65.28V63.28C177.438 63.28 176.978 63.4531 176.618 63.8129L178.032 65.2271ZM177.925 65.28H184.285V63.28H177.925V65.28ZM184.285 65.28C184.556 65.28 184.64 65.331 184.635 65.328L185.695 63.632C185.263 63.3623 184.761 63.28 184.285 63.28V65.28ZM184.718 65.3744C184.831 65.431 184.985 65.5337 185.181 65.7074L186.509 64.2126C186.225 63.9597 185.926 63.7424 185.612 63.5856L184.718 65.3744ZM185.071 65.5932C185.355 65.9403 185.681 66.2649 186.045 66.5682L187.325 65.0318C187.049 64.8018 186.815 64.5664 186.619 64.3268L185.071 65.5932ZM186.085 66.6C186.519 66.9258 187.043 67.1701 187.624 67.3536L188.226 65.4464C187.794 65.3099 187.491 65.1542 187.285 65L186.085 66.6ZM187.671 67.3671C188.279 67.5273 188.955 67.6 189.685 67.6V65.6C189.082 65.6 188.584 65.5394 188.179 65.4329L187.671 67.3671ZM189.685 67.6C190.975 67.6 192.095 67.4355 192.958 67.0215L192.092 65.2185C191.621 65.4445 190.848 65.6 189.685 65.6V67.6ZM192.986 67.0072C193.875 66.5454 194.525 65.7889 194.525 64.72H192.525C192.525 64.8245 192.509 65.0013 192.064 65.2328L192.986 67.0072ZM194.525 64.72C194.525 63.9433 194.184 63.2862 193.583 62.8137L192.347 64.3863C192.492 64.5005 192.525 64.59 192.525 64.72H194.525ZM193.611 62.8366C193.094 62.399 192.32 62.0861 191.436 61.8373L190.894 63.7626C191.716 63.9939 192.143 64.2143 192.319 64.3634L193.611 62.8366ZM191.436 61.8373C190.539 61.5851 189.344 61.3252 187.864 61.0561L187.506 63.0239C188.96 63.2881 190.085 63.5349 190.894 63.7626L191.436 61.8373ZM187.851 61.054C185.86 60.7177 184.171 60.2313 182.773 59.6069L181.957 61.4331C183.545 62.142 185.403 62.669 187.519 63.026L187.851 61.054ZM182.786 59.613C181.424 58.9807 180.427 58.1657 179.745 57.1878L178.105 58.3322C179.023 59.6476 180.319 60.6726 181.944 61.427L182.786 59.613ZM179.76 57.2097C179.115 56.2318 178.765 54.9934 178.765 53.44H176.765C176.765 55.2999 177.188 56.9415 178.09 58.3103L179.76 57.2097ZM178.765 53.44C178.765 51.9041 179.186 50.5778 180.017 49.4243L178.393 48.2557C177.304 49.7689 176.765 51.5092 176.765 53.44H178.765ZM180.009 49.4348C180.877 48.2622 182.087 47.325 183.681 46.6384L182.889 44.8016C181.017 45.6083 179.507 46.7511 178.401 48.2452L180.009 49.4348ZM183.676 46.6406C185.289 45.9562 187.191 45.6 189.405 45.6V43.6C186.979 43.6 184.801 43.9904 182.894 44.7994L183.676 46.6406ZM189.405 45.6C191.239 45.6 192.818 45.8423 194.158 46.3052L194.812 44.4148C193.218 43.8644 191.411 43.6 189.405 43.6V45.6ZM194.164 46.307C195.567 46.783 196.709 47.3974 197.613 48.1349L198.877 46.5851C197.754 45.6692 196.39 44.9504 194.806 44.413L194.164 46.307ZM197.625 48.1449C198.558 48.8811 199.238 49.654 199.697 50.4561L201.433 49.4639C200.825 48.3993 199.959 47.4389 198.865 46.5751L197.625 48.1449ZM199.697 50.4561C200.17 51.2836 200.385 52.0182 200.405 52.6712L202.405 52.6088C202.372 51.5551 202.027 50.5031 201.433 49.4639L199.697 50.4561ZM200.405 52.64C200.405 52.6348 200.406 52.6254 200.408 52.6133C200.411 52.6012 200.414 52.5894 200.419 52.5792C200.428 52.5574 200.435 52.556 200.418 52.5729L201.832 53.9871C202.186 53.6335 202.405 53.173 202.405 52.64H200.405ZM200.418 52.5729C200.418 52.5732 200.435 52.5564 200.471 52.5409C200.508 52.5248 200.543 52.52 200.565 52.52V54.52C201.061 54.52 201.497 54.322 201.832 53.9871L200.418 52.5729ZM200.565 52.52H193.885V54.52H200.565V52.52ZM193.885 52.52C193.675 52.52 193.539 52.485 193.451 52.4462L192.639 54.2738C193.031 54.4483 193.455 54.52 193.885 54.52V52.52ZM193.492 52.4656C193.444 52.4414 193.354 52.3795 193.234 52.2261L191.656 53.4539C191.91 53.7805 192.219 54.0652 192.598 54.2544L193.492 52.4656ZM193.387 52.5037C193.137 51.8043 192.564 51.3142 191.927 50.9638L190.963 52.7162C191.393 52.9524 191.486 53.129 191.503 53.1763L193.387 52.5037ZM191.927 50.9638C191.202 50.5653 190.342 50.4 189.405 50.4V52.4C190.121 52.4 190.621 52.528 190.963 52.7162L191.927 50.9638ZM189.405 50.4C188.405 50.4 187.484 50.5723 186.77 51.0479L187.88 52.712C188.126 52.5477 188.592 52.4 189.405 52.4V50.4ZM186.804 51.0267C186.011 51.511 185.605 52.2832 185.605 53.2H187.605C187.605 52.9435 187.679 52.8357 187.846 52.7333L186.804 51.0267ZM185.605 53.2C185.605 53.876 185.865 54.474 186.338 54.9471L187.752 53.5329C187.639 53.4193 187.605 53.324 187.605 53.2H185.605ZM186.338 54.9471C186.805 55.4137 187.513 55.7394 188.299 55.992L188.911 54.088C188.204 53.8606 187.872 53.6529 187.752 53.5329L186.338 54.9471ZM188.33 56.0015C189.115 56.2258 190.186 56.4719 191.529 56.7406L191.921 54.7794C190.598 54.5148 189.588 54.2809 188.88 54.0785L188.33 56.0015ZM191.579 56.7493C194.063 57.1153 196.004 57.6307 197.436 58.2725L198.254 56.4475C196.593 55.7027 194.454 55.1513 191.871 54.7707L191.579 56.7493ZM197.442 58.2751C198.887 58.9121 199.857 59.7077 200.444 60.6208L202.126 59.5392C201.273 58.2123 199.949 57.1945 198.248 56.4449L197.442 58.2751ZM200.444 60.6208C201.036 61.542 201.365 62.7418 201.365 64.28H203.365C203.365 62.4582 202.974 60.858 202.126 59.5392L200.444 60.6208ZM201.365 64.28C201.365 65.9662 200.884 67.3665 199.946 68.5334L201.504 69.7866C202.753 68.2335 203.365 66.3805 203.365 64.28H201.365ZM199.946 68.5334C198.98 69.734 197.629 70.6933 195.843 71.388L196.567 73.252C198.621 72.4534 200.283 71.306 201.504 69.7866L199.946 68.5334ZM195.85 71.3853C194.091 72.0541 192.042 72.4 189.685 72.4V74.4C192.235 74.4 194.532 74.0259 196.56 73.2547L195.85 71.3853ZM211.193 72.2L210.799 73.1192L210.803 73.1211L211.193 72.2ZM206.753 68.6L205.916 69.1484L205.921 69.1563L205.927 69.1642L206.753 68.6ZM205.033 62.56L204.033 62.5838L204.033 62.5933L205.033 62.56ZM205.033 55.56L204.033 55.5263L204.033 55.5373L205.033 55.56ZM206.753 49.56L205.923 49.0021L205.916 49.0116L206.753 49.56ZM211.232 45.88L211.633 46.7965L211.643 46.7917L211.232 45.88ZM224.473 45.88L224.062 46.7917L224.072 46.7965L224.473 45.88ZM230.673 55.56L229.673 55.5825L229.673 55.5939L229.674 55.6054L230.673 55.56ZM230.673 62.56L229.674 62.5124L229.673 62.5196L229.673 62.5267L230.673 62.56ZM228.913 68.6L228.083 68.0422L228.08 68.0453L228.913 68.6ZM224.473 72.2L224.083 71.2788L224.079 71.2809L224.473 72.2ZM220.633 65.6L221.312 66.3338L221.319 66.3271L221.326 66.3203L220.633 65.6ZM221.753 62.32L220.754 62.2735L220.753 62.2878L220.753 62.3021L221.753 62.32ZM221.753 55.68L220.753 55.707L220.753 55.7173L220.754 55.7276L221.753 55.68ZM221.193 53.24L220.298 53.6872L220.305 53.7019L220.313 53.7163L221.193 53.24ZM219.833 51.84L219.368 52.7258L219.377 52.7302L219.385 52.7344L219.833 51.84ZM215.872 51.84L215.425 50.9456V50.9456L215.872 51.84ZM214.473 53.24L213.593 52.7637L213.585 52.7781L213.578 52.7928L214.473 53.24ZM213.952 55.68L212.953 55.653L212.953 55.6562L213.952 55.68ZM213.952 62.32L212.953 62.3433L212.953 62.3557L213.952 62.32ZM215.072 65.6L214.365 66.3071L214.379 66.3207L214.393 66.3338L215.072 65.6ZM217.872 72.4C215.414 72.4 213.326 72.0157 211.582 71.2789L210.803 73.1211C212.846 73.9843 215.211 74.4 217.872 74.4V72.4ZM211.586 71.2809C209.886 70.552 208.559 69.4711 207.578 68.0358L205.927 69.1642C207.133 70.9289 208.766 72.248 210.799 73.1191L211.586 71.2809ZM207.589 68.0516C206.644 66.6107 206.107 64.7862 206.032 62.5267L204.033 62.5933C204.118 65.1338 204.728 67.3359 205.916 69.1484L207.589 68.0516ZM206.032 62.5362C206.006 61.4245 205.992 60.2858 205.992 59.12H203.992C203.992 60.3009 204.006 61.4555 204.033 62.5838L206.032 62.5362ZM205.992 59.12C205.992 57.9274 206.006 56.7483 206.032 55.5827L204.033 55.5373C204.006 56.7184 203.992 57.9126 203.992 59.12H205.992ZM206.032 55.5937C206.107 53.3631 206.643 51.551 207.589 50.1084L205.916 49.0116C204.729 50.8223 204.118 53.0102 204.033 55.5263L206.032 55.5937ZM207.582 50.1178C208.564 48.6579 209.904 47.5513 211.633 46.7965L210.832 44.9635C208.774 45.8621 207.128 47.2087 205.923 49.0022L207.582 50.1178ZM211.643 46.7917C213.382 46.0079 215.45 45.6 217.872 45.6V43.6C215.228 43.6 212.869 44.0454 210.822 44.9683L211.643 46.7917ZM217.872 45.6C220.266 45.6 222.321 46.0073 224.062 46.7917L224.883 44.9683C222.837 44.046 220.492 43.6 217.872 43.6V45.6ZM224.072 46.7965C225.801 47.5513 227.141 48.6579 228.123 50.1178L229.782 49.0022C228.577 47.2087 226.931 45.8621 224.873 44.9635L224.072 46.7965ZM228.123 50.1178C229.089 51.5553 229.623 53.3595 229.673 55.5825L231.672 55.5375C231.616 53.0138 231.003 50.8181 229.782 49.0022L228.123 50.1178ZM229.674 55.6054C229.726 56.7633 229.753 57.9348 229.753 59.12H231.753C231.753 57.9052 231.726 56.7034 231.671 55.5146L229.674 55.6054ZM229.753 59.12C229.753 60.2782 229.726 61.409 229.674 62.5124L231.671 62.6076C231.725 61.471 231.753 60.3085 231.753 59.12H229.753ZM229.673 62.5267C229.598 64.7817 229.05 66.6027 228.083 68.0422L229.742 69.1578C230.962 67.344 231.587 65.1383 231.672 62.5933L229.673 62.5267ZM228.08 68.0453C227.13 69.4711 225.809 70.5495 224.083 71.2789L224.862 73.1211C226.922 72.2505 228.562 70.9289 229.745 69.1547L228.08 68.0453ZM224.079 71.2809C222.363 72.0161 220.303 72.4 217.872 72.4V74.4C220.509 74.4 222.849 73.9839 224.866 73.1191L224.079 71.2809ZM217.872 67.6C219.206 67.6 220.381 67.1959 221.312 66.3338L219.953 64.8662C219.444 65.3374 218.779 65.6 217.872 65.6V67.6ZM221.326 66.3203C222.314 65.3689 222.723 63.9668 222.752 62.3379L220.753 62.3021C220.728 63.6599 220.391 64.4445 219.939 64.8797L221.326 66.3203ZM222.751 62.3665C222.805 61.2055 222.833 60.0833 222.833 59H220.833C220.833 60.0501 220.806 61.1412 220.754 62.2735L222.751 62.3665ZM222.833 59C222.833 57.8904 222.805 56.7679 222.751 55.6324L220.754 55.7276C220.806 56.8321 220.833 57.9229 220.833 59H222.833ZM222.752 55.653C222.723 54.5624 222.515 53.5822 222.072 52.7637L220.313 53.7163C220.563 54.1778 220.729 54.8243 220.753 55.707L222.752 55.653ZM222.087 52.7928C221.679 51.9779 221.078 51.3446 220.28 50.9456L219.385 52.7344C219.761 52.9221 220.066 53.2221 220.298 53.6872L222.087 52.7928ZM220.297 50.9542C219.57 50.5734 218.752 50.4 217.872 50.4V52.4C218.487 52.4 218.975 52.52 219.368 52.7258L220.297 50.9542ZM217.872 50.4C216.992 50.4 216.169 50.5738 215.425 50.9456L216.32 52.7344C216.749 52.5196 217.259 52.4 217.872 52.4V50.4ZM215.425 50.9456C214.635 51.3406 214.026 51.964 213.593 52.7637L215.352 53.7163C215.612 53.236 215.937 52.926 216.32 52.7344L215.425 50.9456ZM213.578 52.7928C213.173 53.6032 212.982 54.5724 212.953 55.653L214.952 55.707C214.976 54.8143 215.132 54.1568 215.367 53.6872L213.578 52.7928ZM212.953 55.6562C212.926 56.7839 212.913 57.8985 212.913 59H214.913C214.913 57.9148 214.926 56.8161 214.952 55.7038L212.953 55.6562ZM212.913 59C212.913 60.075 212.926 61.1894 212.953 62.3432L214.952 62.2967C214.926 61.1573 214.913 60.0584 214.913 59H212.913ZM212.953 62.3557C213.011 63.9731 213.419 65.361 214.365 66.3071L215.78 64.8929C215.339 64.4523 215.001 63.6536 214.952 62.2843L212.953 62.3557ZM214.393 66.3338C215.329 67.2001 216.519 67.6 217.872 67.6V65.6C216.932 65.6 216.256 65.3333 215.752 64.8662L214.393 66.3338ZM235.175 72.72L234.468 73.4271L234.491 73.4506L234.516 73.4726L235.175 72.72ZM235.175 45.32L235.833 46.0726L235.859 46.0506L235.882 46.0271L235.175 45.32ZM255.815 47.48L255.188 48.2589L255.193 48.2628L255.815 47.48ZM254.295 62.24L253.821 61.3595L252.932 61.8382L253.419 62.7225L254.295 62.24ZM259.495 71.68L260.389 71.2328L260.381 71.215L260.371 71.1975L259.495 71.68ZM259.375 72.76L260.082 73.4671L260.109 73.44L260.134 73.4108L259.375 72.76ZM250.855 72.64L250.148 73.3471L250.166 73.3657L250.186 73.3833L250.855 72.64ZM250.335 71.92L251.271 71.5689L251.255 71.5252L251.235 71.4833L250.335 71.92ZM246.335 63.68L247.235 63.2433L246.961 62.68H246.335V63.68ZM243.455 63.68V62.68H242.455V63.68H243.455ZM243.135 72.72L243.842 73.4271L243.135 72.72ZM243.455 57.08H242.455V58.08H243.455V57.08ZM249.335 56.32L250.08 56.9868L250.089 56.9773L250.097 56.9676L249.335 56.32ZM249.335 52.32L248.54 52.926L248.548 52.9378L248.558 52.9492L249.335 52.32ZM243.455 51.48V50.48H242.455V51.48H243.455ZM235.895 72C235.887 72 235.883 71.9993 235.881 71.999C235.88 71.9988 235.879 71.9985 235.877 71.998C235.876 71.9975 235.861 71.9919 235.834 71.9674L234.516 73.4726C234.9 73.8078 235.37 74 235.895 74V72ZM235.882 72.0129C235.869 72.0002 235.863 71.9914 235.86 71.987C235.857 71.9827 235.856 71.9812 235.857 71.9819C235.857 71.9827 235.857 71.9828 235.856 71.981C235.856 71.979 235.855 71.9725 235.855 71.96H233.855C233.855 72.5269 234.073 73.0322 234.468 73.4271L235.882 72.0129ZM235.855 71.96V46.04H233.855V71.96H235.855ZM235.855 46.04C235.855 46.0274 235.856 46.0234 235.856 46.0261C235.855 46.0291 235.853 46.0365 235.849 46.0461C235.844 46.0559 235.839 46.0641 235.835 46.07C235.831 46.0757 235.829 46.0763 235.833 46.0726L234.516 44.5674C234.078 44.9514 233.855 45.4698 233.855 46.04H235.855ZM235.882 46.0271C235.899 46.0106 235.91 46.0014 235.917 45.997C235.923 45.9926 235.924 45.9924 235.921 45.9938C235.918 45.9953 235.912 45.9972 235.906 45.9985C235.9 45.9999 235.895 46 235.895 46V44C235.327 44 234.842 44.2389 234.468 44.6129L235.882 46.0271ZM235.895 46H247.295V44H235.895V46ZM247.295 46C250.778 46 253.369 46.7941 255.188 48.2589L256.442 46.7011C254.155 44.8592 251.065 44 247.295 44V46ZM255.193 48.2628C257.005 49.7031 257.935 51.7053 257.935 54.4H259.935C259.935 51.1747 258.785 48.5635 256.437 46.6972L255.193 48.2628ZM257.935 54.4C257.935 56.1111 257.546 57.4987 256.818 58.6132L258.492 59.7068C259.471 58.208 259.935 56.4223 259.935 54.4H257.935ZM256.818 58.6132C256.057 59.7787 255.062 60.6913 253.821 61.3595L254.769 63.1205C256.301 62.2954 257.547 61.1546 258.492 59.7068L256.818 58.6132ZM253.419 62.7225L258.619 72.1625L260.371 71.1975L255.171 61.7575L253.419 62.7225ZM258.601 72.1272C258.608 72.1425 258.613 72.154 258.616 72.1619C258.619 72.1698 258.62 72.1735 258.62 72.1731C258.62 72.1725 258.615 72.1536 258.615 72.12H260.615C260.615 71.7877 260.516 71.4864 260.389 71.2328L258.601 72.1272ZM258.615 72.12C258.615 72.1242 258.615 72.1243 258.615 72.1212C258.616 72.118 258.617 72.1136 258.619 72.1089C258.62 72.1041 258.622 72.1012 258.623 72.1005C258.623 72.0999 258.621 72.1029 258.616 72.1092L260.134 73.4108C260.445 73.0477 260.615 72.605 260.615 72.12H258.615ZM258.668 72.0529C258.679 72.0421 258.702 72.0243 258.734 72.0115C258.764 71.9992 258.782 72 258.775 72V74C259.262 74 259.722 73.8269 260.082 73.4671L258.668 72.0529ZM258.775 72H252.015V74H258.775V72ZM252.015 72C251.654 72 251.543 71.9143 251.524 71.8967L250.186 73.3833C250.7 73.8457 251.363 74 252.015 74V72ZM251.562 71.9329C251.457 71.8276 251.384 71.7414 251.336 71.6745C251.312 71.6416 251.296 71.6158 251.285 71.5972C251.28 71.588 251.277 71.581 251.275 71.5761C251.272 71.5713 251.271 71.5689 251.271 71.5689L249.399 72.2711C249.551 72.6779 249.838 73.0373 250.148 73.3471L251.562 71.9329ZM251.235 71.4833L247.235 63.2433L245.435 64.1167L249.435 72.3567L251.235 71.4833ZM246.335 62.68H243.455V64.68H246.335V62.68ZM242.455 63.68V71.96H244.455V63.68H242.455ZM242.455 71.96C242.455 71.9725 242.454 71.979 242.454 71.981C242.453 71.9828 242.453 71.9827 242.453 71.9819C242.454 71.9812 242.453 71.9827 242.45 71.987C242.447 71.9914 242.441 72.0002 242.428 72.0129L243.842 73.4271C244.237 73.0322 244.455 72.5269 244.455 71.96H242.455ZM242.428 72.0129C242.428 72.013 242.431 72.0102 242.436 72.0065C242.442 72.0027 242.448 71.9998 242.453 71.998C242.457 71.9962 242.458 71.9966 242.453 71.9975C242.447 71.9984 242.435 72 242.415 72V74C242.941 74 243.446 73.823 243.842 73.4271L242.428 72.0129ZM242.415 72H235.895V74H242.415V72ZM243.455 58.08H247.255V56.08H243.455V58.08ZM247.255 58.08C248.362 58.08 249.374 57.7758 250.08 56.9868L248.59 55.6532C248.389 55.8776 248.014 56.08 247.255 56.08V58.08ZM250.097 56.9676C250.72 56.2342 251.015 55.344 251.015 54.36H249.015C249.015 54.9227 248.856 55.3391 248.573 55.6723L250.097 56.9676ZM251.015 54.36C251.015 53.3578 250.726 52.4486 250.112 51.6908L248.558 52.9492C248.851 53.3113 249.015 53.7622 249.015 54.36H251.015ZM250.13 51.714C249.451 50.8227 248.405 50.48 247.255 50.48V52.48C248.025 52.48 248.365 52.6973 248.54 52.926L250.13 51.714ZM247.255 50.48H243.455V52.48H247.255V50.48ZM242.455 51.48V57.08H244.455V51.48H242.455ZM263.456 72.72L262.749 73.4271L262.773 73.4506L262.798 73.4726L263.456 72.72ZM263.456 45.32L264.115 46.0726L264.14 46.0506L264.163 46.0271L263.456 45.32ZM284.536 45.32L283.829 46.0271L283.853 46.0506L283.878 46.0726L284.536 45.32ZM284.536 51.48L283.829 50.7729V50.7729L284.536 51.48ZM271.416 51.8V50.8H270.416V51.8H271.416ZM271.416 55.76H270.416V56.76H271.416V55.76ZM283.656 56.08L282.949 56.7871L282.973 56.8106L282.998 56.8326L283.656 56.08ZM283.656 61.88L284.315 62.6326L284.34 62.6106L284.363 62.5871L283.656 61.88ZM271.416 62.16V61.16H270.416V62.16H271.416ZM271.416 66.2H270.416V67.2H271.416V66.2ZM284.856 66.52L284.149 67.2271L284.856 66.52ZM284.856 72.72L285.515 73.4726L285.54 73.4507L285.563 73.4271L284.856 72.72ZM264.176 72C264.168 72 264.164 71.9993 264.162 71.999C264.161 71.9988 264.16 71.9985 264.159 71.998C264.157 71.9975 264.143 71.9919 264.115 71.9674L262.798 73.4726C263.181 73.8078 263.651 74 264.176 74V72ZM264.163 72.0129C264.151 72.0002 264.144 71.9914 264.141 71.987C264.138 71.9827 264.138 71.9812 264.138 71.9819C264.138 71.9827 264.138 71.9828 264.138 71.981C264.137 71.979 264.136 71.9725 264.136 71.96H262.136C262.136 72.5269 262.354 73.0322 262.749 73.4271L264.163 72.0129ZM264.136 71.96V46.04H262.136V71.96H264.136ZM264.136 46.04C264.136 46.0274 264.137 46.0234 264.137 46.0261C264.136 46.0291 264.134 46.0365 264.13 46.0461C264.126 46.0559 264.121 46.0641 264.116 46.07C264.112 46.0757 264.11 46.0763 264.115 46.0726L262.798 44.5674C262.359 44.9514 262.136 45.4698 262.136 46.04H264.136ZM264.163 46.0271C264.18 46.0106 264.192 46.0014 264.198 45.997C264.204 45.9926 264.206 45.9924 264.202 45.9938C264.199 45.9953 264.194 45.9972 264.187 45.9985C264.181 45.9999 264.177 46 264.176 46V44C263.609 44 263.123 44.2389 262.749 44.6129L264.163 46.0271ZM264.176 46H283.776V44H264.176V46ZM283.776 46C283.789 46 283.795 46.0011 283.797 46.0015C283.799 46.0018 283.799 46.002 283.798 46.0016C283.797 46.0013 283.799 46.0018 283.803 46.0047C283.808 46.0077 283.816 46.0144 283.829 46.0271L285.243 44.6129C284.848 44.218 284.343 44 283.776 44V46ZM283.878 46.0726C283.882 46.0763 283.881 46.0757 283.876 46.07C283.872 46.0641 283.867 46.0559 283.862 46.0461C283.858 46.0365 283.856 46.0291 283.856 46.0261C283.855 46.0234 283.856 46.0274 283.856 46.04H285.856C285.856 45.4698 285.634 44.9514 285.195 44.5674L283.878 46.0726ZM283.856 46.04V50.76H285.856V46.04H283.856ZM283.856 50.76C283.856 50.76 283.856 50.76 283.856 50.76C283.856 50.76 283.856 50.76 283.856 50.7599C283.856 50.7599 283.856 50.7598 283.856 50.7598C283.856 50.7596 283.856 50.7594 283.856 50.7591C283.856 50.7585 283.856 50.7577 283.856 50.7567C283.857 50.7546 283.857 50.752 283.858 50.749C283.859 50.7425 283.861 50.7372 283.862 50.7339C283.864 50.7307 283.864 50.7322 283.859 50.7383C283.855 50.7446 283.846 50.7564 283.829 50.7729L285.243 52.1871C285.617 51.8131 285.856 51.3276 285.856 50.76H283.856ZM283.829 50.7729C283.816 50.7856 283.808 50.7923 283.803 50.7953C283.799 50.7982 283.797 50.7987 283.798 50.7984C283.799 50.798 283.799 50.7982 283.797 50.7985C283.795 50.7989 283.789 50.8 283.776 50.8V52.8C284.343 52.8 284.848 52.582 285.243 52.1871L283.829 50.7729ZM283.776 50.8H271.416V52.8H283.776V50.8ZM270.416 51.8V55.76H272.416V51.8H270.416ZM271.416 56.76H282.896V54.76H271.416V56.76ZM282.896 56.76C282.909 56.76 282.915 56.7611 282.917 56.7615C282.919 56.7618 282.919 56.762 282.918 56.7616C282.917 56.7613 282.919 56.7618 282.923 56.7647C282.928 56.7677 282.936 56.7744 282.949 56.7871L284.363 55.3729C283.968 54.978 283.463 54.76 282.896 54.76V56.76ZM282.998 56.8326C283.002 56.8363 283.001 56.8357 282.996 56.83C282.992 56.8241 282.987 56.8159 282.982 56.8061C282.978 56.7965 282.976 56.7891 282.976 56.7861C282.975 56.7834 282.976 56.7874 282.976 56.8H284.976C284.976 56.2298 284.754 55.7114 284.315 55.3274L282.998 56.8326ZM282.976 56.8V61.12H284.976V56.8H282.976ZM282.976 61.12C282.976 61.1325 282.975 61.139 282.975 61.141C282.974 61.1428 282.974 61.1427 282.975 61.1419C282.975 61.1412 282.974 61.1427 282.972 61.147C282.969 61.1514 282.962 61.1602 282.949 61.1729L284.363 62.5871C284.758 62.1922 284.976 61.6869 284.976 61.12H282.976ZM282.998 61.1274C282.974 61.1486 282.957 61.16 282.896 61.16V63.16C283.423 63.16 283.912 62.9847 284.315 62.6326L282.998 61.1274ZM282.896 61.16H271.416V63.16H282.896V61.16ZM270.416 62.16V66.2H272.416V62.16H270.416ZM271.416 67.2H284.096V65.2H271.416V67.2ZM284.096 67.2C284.109 67.2 284.115 67.2011 284.117 67.2015C284.119 67.2018 284.119 67.202 284.118 67.2016C284.117 67.2013 284.119 67.2018 284.123 67.2047C284.128 67.2077 284.136 67.2144 284.149 67.2271L285.563 65.8129C285.168 65.418 284.663 65.2 284.096 65.2V67.2ZM284.149 67.2271C284.162 67.2398 284.169 67.2486 284.172 67.253C284.174 67.2573 284.175 67.2588 284.175 67.2581C284.174 67.2573 284.174 67.2572 284.175 67.259C284.175 67.261 284.176 67.2675 284.176 67.28H286.176C286.176 66.7131 285.958 66.2078 285.563 65.8129L284.149 67.2271ZM284.176 67.28V71.96H286.176V67.28H284.176ZM284.176 71.96C284.176 71.9725 284.175 71.979 284.175 71.981C284.174 71.9828 284.174 71.9827 284.175 71.9819C284.175 71.9812 284.174 71.9827 284.172 71.987C284.169 71.9914 284.162 72.0002 284.149 72.0129L285.563 73.4271C285.958 73.0322 286.176 72.5269 286.176 71.96H284.176ZM284.198 71.9674C284.174 71.9886 284.157 72 284.096 72V74C284.623 74 285.112 73.8247 285.515 73.4726L284.198 71.9674ZM284.096 72H264.176V74H284.096V72ZM289.589 72.72L288.882 73.4271L288.906 73.4506L288.931 73.4726L289.589 72.72ZM289.589 45.32L290.248 46.0726L290.273 46.0506L290.296 46.0271L289.589 45.32ZM307.989 46.28L307.578 47.1917L307.589 47.1965L307.989 46.28ZM314.229 55.96L313.23 55.9937L313.23 56.0065L314.229 55.96ZM314.229 62L313.23 61.9524L313.23 61.9575L314.229 62ZM312.509 68.2L311.666 67.6613L311.66 67.6713L312.509 68.2ZM308.189 71.84L308.572 72.7639L308.583 72.7591L308.189 71.84ZM297.869 66.2H296.869V67.2H297.869V66.2ZM303.509 65.76L303.078 64.8579V64.8579L303.509 65.76ZM304.949 64.4L305.82 64.8921L305.824 64.8842L305.828 64.8763L304.949 64.4ZM305.509 61.96L304.51 61.9255L304.509 61.933L305.509 61.96ZM305.549 59.88L304.55 59.8366L304.549 59.8583V59.88H305.549ZM305.549 58.04H304.549V58.0617L304.55 58.0834L305.549 58.04ZM305.509 56L306.508 55.9643L306.508 55.9637L305.509 56ZM304.229 52.8L303.576 53.5574L303.582 53.5629L303.589 53.5682L304.229 52.8ZM297.869 51.8V50.8H296.869V51.8H297.869ZM290.309 72C290.301 72 290.297 71.9993 290.295 71.999C290.294 71.9988 290.293 71.9985 290.292 71.998C290.29 71.9975 290.276 71.9919 290.248 71.9674L288.931 73.4726C289.314 73.8078 289.784 74 290.309 74V72ZM290.296 72.0129C290.283 72.0002 290.277 71.9914 290.274 71.987C290.271 71.9827 290.27 71.9812 290.271 71.9819C290.271 71.9827 290.271 71.9828 290.271 71.981C290.27 71.979 290.269 71.9725 290.269 71.96H288.269C288.269 72.5269 288.487 73.0322 288.882 73.4271L290.296 72.0129ZM290.269 71.96V46.04H288.269V71.96H290.269ZM290.269 46.04C290.269 46.0274 290.27 46.0234 290.27 46.0261C290.269 46.0291 290.267 46.0365 290.263 46.0461C290.259 46.0559 290.253 46.0641 290.249 46.07C290.245 46.0757 290.243 46.0763 290.248 46.0726L288.931 44.5674C288.492 44.9514 288.269 45.4698 288.269 46.04H290.269ZM290.296 46.0271C290.313 46.0106 290.324 46.0014 290.331 45.997C290.337 45.9926 290.338 45.9924 290.335 45.9938C290.332 45.9953 290.327 45.9972 290.32 45.9985C290.314 45.9999 290.31 46 290.309 46V44C289.741 44 289.256 44.2389 288.882 44.6129L290.296 46.0271ZM290.309 46H301.269V44H290.309V46ZM301.269 46C303.748 46 305.842 46.409 307.578 47.1917L308.4 45.3683C306.35 44.4443 303.964 44 301.269 44V46ZM307.589 47.1965C309.318 47.9513 310.658 49.0579 311.639 50.5178L313.299 49.4022C312.094 47.6087 310.447 46.2621 308.389 45.3635L307.589 47.1965ZM311.639 50.5178C312.608 51.9591 313.155 53.7677 313.23 55.9937L315.229 55.9263C315.144 53.4056 314.517 51.2143 313.299 49.4022L311.639 50.5178ZM313.23 56.0065C313.283 57.142 313.309 58.1393 313.309 59H315.309C315.309 58.1007 315.282 57.0713 315.228 55.9135L313.23 56.0065ZM313.309 59C313.309 59.8605 313.283 60.8442 313.23 61.9524L315.228 62.0476C315.282 60.9158 315.309 59.8995 315.309 59H313.309ZM313.23 61.9575C313.129 64.3394 312.587 66.2215 311.667 67.6613L313.352 68.7387C314.511 66.9252 315.116 64.674 315.228 62.0425L313.23 61.9575ZM311.66 67.6713C310.762 69.1137 309.486 70.1963 307.795 70.9209L308.583 72.7591C310.626 71.8837 312.23 70.5396 313.358 68.7287L311.66 67.6713ZM307.806 70.9161C306.091 71.6268 303.988 72 301.469 72V74C304.177 74 306.554 73.5998 308.572 72.7639L307.806 70.9161ZM301.469 72H290.309V74H301.469V72ZM297.869 67.2H301.269V65.2H297.869V67.2ZM301.269 67.2C302.256 67.2 303.159 67.036 303.941 66.6621L303.078 64.8579C302.633 65.0707 302.042 65.2 301.269 65.2V67.2ZM303.941 66.6621C304.746 66.277 305.376 65.677 305.82 64.8921L304.079 63.9079C303.829 64.3497 303.499 64.6563 303.078 64.8579L303.941 66.6621ZM305.828 64.8763C306.272 64.0578 306.479 63.0776 306.509 61.987L304.509 61.933C304.486 62.8157 304.32 63.4622 304.07 63.9237L305.828 64.8763ZM306.508 61.9945C306.535 61.2125 306.549 60.5073 306.549 59.88H304.549C304.549 60.4793 304.536 61.1609 304.51 61.9255L306.508 61.9945ZM306.548 59.9234C306.576 59.2812 306.576 58.6388 306.548 57.9966L304.55 58.0834C304.575 58.6678 304.575 59.2522 304.55 59.8366L306.548 59.9234ZM306.549 58.04C306.549 57.4125 306.535 56.7204 306.508 55.9643L304.51 56.0357C304.536 56.7729 304.549 57.4408 304.549 58.04H306.549ZM306.508 55.9637C306.449 54.3328 305.965 52.945 304.869 52.0318L303.589 53.5682C304.093 53.9883 304.462 54.7339 304.51 56.0363L306.508 55.9637ZM304.882 52.0426C303.878 51.1767 302.567 50.8 301.069 50.8V52.8C302.237 52.8 303.034 53.0899 303.576 53.5574L304.882 52.0426ZM301.069 50.8H297.869V52.8H301.069V50.8ZM296.869 51.8V66.2H298.869V51.8H296.869ZM323.244 72.76L322.484 73.4108L322.535 73.4692L322.593 73.5193L323.244 72.76ZM323.084 71.84L323.916 72.3947L323.984 72.2919L324.026 72.1756L323.084 71.84ZM332.204 46.24L333.146 46.5756L333.159 46.5398L333.169 46.5031L332.204 46.24ZM332.724 45.4L332.051 44.6601L332.033 44.6761L332.017 44.6929L332.724 45.4ZM342.364 45.4L343.071 44.6929V44.6929L342.364 45.4ZM342.884 46.24L341.919 46.5031L341.929 46.5405L341.942 46.5769L342.884 46.24ZM352.044 71.84L352.992 71.5238L352.989 71.5134L352.985 71.5031L352.044 71.84ZM351.804 72.76L352.511 73.4671L351.804 72.76ZM343.604 72.08L342.666 72.4262L342.674 72.4503L342.685 72.4739L343.604 72.08ZM342.364 68.72L343.302 68.3738L343.061 67.72H342.364V68.72ZM332.724 68.72V67.72H332.027L331.786 68.3738L332.724 68.72ZM331.484 72.08L332.403 72.4739L332.413 72.4503L332.422 72.4262L331.484 72.08ZM331.044 72.68L330.337 71.9729L330.313 71.9964L330.291 72.0215L331.044 72.68ZM334.564 61.96L333.614 61.6476L333.182 62.96H334.564V61.96ZM340.524 61.96V62.96H341.911L341.472 61.6438L340.524 61.96ZM337.524 52.96L338.472 52.6438L337.517 49.7786L336.574 52.6476L337.524 52.96ZM323.884 72C323.88 72 323.879 71.9997 323.883 72.0002C323.886 72.0008 323.89 72.0019 323.895 72.0037C323.9 72.0054 323.903 72.0071 323.903 72.0075C323.904 72.0079 323.901 72.0062 323.895 72.0007L322.593 73.5193C322.956 73.8305 323.399 74 323.884 74V72ZM324.003 72.1092C323.998 72.1029 323.996 72.0999 323.996 72.1005C323.997 72.1012 323.998 72.1041 324 72.1089C324.002 72.1136 324.003 72.118 324.004 72.1212C324.004 72.1243 324.004 72.1242 324.004 72.12H322.004C322.004 72.605 322.173 73.0477 322.484 73.4108L324.003 72.1092ZM324.004 72.12C324.004 72.1883 323.984 72.2927 323.916 72.3947L322.252 71.2853C322.077 71.5473 322.004 71.8383 322.004 72.12H324.004ZM324.026 72.1756L333.146 46.5756L331.262 45.9044L322.142 71.5044L324.026 72.1756ZM333.169 46.5031C333.193 46.4135 333.258 46.28 333.431 46.1071L332.017 44.6929C331.656 45.0533 331.375 45.4798 331.239 45.9769L333.169 46.5031ZM333.396 46.1399C333.469 46.0743 333.597 46 333.884 46V44C333.21 44 332.566 44.1923 332.051 44.6601L333.396 46.1399ZM333.884 46H341.204V44H333.884V46ZM341.204 46C341.539 46 341.635 46.0853 341.657 46.1071L343.071 44.6929C342.559 44.1814 341.882 44 341.204 44V46ZM341.657 46.1071C341.83 46.28 341.895 46.4135 341.919 46.5031L343.849 45.9769C343.713 45.4798 343.431 45.0533 343.071 44.6929L341.657 46.1071ZM341.942 46.5769L351.102 72.1769L352.985 71.5031L343.825 45.9031L341.942 46.5769ZM351.095 72.1562C351.087 72.1331 351.085 72.1173 351.084 72.1114C351.083 72.1056 351.084 72.1079 351.084 72.12H353.084C353.084 71.933 353.061 71.7286 352.992 71.5238L351.095 72.1562ZM351.084 72.12C351.084 72.1148 351.084 72.1054 351.087 72.0933C351.089 72.0812 351.093 72.0694 351.098 72.0592C351.107 72.0374 351.113 72.036 351.097 72.0529L352.511 73.4671C352.864 73.1135 353.084 72.653 353.084 72.12H351.084ZM351.097 72.0529C351.107 72.0421 351.13 72.0243 351.162 72.0115C351.193 71.9992 351.211 72 351.204 72V74C351.691 74 352.151 73.8269 352.511 73.4671L351.097 72.0529ZM351.204 72H345.044V74H351.204V72ZM345.044 72C344.892 72 344.803 71.9817 344.759 71.9676C344.719 71.955 344.728 71.9501 344.751 71.9729L343.337 73.3871C343.814 73.8641 344.457 74 345.044 74V72ZM344.751 71.9729C344.588 71.8099 344.535 71.7135 344.523 71.6861L342.685 72.4739C342.833 72.8199 343.073 73.1234 343.337 73.3871L344.751 71.9729ZM344.542 71.7338L343.302 68.3738L341.426 69.0662L342.666 72.4262L344.542 71.7338ZM342.364 67.72H332.724V69.72H342.364V67.72ZM331.786 68.3738L330.546 71.7338L332.422 72.4262L333.662 69.0662L331.786 68.3738ZM330.565 71.6861C330.553 71.7135 330.5 71.8099 330.337 71.9729L331.751 73.3871C332.015 73.1234 332.255 72.8199 332.403 72.4739L330.565 71.6861ZM330.291 72.0215C330.343 71.9625 330.383 71.9567 330.349 71.9676C330.31 71.9801 330.216 72 330.044 72V74C330.62 74 331.322 73.8803 331.796 73.3385L330.291 72.0215ZM330.044 72H323.884V74H330.044V72ZM334.564 62.96H340.524V60.96H334.564V62.96ZM341.472 61.6438L338.472 52.6438L336.575 53.2762L339.575 62.2762L341.472 61.6438ZM336.574 52.6476L333.614 61.6476L335.514 62.2724L338.474 53.2724L336.574 52.6476ZM355.058 72.72L354.351 73.4271L354.374 73.4506L354.399 73.4726L355.058 72.72ZM355.058 45.32L355.716 46.0726L355.741 46.0506L355.765 46.0271L355.058 45.32ZM373.458 46.28L373.047 47.1917L373.058 47.1965L373.458 46.28ZM379.698 55.96L378.698 55.9937L378.699 56.0065L379.698 55.96ZM379.698 62L378.699 61.9524L378.699 61.9575L379.698 62ZM377.978 68.2L377.135 67.6613L377.129 67.6713L377.978 68.2ZM373.658 71.84L374.041 72.7639L374.052 72.7591L373.658 71.84ZM363.338 66.2H362.338V67.2H363.338V66.2ZM368.978 65.76L368.546 64.8579V64.8579L368.978 65.76ZM370.418 64.4L371.288 64.8921L371.293 64.8842L371.297 64.8763L370.418 64.4ZM370.978 61.96L369.978 61.9255L369.978 61.933L370.978 61.96ZM371.018 59.88L370.019 59.8366L370.018 59.8583V59.88H371.018ZM371.018 58.04H370.018V58.0617L370.019 58.0834L371.018 58.04ZM370.978 56L371.977 55.9643L371.977 55.9637L370.978 56ZM369.698 52.8L369.045 53.5574L369.051 53.5629L369.058 53.5682L369.698 52.8ZM363.338 51.8V50.8H362.338V51.8H363.338ZM355.778 72C355.77 72 355.765 71.9993 355.764 71.999C355.763 71.9988 355.762 71.9985 355.76 71.998C355.759 71.9975 355.744 71.9919 355.716 71.9674L354.399 73.4726C354.782 73.8078 355.253 74 355.778 74V72ZM355.765 72.0129C355.752 72.0002 355.746 71.9914 355.743 71.987C355.74 71.9827 355.739 71.9812 355.739 71.9819C355.74 71.9827 355.74 71.9828 355.739 71.981C355.739 71.979 355.738 71.9725 355.738 71.96H353.738C353.738 72.5269 353.956 73.0322 354.351 73.4271L355.765 72.0129ZM355.738 71.96V46.04H353.738V71.96H355.738ZM355.738 46.04C355.738 46.0274 355.739 46.0234 355.738 46.0261C355.738 46.0291 355.736 46.0365 355.732 46.0461C355.727 46.0559 355.722 46.0641 355.718 46.07C355.714 46.0757 355.712 46.0763 355.716 46.0726L354.399 44.5674C353.96 44.9514 353.738 45.4698 353.738 46.04H355.738ZM355.765 46.0271C355.781 46.0106 355.793 46.0014 355.799 45.997C355.806 45.9926 355.807 45.9924 355.804 45.9938C355.801 45.9953 355.795 45.9972 355.789 45.9985C355.782 45.9999 355.778 46 355.778 46V44C355.21 44 354.725 44.2389 354.351 44.6129L355.765 46.0271ZM355.778 46H366.738V44H355.778V46ZM366.738 46C369.217 46 371.31 46.409 373.047 47.1917L373.869 45.3683C371.819 44.4443 369.432 44 366.738 44V46ZM373.058 47.1965C374.786 47.9513 376.127 49.0579 377.108 50.5178L378.768 49.4022C377.562 47.6087 375.916 46.2621 373.858 45.3635L373.058 47.1965ZM377.108 50.5178C378.077 51.9591 378.623 53.7677 378.698 55.9937L380.697 55.9263C380.612 53.4056 379.986 51.2143 378.768 49.4022L377.108 50.5178ZM378.699 56.0065C378.752 57.142 378.778 58.1393 378.778 59H380.778C380.778 58.1007 380.751 57.0713 380.697 55.9135L378.699 56.0065ZM378.778 59C378.778 59.8605 378.752 60.8442 378.699 61.9524L380.697 62.0476C380.751 60.9158 380.778 59.8995 380.778 59H378.778ZM378.699 61.9575C378.597 64.3394 378.056 66.2215 377.135 67.6613L378.82 68.7387C379.98 66.9252 380.585 64.674 380.697 62.0425L378.699 61.9575ZM377.129 67.6713C376.23 69.1137 374.954 70.1963 373.264 70.9209L374.052 72.7591C376.095 71.8837 377.698 70.5396 378.827 68.7287L377.129 67.6713ZM373.275 70.9161C371.56 71.6268 369.457 72 366.938 72V74C369.646 74 372.023 73.5998 374.041 72.7639L373.275 70.9161ZM366.938 72H355.778V74H366.938V72ZM363.338 67.2H366.738V65.2H363.338V67.2ZM366.738 67.2C367.725 67.2 368.628 67.036 369.409 66.6621L368.546 64.8579C368.101 65.0707 367.511 65.2 366.738 65.2V67.2ZM369.409 66.6621C370.215 66.277 370.845 65.677 371.288 64.8921L369.547 63.9079C369.298 64.3497 368.968 64.6563 368.546 64.8579L369.409 66.6621ZM371.297 64.8763C371.74 64.0578 371.948 63.0776 371.977 61.987L369.978 61.933C369.954 62.8157 369.789 63.4622 369.539 63.9237L371.297 64.8763ZM371.977 61.9945C372.004 61.2125 372.018 60.5073 372.018 59.88H370.018C370.018 60.4793 370.005 61.1609 369.978 61.9255L371.977 61.9945ZM372.017 59.9234C372.045 59.2812 372.045 58.6388 372.017 57.9966L370.019 58.0834C370.044 58.6678 370.044 59.2522 370.019 59.8366L372.017 59.9234ZM372.018 58.04C372.018 57.4125 372.004 56.7204 371.977 55.9643L369.978 56.0357C370.005 56.7729 370.018 57.4408 370.018 58.04H372.018ZM371.977 55.9637C371.918 54.3328 371.434 52.945 370.338 52.0318L369.058 53.5682C369.562 53.9883 369.931 54.7339 369.978 56.0363L371.977 55.9637ZM370.351 52.0426C369.346 51.1767 368.036 50.8 366.538 50.8V52.8C367.706 52.8 368.503 53.0899 369.045 53.5574L370.351 52.0426ZM366.538 50.8H363.338V52.8H366.538V50.8ZM362.338 51.8V66.2H364.338V51.8H362.338ZM389.661 72.6L388.954 73.3071L388.971 73.3239L388.988 73.3399L389.661 72.6ZM389.141 71.76L390.106 71.4969L390.101 71.4813L390.097 71.4658L389.141 71.76ZM381.261 46.16L380.291 46.4025L380.297 46.4286L380.305 46.4542L381.261 46.16ZM381.461 45.28L382.168 45.9871L382.168 45.9871L381.461 45.28ZM389.421 45.4L390.128 44.6929V44.6929L389.421 45.4ZM389.941 46.2L390.903 45.9277L390.901 45.9202L390.899 45.9127L389.941 46.2ZM394.661 62.88L393.699 63.1523L394.661 66.5527L395.623 63.1523L394.661 62.88ZM399.381 46.2L398.423 45.9127L398.421 45.9202L398.419 45.9277L399.381 46.2ZM399.901 45.4L399.194 44.6929V44.6929L399.901 45.4ZM407.821 45.28L407.062 45.9308L407.087 45.96L407.114 45.9871L407.821 45.28ZM408.021 46.16L408.977 46.4528L408.985 46.4279L408.991 46.4025L408.021 46.16ZM400.181 71.76L399.225 71.4672L399.22 71.482L399.216 71.4969L400.181 71.76ZM399.621 72.6L398.948 71.8601L398.931 71.8761L398.914 71.8929L399.621 72.6ZM390.821 72C390.535 72 390.406 71.9257 390.334 71.8601L388.988 73.3399C389.503 73.8077 390.147 74 390.821 74V72ZM390.368 71.8929C390.195 71.72 390.13 71.5864 390.106 71.4969L388.176 72.0231C388.312 72.5202 388.593 72.9467 388.954 73.3071L390.368 71.8929ZM390.097 71.4658L382.217 45.8658L380.305 46.4542L388.185 72.0542L390.097 71.4658ZM382.231 45.9175C382.225 45.8922 382.222 45.8762 382.221 45.8686C382.22 45.8607 382.221 45.8652 382.221 45.88H380.221C380.221 46.0658 380.251 46.2438 380.291 46.4025L382.231 45.9175ZM382.221 45.88C382.221 45.8727 382.222 45.8905 382.209 45.9214C382.197 45.9534 382.179 45.9763 382.168 45.9871L380.754 44.5729C380.394 44.9327 380.221 45.3926 380.221 45.88H382.221ZM382.168 45.9871C382.185 45.9702 382.184 45.9766 382.162 45.9862C382.151 45.9906 382.14 45.9944 382.128 45.997C382.116 45.9994 382.106 46 382.101 46V44C381.568 44 381.107 44.2193 380.754 44.5729L382.168 45.9871ZM382.101 46H388.301V44H382.101V46ZM388.301 46C388.592 46 388.682 46.0756 388.714 46.1071L390.128 44.6929C389.626 44.1911 388.97 44 388.301 44V46ZM388.714 46.1071C388.903 46.2964 388.965 46.4254 388.983 46.4873L390.899 45.9127C390.757 45.4413 390.472 45.0369 390.128 44.6929L388.714 46.1071ZM388.979 46.4723L393.699 63.1523L395.623 62.6077L390.903 45.9277L388.979 46.4723ZM395.623 63.1523L400.343 46.4723L398.419 45.9277L393.699 62.6077L395.623 63.1523ZM400.339 46.4873C400.357 46.4254 400.419 46.2964 400.608 46.1071L399.194 44.6929C398.85 45.0369 398.565 45.4413 398.423 45.9127L400.339 46.4873ZM400.608 46.1071C400.64 46.0756 400.73 46 401.021 46V44C400.352 44 399.696 44.1911 399.194 44.6929L400.608 46.1071ZM401.021 46H407.221V44H401.021V46ZM407.221 46C407.208 46 407.172 45.9966 407.128 45.9762C407.085 45.9561 407.064 45.9332 407.062 45.9308L408.58 44.6292C408.236 44.2271 407.761 44 407.221 44V46ZM407.114 45.9871C407.103 45.9763 407.085 45.9534 407.072 45.9214C407.06 45.8905 407.061 45.8727 407.061 45.88H409.061C409.061 45.3926 408.888 44.9327 408.528 44.5729L407.114 45.9871ZM407.061 45.88C407.061 45.8652 407.062 45.8607 407.061 45.8686C407.06 45.8762 407.057 45.8921 407.051 45.9175L408.991 46.4025C409.031 46.2438 409.061 46.0658 409.061 45.88H407.061ZM407.065 45.8672L399.225 71.4672L401.137 72.0528L408.977 46.4528L407.065 45.8672ZM399.216 71.4969C399.199 71.5587 399.143 71.6831 398.948 71.8601L400.294 73.3399C400.686 72.9836 401.003 72.548 401.146 72.0231L399.216 71.4969ZM398.914 71.8929C398.892 71.9147 398.796 72 398.461 72V74C399.139 74 399.817 73.8186 400.328 73.3071L398.914 71.8929ZM398.461 72H390.821V74H398.461V72ZM411.659 72.72L410.952 73.4271L410.976 73.4506L411.001 73.4726L411.659 72.72ZM411.659 45.32L412.318 46.0726L412.343 46.0506L412.366 46.0271L411.659 45.32ZM432.739 45.32L432.032 46.0271L432.056 46.0506L432.081 46.0726L432.739 45.32ZM432.739 51.48L432.032 50.7729V50.7729L432.739 51.48ZM419.619 51.8V50.8H418.619V51.8H419.619ZM419.619 55.76H418.619V56.76H419.619V55.76ZM431.859 56.08L431.152 56.7871L431.176 56.8106L431.201 56.8326L431.859 56.08ZM431.859 61.88L432.518 62.6326L432.543 62.6106L432.566 62.5871L431.859 61.88ZM419.619 62.16V61.16H418.619V62.16H419.619ZM419.619 66.2H418.619V67.2H419.619V66.2ZM433.059 66.52L432.352 67.2271L433.059 66.52ZM433.059 72.72L433.718 73.4726L433.743 73.4507L433.766 73.4271L433.059 72.72ZM412.379 72C412.371 72 412.367 71.9993 412.366 71.999C412.364 71.9988 412.363 71.9985 412.362 71.998C412.361 71.9975 412.346 71.9919 412.318 71.9674L411.001 73.4726C411.384 73.8078 411.854 74 412.379 74V72ZM412.366 72.0129C412.354 72.0002 412.347 71.9914 412.344 71.987C412.341 71.9827 412.341 71.9812 412.341 71.9819C412.341 71.9827 412.341 71.9828 412.341 71.981C412.34 71.979 412.339 71.9725 412.339 71.96H410.339C410.339 72.5269 410.557 73.0322 410.952 73.4271L412.366 72.0129ZM412.339 71.96V46.04H410.339V71.96H412.339ZM412.339 46.04C412.339 46.0274 412.341 46.0234 412.34 46.0261C412.339 46.0291 412.337 46.0365 412.333 46.0461C412.329 46.0559 412.324 46.0641 412.319 46.07C412.315 46.0757 412.314 46.0763 412.318 46.0726L411.001 44.5674C410.562 44.9514 410.339 45.4698 410.339 46.04H412.339ZM412.366 46.0271C412.383 46.0106 412.395 46.0014 412.401 45.997C412.407 45.9926 412.409 45.9924 412.406 45.9938C412.402 45.9953 412.397 45.9972 412.39 45.9985C412.384 45.9999 412.38 46 412.379 46V44C411.812 44 411.326 44.2389 410.952 44.6129L412.366 46.0271ZM412.379 46H431.979V44H412.379V46ZM431.979 46C431.992 46 431.998 46.0011 432 46.0015C432.002 46.0018 432.002 46.002 432.001 46.0016C432.001 46.0013 432.002 46.0018 432.006 46.0047C432.011 46.0077 432.02 46.0144 432.032 46.0271L433.446 44.6129C433.052 44.218 432.546 44 431.979 44V46ZM432.081 46.0726C432.085 46.0763 432.084 46.0757 432.079 46.07C432.075 46.0641 432.07 46.0559 432.066 46.0461C432.061 46.0365 432.059 46.0291 432.059 46.0261C432.058 46.0234 432.059 46.0274 432.059 46.04H434.059C434.059 45.4698 433.837 44.9514 433.398 44.5674L432.081 46.0726ZM432.059 46.04V50.76H434.059V46.04H432.059ZM432.059 50.76C432.059 50.76 432.059 50.76 432.059 50.76C432.059 50.76 432.059 50.76 432.059 50.7599C432.059 50.7599 432.059 50.7598 432.059 50.7598C432.059 50.7596 432.059 50.7594 432.059 50.7591C432.059 50.7585 432.059 50.7577 432.06 50.7567C432.06 50.7546 432.06 50.752 432.061 50.749C432.062 50.7425 432.064 50.7372 432.066 50.7339C432.067 50.7307 432.067 50.7322 432.062 50.7383C432.058 50.7446 432.049 50.7564 432.032 50.7729L433.446 52.1871C433.82 51.8131 434.059 51.3276 434.059 50.76H432.059ZM432.032 50.7729C432.02 50.7856 432.011 50.7923 432.006 50.7953C432.002 50.7982 432.001 50.7987 432.001 50.7984C432.002 50.798 432.002 50.7982 432 50.7985C431.998 50.7989 431.992 50.8 431.979 50.8V52.8C432.546 52.8 433.052 52.582 433.446 52.1871L432.032 50.7729ZM431.979 50.8H419.619V52.8H431.979V50.8ZM418.619 51.8V55.76H420.619V51.8H418.619ZM419.619 56.76H431.099V54.76H419.619V56.76ZM431.099 56.76C431.112 56.76 431.118 56.7611 431.12 56.7615C431.122 56.7618 431.122 56.762 431.121 56.7616C431.121 56.7613 431.122 56.7618 431.126 56.7647C431.131 56.7677 431.14 56.7744 431.152 56.7871L432.566 55.3729C432.172 54.978 431.666 54.76 431.099 54.76V56.76ZM431.201 56.8326C431.205 56.8363 431.204 56.8357 431.199 56.83C431.195 56.8241 431.19 56.8159 431.186 56.8061C431.181 56.7965 431.179 56.7891 431.179 56.7861C431.178 56.7834 431.179 56.7874 431.179 56.8H433.179C433.179 56.2298 432.957 55.7114 432.518 55.3274L431.201 56.8326ZM431.179 56.8V61.12H433.179V56.8H431.179ZM431.179 61.12C431.179 61.1325 431.178 61.139 431.178 61.141C431.178 61.1428 431.177 61.1427 431.178 61.1419C431.178 61.1412 431.178 61.1427 431.175 61.147C431.172 61.1514 431.165 61.1602 431.152 61.1729L432.566 62.5871C432.961 62.1922 433.179 61.6869 433.179 61.12H431.179ZM431.201 61.1274C431.177 61.1486 431.16 61.16 431.099 61.16V63.16C431.626 63.16 432.115 62.9847 432.518 62.6326L431.201 61.1274ZM431.099 61.16H419.619V63.16H431.099V61.16ZM418.619 62.16V66.2H420.619V62.16H418.619ZM419.619 67.2H432.299V65.2H419.619V67.2ZM432.299 67.2C432.312 67.2 432.318 67.2011 432.32 67.2015C432.322 67.2018 432.322 67.202 432.321 67.2016C432.321 67.2013 432.322 67.2018 432.326 67.2047C432.331 67.2077 432.34 67.2144 432.352 67.2271L433.766 65.8129C433.372 65.418 432.866 65.2 432.299 65.2V67.2ZM432.352 67.2271C432.365 67.2398 432.372 67.2486 432.375 67.253C432.378 67.2573 432.378 67.2588 432.378 67.2581C432.377 67.2573 432.378 67.2572 432.378 67.259C432.378 67.261 432.379 67.2675 432.379 67.28H434.379C434.379 66.7131 434.161 66.2078 433.766 65.8129L432.352 67.2271ZM432.379 67.28V71.96H434.379V67.28H432.379ZM432.379 71.96C432.379 71.9725 432.378 71.979 432.378 71.981C432.378 71.9828 432.377 71.9827 432.378 71.9819C432.378 71.9812 432.378 71.9827 432.375 71.987C432.372 71.9914 432.365 72.0002 432.352 72.0129L433.766 73.4271C434.161 73.0322 434.379 72.5269 434.379 71.96H432.379ZM432.401 71.9674C432.377 71.9886 432.36 72 432.299 72V74C432.826 74 433.315 73.8247 433.718 73.4726L432.401 71.9674ZM432.299 72H412.379V74H432.299V72ZM437.792 72.72L437.085 73.4271L437.109 73.4506L437.134 73.4726L437.792 72.72ZM437.792 45.32L438.451 46.0726L438.476 46.0506L438.499 46.0271L437.792 45.32ZM458.432 47.48L457.805 48.2589L457.81 48.2628L458.432 47.48ZM456.912 62.24L456.438 61.3595L455.549 61.8382L456.036 62.7225L456.912 62.24ZM462.112 71.68L463.007 71.2328L462.998 71.215L462.988 71.1975L462.112 71.68ZM461.992 72.76L462.699 73.4671L462.726 73.44L462.751 73.4108L461.992 72.76ZM453.472 72.64L452.765 73.3471L452.784 73.3657L452.803 73.3833L453.472 72.64ZM452.952 71.92L453.889 71.5689L453.872 71.5252L453.852 71.4833L452.952 71.92ZM448.952 63.68L449.852 63.2433L449.578 62.68H448.952V63.68ZM446.072 63.68V62.68H445.072V63.68H446.072ZM445.752 72.72L446.459 73.4271L445.752 72.72ZM446.072 57.08H445.072V58.08H446.072V57.08ZM451.952 56.32L452.697 56.9868L452.706 56.9773L452.714 56.9676L451.952 56.32ZM451.952 52.32L451.157 52.926L451.166 52.9378L451.175 52.9492L451.952 52.32ZM446.072 51.48V50.48H445.072V51.48H446.072ZM438.512 72C438.504 72 438.5 71.9993 438.498 71.999C438.497 71.9988 438.496 71.9985 438.495 71.998C438.493 71.9975 438.479 71.9919 438.451 71.9674L437.134 73.4726C437.517 73.8078 437.987 74 438.512 74V72ZM438.499 72.0129C438.487 72.0002 438.48 71.9914 438.477 71.987C438.474 71.9827 438.474 71.9812 438.474 71.9819C438.474 71.9827 438.474 71.9828 438.474 71.981C438.473 71.979 438.472 71.9725 438.472 71.96H436.472C436.472 72.5269 436.69 73.0322 437.085 73.4271L438.499 72.0129ZM438.472 71.96V46.04H436.472V71.96H438.472ZM438.472 46.04C438.472 46.0274 438.473 46.0234 438.473 46.0261C438.472 46.0291 438.47 46.0365 438.466 46.0461C438.462 46.0559 438.457 46.0641 438.452 46.07C438.448 46.0757 438.446 46.0763 438.451 46.0726L437.134 44.5674C436.695 44.9514 436.472 45.4698 436.472 46.04H438.472ZM438.499 46.0271C438.516 46.0106 438.528 46.0014 438.534 45.997C438.54 45.9926 438.541 45.9924 438.538 45.9938C438.535 45.9953 438.53 45.9972 438.523 45.9985C438.517 45.9999 438.513 46 438.512 46V44C437.945 44 437.459 44.2389 437.085 44.6129L438.499 46.0271ZM438.512 46H449.912V44H438.512V46ZM449.912 46C453.396 46 455.986 46.7941 457.805 48.2589L459.059 46.7011C456.772 44.8592 453.682 44 449.912 44V46ZM457.81 48.2628C459.622 49.7031 460.552 51.7053 460.552 54.4H462.552C462.552 51.1747 461.402 48.5635 459.054 46.6972L457.81 48.2628ZM460.552 54.4C460.552 56.1111 460.163 57.4987 459.435 58.6132L461.109 59.7068C462.088 58.208 462.552 56.4223 462.552 54.4H460.552ZM459.435 58.6132C458.674 59.7787 457.679 60.6913 456.438 61.3595L457.386 63.1205C458.919 62.2954 460.164 61.1546 461.109 59.7068L459.435 58.6132ZM456.036 62.7225L461.236 72.1625L462.988 71.1975L457.788 61.7575L456.036 62.7225ZM461.218 72.1272C461.225 72.1425 461.23 72.154 461.233 72.1619C461.237 72.1698 461.238 72.1735 461.237 72.1731C461.237 72.1725 461.232 72.1536 461.232 72.12H463.232C463.232 71.7877 463.133 71.4864 463.007 71.2328L461.218 72.1272ZM461.232 72.12C461.232 72.1242 461.232 72.1243 461.232 72.1212C461.233 72.118 461.234 72.1136 461.236 72.1089C461.238 72.1041 461.239 72.1012 461.24 72.1005C461.24 72.0999 461.238 72.1029 461.233 72.1092L462.751 73.4108C463.063 73.0477 463.232 72.605 463.232 72.12H461.232ZM461.285 72.0529C461.296 72.0421 461.319 72.0243 461.351 72.0115C461.382 71.9992 461.399 72 461.392 72V74C461.88 74 462.34 73.8269 462.699 73.4671L461.285 72.0529ZM461.392 72H454.632V74H461.392V72ZM454.632 72C454.271 72 454.161 71.9143 454.141 71.8967L452.803 73.3833C453.317 73.8457 453.98 74 454.632 74V72ZM454.179 71.9329C454.074 71.8276 454.001 71.7414 453.953 71.6745C453.929 71.6416 453.913 71.6158 453.903 71.5972C453.897 71.588 453.894 71.581 453.892 71.5761C453.889 71.5713 453.889 71.5689 453.889 71.5689L452.016 72.2711C452.168 72.6779 452.455 73.0373 452.765 73.3471L454.179 71.9329ZM453.852 71.4833L449.852 63.2433L448.053 64.1167L452.053 72.3567L453.852 71.4833ZM448.952 62.68H446.072V64.68H448.952V62.68ZM445.072 63.68V71.96H447.072V63.68H445.072ZM445.072 71.96C445.072 71.9725 445.071 71.979 445.071 71.981C445.07 71.9828 445.07 71.9827 445.071 71.9819C445.071 71.9812 445.07 71.9827 445.067 71.987C445.064 71.9914 445.058 72.0002 445.045 72.0129L446.459 73.4271C446.854 73.0322 447.072 72.5269 447.072 71.96H445.072ZM445.045 72.0129C445.045 72.013 445.048 72.0102 445.054 72.0065C445.059 72.0027 445.065 71.9998 445.07 71.998C445.074 71.9962 445.075 71.9966 445.07 71.9975C445.065 71.9984 445.052 72 445.032 72V74C445.558 74 446.063 73.823 446.459 73.4271L445.045 72.0129ZM445.032 72H438.512V74H445.032V72ZM446.072 58.08H449.872V56.08H446.072V58.08ZM449.872 58.08C450.98 58.08 451.991 57.7758 452.697 56.9868L451.207 55.6532C451.006 55.8776 450.631 56.08 449.872 56.08V58.08ZM452.714 56.9676C453.338 56.2342 453.632 55.344 453.632 54.36H451.632C451.632 54.9227 451.473 55.3391 451.19 55.6723L452.714 56.9676ZM453.632 54.36C453.632 53.3578 453.343 52.4486 452.729 51.6908L451.175 52.9492C451.468 53.3113 451.632 53.7622 451.632 54.36H453.632ZM452.748 51.714C452.069 50.8227 451.023 50.48 449.872 50.48V52.48C450.642 52.48 450.982 52.6973 451.157 52.926L452.748 51.714ZM449.872 50.48H446.072V52.48H449.872V50.48ZM445.072 51.48V57.08H447.072V51.48H445.072ZM471.96 72.72L471.207 73.3785L471.251 73.4287L471.301 73.4726L471.96 72.72ZM471.68 52.44H472.68V51.44H471.68V52.44ZM464.04 52.16L463.287 52.8185L463.331 52.8687L463.382 52.9126L464.04 52.16ZM464.04 45.32L464.747 46.0271V46.0271L464.04 45.32ZM488 45.32L487.247 45.9785L487.291 46.0287L487.341 46.0726L488 45.32ZM488 52.16L487.293 51.4529L487.293 51.4529L488 52.16ZM480.4 52.44V51.44H479.4V52.44H480.4ZM480.08 72.72L479.373 72.0129L480.08 72.72ZM472.72 72C472.66 72 472.643 71.9886 472.618 71.9674L471.301 73.4726C471.704 73.8247 472.194 74 472.72 74V72ZM472.713 72.0615C472.691 72.0373 472.68 72.0203 472.68 71.96H470.68C470.68 72.4863 470.855 72.9761 471.207 73.3785L472.713 72.0615ZM472.68 71.96V52.44H470.68V71.96H472.68ZM471.68 51.44H464.8V53.44H471.68V51.44ZM464.8 51.44C464.74 51.44 464.723 51.4286 464.699 51.4074L463.382 52.9126C463.784 53.2647 464.274 53.44 464.8 53.44V51.44ZM464.793 51.5015C464.771 51.4773 464.76 51.4603 464.76 51.4H462.76C462.76 51.9263 462.935 52.416 463.287 52.8185L464.793 51.5015ZM464.76 51.4V46.04H462.76V51.4H464.76ZM464.76 46.04C464.76 46.0197 464.762 46.0076 464.763 46.0024C464.763 45.9973 464.764 45.9979 464.762 46.0024C464.76 46.0071 464.757 46.0129 464.754 46.0187C464.75 46.0243 464.747 46.0272 464.747 46.0271L463.333 44.6129C462.937 45.0088 462.76 45.5137 462.76 46.04H464.76ZM464.747 46.0271C464.76 46.0144 464.769 46.0077 464.773 46.0047C464.777 46.0018 464.779 46.0013 464.778 46.0016C464.777 46.002 464.777 46.0018 464.779 46.0015C464.781 46.0011 464.788 46 464.8 46V44C464.233 44 463.728 44.218 463.333 44.6129L464.747 46.0271ZM464.8 46H487.28V44H464.8V46ZM487.28 46C487.293 46 487.297 46.0011 487.294 46.0006C487.291 46 487.284 45.9981 487.274 45.9938C487.264 45.9895 487.256 45.9844 487.25 45.98C487.244 45.9757 487.244 45.9742 487.247 45.9785L488.753 44.6615C488.369 44.2227 487.85 44 487.28 44V46ZM487.341 46.0726C487.346 46.0763 487.344 46.0757 487.34 46.07C487.336 46.0641 487.331 46.0559 487.326 46.0461C487.322 46.0365 487.32 46.0291 487.319 46.0261C487.319 46.0234 487.32 46.0274 487.32 46.04H489.32C489.32 45.4698 489.097 44.9514 488.659 44.5674L487.341 46.0726ZM487.32 46.04V51.4H489.32V46.04H487.32ZM487.32 51.4C487.32 51.4125 487.319 51.419 487.319 51.421C487.318 51.4228 487.318 51.4227 487.318 51.4219C487.319 51.4212 487.318 51.4227 487.315 51.427C487.312 51.4314 487.306 51.4402 487.293 51.4529L488.707 52.8671C489.102 52.4722 489.32 51.9669 489.32 51.4H487.32ZM487.293 51.4529C487.293 51.453 487.296 51.4502 487.301 51.4465C487.307 51.4427 487.313 51.4398 487.318 51.438C487.322 51.4362 487.323 51.4366 487.318 51.4375C487.312 51.4384 487.3 51.44 487.28 51.44V53.44C487.806 53.44 488.311 53.263 488.707 52.8671L487.293 51.4529ZM487.28 51.44H480.4V53.44H487.28V51.44ZM479.4 52.44V71.96H481.4V52.44H479.4ZM479.4 71.96C479.4 71.9725 479.399 71.979 479.398 71.981C479.398 71.9828 479.398 71.9827 479.398 71.9819C479.399 71.9812 479.398 71.9827 479.395 71.987C479.392 71.9914 479.386 72.0002 479.373 72.0129L480.787 73.4271C481.182 73.0322 481.4 72.5269 481.4 71.96H479.4ZM479.373 72.0129C479.373 72.013 479.376 72.0102 479.381 72.0065C479.387 72.0027 479.393 71.9998 479.398 71.998C479.402 71.9962 479.403 71.9966 479.398 71.9975C479.392 71.9984 479.38 72 479.36 72V74C479.886 74 480.391 73.823 480.787 73.4271L479.373 72.0129ZM479.36 72H472.72V74H479.36V72Z" fill="#F9F9F9" mask="url(#path-1-outside-1_1062_17439)"/>
<rect x="523" y="1" width="25" height="22" rx="5" fill="#323232"/>
<path d="M528.26 15C528.2 15 528.147 14.98 528.1 14.94C528.06 14.8933 528.04 14.84 528.04 14.78C528.04 14.7533 528.047 14.73 528.06 14.71L530.34 8.31C530.36 8.23667 530.403 8.16667 530.47 8.1C530.543 8.03333 530.64 8 530.76 8H532.59C532.717 8 532.813 8.03333 532.88 8.1C532.947 8.16667 532.99 8.23667 533.01 8.31L535.3 14.71C535.307 14.73 535.31 14.7533 535.31 14.78C535.31 14.84 535.287 14.8933 535.24 14.94C535.2 14.98 535.15 15 535.09 15H533.55C533.437 15 533.353 14.9733 533.3 14.92C533.247 14.8667 533.21 14.8167 533.19 14.77L532.88 13.93H530.47L530.16 14.77C530.14 14.8167 530.103 14.8667 530.05 14.92C530.003 14.9733 529.92 15 529.8 15H528.26ZM530.93 12.24H532.42L531.67 9.99L530.93 12.24ZM536.234 15C536.167 15 536.107 14.9767 536.054 14.93C536 14.8767 535.974 14.8133 535.974 14.74V8.26C535.974 8.18667 536 8.12667 536.054 8.08C536.107 8.02667 536.167 8 536.234 8H538.974C539.62 8 540.18 8.10667 540.654 8.32C541.127 8.52667 541.5 8.83333 541.774 9.24C542.047 9.64667 542.194 10.1467 542.214 10.74C542.227 11.0267 542.234 11.28 542.234 11.5C542.234 11.72 542.227 11.97 542.214 12.25C542.187 12.8767 542.044 13.3933 541.784 13.8C541.53 14.2067 541.17 14.51 540.704 14.71C540.237 14.9033 539.677 15 539.024 15H536.234ZM538.124 13.3H538.974C539.194 13.3 539.38 13.2633 539.534 13.19C539.687 13.1167 539.807 13.0033 539.894 12.85C539.98 12.69 540.027 12.4867 540.034 12.24C540.04 12.0467 540.044 11.8733 540.044 11.72C540.05 11.5667 540.05 11.4133 540.044 11.26C540.044 11.1067 540.04 10.9367 540.034 10.75C540.02 10.3833 539.914 10.1167 539.714 9.95C539.52 9.78333 539.257 9.7 538.924 9.7H538.124V13.3Z" fill="#C9CAC9"/>
</g>
<defs>
<filter id="filter0_d_1062_17439" x="0" y="0" width="553" height="128" filterUnits="userSpaceOnUse" color-interpolation-filters="sRGB">
<feFlood flood-opacity="0" result="BackgroundImageFix"/>
<feColorMatrix in="SourceAlpha" type="matrix" values="0 0 0 0 0 0 0 0 0 0 0 0 0 0 0 0 0 0 127 0" result="hardAlpha"/>
<feOffset dy="4"/>
<feGaussianBlur stdDeviation="2"/>
<feComposite in2="hardAlpha" operator="out"/>
<feColorMatrix type="matrix" values="0 0 0 0 0 0 0 0 0 0 0 0 0 0 0 0 0 0 0.25 0"/>
<feBlend mode="normal" in2="BackgroundImageFix" result="effect1_dropShadow_1062_17439"/>
<feBlend mode="normal" in="SourceGraphic" in2="effect1_dropShadow_1062_17439" result="shape"/>
</filter>
<linearGradient id="paint0_linear_1062_17439" x1="272.5" y1="0" x2="272.5" y2="120" gradientUnits="userSpaceOnUse">
<stop stop-color="#214780"/>
<stop offset="0.436566" stop-color="#521A65"/>
<stop offset="1" stop-color="#1B0921"/>
</linearGradient>
</defs>
</svg>
