<svg width="308" height="88" viewBox="0 0 308 88" fill="none" xmlns="http://www.w3.org/2000/svg">
<g filter="url(#filter0_d_1062_17432)">
<rect width="300" height="80" transform="translate(4)" fill="url(#paint0_linear_1062_17432)"/>
<mask id="path-1-outside-1_1062_17432" maskUnits="userSpaceOnUse" x="46" y="31" width="215" height="18" fill="black">
<rect fill="white" x="46" y="31" width="215" height="18"/>
<path d="M53.78 47.2C52.38 47.2 51.2133 47.0067 50.28 46.62C49.36 46.22 48.6667 45.7067 48.2 45.08C47.7467 44.44 47.5067 43.7667 47.48 43.06C47.48 42.94 47.52 42.84 47.6 42.76C47.68 42.68 47.78 42.64 47.9 42.64H51.08C51.2667 42.64 51.4133 42.6733 51.52 42.74C51.6267 42.7933 51.74 42.8733 51.86 42.98C51.98 43.1267 52.12 43.2667 52.28 43.4C52.44 43.52 52.6467 43.62 52.9 43.7C53.1533 43.7667 53.4467 43.8 53.78 43.8C54.3933 43.8 54.8667 43.72 55.2 43.56C55.5333 43.3867 55.7 43.1533 55.7 42.86C55.7 42.6333 55.6067 42.4467 55.42 42.3C55.2467 42.1533 54.9467 42.02 54.52 41.9C54.0933 41.78 53.5133 41.6533 52.78 41.52C51.7533 41.3467 50.8667 41.0933 50.12 40.76C49.3733 40.4133 48.8 39.9533 48.4 39.38C48.0133 38.7933 47.82 38.0733 47.82 37.22C47.82 36.3533 48.06 35.5867 48.54 34.92C49.0333 34.2533 49.7133 33.7333 50.58 33.36C51.46 32.9867 52.48 32.8 53.64 32.8C54.6 32.8 55.4467 32.9267 56.18 33.18C56.9267 33.4333 57.5533 33.7667 58.06 34.18C58.5667 34.58 58.9533 35.0133 59.22 35.48C59.4867 35.9467 59.6267 36.3933 59.64 36.82C59.64 36.94 59.5933 37.0467 59.5 37.14C59.42 37.22 59.3267 37.26 59.22 37.26H55.88C55.72 37.26 55.58 37.2333 55.46 37.18C55.3533 37.1267 55.2533 37.04 55.16 36.92C55.0933 36.7333 54.9267 36.5667 54.66 36.42C54.3933 36.2733 54.0533 36.2 53.64 36.2C53.1867 36.2 52.84 36.28 52.6 36.44C52.36 36.5867 52.24 36.8067 52.24 37.1C52.24 37.3 52.3133 37.4733 52.46 37.62C52.6067 37.7667 52.8667 37.9 53.24 38.02C53.6133 38.1267 54.1333 38.2467 54.8 38.38C56.0667 38.5667 57.0867 38.8333 57.86 39.18C58.6467 39.5267 59.22 39.98 59.58 40.54C59.94 41.1 60.12 41.8 60.12 42.64C60.12 43.5867 59.8467 44.4 59.3 45.08C58.7533 45.76 58 46.2867 57.04 46.66C56.0933 47.02 55.0067 47.2 53.78 47.2ZM62.3538 47C62.2204 47 62.1004 46.9533 61.9938 46.86C61.8871 46.7533 61.8338 46.6267 61.8338 46.48V33.52C61.8338 33.3733 61.8871 33.2533 61.9938 33.16C62.1004 33.0533 62.2204 33 62.3538 33H68.1938C69.3538 33 70.3604 33.1733 71.2138 33.52C72.0804 33.8667 72.7538 34.3933 73.2338 35.1C73.7138 35.8067 73.9538 36.6933 73.9538 37.76C73.9538 38.8267 73.7138 39.7067 73.2338 40.4C72.7538 41.08 72.0804 41.58 71.2138 41.9C70.3604 42.22 69.3538 42.38 68.1938 42.38H66.2938V46.48C66.2938 46.6267 66.2404 46.7533 66.1338 46.86C66.0404 46.9533 65.9204 47 65.7738 47H62.3538ZM66.2138 39.16H68.0938C68.4804 39.16 68.8071 39.0467 69.0738 38.82C69.3538 38.58 69.4938 38.2133 69.4938 37.72C69.4938 37.3467 69.3871 37.0067 69.1738 36.7C68.9604 36.3933 68.6004 36.24 68.0938 36.24H66.2138V39.16ZM81.7019 47.2C80.4219 47.2 79.3085 47 78.3619 46.6C77.4285 46.2 76.6885 45.6 76.1419 44.8C75.6085 43.9867 75.3219 42.98 75.2819 41.78C75.2685 41.22 75.2619 40.6467 75.2619 40.06C75.2619 39.46 75.2685 38.8667 75.2819 38.28C75.3219 37.0933 75.6085 36.0933 76.1419 35.28C76.6885 34.4667 77.4352 33.8533 78.3819 33.44C79.3285 33.0133 80.4352 32.8 81.7019 32.8C82.9552 32.8 84.0552 33.0133 85.0019 33.44C85.9485 33.8533 86.6952 34.4667 87.2419 35.28C87.7885 36.0933 88.0752 37.0933 88.1019 38.28C88.1285 38.8667 88.1419 39.46 88.1419 40.06C88.1419 40.6467 88.1285 41.22 88.1019 41.78C88.0619 42.98 87.7685 43.9867 87.2219 44.8C86.6885 45.6 85.9485 46.2 85.0019 46.6C84.0685 47 82.9685 47.2 81.7019 47.2ZM81.7019 43.8C82.2619 43.8 82.7219 43.6333 83.0819 43.3C83.4419 42.9533 83.6285 42.4067 83.6419 41.66C83.6685 41.0867 83.6819 40.5333 83.6819 40C83.6819 39.4533 83.6685 38.9 83.6419 38.34C83.6285 37.8467 83.5352 37.44 83.3619 37.12C83.2019 36.8 82.9752 36.5667 82.6819 36.42C82.4019 36.2733 82.0752 36.2 81.7019 36.2C81.3285 36.2 80.9952 36.2733 80.7019 36.42C80.4085 36.5667 80.1752 36.8 80.0019 37.12C79.8419 37.44 79.7552 37.8467 79.7419 38.34C79.7285 38.9 79.7219 39.4533 79.7219 40C79.7219 40.5333 79.7285 41.0867 79.7419 41.66C79.7685 42.4067 79.9552 42.9533 80.3019 43.3C80.6619 43.6333 81.1285 43.8 81.7019 43.8ZM90.7131 47C90.5798 47 90.4598 46.9533 90.3531 46.86C90.2465 46.7533 90.1931 46.6267 90.1931 46.48V33.52C90.1931 33.3733 90.2465 33.2533 90.3531 33.16C90.4598 33.0533 90.5798 33 90.7131 33H93.3731C93.6131 33 93.7865 33.06 93.8931 33.18C93.9998 33.2867 94.0731 33.3667 94.1131 33.42L98.2331 40.04V33.52C98.2331 33.3733 98.2865 33.2533 98.3931 33.16C98.4998 33.0533 98.6198 33 98.7531 33H101.773C101.92 33 102.04 33.0533 102.133 33.16C102.24 33.2533 102.293 33.3733 102.293 33.52V46.48C102.293 46.6267 102.24 46.7533 102.133 46.86C102.04 46.9533 101.92 47 101.773 47H99.1331C98.8798 47 98.6998 46.9467 98.5931 46.84C98.4865 46.72 98.4131 46.6333 98.3731 46.58L94.2531 40.34V46.48C94.2531 46.6267 94.1998 46.7533 94.0931 46.86C93.9998 46.9533 93.8798 47 93.7331 47H90.7131ZM110.343 47.2C108.943 47.2 107.776 47.0067 106.843 46.62C105.923 46.22 105.229 45.7067 104.763 45.08C104.309 44.44 104.069 43.7667 104.043 43.06C104.043 42.94 104.083 42.84 104.163 42.76C104.243 42.68 104.343 42.64 104.463 42.64H107.643C107.829 42.64 107.976 42.6733 108.083 42.74C108.189 42.7933 108.303 42.8733 108.423 42.98C108.543 43.1267 108.683 43.2667 108.842 43.4C109.003 43.52 109.209 43.62 109.463 43.7C109.716 43.7667 110.009 43.8 110.343 43.8C110.956 43.8 111.429 43.72 111.763 43.56C112.096 43.3867 112.263 43.1533 112.263 42.86C112.263 42.6333 112.169 42.4467 111.983 42.3C111.809 42.1533 111.509 42.02 111.083 41.9C110.656 41.78 110.076 41.6533 109.343 41.52C108.316 41.3467 107.429 41.0933 106.683 40.76C105.936 40.4133 105.363 39.9533 104.963 39.38C104.576 38.7933 104.383 38.0733 104.383 37.22C104.383 36.3533 104.623 35.5867 105.103 34.92C105.596 34.2533 106.276 33.7333 107.143 33.36C108.023 32.9867 109.043 32.8 110.203 32.8C111.163 32.8 112.009 32.9267 112.743 33.18C113.489 33.4333 114.116 33.7667 114.623 34.18C115.129 34.58 115.516 35.0133 115.783 35.48C116.049 35.9467 116.189 36.3933 116.203 36.82C116.203 36.94 116.156 37.0467 116.062 37.14C115.983 37.22 115.889 37.26 115.783 37.26H112.443C112.283 37.26 112.143 37.2333 112.023 37.18C111.916 37.1267 111.816 37.04 111.723 36.92C111.656 36.7333 111.489 36.5667 111.223 36.42C110.956 36.2733 110.616 36.2 110.203 36.2C109.749 36.2 109.403 36.28 109.163 36.44C108.923 36.5867 108.803 36.8067 108.803 37.1C108.803 37.3 108.876 37.4733 109.023 37.62C109.169 37.7667 109.429 37.9 109.803 38.02C110.176 38.1267 110.696 38.2467 111.363 38.38C112.629 38.5667 113.649 38.8333 114.423 39.18C115.209 39.5267 115.783 39.98 116.143 40.54C116.503 41.1 116.683 41.8 116.683 42.64C116.683 43.5867 116.409 44.4 115.863 45.08C115.316 45.76 114.563 46.2867 113.603 46.66C112.656 47.02 111.569 47.2 110.343 47.2ZM124.436 47.2C123.156 47.2 122.043 47 121.096 46.6C120.163 46.2 119.423 45.6 118.876 44.8C118.343 43.9867 118.056 42.98 118.016 41.78C118.003 41.22 117.996 40.6467 117.996 40.06C117.996 39.46 118.003 38.8667 118.016 38.28C118.056 37.0933 118.343 36.0933 118.876 35.28C119.423 34.4667 120.17 33.8533 121.116 33.44C122.063 33.0133 123.17 32.8 124.436 32.8C125.69 32.8 126.79 33.0133 127.736 33.44C128.683 33.8533 129.43 34.4667 129.976 35.28C130.523 36.0933 130.81 37.0933 130.836 38.28C130.863 38.8667 130.876 39.46 130.876 40.06C130.876 40.6467 130.863 41.22 130.836 41.78C130.796 42.98 130.503 43.9867 129.956 44.8C129.423 45.6 128.683 46.2 127.736 46.6C126.803 47 125.703 47.2 124.436 47.2ZM124.436 43.8C124.996 43.8 125.456 43.6333 125.816 43.3C126.176 42.9533 126.363 42.4067 126.376 41.66C126.403 41.0867 126.416 40.5333 126.416 40C126.416 39.4533 126.403 38.9 126.376 38.34C126.363 37.8467 126.27 37.44 126.096 37.12C125.936 36.8 125.71 36.5667 125.416 36.42C125.136 36.2733 124.81 36.2 124.436 36.2C124.063 36.2 123.73 36.2733 123.436 36.42C123.143 36.5667 122.91 36.8 122.736 37.12C122.576 37.44 122.49 37.8467 122.476 38.34C122.463 38.9 122.456 39.4533 122.456 40C122.456 40.5333 122.463 41.0867 122.476 41.66C122.503 42.4067 122.69 42.9533 123.036 43.3C123.396 43.6333 123.863 43.8 124.436 43.8ZM133.448 47C133.314 47 133.194 46.9533 133.088 46.86C132.981 46.7533 132.928 46.6267 132.928 46.48V33.52C132.928 33.3733 132.981 33.2533 133.088 33.16C133.194 33.0533 133.314 33 133.448 33H139.148C140.961 33 142.381 33.4133 143.408 34.24C144.448 35.0667 144.968 36.22 144.968 37.7C144.968 38.6333 144.754 39.4267 144.328 40.08C143.901 40.7333 143.341 41.2467 142.648 41.62L145.248 46.34C145.288 46.42 145.308 46.4933 145.308 46.56C145.308 46.68 145.268 46.7867 145.188 46.88C145.108 46.96 145.008 47 144.888 47H141.508C141.254 47 141.061 46.94 140.928 46.82C140.794 46.6867 140.708 46.5667 140.668 46.46L138.668 42.34H137.228V46.48C137.228 46.6267 137.174 46.7533 137.068 46.86C136.974 46.9533 136.854 47 136.708 47H133.448ZM137.228 39.04H139.128C139.594 39.04 139.941 38.9133 140.168 38.66C140.394 38.3933 140.508 38.0667 140.508 37.68C140.508 37.28 140.394 36.94 140.168 36.66C139.954 36.38 139.608 36.24 139.128 36.24H137.228V39.04ZM147.588 47C147.455 47 147.335 46.9533 147.228 46.86C147.121 46.7533 147.068 46.6267 147.068 46.48V33.52C147.068 33.3733 147.121 33.2533 147.228 33.16C147.335 33.0533 147.455 33 147.588 33H157.388C157.535 33 157.661 33.0533 157.768 33.16C157.875 33.2533 157.928 33.3733 157.928 33.52V35.88C157.928 36.0133 157.875 36.1333 157.768 36.24C157.661 36.3467 157.535 36.4 157.388 36.4H151.208V38.38H156.948C157.095 38.38 157.221 38.4333 157.328 38.54C157.435 38.6333 157.488 38.7533 157.488 38.9V41.06C157.488 41.2067 157.435 41.3333 157.328 41.44C157.221 41.5333 157.095 41.58 156.948 41.58H151.208V43.6H157.548C157.695 43.6 157.821 43.6533 157.928 43.76C158.035 43.8667 158.088 43.9933 158.088 44.14V46.48C158.088 46.6267 158.035 46.7533 157.928 46.86C157.821 46.9533 157.695 47 157.548 47H147.588ZM160.655 47C160.521 47 160.401 46.9533 160.295 46.86C160.188 46.7533 160.135 46.6267 160.135 46.48V33.52C160.135 33.3733 160.188 33.2533 160.295 33.16C160.401 33.0533 160.521 33 160.655 33H166.135C167.428 33 168.548 33.2133 169.495 33.64C170.441 34.0533 171.188 34.6667 171.735 35.48C172.281 36.2933 172.575 37.2933 172.615 38.48C172.641 39.0533 172.655 39.56 172.655 40C172.655 40.44 172.641 40.94 172.615 41.5C172.561 42.7533 172.275 43.7867 171.755 44.6C171.248 45.4133 170.528 46.02 169.595 46.42C168.661 46.8067 167.541 47 166.235 47H160.655ZM164.435 43.6H166.135C166.575 43.6 166.948 43.5267 167.255 43.38C167.561 43.2333 167.801 43.0067 167.975 42.7C168.148 42.38 168.241 41.9733 168.255 41.48C168.268 41.0933 168.275 40.7467 168.275 40.44C168.288 40.1333 168.288 39.8267 168.275 39.52C168.275 39.2133 168.268 38.8733 168.255 38.5C168.228 37.7667 168.015 37.2333 167.615 36.9C167.228 36.5667 166.701 36.4 166.035 36.4H164.435V43.6ZM177.442 47C177.322 47 177.215 46.96 177.122 46.88C177.042 46.7867 177.002 46.68 177.002 46.56C177.002 46.5067 177.015 46.46 177.042 46.42L181.602 33.62C181.642 33.4733 181.729 33.3333 181.862 33.2C182.009 33.0667 182.202 33 182.442 33H186.102C186.355 33 186.549 33.0667 186.682 33.2C186.815 33.3333 186.902 33.4733 186.942 33.62L191.522 46.42C191.535 46.46 191.542 46.5067 191.542 46.56C191.542 46.68 191.495 46.7867 191.402 46.88C191.322 46.96 191.222 47 191.102 47H188.022C187.795 47 187.629 46.9467 187.522 46.84C187.415 46.7333 187.342 46.6333 187.302 46.54L186.682 44.86H181.862L181.242 46.54C181.202 46.6333 181.129 46.7333 181.022 46.84C180.929 46.9467 180.762 47 180.522 47H177.442ZM182.782 41.48H185.762L184.262 36.98L182.782 41.48ZM193.389 47C193.256 47 193.136 46.9533 193.029 46.86C192.922 46.7533 192.869 46.6267 192.869 46.48V33.52C192.869 33.3733 192.922 33.2533 193.029 33.16C193.136 33.0533 193.256 33 193.389 33H198.869C200.162 33 201.282 33.2133 202.229 33.64C203.176 34.0533 203.922 34.6667 204.469 35.48C205.016 36.2933 205.309 37.2933 205.349 38.48C205.376 39.0533 205.389 39.56 205.389 40C205.389 40.44 205.376 40.94 205.349 41.5C205.296 42.7533 205.009 43.7867 204.489 44.6C203.982 45.4133 203.262 46.02 202.329 46.42C201.396 46.8067 200.276 47 198.969 47H193.389ZM197.169 43.6H198.869C199.309 43.6 199.682 43.5267 199.989 43.38C200.296 43.2333 200.536 43.0067 200.709 42.7C200.882 42.38 200.976 41.9733 200.989 41.48C201.002 41.0933 201.009 40.7467 201.009 40.44C201.022 40.1333 201.022 39.8267 201.009 39.52C201.009 39.2133 201.002 38.8733 200.989 38.5C200.962 37.7667 200.749 37.2333 200.349 36.9C199.962 36.5667 199.436 36.4 198.769 36.4H197.169V43.6ZM210.91 47C210.67 47 210.477 46.9333 210.33 46.8C210.197 46.6667 210.11 46.5267 210.07 46.38L206.13 33.58C206.117 33.5267 206.11 33.48 206.11 33.44C206.11 33.32 206.15 33.22 206.23 33.14C206.324 33.0467 206.43 33 206.55 33H209.65C209.89 33 210.077 33.0667 210.21 33.2C210.344 33.3333 210.43 33.4667 210.47 33.6L212.83 41.94L215.19 33.6C215.23 33.4667 215.317 33.3333 215.45 33.2C215.584 33.0667 215.77 33 216.01 33H219.11C219.23 33 219.33 33.0467 219.41 33.14C219.49 33.22 219.53 33.32 219.53 33.44C219.53 33.48 219.524 33.5267 219.51 33.58L215.59 46.38C215.55 46.5267 215.457 46.6667 215.31 46.8C215.177 46.9333 214.984 47 214.73 47H210.91ZM221.69 47C221.556 47 221.436 46.9533 221.33 46.86C221.223 46.7533 221.17 46.6267 221.17 46.48V33.52C221.17 33.3733 221.223 33.2533 221.33 33.16C221.436 33.0533 221.556 33 221.69 33H231.49C231.636 33 231.763 33.0533 231.87 33.16C231.976 33.2533 232.03 33.3733 232.03 33.52V35.88C232.03 36.0133 231.976 36.1333 231.87 36.24C231.763 36.3467 231.636 36.4 231.49 36.4H225.31V38.38H231.05C231.196 38.38 231.323 38.4333 231.43 38.54C231.536 38.6333 231.59 38.7533 231.59 38.9V41.06C231.59 41.2067 231.536 41.3333 231.43 41.44C231.323 41.5333 231.196 41.58 231.05 41.58H225.31V43.6H231.65C231.796 43.6 231.923 43.6533 232.03 43.76C232.136 43.8667 232.19 43.9933 232.19 44.14V46.48C232.19 46.6267 232.136 46.7533 232.03 46.86C231.923 46.9533 231.796 47 231.65 47H221.69ZM234.756 47C234.623 47 234.503 46.9533 234.396 46.86C234.289 46.7533 234.236 46.6267 234.236 46.48V33.52C234.236 33.3733 234.289 33.2533 234.396 33.16C234.503 33.0533 234.623 33 234.756 33H240.456C242.269 33 243.689 33.4133 244.716 34.24C245.756 35.0667 246.276 36.22 246.276 37.7C246.276 38.6333 246.063 39.4267 245.636 40.08C245.209 40.7333 244.649 41.2467 243.956 41.62L246.556 46.34C246.596 46.42 246.616 46.4933 246.616 46.56C246.616 46.68 246.576 46.7867 246.496 46.88C246.416 46.96 246.316 47 246.196 47H242.816C242.563 47 242.369 46.94 242.236 46.82C242.103 46.6867 242.016 46.5667 241.976 46.46L239.976 42.34H238.536V46.48C238.536 46.6267 238.483 46.7533 238.376 46.86C238.283 46.9533 238.163 47 238.016 47H234.756ZM238.536 39.04H240.436C240.903 39.04 241.249 38.9133 241.476 38.66C241.703 38.3933 241.816 38.0667 241.816 37.68C241.816 37.28 241.703 36.94 241.476 36.66C241.263 36.38 240.916 36.24 240.436 36.24H238.536V39.04ZM251.86 47C251.713 47 251.587 46.9533 251.48 46.86C251.387 46.7533 251.34 46.6267 251.34 46.48V36.72H247.9C247.753 36.72 247.627 36.6733 247.52 36.58C247.427 36.4733 247.38 36.3467 247.38 36.2V33.52C247.38 33.3733 247.427 33.2533 247.52 33.16C247.627 33.0533 247.753 33 247.9 33H259.14C259.287 33 259.407 33.0533 259.5 33.16C259.607 33.2533 259.66 33.3733 259.66 33.52V36.2C259.66 36.3467 259.607 36.4733 259.5 36.58C259.407 36.6733 259.287 36.72 259.14 36.72H255.7V46.48C255.7 46.6267 255.647 46.7533 255.54 46.86C255.447 46.9533 255.327 47 255.18 47H251.86Z"/>
</mask>
<path d="M50.28 46.62L49.8813 47.5371L49.8892 47.5405L49.8973 47.5439L50.28 46.62ZM48.2 45.08L47.384 45.658L47.3909 45.6677L47.398 45.6773L48.2 45.08ZM47.48 43.06H46.48V43.0789L46.4807 43.0977L47.48 43.06ZM51.52 42.74L50.99 43.588L51.0303 43.6132L51.0728 43.6344L51.52 42.74ZM51.86 42.98L52.634 42.3468L52.5837 42.2853L52.5244 42.2326L51.86 42.98ZM52.28 43.4L51.6398 44.1682L51.6595 44.1846L51.68 44.2L52.28 43.4ZM52.9 43.7L52.5989 44.6536L52.622 44.6609L52.6455 44.6671L52.9 43.7ZM55.2 43.56L55.6327 44.4615L55.6472 44.4546L55.6614 44.4472L55.2 43.56ZM55.42 42.3L54.7741 43.0634L54.7879 43.0751L54.8022 43.0863L55.42 42.3ZM54.52 41.9L54.7907 40.9373H54.7907L54.52 41.9ZM52.78 41.52L52.9589 40.5361L52.9465 40.534L52.78 41.52ZM50.12 40.76L49.6989 41.667L49.7056 41.6701L49.7123 41.6731L50.12 40.76ZM48.4 39.38L47.565 39.9303L47.5723 39.9413L47.5799 39.9522L48.4 39.38ZM48.54 34.92L47.7361 34.3251L47.7285 34.3357L48.54 34.92ZM50.58 33.36L50.1894 32.4394L50.1844 32.4416L50.58 33.36ZM56.18 33.18L55.8535 34.1252L55.8587 34.127L56.18 33.18ZM58.06 34.18L57.4279 34.9549L57.4341 34.9599L57.4404 34.9649L58.06 34.18ZM59.22 35.48L58.3518 35.9761V35.9761L59.22 35.48ZM59.64 36.82H60.64V36.8044L60.6395 36.7888L59.64 36.82ZM59.5 37.14L58.7929 36.4329L58.7929 36.4329L59.5 37.14ZM55.46 37.18L55.0128 38.0744L55.0331 38.0846L55.0539 38.0938L55.46 37.18ZM55.16 36.92L54.2183 37.2563L54.2722 37.4074L54.3706 37.5339L55.16 36.92ZM54.66 36.42L55.1419 35.5438L55.1419 35.5438L54.66 36.42ZM52.6 36.44L53.1214 37.2933L53.1383 37.283L53.1547 37.272L52.6 36.44ZM52.46 37.62L51.7529 38.3271L51.7529 38.3271L52.46 37.62ZM53.24 38.02L52.934 38.972L52.9496 38.977L52.9653 38.9815L53.24 38.02ZM54.8 38.38L54.6039 39.3606L54.6289 39.3656L54.6542 39.3693L54.8 38.38ZM57.86 39.18L57.4509 40.0925L57.4567 40.0951L57.86 39.18ZM59.58 40.54L58.7388 41.0808L58.7388 41.0808L59.58 40.54ZM57.04 46.66L57.3955 47.5947L57.4024 47.592L57.04 46.66ZM53.78 46.2C52.4641 46.2 51.4376 46.0172 50.6627 45.6961L49.8973 47.5439C50.9891 47.9962 52.2959 48.2 53.78 48.2V46.2ZM50.6787 45.7029C49.8743 45.3532 49.3389 44.9351 49.002 44.4827L47.398 45.6773C47.9944 46.4782 48.8457 47.0868 49.8813 47.5371L50.6787 45.7029ZM49.016 44.502C48.6623 44.0025 48.4978 43.514 48.4793 43.0223L46.4807 43.0977C46.5155 44.0193 46.8311 44.8775 47.384 45.658L49.016 44.502ZM48.48 43.06C48.48 43.1127 48.4708 43.1855 48.4385 43.2664C48.4057 43.3484 48.3579 43.4163 48.3071 43.4671L46.8929 42.0529C46.6131 42.3327 46.48 42.6926 46.48 43.06H48.48ZM48.3071 43.4671C48.2563 43.5179 48.1884 43.5657 48.1064 43.5985C48.0255 43.6308 47.9527 43.64 47.9 43.64V41.64C47.5326 41.64 47.1727 41.7731 46.8929 42.0529L48.3071 43.4671ZM47.9 43.64H51.08V41.64H47.9V43.64ZM51.08 43.64C51.1158 43.64 51.1227 43.6434 51.1084 43.6401C51.0933 43.6367 51.0481 43.6243 50.99 43.588L52.05 41.892C51.7252 41.689 51.3692 41.64 51.08 41.64V43.64ZM51.0728 43.6344C51.0792 43.6376 51.1202 43.6603 51.1956 43.7274L52.5244 42.2326C52.3598 42.0863 52.1741 41.949 51.9672 41.8456L51.0728 43.6344ZM51.086 43.6132C51.25 43.8136 51.4358 43.9982 51.6398 44.1682L52.9202 42.6318C52.8042 42.5351 52.71 42.4397 52.634 42.3468L51.086 43.6132ZM51.68 44.2C51.9544 44.4058 52.2711 44.5501 52.5989 44.6536L53.2011 42.7464C53.0222 42.6899 52.9256 42.6342 52.88 42.6L51.68 44.2ZM52.6455 44.6671C53.0009 44.7606 53.3829 44.8 53.78 44.8V42.8C53.5105 42.8 53.3058 42.7727 53.1545 42.7329L52.6455 44.6671ZM53.78 44.8C54.4566 44.8 55.1035 44.7155 55.6327 44.4615L54.7673 42.6585C54.6298 42.7245 54.33 42.8 53.78 42.8V44.8ZM55.6614 44.4472C56.2162 44.1587 56.7 43.6355 56.7 42.86H54.7C54.7 42.8373 54.7034 42.8047 54.7154 42.767C54.7273 42.7292 54.7444 42.6974 54.7613 42.6738C54.7936 42.6285 54.8072 42.6371 54.7386 42.6728L55.6614 44.4472ZM56.7 42.86C56.7 42.31 56.4525 41.8395 56.0378 41.5137L54.8022 43.0863C54.7954 43.081 54.7635 43.053 54.7356 42.9972C54.707 42.94 54.7 42.8883 54.7 42.86H56.7ZM56.0659 41.5366C55.7221 41.2457 55.2487 41.0661 54.7907 40.9373L54.2493 42.8626C54.4312 42.9138 54.5649 42.9621 54.6589 43.0038C54.7572 43.0475 54.7841 43.0719 54.7741 43.0634L56.0659 41.5366ZM54.7907 40.9373C54.3204 40.8051 53.7054 40.6719 52.9589 40.5361L52.6011 42.5039C53.3213 42.6348 53.8663 42.7549 54.2493 42.8627L54.7907 40.9373ZM52.9465 40.534C51.9815 40.371 51.1797 40.138 50.5277 39.8469L49.7123 41.6731C50.5536 42.0487 51.5252 42.3223 52.6135 42.506L52.9465 40.534ZM50.5411 39.853C49.926 39.5674 49.5024 39.2124 49.2201 38.8078L47.5799 39.9522C48.0976 40.6943 48.8206 41.2593 49.6989 41.667L50.5411 39.853ZM49.235 38.8297C48.9771 38.4385 48.82 37.9201 48.82 37.22H46.82C46.82 38.2266 47.0496 39.1482 47.565 39.9303L49.235 38.8297ZM48.82 37.22C48.82 36.5508 49.001 35.9911 49.3515 35.5043L47.7285 34.3357C47.119 35.1822 46.82 36.1559 46.82 37.22H48.82ZM49.3438 35.5148C49.7183 35.0089 50.2485 34.5917 50.9756 34.2784L50.1844 32.4416C49.1782 32.875 48.3484 33.4978 47.7362 34.3252L49.3438 35.5148ZM50.9705 34.2806C51.7036 33.9696 52.5862 33.8 53.64 33.8V31.8C52.3738 31.8 51.2164 32.0038 50.1895 32.4394L50.9705 34.2806ZM53.64 33.8C54.5142 33.8 55.2467 33.9156 55.8535 34.1252L56.5065 32.2348C55.6466 31.9377 54.6858 31.8 53.64 31.8V33.8ZM55.8587 34.127C56.5149 34.3496 57.0306 34.6307 57.4279 34.9549L58.6921 33.4051C58.0761 32.9026 57.3384 32.517 56.5013 32.233L55.8587 34.127ZM57.4404 34.9649C57.8662 35.3011 58.1601 35.6407 58.3518 35.9761L60.0882 34.9839C59.7466 34.386 59.2672 33.8589 58.6796 33.3951L57.4404 34.9649ZM58.3518 35.9761C58.5579 36.3369 58.6334 36.6249 58.6405 36.8512L60.6395 36.7888C60.6199 36.1618 60.4154 35.5564 60.0882 34.9839L58.3518 35.9761ZM58.64 36.82C58.64 36.7464 58.6552 36.6662 58.6888 36.5892C58.7217 36.514 58.7631 36.4627 58.7929 36.4329L60.2071 37.8471C60.4674 37.5868 60.64 37.233 60.64 36.82H58.64ZM58.7929 36.4329C58.8326 36.3932 58.8932 36.3464 58.9761 36.3109C59.0601 36.2748 59.1449 36.26 59.22 36.26V38.26C59.6092 38.26 59.9522 38.102 60.2071 37.8471L58.7929 36.4329ZM59.22 36.26H55.88V38.26H59.22V36.26ZM55.88 36.26C55.8553 36.26 55.8435 36.2579 55.8421 36.2577C55.8412 36.2575 55.8503 36.2592 55.8661 36.2662L55.0539 38.0938C55.3265 38.215 55.61 38.26 55.88 38.26V36.26ZM55.9072 36.2856C55.9656 36.3148 55.9754 36.3395 55.9494 36.3061L54.3706 37.5339C54.5313 37.7405 54.7411 37.9386 55.0128 38.0744L55.9072 36.2856ZM56.1017 36.5837C55.9187 36.071 55.5124 35.7476 55.1419 35.5438L54.1781 37.2962C54.2136 37.3157 54.2386 37.332 54.2553 37.3441C54.272 37.3562 54.2784 37.3626 54.2779 37.3621C54.2761 37.3603 54.2433 37.3264 54.2183 37.2563L56.1017 36.5837ZM55.1419 35.5438C54.6842 35.292 54.1641 35.2 53.64 35.2V37.2C53.9426 37.2 54.1025 37.2547 54.1781 37.2962L55.1419 35.5438ZM53.64 35.2C53.0932 35.2 52.5188 35.2923 52.0453 35.608L53.1547 37.272C53.1539 37.2726 53.1826 37.2534 53.2649 37.2344C53.3476 37.2153 53.4695 37.2 53.64 37.2V35.2ZM52.0786 35.5867C51.5261 35.9243 51.24 36.4765 51.24 37.1H53.24C53.24 37.092 53.2407 37.1337 53.2079 37.1939C53.1741 37.2559 53.1323 37.2866 53.1214 37.2933L52.0786 35.5867ZM51.24 37.1C51.24 37.576 51.4265 38.0007 51.7529 38.3271L53.1671 36.9129C53.1755 36.9213 53.1976 36.9469 53.216 36.9904C53.2347 37.0346 53.24 37.0746 53.24 37.1H51.24ZM51.7529 38.3271C52.0729 38.6471 52.5213 38.8394 52.934 38.972L53.546 37.068C53.3948 37.0194 53.2898 36.9753 53.2213 36.9402C53.1492 36.9032 53.1436 36.8894 53.1671 36.9129L51.7529 38.3271ZM52.9653 38.9815C53.3768 39.0991 53.9272 39.2252 54.6039 39.3606L54.9961 37.3994C54.3395 37.2681 53.8499 37.1542 53.5147 37.0585L52.9653 38.9815ZM54.6542 39.3693C55.8713 39.5487 56.7925 39.7973 57.4509 40.0925L58.2691 38.2675C57.3809 37.8693 56.262 37.5847 54.9458 37.3907L54.6542 39.3693ZM57.4567 40.0951C58.1157 40.3855 58.5119 40.7277 58.7388 41.0808L60.4212 39.9992C59.9281 39.2323 59.1777 38.6679 58.2633 38.2649L57.4567 40.0951ZM58.7388 41.0808C58.9711 41.442 59.12 41.9418 59.12 42.64H61.12C61.12 41.6582 60.9089 40.758 60.4212 39.9992L58.7388 41.0808ZM59.12 42.64C59.12 43.3795 58.912 43.9665 58.5206 44.4534L60.0794 45.7066C60.7813 44.8335 61.12 43.7938 61.12 42.64H59.12ZM58.5206 44.4534C58.1021 44.974 57.5039 45.4066 56.6776 45.728L57.4024 47.592C58.4961 47.1667 59.4045 46.546 60.0794 45.7066L58.5206 44.4534ZM56.6846 45.7253C55.8726 46.0341 54.9101 46.2 53.78 46.2V48.2C55.1032 48.2 56.3141 48.0059 57.3954 47.5947L56.6846 45.7253ZM61.9937 46.86L61.2866 47.5671L61.3102 47.5907L61.3352 47.6126L61.9937 46.86ZM61.9937 33.16L62.6523 33.9126L62.6773 33.8907L62.7009 33.8671L61.9937 33.16ZM71.2138 33.52L70.8374 34.4465L70.8424 34.4485L71.2138 33.52ZM73.2338 40.4L74.0508 40.9767L74.0559 40.9692L73.2338 40.4ZM71.2138 41.9L70.8674 40.9619L70.8626 40.9637L71.2138 41.9ZM66.2938 42.38V41.38H65.2938V42.38H66.2938ZM66.1338 46.86L65.4266 46.1529L66.1338 46.86ZM66.2138 39.16H65.2138V40.16H66.2138V39.16ZM69.0737 38.82L69.7214 39.5819L69.7245 39.5793L69.0737 38.82ZM69.1737 36.7L69.9947 36.1289L69.1737 36.7ZM66.2138 36.24V35.24H65.2138V36.24H66.2138ZM62.3538 46C62.4066 46 62.4665 46.0098 62.5262 46.033C62.5849 46.0558 62.6269 46.0852 62.6523 46.1074L61.3352 47.6126C61.6117 47.8545 61.9621 48 62.3538 48V46ZM62.7009 46.1529C62.73 46.1821 62.7672 46.2299 62.7954 46.2969C62.8238 46.3645 62.8337 46.4291 62.8337 46.48H60.8337C60.8337 46.9002 60.9984 47.2789 61.2866 47.5671L62.7009 46.1529ZM62.8337 46.48V33.52H60.8337V46.48H62.8337ZM62.8337 33.52C62.8337 33.5702 62.824 33.6441 62.7876 33.7261C62.7507 33.8091 62.6994 33.8714 62.6523 33.9126L61.3352 32.4074C61.0031 32.6981 60.8337 33.0964 60.8337 33.52H62.8337ZM62.7009 33.8671C62.6802 33.8878 62.6374 33.9238 62.5699 33.9538C62.5 33.9849 62.4248 34 62.3538 34V32C61.9195 32 61.554 32.1855 61.2866 32.4529L62.7009 33.8671ZM62.3538 34H68.1938V32H62.3538V34ZM68.1938 34C69.2569 34 70.1302 34.1592 70.8374 34.4465L71.5901 32.5935C70.5906 32.1875 69.4506 32 68.1938 32V34ZM70.8424 34.4485C71.5419 34.7283 72.0489 35.1354 72.4065 35.6619L74.061 34.5381C73.4586 33.6513 72.619 33.0051 71.5851 32.5915L70.8424 34.4485ZM72.4065 35.6619C72.7488 36.1658 72.9538 36.8437 72.9538 37.76H74.9538C74.9538 36.543 74.6787 35.4476 74.061 34.5381L72.4065 35.6619ZM72.9538 37.76C72.9538 38.6772 72.7484 39.3442 72.4116 39.8308L74.0559 40.9692C74.6791 40.0692 74.9538 38.9761 74.9538 37.76H72.9538ZM72.4168 39.8233C72.0662 40.32 71.566 40.704 70.8674 40.9619L71.5601 42.8381C72.5949 42.456 73.4413 41.84 74.0507 40.9767L72.4168 39.8233ZM70.8626 40.9637C70.1475 41.2318 69.2651 41.38 68.1938 41.38V43.38C69.4424 43.38 70.5733 43.2082 71.5649 42.8363L70.8626 40.9637ZM68.1938 41.38H66.2938V43.38H68.1938V41.38ZM65.2938 42.38V46.48H67.2938V42.38H65.2938ZM65.2938 46.48C65.2938 46.4291 65.3037 46.3645 65.3321 46.2969C65.3603 46.2299 65.3975 46.1821 65.4266 46.1529L66.8409 47.5671C67.1291 47.2789 67.2938 46.9002 67.2938 46.48H65.2938ZM65.4266 46.1529C65.4755 46.104 65.5388 46.0612 65.6113 46.033C65.6818 46.0056 65.7402 46 65.7738 46V48C66.1533 48 66.5383 47.8696 66.8409 47.5671L65.4266 46.1529ZM65.7738 46H62.3538V48H65.7738V46ZM66.2138 40.16H68.0938V38.16H66.2138V40.16ZM68.0938 40.16C68.6911 40.16 69.2546 39.9787 69.7214 39.5819L68.4261 38.0581C68.3596 38.1146 68.2698 38.16 68.0938 38.16V40.16ZM69.7245 39.5793C70.2947 39.0905 70.4937 38.4009 70.4937 37.72H68.4937C68.4937 37.8748 68.4715 37.9639 68.4545 38.0083C68.44 38.0462 68.4283 38.0562 68.423 38.0607L69.7245 39.5793ZM70.4937 37.72C70.4937 37.1424 70.3245 36.6031 69.9947 36.1289L68.3528 37.2711C68.4497 37.4102 68.4937 37.551 68.4937 37.72H70.4937ZM69.9947 36.1289C69.5318 35.4636 68.8003 35.24 68.0938 35.24V37.24C68.2504 37.24 68.3265 37.2642 68.3519 37.275C68.3633 37.2799 68.3645 37.2819 68.3605 37.2787C68.3588 37.2774 68.3569 37.2757 68.3552 37.2739C68.3535 37.2721 68.3528 37.2709 68.3528 37.2711L69.9947 36.1289ZM68.0938 35.24H66.2138V37.24H68.0938V35.24ZM65.2138 36.24V39.16H67.2138V36.24H65.2138ZM78.3619 46.6L77.968 47.5192L77.9727 47.5211L78.3619 46.6ZM76.1419 44.8L75.3056 45.3484L75.3109 45.3563L75.3162 45.3642L76.1419 44.8ZM75.2819 41.78L74.2821 41.8038L74.2824 41.8133L75.2819 41.78ZM75.2819 38.28L74.2824 38.2463L74.2821 38.2573L75.2819 38.28ZM76.1419 35.28L75.3119 34.7221L75.3056 34.7316L76.1419 35.28ZM78.3819 33.44L78.782 34.3565L78.7928 34.3517L78.3819 33.44ZM85.0019 33.44L84.591 34.3517L84.6017 34.3565L85.0019 33.44ZM88.1019 38.28L87.1021 38.3025L87.1024 38.3139L87.1029 38.3254L88.1019 38.28ZM88.1019 41.78L87.103 41.7324L87.1027 41.7396L87.1024 41.7467L88.1019 41.78ZM87.2219 44.8L86.3919 44.2422L86.3898 44.2453L87.2219 44.8ZM85.0019 46.6L84.6127 45.6788L84.608 45.6809L85.0019 46.6ZM83.0819 43.3L83.7613 44.0338L83.7685 44.0271L83.7755 44.0203L83.0819 43.3ZM83.6419 41.66L82.643 41.6135L82.6423 41.6278L82.642 41.6421L83.6419 41.66ZM83.6419 38.34L82.6422 38.367L82.6425 38.3773L82.643 38.3876L83.6419 38.34ZM83.3619 37.12L82.4674 37.5672L82.4748 37.5819L82.4826 37.5963L83.3619 37.12ZM82.6819 36.42L82.2179 37.3058L82.2262 37.3102L82.2347 37.3144L82.6819 36.42ZM80.7019 36.42L80.2547 35.5256V35.5256L80.7019 36.42ZM80.0019 37.12L79.1226 36.6437L79.1148 36.6581L79.1074 36.6728L80.0019 37.12ZM79.7419 38.34L78.7422 38.313L78.7422 38.3162L79.7419 38.34ZM79.7419 41.66L78.7421 41.6833L78.7425 41.6957L79.7419 41.66ZM80.3019 43.3L79.5948 44.0071L79.6084 44.0207L79.6225 44.0338L80.3019 43.3ZM81.7019 46.2C80.5238 46.2 79.5484 46.0157 78.7511 45.6789L77.9727 47.5211C79.0687 47.9843 80.3199 48.2 81.7019 48.2V46.2ZM78.7558 45.6809C77.9884 45.352 77.4017 44.8711 76.9675 44.2358L75.3162 45.3642C75.9754 46.3289 76.8687 47.048 77.968 47.5191L78.7558 45.6809ZM76.9781 44.2516C76.5666 43.6241 76.3166 42.8062 76.2813 41.7467L74.2824 41.8133C74.3271 43.1538 74.6505 44.3493 75.3056 45.3484L76.9781 44.2516ZM76.2816 41.7562C76.2685 41.2045 76.2619 40.6391 76.2619 40.06H74.2619C74.2619 40.6542 74.2686 41.2355 74.2822 41.8038L76.2816 41.7562ZM76.2619 40.06C76.2619 39.4674 76.2685 38.8816 76.2816 38.3027L74.2821 38.2573C74.2686 38.8517 74.2619 39.4526 74.2619 40.06H76.2619ZM76.2813 38.3137C76.3165 37.2698 76.5654 36.4577 76.9781 35.8284L75.3056 34.7316C74.6516 35.729 74.3273 36.9168 74.2824 38.2463L76.2813 38.3137ZM76.9718 35.8378C77.4064 35.1913 77.9999 34.6979 78.782 34.3565L77.9817 32.5235C76.8705 33.0087 75.9707 33.7421 75.3119 34.7222L76.9718 35.8378ZM78.7928 34.3517C79.5851 33.9946 80.5464 33.8 81.7019 33.8V31.8C80.324 31.8 79.072 32.0321 77.971 32.5283L78.7928 34.3517ZM81.7019 33.8C82.8423 33.8 83.7974 33.994 84.591 34.3517L85.4128 32.5283C84.3131 32.0327 83.0681 31.8 81.7019 31.8V33.8ZM84.6017 34.3565C85.3838 34.6979 85.9773 35.1913 86.4119 35.8378L88.0718 34.7222C87.4131 33.7421 86.5133 33.0087 85.402 32.5235L84.6017 34.3565ZM86.4119 35.8378C86.8314 36.4619 87.0788 37.2662 87.1021 38.3025L89.1016 38.2575C89.0716 36.9205 88.7457 35.7247 88.0718 34.7222L86.4119 35.8378ZM87.1029 38.3254C87.1289 38.8966 87.1419 39.4748 87.1419 40.06H89.1419C89.1419 39.4452 89.1282 38.8367 89.1008 38.2346L87.1029 38.3254ZM87.1419 40.06C87.1419 40.6315 87.1289 41.189 87.103 41.7324L89.1007 41.8276C89.1282 41.251 89.1419 40.6618 89.1419 40.06H87.1419ZM87.1024 41.7467C87.0673 42.8017 86.8128 43.616 86.3919 44.2422L88.0518 45.3578C88.7243 44.3573 89.0565 43.1583 89.1013 41.8133L87.1024 41.7467ZM86.3898 44.2453C85.9726 44.8711 85.3921 45.3495 84.6127 45.6789L85.3911 47.5211C86.505 47.0505 87.4044 46.3289 88.0539 45.3547L86.3898 44.2453ZM84.608 45.6809C83.8258 46.0161 82.8656 46.2 81.7019 46.2V48.2C83.0715 48.2 84.3113 47.9839 85.3958 47.5191L84.608 45.6809ZM81.7019 44.8C82.4755 44.8 83.1902 44.5626 83.7613 44.0338L82.4025 42.5662C82.2536 42.7041 82.0482 42.8 81.7019 42.8V44.8ZM83.7755 44.0203C84.4036 43.4155 84.626 42.5601 84.6417 41.6779L82.642 41.6421C82.6311 42.2532 82.4802 42.4911 82.3882 42.5797L83.7755 44.0203ZM84.6408 41.7065C84.6681 41.1188 84.6819 40.5499 84.6819 40H82.6819C82.6819 40.5167 82.669 41.0545 82.643 41.6135L84.6408 41.7065ZM84.6819 40C84.6819 39.4371 84.6681 38.8679 84.6407 38.2924L82.643 38.3876C82.6689 38.9321 82.6819 39.4696 82.6819 40H84.6819ZM84.6415 38.313C84.6254 37.7157 84.5112 37.1422 84.2412 36.6437L82.4826 37.5963C82.5592 37.7378 82.6317 37.9776 82.6422 38.367L84.6415 38.313ZM84.2563 36.6728C84.0088 36.1779 83.6338 35.7779 83.1291 35.5256L82.2347 37.3144C82.3166 37.3554 82.3949 37.4221 82.4674 37.5672L84.2563 36.6728ZM83.1459 35.5342C82.6989 35.3 82.2076 35.2 81.7019 35.2V37.2C81.9428 37.2 82.1049 37.2466 82.2179 37.3058L83.1459 35.5342ZM81.7019 35.2C81.1949 35.2 80.705 35.3004 80.2547 35.5256L81.1491 37.3144C81.2855 37.2462 81.4622 37.2 81.7019 37.2V35.2ZM80.2547 35.5256C79.7579 35.774 79.3824 36.164 79.1226 36.6437L80.8812 37.5963C80.968 37.436 81.0592 37.3594 81.1491 37.3144L80.2547 35.5256ZM79.1074 36.6728C78.8622 37.1632 78.7581 37.7257 78.7422 38.313L80.7415 38.367C80.7523 37.9676 80.8215 37.7168 80.8963 37.5672L79.1074 36.6728ZM78.7422 38.3162C78.7286 38.8839 78.7219 39.4452 78.7219 40H80.7219C80.7219 39.4615 80.7284 38.9161 80.7416 38.3638L78.7422 38.3162ZM78.7219 40C78.7219 40.5416 78.7286 41.1027 78.7421 41.6832L80.7416 41.6368C80.7284 41.0706 80.7219 40.525 80.7219 40H78.7219ZM78.7425 41.6957C78.7736 42.5664 78.9954 43.4077 79.5948 44.0071L81.009 42.5929C80.9151 42.499 80.7635 42.2469 80.7412 41.6243L78.7425 41.6957ZM79.6225 44.0338C80.1981 44.5667 80.9219 44.8 81.7019 44.8V42.8C81.3352 42.8 81.1257 42.6999 80.9813 42.5662L79.6225 44.0338ZM90.3531 46.86L89.646 47.5671L89.6696 47.5907L89.6946 47.6126L90.3531 46.86ZM90.3531 33.16L91.0116 33.9126L91.0367 33.8907L91.0602 33.8671L90.3531 33.16ZM93.8931 33.18L93.1457 33.8444L93.1652 33.8663L93.186 33.8871L93.8931 33.18ZM94.1131 33.42L94.9621 32.8916L94.9392 32.8547L94.9131 32.82L94.1131 33.42ZM98.2331 40.04L97.3841 40.5684L99.2331 43.5394V40.04H98.2331ZM98.3931 33.16L99.0516 33.9126L99.0767 33.8907L99.1002 33.8671L98.3931 33.16ZM102.133 33.16L101.381 33.8185L101.424 33.8687L101.475 33.9126L102.133 33.16ZM102.133 46.86L102.84 47.5671L102.133 46.86ZM98.5931 46.84L97.8457 47.5044L97.8652 47.5263L97.886 47.5471L98.5931 46.84ZM98.3731 46.58L97.5386 47.131L97.5551 47.156L97.5731 47.18L98.3731 46.58ZM94.2531 40.34L95.0876 39.789L93.2531 37.0105V40.34H94.2531ZM94.0931 46.86L93.386 46.1529H93.386L94.0931 46.86ZM90.7131 46C90.766 46 90.8259 46.0098 90.8856 46.033C90.9443 46.0558 90.9863 46.0852 91.0116 46.1074L89.6946 47.6126C89.9711 47.8545 90.3215 48 90.7131 48V46ZM91.0602 46.1529C91.0894 46.1821 91.1265 46.2299 91.1548 46.2969C91.1832 46.3645 91.1931 46.4291 91.1931 46.48H89.1931C89.1931 46.9002 89.3578 47.2789 89.646 47.5671L91.0602 46.1529ZM91.1931 46.48V33.52H89.1931V46.48H91.1931ZM91.1931 33.52C91.1931 33.5702 91.1834 33.6441 91.1469 33.7261C91.1101 33.8091 91.0587 33.8714 91.0116 33.9126L89.6946 32.4074C89.3625 32.6981 89.1931 33.0964 89.1931 33.52H91.1931ZM91.0602 33.8671C91.0395 33.8878 90.9968 33.9238 90.9293 33.9538C90.8594 33.9849 90.7842 34 90.7131 34V32C90.2789 32 89.9134 32.1855 89.646 32.4529L91.0602 33.8671ZM90.7131 34H93.3731V32H90.7131V34ZM93.3731 34C93.4142 34 93.4013 34.0057 93.356 33.99C93.3042 33.9721 93.2215 33.9296 93.1457 33.8444L94.6405 32.5156C94.2665 32.0948 93.7563 32 93.3731 32V34ZM93.186 33.8871C93.2327 33.9338 93.267 33.9696 93.291 33.9957C93.3173 34.0245 93.3211 34.0307 93.3131 34.02L94.9131 32.82C94.827 32.7051 94.7093 32.582 94.6002 32.4729L93.186 33.8871ZM93.2641 33.9484L97.3841 40.5684L99.0821 39.5116L94.9621 32.8916L93.2641 33.9484ZM99.2331 40.04V33.52H97.2331V40.04H99.2331ZM99.2331 33.52C99.2331 33.5702 99.2234 33.6441 99.1869 33.7261C99.1501 33.8091 99.0987 33.8714 99.0516 33.9126L97.7346 32.4074C97.4025 32.6981 97.2331 33.0964 97.2331 33.52H99.2331ZM99.1002 33.8671C99.0795 33.8878 99.0368 33.9238 98.9693 33.9538C98.8994 33.9849 98.8242 34 98.7531 34V32C98.3189 32 97.9534 32.1855 97.686 32.4529L99.1002 33.8671ZM98.7531 34H101.773V32H98.7531V34ZM101.773 34C101.723 34 101.649 33.9903 101.567 33.9538C101.484 33.917 101.422 33.8656 101.381 33.8185L102.886 32.5015C102.595 32.1693 102.197 32 101.773 32V34ZM101.475 33.9126C101.428 33.8714 101.376 33.8091 101.339 33.7261C101.303 33.6441 101.293 33.5702 101.293 33.52H103.293C103.293 33.0964 103.124 32.6981 102.792 32.4074L101.475 33.9126ZM101.293 33.52V46.48H103.293V33.52H101.293ZM101.293 46.48C101.293 46.4291 101.303 46.3645 101.331 46.2969C101.36 46.2299 101.397 46.1821 101.426 46.1529L102.84 47.5671C103.128 47.2789 103.293 46.9002 103.293 46.48H101.293ZM101.426 46.1529C101.475 46.104 101.538 46.0612 101.611 46.033C101.681 46.0056 101.74 46 101.773 46V48C102.153 48 102.538 47.8696 102.84 47.5671L101.426 46.1529ZM101.773 46H99.1331V48H101.773V46ZM99.1331 46C99.0714 46 99.0642 45.9929 99.0922 46.0012C99.1235 46.0105 99.2103 46.043 99.3002 46.1329L97.886 47.5471C98.2733 47.9344 98.7844 48 99.1331 48V46ZM99.3405 46.1756C99.2339 46.0557 99.1856 45.9966 99.1731 45.98L97.5731 47.18C97.6407 47.2701 97.739 47.3843 97.8457 47.5044L99.3405 46.1756ZM99.2076 46.029L95.0876 39.789L93.4186 40.891L97.5386 47.131L99.2076 46.029ZM93.2531 40.34V46.48H95.2531V40.34H93.2531ZM93.2531 46.48C93.2531 46.4291 93.263 46.3645 93.2915 46.2969C93.3197 46.2299 93.3568 46.1821 93.386 46.1529L94.8002 47.5671C95.0885 47.2789 95.2531 46.9002 95.2531 46.48H93.2531ZM93.386 46.1529C93.4349 46.104 93.4981 46.0612 93.5707 46.033C93.6412 46.0056 93.6996 46 93.7331 46V48C94.1127 48 94.4977 47.8696 94.8002 47.5671L93.386 46.1529ZM93.7331 46H90.7131V48H93.7331V46ZM106.842 46.62L106.444 47.5371L106.452 47.5405L106.46 47.5439L106.842 46.62ZM104.763 45.08L103.946 45.658L103.953 45.6677L103.96 45.6773L104.763 45.08ZM104.042 43.06H103.042V43.0789L103.043 43.0977L104.042 43.06ZM108.083 42.74L107.553 43.588L107.593 43.6132L107.635 43.6344L108.083 42.74ZM108.423 42.98L109.196 42.3468L109.146 42.2853L109.087 42.2326L108.423 42.98ZM108.842 43.4L108.202 44.1682L108.222 44.1846L108.243 44.2L108.842 43.4ZM109.463 43.7L109.161 44.6536L109.185 44.6609L109.208 44.6671L109.463 43.7ZM111.762 43.56L112.195 44.4615L112.21 44.4546L112.224 44.4472L111.762 43.56ZM111.982 42.3L111.337 43.0634L111.35 43.0751L111.365 43.0863L111.982 42.3ZM111.082 41.9L111.353 40.9373L111.082 41.9ZM109.342 41.52L109.521 40.5361L109.509 40.534L109.342 41.52ZM106.682 40.76L106.261 41.667L106.268 41.6701L106.275 41.6731L106.682 40.76ZM104.963 39.38L104.128 39.9303L104.135 39.9413L104.142 39.9522L104.963 39.38ZM105.103 34.92L104.299 34.3251L104.291 34.3357L105.103 34.92ZM107.143 33.36L106.752 32.4394L106.747 32.4416L107.143 33.36ZM112.743 33.18L112.416 34.1252L112.421 34.127L112.743 33.18ZM114.622 34.18L113.99 34.9549L113.997 34.9599L114.003 34.9649L114.622 34.18ZM115.783 35.48L114.914 35.9761L114.914 35.9761L115.783 35.48ZM116.202 36.82H117.202V36.8044L117.202 36.7888L116.202 36.82ZM116.062 37.14L115.355 36.4329V36.4329L116.062 37.14ZM112.022 37.18L111.575 38.0744L111.596 38.0846L111.616 38.0938L112.022 37.18ZM111.723 36.92L110.781 37.2563L110.835 37.4074L110.933 37.5339L111.723 36.92ZM111.223 36.42L111.704 35.5438L111.704 35.5438L111.223 36.42ZM109.162 36.44L109.684 37.2933L109.701 37.283L109.717 37.272L109.162 36.44ZM109.022 37.62L108.315 38.3271L108.315 38.3271L109.022 37.62ZM109.803 38.02L109.496 38.972L109.512 38.977L109.528 38.9815L109.803 38.02ZM111.363 38.38L111.166 39.3606L111.191 39.3656L111.217 39.3693L111.363 38.38ZM114.423 39.18L114.013 40.0925L114.019 40.0951L114.423 39.18ZM116.143 40.54L115.301 41.0808V41.0808L116.143 40.54ZM113.603 46.66L113.958 47.5947L113.965 47.592L113.603 46.66ZM110.342 46.2C109.027 46.2 108 46.0172 107.225 45.6961L106.46 47.5439C107.552 47.9962 108.858 48.2 110.342 48.2V46.2ZM107.241 45.7029C106.437 45.3532 105.901 44.9351 105.565 44.4827L103.96 45.6773C104.557 46.4782 105.408 47.0868 106.444 47.5371L107.241 45.7029ZM105.579 44.502C105.225 44.0025 105.06 43.514 105.042 43.0223L103.043 43.0977C103.078 44.0193 103.394 44.8775 103.946 45.658L105.579 44.502ZM105.042 43.06C105.042 43.1127 105.033 43.1855 105.001 43.2664C104.968 43.3484 104.92 43.4163 104.87 43.4671L103.455 42.0529C103.176 42.3327 103.042 42.6926 103.042 43.06H105.042ZM104.87 43.4671C104.819 43.5179 104.751 43.5657 104.669 43.5985C104.588 43.6308 104.515 43.64 104.463 43.64V41.64C104.095 41.64 103.735 41.7731 103.455 42.0529L104.87 43.4671ZM104.463 43.64H107.643V41.64H104.463V43.64ZM107.643 43.64C107.678 43.64 107.685 43.6434 107.671 43.6401C107.656 43.6367 107.611 43.6243 107.553 43.588L108.612 41.892C108.288 41.689 107.932 41.64 107.643 41.64V43.64ZM107.635 43.6344C107.642 43.6376 107.683 43.6603 107.758 43.7274L109.087 42.2326C108.922 42.0863 108.737 41.949 108.53 41.8456L107.635 43.6344ZM107.649 43.6132C107.812 43.8136 107.998 43.9982 108.202 44.1682L109.483 42.6318C109.367 42.5351 109.273 42.4397 109.196 42.3468L107.649 43.6132ZM108.243 44.2C108.517 44.4058 108.834 44.5501 109.161 44.6536L109.764 42.7464C109.585 42.6899 109.488 42.6342 109.443 42.6L108.243 44.2ZM109.208 44.6671C109.563 44.7606 109.945 44.8 110.342 44.8V42.8C110.073 42.8 109.868 42.7727 109.717 42.7329L109.208 44.6671ZM110.342 44.8C111.019 44.8 111.666 44.7155 112.195 44.4615L111.33 42.6585C111.192 42.7245 110.893 42.8 110.342 42.8V44.8ZM112.224 44.4472C112.779 44.1587 113.262 43.6355 113.262 42.86H111.262C111.262 42.8373 111.266 42.8047 111.278 42.767C111.29 42.7292 111.307 42.6974 111.324 42.6738C111.356 42.6285 111.37 42.6371 111.301 42.6728L112.224 44.4472ZM113.262 42.86C113.262 42.31 113.015 41.8395 112.6 41.5137L111.365 43.0863C111.358 43.081 111.326 43.053 111.298 42.9972C111.269 42.94 111.262 42.8883 111.262 42.86H113.262ZM112.628 41.5366C112.285 41.2457 111.811 41.0661 111.353 40.9373L110.812 42.8626C110.994 42.9138 111.127 42.9621 111.221 43.0038C111.32 43.0475 111.347 43.0719 111.337 43.0634L112.628 41.5366ZM111.353 40.9373C110.883 40.8051 110.268 40.6719 109.521 40.5361L109.164 42.5039C109.884 42.6348 110.429 42.7549 110.812 42.8627L111.353 40.9373ZM109.509 40.534C108.544 40.371 107.742 40.138 107.09 39.8469L106.275 41.6731C107.116 42.0487 108.088 42.3223 109.176 42.506L109.509 40.534ZM107.104 39.853C106.489 39.5674 106.065 39.2124 105.783 38.8078L104.142 39.9522C104.66 40.6943 105.383 41.2593 106.261 41.667L107.104 39.853ZM105.797 38.8297C105.54 38.4385 105.382 37.9201 105.382 37.22H103.382C103.382 38.2266 103.612 39.1482 104.128 39.9303L105.797 38.8297ZM105.382 37.22C105.382 36.5508 105.564 35.9911 105.914 35.5043L104.291 34.3357C103.681 35.1822 103.382 36.1559 103.382 37.22H105.382ZM105.906 35.5148C106.281 35.0089 106.811 34.5917 107.538 34.2784L106.747 32.4416C105.741 32.875 104.911 33.4978 104.299 34.3252L105.906 35.5148ZM107.533 34.2806C108.266 33.9696 109.149 33.8 110.202 33.8V31.8C108.936 31.8 107.779 32.0038 106.752 32.4394L107.533 34.2806ZM110.202 33.8C111.077 33.8 111.809 33.9156 112.416 34.1252L113.069 32.2348C112.209 31.9377 111.248 31.8 110.202 31.8V33.8ZM112.421 34.127C113.077 34.3496 113.593 34.6307 113.99 34.9549L115.255 33.4051C114.639 32.9026 113.901 32.517 113.064 32.233L112.421 34.127ZM114.003 34.9649C114.429 35.3011 114.723 35.6407 114.914 35.9761L116.651 34.9839C116.309 34.386 115.83 33.8589 115.242 33.3951L114.003 34.9649ZM114.914 35.9761C115.12 36.3369 115.196 36.6249 115.203 36.8512L117.202 36.7888C117.182 36.1618 116.978 35.5564 116.651 34.9839L114.914 35.9761ZM115.202 36.82C115.202 36.7464 115.218 36.6662 115.251 36.5892C115.284 36.514 115.326 36.4627 115.355 36.4329L116.77 37.8471C117.03 37.5868 117.202 37.233 117.202 36.82H115.202ZM115.355 36.4329C115.395 36.3932 115.456 36.3464 115.539 36.3109C115.623 36.2748 115.707 36.26 115.783 36.26V38.26C116.172 38.26 116.515 38.102 116.77 37.8471L115.355 36.4329ZM115.783 36.26H112.442V38.26H115.783V36.26ZM112.442 36.26C112.418 36.26 112.406 36.2579 112.405 36.2577C112.404 36.2575 112.413 36.2592 112.429 36.2662L111.616 38.0938C111.889 38.215 112.172 38.26 112.442 38.26V36.26ZM112.47 36.2856C112.528 36.3148 112.538 36.3395 112.512 36.3061L110.933 37.5339C111.094 37.7405 111.304 37.9386 111.575 38.0744L112.47 36.2856ZM112.664 36.5837C112.481 36.071 112.075 35.7476 111.704 35.5438L110.741 37.2962C110.776 37.3157 110.801 37.332 110.818 37.3441C110.835 37.3562 110.841 37.3626 110.84 37.3621C110.839 37.3603 110.806 37.3264 110.781 37.2563L112.664 36.5837ZM111.704 35.5438C111.247 35.292 110.727 35.2 110.202 35.2V37.2C110.505 37.2 110.665 37.2547 110.741 37.2962L111.704 35.5438ZM110.202 35.2C109.656 35.2 109.081 35.2923 108.608 35.608L109.717 37.272C109.716 37.2726 109.745 37.2534 109.827 37.2344C109.91 37.2153 110.032 37.2 110.202 37.2V35.2ZM108.641 35.5867C108.089 35.9243 107.803 36.4765 107.803 37.1H109.803C109.803 37.092 109.803 37.1337 109.77 37.1939C109.737 37.2559 109.695 37.2866 109.684 37.2933L108.641 35.5867ZM107.803 37.1C107.803 37.576 107.989 38.0007 108.315 38.3271L109.73 36.9129C109.738 36.9213 109.76 36.9469 109.778 36.9904C109.797 37.0346 109.803 37.0746 109.803 37.1H107.803ZM108.315 38.3271C108.635 38.6471 109.084 38.8394 109.496 38.972L110.109 37.068C109.957 37.0194 109.852 36.9753 109.784 36.9402C109.712 36.9032 109.706 36.8894 109.73 36.9129L108.315 38.3271ZM109.528 38.9815C109.939 39.0991 110.49 39.2252 111.166 39.3606L111.559 37.3994C110.902 37.2681 110.412 37.1542 110.077 37.0585L109.528 38.9815ZM111.217 39.3693C112.434 39.5487 113.355 39.7973 114.013 40.0925L114.832 38.2675C113.943 37.8693 112.825 37.5847 111.508 37.3907L111.217 39.3693ZM114.019 40.0951C114.678 40.3855 115.074 40.7277 115.301 41.0808L116.984 39.9992C116.491 39.2323 115.74 38.6679 114.826 38.2649L114.019 40.0951ZM115.301 41.0808C115.534 41.442 115.683 41.9418 115.683 42.64H117.683C117.683 41.6582 117.471 40.758 116.984 39.9992L115.301 41.0808ZM115.683 42.64C115.683 43.3795 115.475 43.9665 115.083 44.4534L116.642 45.7066C117.344 44.8335 117.683 43.7938 117.683 42.64H115.683ZM115.083 44.4534C114.665 44.974 114.066 45.4066 113.24 45.728L113.965 47.592C115.059 47.1667 115.967 46.546 116.642 45.7066L115.083 44.4534ZM113.247 45.7253C112.435 46.0341 111.473 46.2 110.342 46.2V48.2C111.666 48.2 112.877 48.0059 113.958 47.5947L113.247 45.7253ZM121.096 46.6L120.702 47.5192L120.707 47.5211L121.096 46.6ZM118.876 44.8L118.04 45.3484L118.045 45.3563L118.051 45.3642L118.876 44.8ZM118.016 41.78L117.016 41.8038L117.017 41.8133L118.016 41.78ZM118.016 38.28L117.017 38.2463L117.017 38.2573L118.016 38.28ZM118.876 35.28L118.046 34.7221L118.04 34.7316L118.876 35.28ZM121.116 33.44L121.516 34.3565L121.527 34.3517L121.116 33.44ZM127.736 33.44L127.325 34.3517L127.336 34.3565L127.736 33.44ZM130.836 38.28L129.837 38.3025L129.837 38.3139L129.837 38.3254L130.836 38.28ZM130.836 41.78L129.837 41.7324L129.837 41.7396L129.837 41.7467L130.836 41.78ZM129.956 44.8L129.126 44.2422L129.124 44.2453L129.956 44.8ZM127.736 46.6L127.347 45.6788L127.342 45.6809L127.736 46.6ZM125.816 43.3L126.496 44.0338L126.503 44.0271L126.51 44.0203L125.816 43.3ZM126.376 41.66L125.377 41.6135L125.377 41.6278L125.376 41.6421L126.376 41.66ZM126.376 38.34L125.377 38.367L125.377 38.3773L125.377 38.3876L126.376 38.34ZM126.096 37.12L125.202 37.5672L125.209 37.5819L125.217 37.5963L126.096 37.12ZM125.416 36.42L124.952 37.3058L124.961 37.3102L124.969 37.3144L125.416 36.42ZM123.436 36.42L122.989 35.5256V35.5256L123.436 36.42ZM122.736 37.12L121.857 36.6437L121.849 36.6581L121.842 36.6728L122.736 37.12ZM122.476 38.34L121.477 38.313L121.477 38.3162L122.476 38.34ZM122.476 41.66L121.476 41.6833L121.477 41.6957L122.476 41.66ZM123.036 43.3L122.329 44.0071L122.343 44.0207L122.357 44.0338L123.036 43.3ZM124.436 46.2C123.258 46.2 122.283 46.0157 121.485 45.6789L120.707 47.5211C121.803 47.9843 123.054 48.2 124.436 48.2V46.2ZM121.49 45.6809C120.723 45.352 120.136 44.8711 119.702 44.2358L118.051 45.3642C118.71 46.3289 119.603 47.048 120.702 47.5191L121.49 45.6809ZM119.712 44.2516C119.301 43.6241 119.051 42.8062 119.016 41.7467L117.017 41.8133C117.061 43.1538 117.385 44.3493 118.04 45.3484L119.712 44.2516ZM119.016 41.7562C119.003 41.2045 118.996 40.6391 118.996 40.06H116.996C116.996 40.6542 117.003 41.2355 117.017 41.8038L119.016 41.7562ZM118.996 40.06C118.996 39.4674 119.003 38.8816 119.016 38.3027L117.017 38.2573C117.003 38.8517 116.996 39.4526 116.996 40.06H118.996ZM119.016 38.3137C119.051 37.2698 119.3 36.4577 119.712 35.8284L118.04 34.7316C117.386 35.729 117.062 36.9168 117.017 38.2463L119.016 38.3137ZM119.706 35.8378C120.141 35.1913 120.734 34.6979 121.516 34.3565L120.716 32.5235C119.605 33.0087 118.705 33.7421 118.046 34.7222L119.706 35.8378ZM121.527 34.3517C122.32 33.9946 123.281 33.8 124.436 33.8V31.8C123.058 31.8 121.806 32.0321 120.705 32.5283L121.527 34.3517ZM124.436 33.8C125.577 33.8 126.532 33.994 127.325 34.3517L128.147 32.5283C127.047 32.0327 125.802 31.8 124.436 31.8V33.8ZM127.336 34.3565C128.118 34.6979 128.712 35.1913 129.146 35.8378L130.806 34.7222C130.147 33.7421 129.248 33.0087 128.136 32.5235L127.336 34.3565ZM129.146 35.8378C129.566 36.4619 129.813 37.2662 129.837 38.3025L131.836 38.2575C131.806 36.9205 131.48 35.7247 130.806 34.7222L129.146 35.8378ZM129.837 38.3254C129.863 38.8966 129.876 39.4748 129.876 40.06H131.876C131.876 39.4452 131.863 38.8367 131.835 38.2346L129.837 38.3254ZM129.876 40.06C129.876 40.6315 129.863 41.189 129.837 41.7324L131.835 41.8276C131.863 41.251 131.876 40.6618 131.876 40.06H129.876ZM129.837 41.7467C129.802 42.8017 129.547 43.616 129.126 44.2422L130.786 45.3578C131.459 44.3573 131.791 43.1583 131.836 41.8133L129.837 41.7467ZM129.124 44.2453C128.707 44.8711 128.126 45.3495 127.347 45.6789L128.125 47.5211C129.239 47.0505 130.139 46.3289 130.788 45.3547L129.124 44.2453ZM127.342 45.6809C126.56 46.0161 125.6 46.2 124.436 46.2V48.2C125.806 48.2 127.046 47.9839 128.13 47.5191L127.342 45.6809ZM124.436 44.8C125.21 44.8 125.925 44.5626 126.496 44.0338L125.137 42.5662C124.988 42.7041 124.783 42.8 124.436 42.8V44.8ZM126.51 44.0203C127.138 43.4155 127.36 42.5601 127.376 41.6779L125.376 41.6421C125.366 42.2532 125.215 42.4911 125.123 42.5797L126.51 44.0203ZM127.375 41.7065C127.403 41.1188 127.416 40.5499 127.416 40H125.416C125.416 40.5167 125.403 41.0545 125.377 41.6135L127.375 41.7065ZM127.416 40C127.416 39.4371 127.403 38.8679 127.375 38.2924L125.377 38.3876C125.403 38.9321 125.416 39.4696 125.416 40H127.416ZM127.376 38.313C127.36 37.7157 127.246 37.1422 126.976 36.6437L125.217 37.5963C125.294 37.7378 125.366 37.9776 125.377 38.367L127.376 38.313ZM126.991 36.6728C126.743 36.1779 126.368 35.7779 125.863 35.5256L124.969 37.3144C125.051 37.3554 125.129 37.4221 125.202 37.5672L126.991 36.6728ZM125.88 35.5342C125.433 35.3 124.942 35.2 124.436 35.2V37.2C124.677 37.2 124.839 37.2466 124.952 37.3058L125.88 35.5342ZM124.436 35.2C123.929 35.2 123.439 35.3004 122.989 35.5256L123.883 37.3144C124.02 37.2462 124.197 37.2 124.436 37.2V35.2ZM122.989 35.5256C122.492 35.774 122.117 36.164 121.857 36.6437L123.616 37.5963C123.702 37.436 123.794 37.3594 123.883 37.3144L122.989 35.5256ZM121.842 36.6728C121.597 37.1632 121.492 37.7257 121.477 38.313L123.476 38.367C123.487 37.9676 123.556 37.7168 123.631 37.5672L121.842 36.6728ZM121.477 38.3162C121.463 38.8839 121.456 39.4452 121.456 40H123.456C123.456 39.4615 123.463 38.9161 123.476 38.3638L121.477 38.3162ZM121.456 40C121.456 40.5416 121.463 41.1027 121.477 41.6832L123.476 41.6368C123.463 41.0706 123.456 40.525 123.456 40H121.456ZM121.477 41.6957C121.508 42.5664 121.73 43.4077 122.329 44.0071L123.743 42.5929C123.649 42.499 123.498 42.2469 123.476 41.6243L121.477 41.6957ZM122.357 44.0338C122.932 44.5667 123.656 44.8 124.436 44.8V42.8C124.07 42.8 123.86 42.6999 123.716 42.5662L122.357 44.0338ZM133.088 46.86L132.38 47.5671L132.404 47.5907L132.429 47.6126L133.088 46.86ZM133.088 33.16L133.746 33.9126L133.771 33.8907L133.795 33.8671L133.088 33.16ZM143.408 34.24L142.78 35.0189L142.785 35.0228L143.408 34.24ZM142.647 41.62L142.173 40.7395L141.284 41.2182L141.772 42.1025L142.647 41.62ZM145.247 46.34L146.142 45.8928L146.133 45.875L146.123 45.8575L145.247 46.34ZM145.188 46.88L145.895 47.5871L145.922 47.56L145.947 47.5308L145.188 46.88ZM140.927 46.82L140.22 47.5271L140.239 47.5457L140.259 47.5633L140.927 46.82ZM140.668 46.46L141.604 46.1089L141.587 46.0652L141.567 46.0233L140.668 46.46ZM138.668 42.34L139.567 41.9033L139.294 41.34H138.668V42.34ZM137.228 42.34V41.34H136.228V42.34H137.228ZM137.067 46.86L137.775 47.5671L137.067 46.86ZM137.228 39.04H136.228V40.04H137.228V39.04ZM140.168 38.66L140.913 39.3268L140.921 39.3173L140.929 39.3076L140.168 38.66ZM140.168 36.66L139.372 37.266L139.381 37.2778L139.39 37.2892L140.168 36.66ZM137.228 36.24V35.24H136.228V36.24H137.228ZM133.448 46C133.5 46 133.56 46.0098 133.62 46.033C133.679 46.0558 133.721 46.0852 133.746 46.1074L132.429 47.6126C132.705 47.8545 133.056 48 133.448 48V46ZM133.795 46.1529C133.824 46.1821 133.861 46.2299 133.889 46.2969C133.918 46.3645 133.927 46.4291 133.927 46.48H131.927C131.927 46.9002 132.092 47.2789 132.38 47.5671L133.795 46.1529ZM133.927 46.48V33.52H131.927V46.48H133.927ZM133.927 33.52C133.927 33.5702 133.918 33.6441 133.881 33.7261C133.844 33.8091 133.793 33.8714 133.746 33.9126L132.429 32.4074C132.097 32.6981 131.927 33.0964 131.927 33.52H133.927ZM133.795 33.8671C133.774 33.8878 133.731 33.9238 133.664 33.9538C133.594 33.9849 133.519 34 133.448 34V32C133.013 32 132.648 32.1855 132.38 32.4529L133.795 33.8671ZM133.448 34H139.147V32H133.448V34ZM139.147 34C140.818 34 141.988 34.3808 142.78 35.0189L144.035 33.4611C142.774 32.4459 141.104 32 139.147 32V34ZM142.785 35.0228C143.557 35.6365 143.967 36.4853 143.967 37.7H145.967C145.967 35.9547 145.338 34.4969 144.03 33.4572L142.785 35.0228ZM143.967 37.7C143.967 38.4777 143.791 39.072 143.49 39.5332L145.165 40.6268C145.717 39.7813 145.967 38.7889 145.967 37.7H143.967ZM143.49 39.5332C143.156 40.0454 142.721 40.4446 142.173 40.7395L143.122 42.5005C143.961 42.0487 144.646 41.4213 145.165 40.6268L143.49 39.5332ZM141.772 42.1025L144.372 46.8225L146.123 45.8575L143.523 41.1375L141.772 42.1025ZM144.353 46.7872C144.346 46.7736 144.308 46.6923 144.308 46.56H146.308C146.308 46.2944 146.229 46.0664 146.142 45.8928L144.353 46.7872ZM144.308 46.56C144.308 46.5066 144.317 46.4437 144.341 46.3789C144.365 46.3144 144.398 46.2643 144.428 46.2292L145.947 47.5308C146.178 47.2611 146.308 46.925 146.308 46.56H144.308ZM144.48 46.1729C144.531 46.1221 144.599 46.0743 144.681 46.0415C144.762 46.0092 144.835 46 144.887 46V48C145.255 48 145.615 47.8669 145.895 47.5871L144.48 46.1729ZM144.887 46H141.507V48H144.887V46ZM141.507 46C141.457 46 141.449 45.9938 141.469 45.9999C141.492 46.0073 141.543 46.0283 141.596 46.0767L140.259 47.5633C140.639 47.9057 141.109 48 141.507 48V46ZM141.635 46.1129C141.616 46.0941 141.602 46.0788 141.591 46.0668C141.581 46.0548 141.575 46.0474 141.573 46.0445C141.571 46.0416 141.574 46.045 141.579 46.0547C141.585 46.0643 141.594 46.0825 141.604 46.1089L139.731 46.8111C139.844 47.1112 140.044 47.3507 140.22 47.5271L141.635 46.1129ZM141.567 46.0233L139.567 41.9033L137.768 42.7767L139.768 46.8967L141.567 46.0233ZM138.668 41.34H137.228V43.34H138.668V41.34ZM136.228 42.34V46.48H138.228V42.34H136.228ZM136.228 46.48C136.228 46.4291 136.237 46.3645 136.266 46.2969C136.294 46.2299 136.331 46.1821 136.36 46.1529L137.775 47.5671C138.063 47.2789 138.228 46.9002 138.228 46.48H136.228ZM136.36 46.1529C136.409 46.104 136.473 46.0612 136.545 46.033C136.616 46.0056 136.674 46 136.707 46V48C137.087 48 137.472 47.8696 137.775 47.5671L136.36 46.1529ZM136.707 46H133.448V48H136.707V46ZM137.228 40.04H139.128V38.04H137.228V40.04ZM139.128 40.04C139.768 40.04 140.433 39.8624 140.913 39.3268L139.422 37.9932C139.428 37.9871 139.427 37.9939 139.394 38.0057C139.356 38.0198 139.273 38.04 139.128 38.04V40.04ZM140.929 39.3076C141.326 38.8409 141.507 38.2773 141.507 37.68H139.507C139.507 37.856 139.462 37.9458 139.406 38.0124L140.929 39.3076ZM141.507 37.68C141.507 37.0778 141.332 36.5086 140.945 36.0308L139.39 37.2892C139.457 37.3714 139.507 37.4822 139.507 37.68H141.507ZM140.963 36.054C140.497 35.4427 139.798 35.24 139.128 35.24V37.24C139.274 37.24 139.347 37.2618 139.373 37.2722C139.39 37.2793 139.381 37.2779 139.372 37.266L140.963 36.054ZM139.128 35.24H137.228V37.24H139.128V35.24ZM136.228 36.24V39.04H138.228V36.24H136.228ZM147.228 46.86L146.521 47.5671L146.545 47.5907L146.57 47.6126L147.228 46.86ZM147.228 33.16L147.887 33.9126L147.912 33.8907L147.935 33.8671L147.228 33.16ZM157.768 33.16L157.061 33.8671L157.085 33.8907L157.11 33.9126L157.768 33.16ZM157.768 36.24L157.061 35.5329L157.061 35.5329L157.768 36.24ZM151.208 36.4V35.4H150.208V36.4H151.208ZM151.208 38.38H150.208V39.38H151.208V38.38ZM157.328 38.54L156.621 39.2471L156.645 39.2706L156.67 39.2926L157.328 38.54ZM157.328 41.44L157.987 42.1926L158.012 42.1707L158.035 42.1471L157.328 41.44ZM151.208 41.58V40.58H150.208V41.58H151.208ZM151.208 43.6H150.208V44.6H151.208V43.6ZM157.928 43.76L157.221 44.4671H157.221L157.928 43.76ZM157.928 46.86L158.587 47.6126L158.612 47.5907L158.635 47.5671L157.928 46.86ZM147.588 46C147.641 46 147.701 46.0098 147.761 46.033C147.819 46.0558 147.861 46.0852 147.887 46.1074L146.57 47.6126C146.846 47.8545 147.196 48 147.588 48V46ZM147.935 46.1529C147.964 46.1821 148.002 46.2299 148.03 46.2969C148.058 46.3645 148.068 46.4291 148.068 46.48H146.068C146.068 46.9002 146.233 47.2789 146.521 47.5671L147.935 46.1529ZM148.068 46.48V33.52H146.068V46.48H148.068ZM148.068 33.52C148.068 33.5702 148.058 33.6441 148.022 33.7261C147.985 33.8091 147.934 33.8714 147.887 33.9126L146.57 32.4074C146.237 32.6981 146.068 33.0964 146.068 33.52H148.068ZM147.935 33.8671C147.915 33.8878 147.872 33.9238 147.804 33.9538C147.734 33.9849 147.659 34 147.588 34V32C147.154 32 146.788 32.1855 146.521 32.4529L147.935 33.8671ZM147.588 34H157.388V32H147.588V34ZM157.388 34C157.337 34 157.273 33.9901 157.205 33.9616C157.138 33.9334 157.09 33.8963 157.061 33.8671L158.475 32.4529C158.187 32.1647 157.808 32 157.388 32V34ZM157.11 33.9126C157.063 33.8714 157.011 33.8091 156.974 33.7261C156.938 33.6441 156.928 33.5702 156.928 33.52H158.928C158.928 33.0964 158.759 32.6981 158.427 32.4074L157.11 33.9126ZM156.928 33.52V35.88H158.928V33.52H156.928ZM156.928 35.88C156.928 35.809 156.943 35.7337 156.974 35.6639C157.004 35.5963 157.04 35.5536 157.061 35.5329L158.475 36.9471C158.743 36.6798 158.928 36.3142 158.928 35.88H156.928ZM157.061 35.5329C157.09 35.5037 157.138 35.4666 157.205 35.4384C157.273 35.4099 157.337 35.4 157.388 35.4V37.4C157.808 37.4 158.187 37.2353 158.475 36.9471L157.061 35.5329ZM157.388 35.4H151.208V37.4H157.388V35.4ZM150.208 36.4V38.38H152.208V36.4H150.208ZM151.208 39.38H156.948V37.38H151.208V39.38ZM156.948 39.38C156.897 39.38 156.833 39.3701 156.765 39.3416C156.698 39.3134 156.65 39.2763 156.621 39.2471L158.035 37.8329C157.747 37.5447 157.368 37.38 156.948 37.38V39.38ZM156.67 39.2926C156.623 39.2514 156.571 39.1891 156.534 39.1061C156.498 39.0241 156.488 38.9502 156.488 38.9H158.488C158.488 38.4764 158.319 38.0781 157.987 37.7874L156.67 39.2926ZM156.488 38.9V41.06H158.488V38.9H156.488ZM156.488 41.06C156.488 41.0091 156.498 40.9445 156.526 40.8769C156.555 40.8099 156.592 40.7621 156.621 40.7329L158.035 42.1471C158.323 41.8589 158.488 41.4802 158.488 41.06H156.488ZM156.67 40.6874C156.704 40.6576 156.75 40.6277 156.807 40.6067C156.864 40.5858 156.914 40.58 156.948 40.58V42.58C157.328 42.58 157.691 42.4514 157.987 42.1926L156.67 40.6874ZM156.948 40.58H151.208V42.58H156.948V40.58ZM150.208 41.58V43.6H152.208V41.58H150.208ZM151.208 44.6H157.548V42.6H151.208V44.6ZM157.548 44.6C157.497 44.6 157.433 44.5901 157.365 44.5616C157.298 44.5334 157.25 44.4963 157.221 44.4671L158.635 43.0529C158.347 42.7647 157.968 42.6 157.548 42.6V44.6ZM157.221 44.4671C157.192 44.4379 157.155 44.3901 157.126 44.3231C157.098 44.2555 157.088 44.1909 157.088 44.14H159.088C159.088 43.7198 158.923 43.3411 158.635 43.0529L157.221 44.4671ZM157.088 44.14V46.48H159.088V44.14H157.088ZM157.088 46.48C157.088 46.4291 157.098 46.3645 157.126 46.2969C157.155 46.2299 157.192 46.1821 157.221 46.1529L158.635 47.5671C158.923 47.2789 159.088 46.9002 159.088 46.48H157.088ZM157.27 46.1074C157.304 46.0776 157.35 46.0477 157.407 46.0267C157.464 46.0058 157.514 46 157.548 46V48C157.928 48 158.291 47.8714 158.587 47.6126L157.27 46.1074ZM157.548 46H147.588V48H157.548V46ZM160.295 46.86L159.587 47.5671L159.611 47.5907L159.636 47.6126L160.295 46.86ZM160.295 33.16L160.953 33.9126L160.978 33.8907L161.002 33.8671L160.295 33.16ZM169.495 33.64L169.084 34.5517L169.094 34.5565L169.495 33.64ZM172.615 38.48L171.615 38.5137L171.616 38.5265L172.615 38.48ZM172.615 41.5L171.616 41.4524L171.615 41.4575L172.615 41.5ZM171.755 44.6L170.912 44.0613L170.906 44.0713L171.755 44.6ZM169.595 46.42L169.977 47.3439L169.988 47.3391L169.595 46.42ZM164.435 43.6H163.435V44.6H164.435V43.6ZM167.255 43.38L166.823 42.4779L167.255 43.38ZM167.975 42.7L168.845 43.1921L168.85 43.1842L168.854 43.1763L167.975 42.7ZM168.255 41.48L167.255 41.4455L167.255 41.453L168.255 41.48ZM168.275 40.44L167.275 40.3966L167.275 40.4183V40.44H168.275ZM168.275 39.52H167.275V39.5417L167.275 39.5634L168.275 39.52ZM168.255 38.5L169.254 38.4643L169.254 38.4637L168.255 38.5ZM167.615 36.9L166.962 37.6574L166.968 37.6629L166.974 37.6682L167.615 36.9ZM164.435 36.4V35.4H163.435V36.4H164.435ZM160.655 46C160.707 46 160.767 46.0098 160.827 46.033C160.886 46.0558 160.928 46.0852 160.953 46.1074L159.636 47.6126C159.912 47.8545 160.263 48 160.655 48V46ZM161.002 46.1529C161.031 46.1821 161.068 46.2299 161.096 46.2969C161.125 46.3645 161.135 46.4291 161.135 46.48H159.135C159.135 46.9002 159.299 47.2789 159.587 47.5671L161.002 46.1529ZM161.135 46.48V33.52H159.135V46.48H161.135ZM161.135 33.52C161.135 33.5702 161.125 33.6441 161.088 33.7261C161.051 33.8091 161 33.8714 160.953 33.9126L159.636 32.4074C159.304 32.6981 159.135 33.0964 159.135 33.52H161.135ZM161.002 33.8671C160.981 33.8878 160.938 33.9238 160.871 33.9538C160.801 33.9849 160.726 34 160.655 34V32C160.22 32 159.855 32.1855 159.587 32.4529L161.002 33.8671ZM160.655 34H166.135V32H160.655V34ZM166.135 34C167.32 34 168.294 34.1957 169.084 34.5517L169.905 32.7283C168.802 32.231 167.536 32 166.135 32V34ZM169.094 34.5565C169.876 34.8979 170.47 35.3913 170.905 36.0378L172.564 34.9222C171.906 33.9421 171.006 33.2087 169.895 32.7235L169.094 34.5565ZM170.905 36.0378C171.327 36.6657 171.58 37.4744 171.615 38.5137L173.614 38.4463C173.569 37.1123 173.236 35.9209 172.564 34.9222L170.905 36.0378ZM171.616 38.5265C171.642 39.0887 171.655 39.5793 171.655 40H173.655C173.655 39.5407 173.641 39.018 173.613 38.4335L171.616 38.5265ZM171.655 40C171.655 40.4205 171.642 40.9042 171.616 41.4524L173.613 41.5476C173.641 40.9758 173.655 40.4595 173.655 40H171.655ZM171.615 41.4575C171.567 42.586 171.313 43.4348 170.912 44.0613L172.597 45.1387C173.236 44.1385 173.555 42.9206 173.614 41.5425L171.615 41.4575ZM170.906 44.0713C170.514 44.7004 169.958 45.1763 169.201 45.5009L169.988 47.3391C171.098 46.8637 171.982 46.1263 172.603 45.1287L170.906 44.0713ZM169.212 45.4961C168.43 45.8201 167.447 46 166.235 46V48C167.636 48 168.893 47.7932 169.977 47.3439L169.212 45.4961ZM166.235 46H160.655V48H166.235V46ZM164.435 44.6H166.135V42.6H164.435V44.6ZM166.135 44.6C166.682 44.6 167.211 44.5093 167.686 44.2821L166.823 42.4779C166.685 42.544 166.468 42.6 166.135 42.6V44.6ZM167.686 44.2821C168.185 44.0437 168.575 43.6703 168.845 43.1921L167.104 42.2079C167.028 42.343 166.938 42.423 166.823 42.4779L167.686 44.2821ZM168.854 43.1763C169.124 42.6778 169.238 42.1043 169.254 41.507L167.255 41.453C167.244 41.8424 167.172 42.0822 167.095 42.2237L168.854 43.1763ZM169.254 41.5145C169.268 41.1191 169.275 40.7607 169.275 40.44H167.275C167.275 40.7327 167.268 41.0675 167.255 41.4455L169.254 41.5145ZM169.274 40.4834C169.288 40.1478 169.288 39.8122 169.274 39.4766L167.275 39.5634C167.288 39.8412 167.288 40.1188 167.275 40.3966L169.274 40.4834ZM169.275 39.52C169.275 39.1992 169.268 38.8471 169.254 38.4643L167.255 38.5357C167.268 38.8996 167.275 39.2275 167.275 39.52H169.275ZM169.254 38.4637C169.221 37.5661 168.951 36.7117 168.255 36.1318L166.974 37.6682C167.078 37.755 167.234 37.9672 167.255 38.5363L169.254 38.4637ZM168.267 36.1426C167.65 35.6101 166.866 35.4 166.035 35.4V37.4C166.536 37.4 166.806 37.5233 166.962 37.6574L168.267 36.1426ZM166.035 35.4H164.435V37.4H166.035V35.4ZM163.435 36.4V43.6H165.435V36.4H163.435ZM177.122 46.88L176.363 47.5308L176.413 47.5892L176.471 47.6393L177.122 46.88ZM177.042 46.42L177.874 46.9747L177.942 46.8719L177.984 46.7556L177.042 46.42ZM181.602 33.62L182.544 33.9556L182.557 33.9198L182.567 33.8831L181.602 33.62ZM181.862 33.2L181.189 32.4601L181.172 32.4761L181.155 32.4929L181.862 33.2ZM186.682 33.2L187.389 32.4929V32.4929L186.682 33.2ZM186.942 33.62L185.977 33.8831L185.987 33.9205L186 33.9569L186.942 33.62ZM191.522 46.42L192.471 46.1038L192.467 46.0934L192.463 46.0831L191.522 46.42ZM191.402 46.88L192.109 47.5871L191.402 46.88ZM187.302 46.54L186.364 46.8862L186.373 46.9103L186.383 46.9339L187.302 46.54ZM186.682 44.86L187.62 44.5138L187.379 43.86H186.682V44.86ZM181.862 44.86V43.86H181.165L180.924 44.5138L181.862 44.86ZM181.242 46.54L182.161 46.9339L182.171 46.9103L182.18 46.8862L181.242 46.54ZM181.022 46.84L180.315 46.1329L180.291 46.1564L180.269 46.1815L181.022 46.84ZM182.782 41.48L181.832 41.1676L181.4 42.48H182.782V41.48ZM185.762 41.48V42.48H187.149L186.711 41.1638L185.762 41.48ZM184.262 36.98L185.211 36.6638L184.256 33.7986L183.312 36.6676L184.262 36.98ZM177.442 46C177.495 46 177.558 46.0094 177.623 46.0337C177.688 46.0579 177.738 46.0907 177.773 46.1207L176.471 47.6393C176.741 47.8705 177.077 48 177.442 48V46ZM177.881 46.2292C177.911 46.2643 177.944 46.3144 177.968 46.3789C177.993 46.4437 178.002 46.5066 178.002 46.56H176.002C176.002 46.925 176.131 47.2611 176.363 47.5308L177.881 46.2292ZM178.002 46.56C178.002 46.6817 177.969 46.8327 177.874 46.9747L176.21 45.8653C176.062 46.0873 176.002 46.3317 176.002 46.56H178.002ZM177.984 46.7556L182.544 33.9556L180.66 33.2844L176.1 46.0844L177.984 46.7556ZM182.567 33.8831C182.563 33.8961 182.559 33.907 182.555 33.9154C182.552 33.9238 182.549 33.9291 182.547 33.9314C182.545 33.9356 182.549 33.9269 182.569 33.9071L181.155 32.4929C180.928 32.72 180.733 33.0065 180.637 33.3569L182.567 33.8831ZM182.535 33.9399C182.504 33.9675 182.47 33.9859 182.443 33.9954C182.418 34.0039 182.414 34 182.442 34V32C182.008 32 181.557 32.1257 181.189 32.4601L182.535 33.9399ZM182.442 34H186.102V32H182.442V34ZM186.102 34C186.143 34 186.141 34.0057 186.111 33.9954C186.076 33.9835 186.024 33.9566 185.975 33.9071L187.389 32.4929C187.011 32.1147 186.527 32 186.102 32V34ZM185.975 33.9071C185.995 33.9269 185.999 33.9356 185.997 33.9314C185.995 33.9291 185.992 33.9238 185.988 33.9154C185.985 33.907 185.981 33.8961 185.977 33.8831L187.907 33.3569C187.811 33.0064 187.616 32.72 187.389 32.4929L185.975 33.9071ZM186 33.9569L190.58 46.7569L192.463 46.0831L187.883 33.2831L186 33.9569ZM190.573 46.7362C190.545 46.6514 190.542 46.587 190.542 46.56H192.542C192.542 46.4263 192.526 46.2686 192.471 46.1038L190.573 46.7362ZM190.542 46.56C190.542 46.4864 190.557 46.4062 190.591 46.3292C190.624 46.254 190.665 46.2027 190.695 46.1729L192.109 47.5871C192.369 47.3268 192.542 46.973 192.542 46.56H190.542ZM190.695 46.1729C190.746 46.1221 190.813 46.0743 190.895 46.0415C190.976 46.0092 191.049 46 191.102 46V48C191.469 48 191.829 47.8669 192.109 47.5871L190.695 46.1729ZM191.102 46H188.022V48H191.102V46ZM188.022 46C187.983 46 187.992 45.995 188.032 46.0076C188.076 46.0217 188.153 46.0568 188.229 46.1329L186.815 47.5471C187.185 47.9174 187.662 48 188.022 48V46ZM188.229 46.1329C188.217 46.1209 188.208 46.1114 188.202 46.1045C188.196 46.0975 188.193 46.0939 188.193 46.0936C188.193 46.0933 188.196 46.0973 188.201 46.1055C188.206 46.1138 188.213 46.1273 188.221 46.1461L186.383 46.9339C186.491 47.1865 186.658 47.3901 186.815 47.5471L188.229 46.1329ZM188.24 46.1938L187.62 44.5138L185.744 45.2062L186.364 46.8862L188.24 46.1938ZM186.682 43.86H181.862V45.86H186.682V43.86ZM180.924 44.5138L180.304 46.1938L182.18 46.8862L182.8 45.2062L180.924 44.5138ZM180.323 46.1461C180.331 46.1273 180.338 46.1138 180.343 46.1055C180.348 46.0973 180.351 46.0933 180.35 46.0936C180.35 46.0939 180.348 46.0975 180.342 46.1045C180.336 46.1114 180.327 46.1209 180.315 46.1329L181.729 47.5471C181.886 47.3901 182.053 47.1865 182.161 46.9339L180.323 46.1461ZM180.269 46.1815C180.368 46.0692 180.473 46.0234 180.522 46.0076C180.566 45.9935 180.574 46 180.522 46V48C180.859 48 181.394 47.9336 181.774 47.4985L180.269 46.1815ZM180.522 46H177.442V48H180.522V46ZM182.782 42.48H185.762V40.48H182.782V42.48ZM186.711 41.1638L185.211 36.6638L183.313 37.2962L184.813 41.7962L186.711 41.1638ZM183.312 36.6676L181.832 41.1676L183.732 41.7924L185.212 37.2924L183.312 36.6676ZM193.029 46.86L192.322 47.5671L192.345 47.5907L192.37 47.6126L193.029 46.86ZM193.029 33.16L193.687 33.9126L193.712 33.8907L193.736 33.8671L193.029 33.16ZM202.229 33.64L201.818 34.5517L201.829 34.5565L202.229 33.64ZM205.349 38.48L204.349 38.5137L204.35 38.5265L205.349 38.48ZM205.349 41.5L204.35 41.4524L204.35 41.4575L205.349 41.5ZM204.489 44.6L203.646 44.0613L203.64 44.0713L204.489 44.6ZM202.329 46.42L202.712 47.3439L202.723 47.3391L202.329 46.42ZM197.169 43.6H196.169V44.6H197.169V43.6ZM199.989 43.38L199.557 42.4779L199.989 43.38ZM200.709 42.7L201.579 43.1921L201.584 43.1842L201.588 43.1763L200.709 42.7ZM200.989 41.48L199.989 41.4455L199.989 41.453L200.989 41.48ZM201.009 40.44L200.01 40.3966L200.009 40.4183V40.44H201.009ZM201.009 39.52H200.009V39.5417L200.01 39.5634L201.009 39.52ZM200.989 38.5L201.988 38.4643L201.988 38.4637L200.989 38.5ZM200.349 36.9L199.696 37.6574L199.702 37.6629L199.709 37.6682L200.349 36.9ZM197.169 36.4V35.4H196.169V36.4H197.169ZM193.389 46C193.442 46 193.502 46.0098 193.561 46.033C193.62 46.0558 193.662 46.0852 193.687 46.1074L192.37 47.6126C192.647 47.8545 192.997 48 193.389 48V46ZM193.736 46.1529C193.765 46.1821 193.802 46.2299 193.831 46.2969C193.859 46.3645 193.869 46.4291 193.869 46.48H191.869C191.869 46.9002 192.034 47.2789 192.322 47.5671L193.736 46.1529ZM193.869 46.48V33.52H191.869V46.48H193.869ZM193.869 33.52C193.869 33.5702 193.859 33.6441 193.823 33.7261C193.786 33.8091 193.735 33.8714 193.687 33.9126L192.37 32.4074C192.038 32.6981 191.869 33.0964 191.869 33.52H193.869ZM193.736 33.8671C193.715 33.8878 193.673 33.9238 193.605 33.9538C193.535 33.9849 193.46 34 193.389 34V32C192.955 32 192.589 32.1855 192.322 32.4529L193.736 33.8671ZM193.389 34H198.869V32H193.389V34ZM198.869 34C200.054 34 201.028 34.1957 201.818 34.5517L202.64 32.7283C201.536 32.231 200.27 32 198.869 32V34ZM201.829 34.5565C202.611 34.8979 203.204 35.3913 203.639 36.0378L205.299 34.9222C204.64 33.9421 203.74 33.2087 202.629 32.7235L201.829 34.5565ZM203.639 36.0378C204.061 36.6657 204.314 37.4744 204.349 38.5137L206.348 38.4463C206.303 37.1123 205.97 35.9209 205.299 34.9222L203.639 36.0378ZM204.35 38.5265C204.376 39.0887 204.389 39.5793 204.389 40H206.389C206.389 39.5407 206.375 39.018 206.348 38.4335L204.35 38.5265ZM204.389 40C204.389 40.4205 204.376 40.9042 204.35 41.4524L206.348 41.5476C206.375 40.9758 206.389 40.4595 206.389 40H204.389ZM204.35 41.4575C204.302 42.586 204.047 43.4348 203.646 44.0613L205.331 45.1387C205.971 44.1385 206.289 42.9206 206.348 41.5425L204.35 41.4575ZM203.64 44.0713C203.248 44.7004 202.692 45.1763 201.935 45.5009L202.723 47.3391C203.832 46.8637 204.716 46.1263 205.338 45.1287L203.64 44.0713ZM201.946 45.4961C201.164 45.8201 200.181 46 198.969 46V48C200.37 48 201.627 47.7932 202.712 47.3439L201.946 45.4961ZM198.969 46H193.389V48H198.969V46ZM197.169 44.6H198.869V42.6H197.169V44.6ZM198.869 44.6C199.416 44.6 199.945 44.5093 200.42 44.2821L199.557 42.4779C199.419 42.544 199.202 42.6 198.869 42.6V44.6ZM200.42 44.2821C200.919 44.0437 201.309 43.6703 201.579 43.1921L199.838 42.2079C199.762 42.343 199.672 42.423 199.557 42.4779L200.42 44.2821ZM201.588 43.1763C201.858 42.6778 201.972 42.1043 201.989 41.507L199.989 41.453C199.979 41.8424 199.906 42.0822 199.83 42.2237L201.588 43.1763ZM201.988 41.5145C202.002 41.1191 202.009 40.7607 202.009 40.44H200.009C200.009 40.7327 200.003 41.0675 199.99 41.4455L201.988 41.5145ZM202.008 40.4834C202.023 40.1478 202.023 39.8122 202.008 39.4766L200.01 39.5634C200.022 39.8412 200.022 40.1188 200.01 40.3966L202.008 40.4834ZM202.009 39.52C202.009 39.1992 202.002 38.8471 201.988 38.4643L199.99 38.5357C200.003 38.8996 200.009 39.2275 200.009 39.52H202.009ZM201.988 38.4637C201.956 37.5661 201.685 36.7117 200.989 36.1318L199.709 37.6682C199.813 37.755 199.969 37.9672 199.99 38.5363L201.988 38.4637ZM201.002 36.1426C200.384 35.6101 199.601 35.4 198.769 35.4V37.4C199.271 37.4 199.54 37.5233 199.696 37.6574L201.002 36.1426ZM198.769 35.4H197.169V37.4H198.769V35.4ZM196.169 36.4V43.6H198.169V36.4H196.169ZM210.33 46.8L209.623 47.5071L209.64 47.5239L209.658 47.5399L210.33 46.8ZM210.07 46.38L211.035 46.1169L211.031 46.1013L211.026 46.0858L210.07 46.38ZM206.13 33.58L205.16 33.8225L205.167 33.8486L205.175 33.8742L206.13 33.58ZM206.23 33.14L206.938 33.8471V33.8471L206.23 33.14ZM210.21 33.2L210.918 32.4929V32.4929L210.21 33.2ZM210.47 33.6L211.433 33.3277L211.431 33.3202L211.428 33.3127L210.47 33.6ZM212.83 41.94L211.868 42.2123L212.83 45.6127L213.793 42.2123L212.83 41.94ZM215.19 33.6L214.233 33.3127L214.23 33.3202L214.228 33.3277L215.19 33.6ZM215.45 33.2L214.743 32.4929V32.4929L215.45 33.2ZM219.41 33.14L218.651 33.7908L218.676 33.82L218.703 33.8471L219.41 33.14ZM219.51 33.58L220.467 33.8728L220.474 33.8479L220.481 33.8225L219.51 33.58ZM215.59 46.38L214.634 46.0872L214.63 46.102L214.626 46.1169L215.59 46.38ZM215.31 46.8L214.638 46.0601L214.62 46.0761L214.603 46.0929L215.31 46.8ZM210.91 46C210.883 46 210.887 45.9961 210.911 46.0046C210.939 46.0141 210.973 46.0325 211.003 46.0601L209.658 47.5399C210.026 47.8743 210.477 48 210.91 48V46ZM211.038 46.0929C211.018 46.073 211.013 46.0644 211.016 46.0686C211.017 46.0709 211.02 46.0762 211.024 46.0846C211.028 46.0931 211.032 46.1039 211.035 46.1169L209.106 46.6431C209.201 46.9935 209.396 47.28 209.623 47.5071L211.038 46.0929ZM211.026 46.0858L207.086 33.2858L205.175 33.8742L209.115 46.6742L211.026 46.0858ZM207.101 33.3375C207.101 33.3388 207.103 33.3479 207.105 33.3636C207.108 33.3791 207.11 33.4052 207.11 33.44H205.11C205.11 33.5858 205.134 33.7172 205.16 33.8225L207.101 33.3375ZM207.11 33.44C207.11 33.4927 207.101 33.5655 207.069 33.6464C207.036 33.7284 206.988 33.7963 206.938 33.8471L205.523 32.4329C205.244 32.7127 205.11 33.0726 205.11 33.44H207.11ZM206.938 33.8471C206.908 33.8769 206.856 33.9183 206.781 33.9512C206.704 33.9848 206.624 34 206.55 34V32C206.137 32 205.784 32.1726 205.523 32.4329L206.938 33.8471ZM206.55 34H209.65V32H206.55V34ZM209.65 34C209.679 34 209.669 34.0041 209.634 33.9917C209.595 33.9779 209.547 33.9505 209.503 33.9071L210.918 32.4929C210.549 32.1244 210.08 32 209.65 32V34ZM209.503 33.9071C209.516 33.9199 209.525 33.9297 209.53 33.9364C209.536 33.943 209.538 33.946 209.537 33.945C209.536 33.943 209.524 33.9237 209.513 33.8873L211.428 33.3127C211.327 32.9746 211.128 32.7036 210.918 32.4929L209.503 33.9071ZM209.508 33.8723L211.868 42.2123L213.793 41.6677L211.433 33.3277L209.508 33.8723ZM213.793 42.2123L216.153 33.8723L214.228 33.3277L211.868 41.6677L213.793 42.2123ZM216.148 33.8873C216.137 33.9237 216.125 33.943 216.124 33.945C216.123 33.946 216.125 33.943 216.131 33.9364C216.136 33.9297 216.145 33.9199 216.158 33.9071L214.743 32.4929C214.533 32.7036 214.334 32.9746 214.233 33.3127L216.148 33.8873ZM216.158 33.9071C216.114 33.9505 216.066 33.9779 216.027 33.9917C215.992 34.0041 215.982 34 216.01 34V32C215.581 32 215.112 32.1244 214.743 32.4929L216.158 33.9071ZM216.01 34H219.11V32H216.01V34ZM219.11 34C219.037 34 218.946 33.9849 218.853 33.9412C218.76 33.8978 218.693 33.8398 218.651 33.7908L220.17 32.4892C219.905 32.1804 219.53 32 219.11 32V34ZM218.703 33.8471C218.653 33.7963 218.605 33.7284 218.572 33.6464C218.54 33.5655 218.53 33.4927 218.53 33.44H220.53C220.53 33.0726 220.397 32.7127 220.118 32.4329L218.703 33.8471ZM218.53 33.44C218.53 33.4052 218.533 33.3791 218.536 33.3636C218.538 33.3479 218.54 33.3388 218.54 33.3375L220.481 33.8225C220.507 33.7172 220.53 33.5858 220.53 33.44H218.53ZM218.554 33.2872L214.634 46.0872L216.547 46.6728L220.467 33.8728L218.554 33.2872ZM214.626 46.1169C214.637 46.0761 214.652 46.0503 214.658 46.0403C214.664 46.0315 214.661 46.0389 214.638 46.0601L215.983 47.5399C216.229 47.3169 216.452 47.0213 216.555 46.6431L214.626 46.1169ZM214.603 46.0929C214.653 46.0434 214.705 46.0165 214.739 46.0046C214.769 45.9943 214.772 46 214.73 46V48C215.155 48 215.639 47.8853 216.018 47.5071L214.603 46.0929ZM214.73 46H210.91V48H214.73V46ZM221.33 46.86L220.623 47.5671L220.646 47.5907L220.671 47.6126L221.33 46.86ZM221.33 33.16L221.988 33.9126L222.013 33.8907L222.037 33.8671L221.33 33.16ZM231.87 33.16L231.163 33.8671L231.186 33.8907L231.211 33.9126L231.87 33.16ZM231.87 36.24L231.163 35.5329V35.5329L231.87 36.24ZM225.31 36.4V35.4H224.31V36.4H225.31ZM225.31 38.38H224.31V39.38H225.31V38.38ZM231.43 38.54L230.723 39.2471L230.746 39.2706L230.771 39.2926L231.43 38.54ZM231.43 41.44L232.088 42.1926L232.113 42.1707L232.137 42.1471L231.43 41.44ZM225.31 41.58V40.58H224.31V41.58H225.31ZM225.31 43.6H224.31V44.6H225.31V43.6ZM232.03 43.76L231.323 44.4671L232.03 43.76ZM232.03 46.86L232.688 47.6126L232.713 47.5907L232.737 47.5671L232.03 46.86ZM221.69 46C221.743 46 221.802 46.0098 221.862 46.033C221.921 46.0558 221.963 46.0852 221.988 46.1074L220.671 47.6126C220.948 47.8545 221.298 48 221.69 48V46ZM222.037 46.1529C222.066 46.1821 222.103 46.2299 222.131 46.2969C222.16 46.3645 222.17 46.4291 222.17 46.48H220.17C220.17 46.9002 220.334 47.2789 220.623 47.5671L222.037 46.1529ZM222.17 46.48V33.52H220.17V46.48H222.17ZM222.17 33.52C222.17 33.5702 222.16 33.6441 222.124 33.7261C222.087 33.8091 222.035 33.8714 221.988 33.9126L220.671 32.4074C220.339 32.6981 220.17 33.0964 220.17 33.52H222.17ZM222.037 33.8671C222.016 33.8878 221.973 33.9238 221.906 33.9538C221.836 33.9849 221.761 34 221.69 34V32C221.255 32 220.89 32.1855 220.623 32.4529L222.037 33.8671ZM221.69 34H231.49V32H221.69V34ZM231.49 34C231.439 34 231.374 33.9901 231.307 33.9616C231.24 33.9334 231.192 33.8963 231.163 33.8671L232.577 32.4529C232.289 32.1647 231.91 32 231.49 32V34ZM231.211 33.9126C231.164 33.8714 231.113 33.8091 231.076 33.7261C231.039 33.6441 231.03 33.5702 231.03 33.52H233.03C233.03 33.0964 232.86 32.6981 232.528 32.4074L231.211 33.9126ZM231.03 33.52V35.88H233.03V33.52H231.03ZM231.03 35.88C231.03 35.809 231.045 35.7337 231.076 35.6639C231.106 35.5963 231.142 35.5536 231.163 35.5329L232.577 36.9471C232.844 36.6798 233.03 36.3142 233.03 35.88H231.03ZM231.163 35.5329C231.192 35.5037 231.24 35.4666 231.307 35.4384C231.374 35.4099 231.439 35.4 231.49 35.4V37.4C231.91 37.4 232.289 37.2353 232.577 36.9471L231.163 35.5329ZM231.49 35.4H225.31V37.4H231.49V35.4ZM224.31 36.4V38.38H226.31V36.4H224.31ZM225.31 39.38H231.05V37.38H225.31V39.38ZM231.05 39.38C230.999 39.38 230.934 39.3701 230.867 39.3416C230.8 39.3134 230.752 39.2763 230.723 39.2471L232.137 37.8329C231.849 37.5447 231.47 37.38 231.05 37.38V39.38ZM230.771 39.2926C230.724 39.2514 230.673 39.1891 230.636 39.1061C230.599 39.0241 230.59 38.9502 230.59 38.9H232.59C232.59 38.4764 232.42 38.0781 232.088 37.7874L230.771 39.2926ZM230.59 38.9V41.06H232.59V38.9H230.59ZM230.59 41.06C230.59 41.0091 230.6 40.9445 230.628 40.8769C230.656 40.8099 230.693 40.7621 230.723 40.7329L232.137 42.1471C232.425 41.8589 232.59 41.4802 232.59 41.06H230.59ZM230.771 40.6874C230.805 40.6576 230.852 40.6277 230.909 40.6067C230.966 40.5858 231.015 40.58 231.05 40.58V42.58C231.429 42.58 231.792 42.4514 232.088 42.1926L230.771 40.6874ZM231.05 40.58H225.31V42.58H231.05V40.58ZM224.31 41.58V43.6H226.31V41.58H224.31ZM225.31 44.6H231.65V42.6H225.31V44.6ZM231.65 44.6C231.599 44.6 231.534 44.5901 231.467 44.5616C231.4 44.5334 231.352 44.4963 231.323 44.4671L232.737 43.0529C232.449 42.7647 232.07 42.6 231.65 42.6V44.6ZM231.323 44.4671C231.293 44.4379 231.256 44.3901 231.228 44.3231C231.2 44.2555 231.19 44.1909 231.19 44.14H233.19C233.19 43.7198 233.025 43.3411 232.737 43.0529L231.323 44.4671ZM231.19 44.14V46.48H233.19V44.14H231.19ZM231.19 46.48C231.19 46.4291 231.2 46.3645 231.228 46.2969C231.256 46.2299 231.293 46.1821 231.323 46.1529L232.737 47.5671C233.025 47.2789 233.19 46.9002 233.19 46.48H231.19ZM231.371 46.1074C231.405 46.0776 231.452 46.0477 231.509 46.0267C231.566 46.0058 231.615 46 231.65 46V48C232.029 48 232.392 47.8714 232.688 47.6126L231.371 46.1074ZM231.65 46H221.69V48H231.65V46ZM234.396 46.86L233.689 47.5671L233.713 47.5907L233.738 47.6126L234.396 46.86ZM234.396 33.16L235.055 33.9126L235.08 33.8907L235.103 33.8671L234.396 33.16ZM244.716 34.24L244.089 35.0189L244.094 35.0228L244.716 34.24ZM243.956 41.62L243.482 40.7395L242.593 41.2182L243.08 42.1025L243.956 41.62ZM246.556 46.34L247.451 45.8928L247.442 45.875L247.432 45.8575L246.556 46.34ZM246.496 46.88L247.203 47.5871L247.23 47.56L247.255 47.5308L246.496 46.88ZM242.236 46.82L241.529 47.5271L241.548 47.5457L241.567 47.5633L242.236 46.82ZM241.976 46.46L242.912 46.1089L242.896 46.0652L242.876 46.0233L241.976 46.46ZM239.976 42.34L240.876 41.9033L240.602 41.34H239.976V42.34ZM238.536 42.34V41.34H237.536V42.34H238.536ZM238.376 46.86L239.083 47.5671L238.376 46.86ZM238.536 39.04H237.536V40.04H238.536V39.04ZM241.476 38.66L242.221 39.3268L242.23 39.3173L242.238 39.3076L241.476 38.66ZM241.476 36.66L240.681 37.266L240.69 37.2778L240.699 37.2892L241.476 36.66ZM238.536 36.24V35.24H237.536V36.24H238.536ZM234.756 46C234.809 46 234.869 46.0098 234.929 46.033C234.987 46.0558 235.029 46.0852 235.055 46.1074L233.738 47.6126C234.014 47.8545 234.364 48 234.756 48V46ZM235.103 46.1529C235.132 46.1821 235.17 46.2299 235.198 46.2969C235.226 46.3645 235.236 46.4291 235.236 46.48H233.236C233.236 46.9002 233.401 47.2789 233.689 47.5671L235.103 46.1529ZM235.236 46.48V33.52H233.236V46.48H235.236ZM235.236 33.52C235.236 33.5702 235.226 33.6441 235.19 33.7261C235.153 33.8091 235.102 33.8714 235.055 33.9126L233.738 32.4074C233.405 32.6981 233.236 33.0964 233.236 33.52H235.236ZM235.103 33.8671C235.083 33.8878 235.04 33.9238 234.972 33.9538C234.902 33.9849 234.827 34 234.756 34V32C234.322 32 233.956 32.1855 233.689 32.4529L235.103 33.8671ZM234.756 34H240.456V32H234.756V34ZM240.456 34C242.126 34 243.296 34.3808 244.089 35.0189L245.343 33.4611C244.082 32.4459 242.413 32 240.456 32V34ZM244.094 35.0228C244.866 35.6365 245.276 36.4853 245.276 37.7H247.276C247.276 35.9547 246.646 34.4969 245.338 33.4572L244.094 35.0228ZM245.276 37.7C245.276 38.4777 245.1 39.072 244.799 39.5332L246.473 40.6268C247.026 39.7813 247.276 38.7889 247.276 37.7H245.276ZM244.799 39.5332C244.464 40.0454 244.03 40.4446 243.482 40.7395L244.43 42.5005C245.269 42.0487 245.955 41.4213 246.473 40.6268L244.799 39.5332ZM243.08 42.1025L245.68 46.8225L247.432 45.8575L244.832 41.1375L243.08 42.1025ZM245.662 46.7872C245.655 46.7736 245.616 46.6923 245.616 46.56H247.616C247.616 46.2944 247.537 46.0664 247.451 45.8928L245.662 46.7872ZM245.616 46.56C245.616 46.5066 245.625 46.4437 245.65 46.3789C245.674 46.3144 245.707 46.2643 245.737 46.2292L247.255 47.5308C247.487 47.2611 247.616 46.925 247.616 46.56H245.616ZM245.789 46.1729C245.84 46.1221 245.908 46.0743 245.99 46.0415C246.071 46.0092 246.143 46 246.196 46V48C246.563 48 246.923 47.8669 247.203 47.5871L245.789 46.1729ZM246.196 46H242.816V48H246.196V46ZM242.816 46C242.766 46 242.758 45.9938 242.777 45.9999C242.801 46.0073 242.851 46.0283 242.905 46.0767L241.567 47.5633C241.948 47.9057 242.417 48 242.816 48V46ZM242.943 46.1129C242.924 46.0941 242.91 46.0788 242.9 46.0668C242.889 46.0548 242.884 46.0474 242.882 46.0445C242.88 46.0416 242.882 46.045 242.888 46.0547C242.893 46.0643 242.903 46.0825 242.912 46.1089L241.04 46.8111C241.152 47.1112 241.353 47.3507 241.529 47.5271L242.943 46.1129ZM242.876 46.0233L240.876 41.9033L239.076 42.7767L241.076 46.8967L242.876 46.0233ZM239.976 41.34H238.536V43.34H239.976V41.34ZM237.536 42.34V46.48H239.536V42.34H237.536ZM237.536 46.48C237.536 46.4291 237.546 46.3645 237.574 46.2969C237.603 46.2299 237.64 46.1821 237.669 46.1529L239.083 47.5671C239.371 47.2789 239.536 46.9002 239.536 46.48H237.536ZM237.669 46.1529C237.718 46.104 237.781 46.0612 237.854 46.033C237.924 46.0056 237.983 46 238.016 46V48C238.396 48 238.781 47.8696 239.083 47.5671L237.669 46.1529ZM238.016 46H234.756V48H238.016V46ZM238.536 40.04H240.436V38.04H238.536V40.04ZM240.436 40.04C241.077 40.04 241.742 39.8624 242.221 39.3268L240.731 37.9932C240.736 37.9871 240.735 37.9939 240.703 38.0057C240.664 38.0198 240.582 38.04 240.436 38.04V40.04ZM242.238 39.3076C242.635 38.8409 242.816 38.2773 242.816 37.68H240.816C240.816 37.856 240.771 37.9458 240.714 38.0124L242.238 39.3076ZM242.816 37.68C242.816 37.0778 242.64 36.5086 242.253 36.0308L240.699 37.2892C240.765 37.3714 240.816 37.4822 240.816 37.68H242.816ZM242.272 36.054C241.806 35.4427 241.106 35.24 240.436 35.24V37.24C240.583 37.24 240.656 37.2618 240.682 37.2722C240.699 37.2793 240.69 37.2779 240.681 37.266L242.272 36.054ZM240.436 35.24H238.536V37.24H240.436V35.24ZM237.536 36.24V39.04H239.536V36.24H237.536ZM251.48 46.86L250.727 47.5185L250.771 47.5687L250.822 47.6126L251.48 46.86ZM251.34 36.72H252.34V35.72H251.34V36.72ZM247.52 36.58L246.767 37.2385L246.811 37.2887L246.861 37.3326L247.52 36.58ZM247.52 33.16L248.227 33.8671V33.8671L247.52 33.16ZM259.5 33.16L258.747 33.8185L258.791 33.8687L258.841 33.9126L259.5 33.16ZM259.5 36.58L258.793 35.8729V35.8729L259.5 36.58ZM255.7 36.72V35.72H254.7V36.72H255.7ZM255.54 46.86L254.833 46.1529L255.54 46.86ZM251.86 46C251.894 46 251.944 46.0058 252.001 46.0267C252.058 46.0477 252.104 46.0776 252.139 46.1074L250.822 47.6126C251.117 47.8714 251.48 48 251.86 48V46ZM252.233 46.2015C252.262 46.2355 252.292 46.2822 252.313 46.3393C252.334 46.3959 252.34 46.4456 252.34 46.48H250.34C250.34 46.8597 250.469 47.2227 250.727 47.5185L252.233 46.2015ZM252.34 46.48V36.72H250.34V46.48H252.34ZM251.34 35.72H247.9V37.72H251.34V35.72ZM247.9 35.72C247.934 35.72 247.984 35.7258 248.041 35.7467C248.098 35.7677 248.144 35.7976 248.179 35.8274L246.861 37.3326C247.157 37.5914 247.52 37.72 247.9 37.72V35.72ZM248.273 35.9215C248.302 35.9555 248.332 36.0022 248.353 36.0593C248.374 36.1159 248.38 36.1656 248.38 36.2H246.38C246.38 36.5797 246.509 36.9427 246.767 37.2385L248.273 35.9215ZM248.38 36.2V33.52H246.38V36.2H248.38ZM248.38 33.52C248.38 33.5536 248.374 33.612 248.347 33.6824C248.319 33.755 248.276 33.8183 248.227 33.8671L246.813 32.4529C246.51 32.7554 246.38 33.1404 246.38 33.52H248.38ZM248.227 33.8671C248.198 33.8963 248.15 33.9334 248.083 33.9616C248.015 33.9901 247.951 34 247.9 34V32C247.48 32 247.101 32.1647 246.813 32.4529L248.227 33.8671ZM247.9 34H259.14V32H247.9V34ZM259.14 34C259.09 34 259.016 33.9903 258.934 33.9538C258.851 33.917 258.789 33.8656 258.747 33.8185L260.253 32.5015C259.962 32.1693 259.564 32 259.14 32V34ZM258.841 33.9126C258.794 33.8714 258.743 33.8091 258.706 33.7261C258.67 33.6441 258.66 33.5702 258.66 33.52H260.66C260.66 33.0964 260.491 32.6981 260.159 32.4074L258.841 33.9126ZM258.66 33.52V36.2H260.66V33.52H258.66ZM258.66 36.2C258.66 36.1491 258.67 36.0845 258.698 36.0169C258.727 35.9499 258.764 35.9021 258.793 35.8729L260.207 37.2871C260.495 36.9989 260.66 36.6202 260.66 36.2H258.66ZM258.793 35.8729C258.842 35.824 258.905 35.7812 258.978 35.753C259.048 35.7256 259.106 35.72 259.14 35.72V37.72C259.52 37.72 259.905 37.5896 260.207 37.2871L258.793 35.8729ZM259.14 35.72H255.7V37.72H259.14V35.72ZM254.7 36.72V46.48H256.7V36.72H254.7ZM254.7 46.48C254.7 46.4291 254.71 46.3645 254.738 46.2969C254.767 46.2299 254.804 46.1821 254.833 46.1529L256.247 47.5671C256.535 47.2789 256.7 46.9002 256.7 46.48H254.7ZM254.833 46.1529C254.882 46.104 254.945 46.0612 255.018 46.033C255.088 46.0056 255.146 46 255.18 46V48C255.56 48 255.945 47.8696 256.247 47.5671L254.833 46.1529ZM255.18 46H251.86V48H255.18V46Z" fill="#323232" mask="url(#path-1-outside-1_1062_17432)"/>
<g clip-path="url(#clip0_1062_17432)">
<rect x="279" width="25" height="22" rx="5" fill="#323232"/>
<path d="M284.26 14C284.2 14 284.147 13.98 284.1 13.94C284.06 13.8933 284.04 13.84 284.04 13.78C284.04 13.7533 284.047 13.73 284.06 13.71L286.34 7.31C286.36 7.23667 286.403 7.16667 286.47 7.1C286.543 7.03333 286.64 7 286.76 7H288.59C288.717 7 288.813 7.03333 288.88 7.1C288.947 7.16667 288.99 7.23667 289.01 7.31L291.3 13.71C291.307 13.73 291.31 13.7533 291.31 13.78C291.31 13.84 291.287 13.8933 291.24 13.94C291.2 13.98 291.15 14 291.09 14H289.55C289.437 14 289.353 13.9733 289.3 13.92C289.247 13.8667 289.21 13.8167 289.19 13.77L288.88 12.93H286.47L286.16 13.77C286.14 13.8167 286.103 13.8667 286.05 13.92C286.003 13.9733 285.92 14 285.8 14H284.26ZM286.93 11.24H288.42L287.67 8.99L286.93 11.24ZM292.234 14C292.167 14 292.107 13.9767 292.054 13.93C292 13.8767 291.974 13.8133 291.974 13.74V7.26C291.974 7.18667 292 7.12667 292.054 7.08C292.107 7.02667 292.167 7 292.234 7H294.974C295.62 7 296.18 7.10667 296.654 7.32C297.127 7.52667 297.5 7.83333 297.774 8.24C298.047 8.64667 298.194 9.14667 298.214 9.74C298.227 10.0267 298.234 10.28 298.234 10.5C298.234 10.72 298.227 10.97 298.214 11.25C298.187 11.8767 298.044 12.3933 297.784 12.8C297.53 13.2067 297.17 13.51 296.704 13.71C296.237 13.9033 295.677 14 295.024 14H292.234ZM294.124 12.3H294.974C295.194 12.3 295.38 12.2633 295.534 12.19C295.687 12.1167 295.807 12.0033 295.894 11.85C295.98 11.69 296.027 11.4867 296.034 11.24C296.04 11.0467 296.044 10.8733 296.044 10.72C296.05 10.5667 296.05 10.4133 296.044 10.26C296.044 10.1067 296.04 9.93667 296.034 9.75C296.02 9.38333 295.914 9.11667 295.714 8.95C295.52 8.78333 295.257 8.7 294.924 8.7H294.124V12.3Z" fill="#C9CAC9"/>
</g>
</g>
<defs>
<filter id="filter0_d_1062_17432" x="0" y="0" width="308" height="88" filterUnits="userSpaceOnUse" color-interpolation-filters="sRGB">
<feFlood flood-opacity="0" result="BackgroundImageFix"/>
<feColorMatrix in="SourceAlpha" type="matrix" values="0 0 0 0 0 0 0 0 0 0 0 0 0 0 0 0 0 0 127 0" result="hardAlpha"/>
<feOffset dy="4"/>
<feGaussianBlur stdDeviation="2"/>
<feComposite in2="hardAlpha" operator="out"/>
<feColorMatrix type="matrix" values="0 0 0 0 0 0 0 0 0 0 0 0 0 0 0 0 0 0 0.25 0"/>
<feBlend mode="normal" in2="BackgroundImageFix" result="effect1_dropShadow_1062_17432"/>
<feBlend mode="normal" in="SourceGraphic" in2="effect1_dropShadow_1062_17432" result="shape"/>
</filter>
<linearGradient id="paint0_linear_1062_17432" x1="150" y1="0" x2="150" y2="80" gradientUnits="userSpaceOnUse">
<stop offset="0.095" stop-color="#807C21"/>
<stop offset="0.43" stop-color="#7FC23C"/>
<stop offset="0.935" stop-color="#4D4A17"/>
</linearGradient>
<clipPath id="clip0_1062_17432">
<rect width="300" height="20" fill="white" transform="translate(4 1)"/>
</clipPath>
</defs>
</svg>
