<svg width="24" height="24" viewBox="0 0 24 24" fill="none" xmlns="http://www.w3.org/2000/svg">
<path d="M12 22.5C14.0767 22.5 16.1068 21.8842 17.8335 20.7304C19.5602 19.5767 20.906 17.9368 21.7007 16.0182C22.4955 14.0996 22.7034 11.9884 22.2982 9.95156C21.8931 7.91476 20.8931 6.04383 19.4246 4.57538C17.9562 3.10693 16.0852 2.1069 14.0484 1.70176C12.0116 1.29661 9.90045 1.50455 7.98182 2.29927C6.0632 3.09399 4.42332 4.4398 3.26957 6.16652C2.11581 7.89323 1.5 9.9233 1.5 12C1.5 13.736 1.92 15.3728 2.66667 16.8148L1.5 22.5L7.18517 21.3333C8.62717 22.08 10.2652 22.5 12 22.5Z" stroke="#010101" stroke-width="2.5" stroke-linecap="round" stroke-linejoin="round"/>
</svg>
