<svg width="6" height="15" viewBox="0 0 6 15" fill="none" xmlns="http://www.w3.org/2000/svg">
<path d="M1.296 5.2C1.10933 5.2 0.941333 5.13467 0.792 5.004C0.661333 4.87333 0.596 4.70533 0.596 4.5V1.112C0.596 0.925332 0.661333 0.766666 0.792 0.636C0.941333 0.486666 1.10933 0.411999 1.296 0.411999H4.852C5.05733 0.411999 5.22533 0.486666 5.356 0.636C5.48667 0.766666 5.552 0.925332 5.552 1.112V4.5C5.552 4.70533 5.48667 4.87333 5.356 5.004C5.22533 5.13467 5.05733 5.2 4.852 5.2H1.296ZM1.296 15C1.10933 15 0.941333 14.9347 0.792 14.804C0.661333 14.6733 0.596 14.5053 0.596 14.3V10.912C0.596 10.7253 0.661333 10.5667 0.792 10.436C0.941333 10.2867 1.10933 10.212 1.296 10.212H4.852C5.05733 10.212 5.22533 10.2867 5.356 10.436C5.48667 10.5667 5.552 10.7253 5.552 10.912V14.3C5.552 14.5053 5.48667 14.6733 5.356 14.804C5.22533 14.9347 5.05733 15 4.852 15H1.296Z" fill="white"/>
</svg>
