<svg width="22" height="23" viewBox="0 0 22 23" fill="none" xmlns="http://www.w3.org/2000/svg">
<path d="M11 19.75C12.6317 19.75 14.2267 19.2662 15.5835 18.3596C16.9402 17.4531 17.9976 16.1646 18.622 14.6571C19.2464 13.1497 19.4098 11.4909 19.0915 9.89051C18.7732 8.29017 17.9874 6.82016 16.8336 5.66637C15.6798 4.51259 14.2098 3.72685 12.6095 3.40853C11.0092 3.0902 9.35035 3.25357 7.84286 3.878C6.33537 4.50242 5.0469 5.55984 4.14038 6.91655C3.23385 8.27325 2.75 9.86831 2.75 11.5C2.75 12.864 3.08 14.1501 3.66667 15.2831L2.75 19.75L7.21692 18.8333C8.34992 19.42 9.63692 19.75 11 19.75Z" stroke="#010101" strokeWidth="2.5" strokeLinecap="round" strokeLinejoin="round"/>
</svg>
