<svg width="24" height="24" viewBox="0 0 24 24" fill="none" xmlns="http://www.w3.org/2000/svg">
<g clip-path="url(#clip0_1652_2467)">
<path d="M1.33933 11.7198L1.15014 11.9998L1.33933 12.2798C3.71639 15.7973 7.50111 18.0998 12 18.0998C16.4989 18.0998 20.2836 15.7973 22.6607 12.2798L22.8499 11.9998L22.6607 11.7198C20.2836 8.20233 16.4989 5.8998 12 5.8998C7.50111 5.8998 3.71639 8.20233 1.33933 11.7198ZM0.545601 11.8408L0.545648 11.8407C2.99327 7.92298 7.08499 5.2998 12 5.2998C16.915 5.2998 21.0067 7.92298 23.4544 11.8407L23.4544 11.8408C23.4842 11.8885 23.5 11.9436 23.5 11.9998C23.5 12.056 23.4842 12.1111 23.4544 12.1588L23.4544 12.1589C21.0067 16.0766 16.915 18.6998 12 18.6998C7.08499 18.6998 2.99327 16.0766 0.545648 12.1589L0.545601 12.1588C0.515801 12.1111 0.5 12.056 0.5 11.9998C0.5 11.9436 0.515801 11.8885 0.545601 11.8408ZM13.9092 13.909C13.4028 14.4153 12.7161 14.6998 12 14.6998C11.2839 14.6998 10.5972 14.4153 10.0908 13.909C9.58447 13.4026 9.3 12.7159 9.3 11.9998C9.3 11.2837 9.58447 10.597 10.0908 10.0906C10.5972 9.58427 11.2839 9.2998 12 9.2998C12.7161 9.2998 13.4028 9.58427 13.9092 10.0906C14.4155 10.597 14.7 11.2837 14.7 11.9998C14.7 12.7159 14.4155 13.4026 13.9092 13.909Z" fill="#212121" stroke="#212121"/>
</g>
<defs>
<clipPath id="clip0_1652_2467">
<rect width="24" height="24" fill="white"/>
</clipPath>
</defs>
</svg>
