<!-- <svg width="32" height="24" viewBox="0 0 32 24" fill="none" xmlns="http://www.w3.org/2000/svg">
  <path d="M0.935134 10.9862C0.351829 11.5745 0.355844 12.5242 0.944103 13.1075L10.5303 22.613C11.1186 23.1963 12.0683 23.1923 12.6516 22.604C13.2349 22.0158 13.2309 21.066 12.6426 20.4827L4.12157 12.0334L12.5709 3.51231C13.1542 2.92406 13.1502 1.97432 12.5619 1.39101C11.9737 0.807707 11.0239 0.811722 10.4406 1.39998L0.935134 10.9862ZM31.9937 10.4155L1.99393 10.5424L2.00661 13.5423L32.0063 13.4155L31.9937 10.4155Z" fill="#008000"/>
</svg> -->

<svg width="24" height="25" viewBox="0 0 24 25" fill="none" xmlns="http://www.w3.org/2000/svg">
  <path d="M6 2H18C18.3978 2 18.7794 2.15804 19.0607 2.43934C19.342 2.72064 19.5 3.10218 19.5 3.5V23L12 19.25L4.5 23V3.5C4.5 3.10218 4.65804 2.72064 4.93934 2.43934C5.22064 2.15804 5.60218 2 6 2Z" fill="#008000"/>
</svg>