<svg width="46" height="45" viewBox="0 0 46 45" fill="none" xmlns="http://www.w3.org/2000/svg">
<path d="M17.375 9.37471C16.8777 9.37471 16.4008 9.57226 16.0492 9.92389C15.6975 10.2755 15.5 10.7524 15.5 11.2497C15.5 11.747 15.6975 12.2239 16.0492 12.5755C16.4008 12.9272 16.8777 13.1247 17.375 13.1247C17.8723 13.1247 18.3492 12.9272 18.7008 12.5755C19.0525 12.2239 19.25 11.747 19.25 11.2497C19.25 10.7524 19.0525 10.2755 18.7008 9.92389C18.3492 9.57226 17.8723 9.37471 17.375 9.37471ZM12.0688 9.37471C12.4561 8.27684 13.1745 7.32615 14.1249 6.65369C15.0752 5.98123 16.2108 5.62012 17.375 5.62012C18.5392 5.62012 19.6748 5.98123 20.6251 6.65369C21.5755 7.32615 22.2939 8.27684 22.6812 9.37471H36.125C36.6223 9.37471 37.0992 9.57226 37.4508 9.92389C37.8025 10.2755 38 10.7524 38 11.2497C38 11.747 37.8025 12.2239 37.4508 12.5755C37.0992 12.9272 36.6223 13.1247 36.125 13.1247H22.6812C22.2939 14.2226 21.5755 15.1733 20.6251 15.8457C19.6748 16.5182 18.5392 16.8793 17.375 16.8793C16.2108 16.8793 15.0752 16.5182 14.1249 15.8457C13.1745 15.1733 12.4561 14.2226 12.0688 13.1247H9.875C9.37772 13.1247 8.90081 12.9272 8.54918 12.5755C8.19754 12.2239 8 11.747 8 11.2497C8 10.7524 8.19754 10.2755 8.54918 9.92389C8.90081 9.57226 9.37772 9.37471 9.875 9.37471H12.0688ZM28.625 20.6247C28.1277 20.6247 27.6508 20.8223 27.2992 21.1739C26.9475 21.5255 26.75 22.0024 26.75 22.4997C26.75 22.997 26.9475 23.4739 27.2992 23.8255C27.6508 24.1772 28.1277 24.3747 28.625 24.3747C29.1223 24.3747 29.5992 24.1772 29.9508 23.8255C30.3025 23.4739 30.5 22.997 30.5 22.4997C30.5 22.0024 30.3025 21.5255 29.9508 21.1739C29.5992 20.8223 29.1223 20.6247 28.625 20.6247ZM23.3188 20.6247C23.7061 19.5268 24.4245 18.5761 25.3749 17.9037C26.3252 17.2312 27.4608 16.8701 28.625 16.8701C29.7892 16.8701 30.9248 17.2312 31.8751 17.9037C32.8255 18.5761 33.5439 19.5268 33.9312 20.6247H36.125C36.6223 20.6247 37.0992 20.8223 37.4508 21.1739C37.8025 21.5255 38 22.0024 38 22.4997C38 22.997 37.8025 23.4739 37.4508 23.8255C37.0992 24.1772 36.6223 24.3747 36.125 24.3747H33.9312C33.5439 25.4726 32.8255 26.4233 31.8751 27.0957C30.9248 27.7682 29.7892 28.1293 28.625 28.1293C27.4608 28.1293 26.3252 27.7682 25.3749 27.0957C24.4245 26.4233 23.7061 25.4726 23.3188 24.3747H9.875C9.37772 24.3747 8.90081 24.1772 8.54918 23.8255C8.19754 23.4739 8 22.997 8 22.4997C8 22.0024 8.19754 21.5255 8.54918 21.1739C8.90081 20.8223 9.37772 20.6247 9.875 20.6247H23.3188ZM17.375 31.8747C16.8777 31.8747 16.4008 32.0723 16.0492 32.4239C15.6975 32.7755 15.5 33.2524 15.5 33.7497C15.5 34.247 15.6975 34.7239 16.0492 35.0755C16.4008 35.4272 16.8777 35.6247 17.375 35.6247C17.8723 35.6247 18.3492 35.4272 18.7008 35.0755C19.0525 34.7239 19.25 34.247 19.25 33.7497C19.25 33.2524 19.0525 32.7755 18.7008 32.4239C18.3492 32.0723 17.8723 31.8747 17.375 31.8747ZM12.0688 31.8747C12.4561 30.7768 13.1745 29.8261 14.1249 29.1537C15.0752 28.4812 16.2108 28.1201 17.375 28.1201C18.5392 28.1201 19.6748 28.4812 20.6251 29.1537C21.5755 29.8261 22.2939 30.7768 22.6812 31.8747H36.125C36.6223 31.8747 37.0992 32.0723 37.4508 32.4239C37.8025 32.7755 38 33.2524 38 33.7497C38 34.247 37.8025 34.7239 37.4508 35.0755C37.0992 35.4272 36.6223 35.6247 36.125 35.6247H22.6812C22.2939 36.7226 21.5755 37.6733 20.6251 38.3457C19.6748 39.0182 18.5392 39.3793 17.375 39.3793C16.2108 39.3793 15.0752 39.0182 14.1249 38.3457C13.1745 37.6733 12.4561 36.7226 12.0688 35.6247H9.875C9.37772 35.6247 8.90081 35.4272 8.54918 35.0755C8.19754 34.7239 8 34.247 8 33.7497C8 33.2524 8.19754 32.7755 8.54918 32.4239C8.90081 32.0723 9.37772 31.8747 9.875 31.8747H12.0688Z" fill="#323232"/>
</svg>
