<svg width="36" height="35" viewBox="0 0 36 35" fill="none" xmlns="http://www.w3.org/2000/svg">
<path d="M30.4172 9.56099L30.4172 9.561C30.111 9.9062 29.6819 10.1136 29.2202 10.1165L14.3767 10.2114C13.915 10.2144 13.4832 10.0125 13.1727 9.67125C12.8637 9.33174 12.6963 8.8801 12.6933 8.41782C12.6904 7.95554 12.852 7.50179 13.1566 7.15836C13.4628 6.81315 13.8919 6.60577 14.3536 6.60282L29.1971 6.50791C29.6588 6.50496 30.0906 6.70684 30.4011 7.0481M30.4172 9.56099L30.4011 7.0481C30.4011 7.0481 30.4011 7.0481 30.4011 7.0481M30.4172 9.56099C30.7218 9.21756 30.8834 8.76381 30.8805 8.30153C30.8775 7.83926 30.7101 7.38761 30.4011 7.0481M30.4172 9.56099L30.4011 7.0481M30.5284 26.9519C30.833 26.6085 30.9946 26.1548 30.9917 25.6925C30.9887 25.2302 30.8213 24.7786 30.5123 24.439C30.2018 24.0978 29.77 23.8959 29.3083 23.8989L12.9024 24.0038C12.4406 24.0067 12.0115 24.2141 11.7053 24.5593C11.4007 24.9027 11.2391 25.3565 11.2421 25.8188C11.245 26.281 11.4124 26.7327 11.7214 27.0722C12.0319 27.4135 12.4637 27.6153 12.9254 27.6124L29.3313 27.5075C29.7931 27.5045 30.2222 27.2971 30.5284 26.9519ZM29.2757 18.812C29.7375 18.8091 30.1666 18.6017 30.4728 18.2565C30.7774 17.913 30.939 17.4593 30.9361 16.997C30.9331 16.5347 30.7657 16.0831 30.4567 15.7436C30.1462 15.4023 29.7144 15.2004 29.2527 15.2034L6.59689 15.3482C6.13516 15.3512 5.70602 15.5586 5.39984 15.9038C5.09523 16.2472 4.93363 16.701 4.93659 17.1632C4.93954 17.6255 5.10693 18.0772 5.41591 18.4167C5.72647 18.7579 6.15823 18.9598 6.61996 18.9569L29.2757 18.812Z" fill="#010101" stroke="#010101"/>
</svg>
