<svg width="27" height="25" viewBox="0 0 27 25" fill="none" xmlns="http://www.w3.org/2000/svg">
<path d="M13.6288 20.9604L13.4997 21.0896L13.3576 20.9604C7.22218 15.3933 3.16634 11.7121 3.16634 7.97917C3.16634 5.39583 5.10384 3.45833 7.68717 3.45833C9.67634 3.45833 11.6138 4.75 12.2984 6.50667H14.7009C15.3855 4.75 17.323 3.45833 19.3122 3.45833C21.8955 3.45833 23.833 5.39583 23.833 7.97917C23.833 11.7121 19.7772 15.3933 13.6288 20.9604ZM19.3122 0.875C17.0647 0.875 14.9076 1.92125 13.4997 3.56167C12.0918 1.92125 9.93468 0.875 7.68717 0.875C3.70884 0.875 0.583008 3.98792 0.583008 7.97917C0.583008 12.8487 4.97467 16.84 11.6268 22.8721L13.4997 24.5771L15.3726 22.8721C22.0247 16.84 26.4163 12.8487 26.4163 7.97917C26.4163 3.98792 23.2905 0.875 19.3122 0.875Z" fill="#010101"/>
</svg>
