<svg width="20" height="20" viewBox="0 0 20 20" fill="none" xmlns="http://www.w3.org/2000/svg">
<path d="M14.275 15.125L13.85 14.7C13.7 14.55 13.521 14.475 13.313 14.475C13.105 14.475 12.9257 14.55 12.775 14.7C12.625 14.85 12.55 15.025 12.55 15.225C12.55 15.425 12.625 15.6 12.775 15.75L13.75 16.725C13.9 16.875 14.075 16.95 14.275 16.95C14.475 16.95 14.65 16.875 14.8 16.725L17.225 14.35C17.375 14.2 17.45 14.0207 17.45 13.812C17.45 13.6033 17.375 13.4243 17.225 13.275C17.075 13.125 16.8957 13.05 16.687 13.05C16.4783 13.05 16.2993 13.125 16.15 13.275L14.275 15.125ZM4 6H14C14.2833 6 14.521 5.904 14.713 5.712C14.905 5.52 15.0007 5.28267 15 5C15 4.71667 14.904 4.47933 14.712 4.288C14.52 4.09667 14.2827 4.00067 14 4H4C3.71667 4 3.47933 4.096 3.288 4.288C3.09667 4.48 3.00067 4.71733 3 5C3 5.28333 3.096 5.521 3.288 5.713C3.48 5.905 3.71733 6.00067 4 6ZM15 20C13.6167 20 12.4377 19.5123 11.463 18.537C10.4883 17.5617 10.0007 16.3827 10 15C10 13.6167 10.4877 12.4377 11.463 11.463C12.4383 10.4883 13.6173 10.0007 15 10C16.3833 10 17.5627 10.4877 18.538 11.463C19.5133 12.4383 20.0007 13.6173 20 15C20 16.3833 19.5123 17.5627 18.537 18.538C17.5617 19.5133 16.3827 20.0007 15 20ZM0 18.875V2C0 1.45 0.196 0.979333 0.588 0.588C0.98 0.196667 1.45067 0.000666667 2 0H16C16.55 0 17.021 0.196 17.413 0.588C17.805 0.98 18.0007 1.45067 18 2V8.675C17.6833 8.525 17.3583 8.4 17.025 8.3C16.6917 8.2 16.35 8.125 16 8.075V2H2V16.05H8.075C8.15833 16.5667 8.28767 17.0583 8.463 17.525C8.63833 17.9917 8.86733 18.4333 9.15 18.85C9.06667 18.8667 8.979 18.854 8.887 18.812C8.795 18.77 8.716 18.716 8.65 18.65L7.85 17.85C7.75 17.75 7.63333 17.7 7.5 17.7C7.36667 17.7 7.25 17.75 7.15 17.85L6.35 18.65C6.25 18.75 6.13333 18.8 6 18.8C5.86667 18.8 5.75 18.75 5.65 18.65L4.85 17.85C4.75 17.75 4.63333 17.7 4.5 17.7C4.36667 17.7 4.25 17.75 4.15 17.85L3.35 18.65C3.25 18.75 3.13333 18.8 3 18.8C2.86667 18.8 2.75 18.75 2.65 18.65L1.85 17.85C1.75 17.75 1.63333 17.7 1.5 17.7C1.36667 17.7 1.25 17.75 1.15 17.85L0.35 18.65L0 18.875ZM4 14H8.075C8.125 13.65 8.2 13.3083 8.3 12.975C8.4 12.6417 8.525 12.3167 8.675 12H4C3.71667 12 3.47933 12.096 3.288 12.288C3.09667 12.48 3.00067 12.7173 3 13C3 13.2833 3.096 13.521 3.288 13.713C3.48 13.905 3.71733 14.0007 4 14ZM4 10H10.1C10.7333 9.38333 11.471 8.89567 12.313 8.537C13.155 8.17833 14.0507 7.99933 15 8H4C3.71667 8 3.47933 8.096 3.288 8.288C3.09667 8.48 3.00067 8.71733 3 9C3 9.28333 3.096 9.521 3.288 9.713C3.48 9.905 3.71733 10.0007 4 10Z" fill="#F9F9F9"/>
</svg>
