<svg width="24" height="24" viewBox="0 0 24 24" fill="none" xmlns="http://www.w3.org/2000/svg">
<path d="M21 0H3C1.346 0 0 1.346 0 3V24H16.414L24 16.414V3C24 1.346 22.654 0 21 0ZM2 3C2 2.448 2.449 2 3 2H21C21.551 2 22 2.448 22 3V15H15V22H2V3ZM20.586 17L17 20.586V17H20.586ZM4 6.5C4 5.672 4.672 5 5.5 5C6.328 5 7 5.672 7 6.5C7 7.328 6.328 8 5.5 8C4.672 8 4 7.328 4 6.5ZM7 12C7 12.828 6.328 13.5 5.5 13.5C4.672 13.5 4 12.828 4 12C4 11.172 4.672 10.5 5.5 10.5C6.328 10.5 7 11.172 7 12ZM7 17.5C7 18.328 6.328 19 5.5 19C4.672 19 4 18.328 4 17.5C4 16.672 4.672 16 5.5 16C6.328 16 7 16.672 7 17.5Z" fill="#F9F9F9"/>
</svg>
