<svg width="24" height="24" viewBox="0 0 24 24" fill="none" xmlns="http://www.w3.org/2000/svg">
<path d="M19.8291 15.3957V14.3702C19.8291 13.6461 19.5415 12.9518 19.0296 12.4398C18.5176 11.9278 17.8233 11.6402 17.0993 11.6402H12.5496V9.72927C13.6543 9.50377 14.636 8.87609 15.3042 7.96793C15.9724 7.05977 16.2797 5.93583 16.1663 4.81401C16.053 3.69219 15.5272 2.65241 14.6909 1.89625C13.8545 1.1401 12.7672 0.721436 11.6397 0.721436C10.5122 0.721436 9.4249 1.1401 8.58855 1.89625C7.75219 2.65241 7.22638 3.69219 7.11306 4.81401C6.99974 5.93583 7.30698 7.05977 7.97521 7.96793C8.64344 8.87609 9.62506 9.50377 10.7298 9.72927V11.6402H6.18008C5.45609 11.6402 4.76176 11.9278 4.24982 12.4398C3.73788 12.9518 3.45028 13.6461 3.45028 14.3702V15.3957C2.59252 15.6172 1.84498 16.1439 1.34778 16.8771C0.850576 17.6104 0.637852 18.4998 0.749478 19.3787C0.861104 20.2575 1.28942 21.0655 1.95413 21.6512C2.61884 22.2368 3.47432 22.5599 4.36021 22.5599C5.2461 22.5599 6.10158 22.2368 6.7663 21.6512C7.43101 21.0655 7.85932 20.2575 7.97095 19.3787C8.08257 18.4998 7.86985 17.6104 7.37265 16.8771C6.87545 16.1439 6.12791 15.6172 5.27015 15.3957V14.3702C5.27015 14.1288 5.36602 13.8974 5.53666 13.7267C5.70731 13.556 5.93875 13.4602 6.18008 13.4602H10.7298V15.3957C9.87201 15.6172 9.12447 16.1439 8.62726 16.8771C8.13006 17.6104 7.91734 18.4998 8.02897 19.3787C8.14059 20.2575 8.5689 21.0655 9.23362 21.6512C9.89833 22.2368 10.7538 22.5599 11.6397 22.5599C12.5256 22.5599 13.3811 22.2368 14.0458 21.6512C14.7105 21.0655 15.1388 20.2575 15.2504 19.3787C15.3621 18.4998 15.1493 17.6104 14.6521 16.8771C14.1549 16.1439 13.4074 15.6172 12.5496 15.3957V13.4602H17.0993C17.3406 13.4602 17.5721 13.556 17.7427 13.7267C17.9134 13.8974 18.0093 14.1288 18.0093 14.3702V15.3957C17.1515 15.6172 16.404 16.1439 15.9068 16.8771C15.4096 17.6104 15.1968 18.4998 15.3085 19.3787C15.4201 20.2575 15.8484 21.0655 16.5131 21.6512C17.1778 22.2368 18.0333 22.5599 18.9192 22.5599C19.8051 22.5599 20.6606 22.2368 21.3253 21.6512C21.99 21.0655 22.4183 20.2575 22.5299 19.3787C22.6416 18.4998 22.4288 17.6104 21.9316 16.8771C21.4344 16.1439 20.6869 15.6172 19.8291 15.3957ZM8.90989 5.27039C8.90989 4.73046 9.06999 4.20266 9.36995 3.75372C9.6699 3.30479 10.0962 2.95488 10.595 2.74826C11.0939 2.54164 11.6427 2.48758 12.1723 2.59291C12.7018 2.69825 13.1882 2.95825 13.57 3.34004C13.9517 3.72182 14.2117 4.20825 14.3171 4.73781C14.4224 5.26736 14.3683 5.81626 14.1617 6.31509C13.9551 6.81392 13.6052 7.24027 13.1563 7.54024C12.7074 7.84021 12.1796 8.00032 11.6397 8.00032C10.9157 8.00032 10.2214 7.7127 9.70944 7.20074C9.1975 6.68878 8.90989 5.99441 8.90989 5.27039ZM6.18008 18.92C6.18008 19.28 6.07335 19.6319 5.87338 19.9311C5.67341 20.2304 5.38919 20.4637 5.05665 20.6014C4.72411 20.7392 4.35819 20.7752 4.00517 20.705C3.65215 20.6348 3.32788 20.4615 3.07337 20.2069C2.81885 19.9524 2.64553 19.6281 2.57531 19.2751C2.50509 18.9221 2.54113 18.5561 2.67887 18.2236C2.81661 17.891 3.04987 17.6068 3.34915 17.4068C3.64842 17.2068 4.00028 17.1001 4.36021 17.1001C4.84287 17.1001 5.30576 17.2918 5.64706 17.6331C5.98835 17.9744 6.18008 18.4374 6.18008 18.92ZM13.4596 18.92C13.4596 19.28 13.3528 19.6319 13.1529 19.9311C12.9529 20.2304 12.6687 20.4637 12.3361 20.6014C12.0036 20.7392 11.6377 20.7752 11.2847 20.705C10.9316 20.6348 10.6074 20.4615 10.3529 20.2069C10.0983 19.9524 9.92502 19.6281 9.8548 19.2751C9.78458 18.9221 9.82062 18.5561 9.95836 18.2236C10.0961 17.891 10.3294 17.6068 10.6286 17.4068C10.9279 17.2068 11.2798 17.1001 11.6397 17.1001C12.1224 17.1001 12.5853 17.2918 12.9265 17.6331C13.2678 17.9744 13.4596 18.4374 13.4596 18.92ZM18.9192 20.74C18.5593 20.74 18.2074 20.6332 17.9081 20.4333C17.6088 20.2333 17.3756 19.9491 17.2378 19.6165C17.1001 19.2839 17.0641 18.918 17.1343 18.565C17.2045 18.2119 17.3778 17.8877 17.6323 17.6331C17.8869 17.3786 18.2111 17.2053 18.5642 17.135C18.9172 17.0648 19.2831 17.1009 19.6156 17.2386C19.9482 17.3764 20.2324 17.6096 20.4324 17.9089C20.6323 18.2082 20.7391 18.5601 20.7391 18.92C20.7391 19.4027 20.5473 19.8656 20.206 20.2069C19.8647 20.5482 19.4019 20.74 18.9192 20.74Z" fill="#F9F9F9"/>
</svg>
