<svg width="101" height="87" viewBox="0 0 101 87" fill="none" xmlns="http://www.w3.org/2000/svg">
<g filter="url(#filter0_d_1062_10064)">
<mask id="path-1-inside-1_1062_10064" fill="white">
<path fill-rule="evenodd" clip-rule="evenodd" d="M6.41902 36.1872C11.6575 41.723 16.4863 46.2786 24.2878 50.8422C31.7197 55.1889 39.5936 58.7482 49.7894 58.9892C70.1408 59.4713 86.3946 44.4387 94.7666 35.8819C95.2648 35.3275 95.3772 34.6928 94.7666 33.9135C89.978 29.0204 82.8032 22.1911 73.7965 17.2258C72.9931 17.9087 72.1976 18.6238 71.4103 19.3469C80.4411 23.79 88.0658 30.1051 92.1956 34.9017C88.5399 39.2082 80.9151 45.1377 74.7365 48.7291C68.3411 52.4571 59.4549 55.8798 50.3839 55.8718C33.0535 55.8557 15.6828 43.1451 8.59637 34.9017C15.7632 26.5056 33.1659 13.9477 50.4161 13.9236C53.7986 13.9156 57.1811 14.4057 60.4994 15.2573C61.102 14.3173 61.7126 13.3853 62.3393 12.4613C58.5631 11.4007 54.5779 10.7821 50.4 10.7982C30.8038 10.8785 14.9436 24.6336 6.56364 33.3591C5.72805 34.2429 5.47898 35.1749 6.41902 36.1872Z"/>
</mask>
<path fill-rule="evenodd" clip-rule="evenodd" d="M6.41902 36.1872C11.6575 41.723 16.4863 46.2786 24.2878 50.8422C31.7197 55.1889 39.5936 58.7482 49.7894 58.9892C70.1408 59.4713 86.3946 44.4387 94.7666 35.8819C95.2648 35.3275 95.3772 34.6928 94.7666 33.9135C89.978 29.0204 82.8032 22.1911 73.7965 17.2258C72.9931 17.9087 72.1976 18.6238 71.4103 19.3469C80.4411 23.79 88.0658 30.1051 92.1956 34.9017C88.5399 39.2082 80.9151 45.1377 74.7365 48.7291C68.3411 52.4571 59.4549 55.8798 50.3839 55.8718C33.0535 55.8557 15.6828 43.1451 8.59637 34.9017C15.7632 26.5056 33.1659 13.9477 50.4161 13.9236C53.7986 13.9156 57.1811 14.4057 60.4994 15.2573C61.102 14.3173 61.7126 13.3853 62.3393 12.4613C58.5631 11.4007 54.5779 10.7821 50.4 10.7982C30.8038 10.8785 14.9436 24.6336 6.56364 33.3591C5.72805 34.2429 5.47898 35.1749 6.41902 36.1872Z" fill="url(#paint0_linear_1062_10064)"/>
<path d="M6.41902 36.1872L-1.64171 43.6722L-1.6064 43.7102L-1.57073 43.7479L6.41902 36.1872ZM24.2878 50.8422L18.7337 60.337L18.7344 60.3374L24.2878 50.8422ZM49.7894 58.9892L50.0499 47.9923L50.0493 47.9923L49.7894 58.9892ZM94.7666 35.8819L102.629 43.5747L102.793 43.4078L102.949 43.234L94.7666 35.8819ZM94.7666 33.9135L103.425 27.1293L103.052 26.6525L102.628 26.2197L94.7666 33.9135ZM73.7965 17.2258L79.1072 7.59266L72.4577 3.92688L66.6724 8.84444L73.7965 17.2258ZM71.4103 19.3469L63.9698 11.2451L52.1286 22.1197L66.5542 29.217L71.4103 19.3469ZM92.1956 34.9017L100.582 42.0204L106.667 34.8512L100.532 27.7246L92.1956 34.9017ZM74.7365 48.7291L69.2086 39.219L69.1969 39.2258L74.7365 48.7291ZM50.3839 55.8718L50.3737 66.8718H50.3742L50.3839 55.8718ZM8.59637 34.9017L0.229874 27.7602L-5.88768 34.927L0.254889 42.0725L8.59637 34.9017ZM50.4161 13.9236L50.4314 24.9236L50.4422 24.9236L50.4161 13.9236ZM60.4994 15.2573L57.7648 25.912L65.4681 27.8891L69.7601 21.1936L60.4994 15.2573ZM62.3393 12.4613L71.4428 18.6359L80.0136 5.99955L65.3136 1.87104L62.3393 12.4613ZM50.4 10.7982L50.3577 -0.201762L50.3549 -0.201751L50.4 10.7982ZM6.56364 33.3591L-1.37002 25.7396L-1.39987 25.7706L-1.42947 25.802L6.56364 33.3591ZM-1.57073 43.7479C4.03099 49.6675 9.67695 55.0392 18.7337 60.337L29.8419 41.3474C23.2956 37.518 19.2841 33.7785 14.4088 28.6266L-1.57073 43.7479ZM18.7344 60.3374C26.8852 65.1046 36.6572 69.6818 49.5294 69.9861L50.0493 47.9923C42.5299 47.8145 36.5543 45.2732 29.8412 41.347L18.7344 60.3374ZM49.5289 69.9861C75.1108 70.5921 94.3994 51.9862 102.629 43.5747L86.904 28.1891C78.3899 36.8911 65.1709 48.3505 50.0499 47.9923L49.5289 69.9861ZM102.949 43.234C104.278 41.7548 106.013 39.1304 106.172 35.4569C106.332 31.7514 104.807 28.8932 103.425 27.1293L86.1078 40.6977C85.3364 39.7131 84.0607 37.562 84.1927 34.5072C84.3233 31.4845 85.7535 29.4547 86.5845 28.5299L102.949 43.234ZM102.628 26.2197C97.6405 21.1231 89.5584 13.3544 79.1072 7.59266L68.4858 26.8589C76.048 31.0279 82.3156 36.9178 86.905 41.6073L102.628 26.2197ZM66.6724 8.84444C65.7184 9.65529 64.8083 10.475 63.9698 11.2451L78.8507 27.4487C79.587 26.7725 80.2677 26.1621 80.9206 25.6071L66.6724 8.84444ZM66.5542 29.217C74.2899 33.0229 80.7213 38.4338 83.8595 42.0788L100.532 27.7246C95.4104 21.7765 86.5923 14.5571 76.2663 9.47678L66.5542 29.217ZM83.8096 27.783C81.224 30.8289 74.7188 36.0161 69.2086 39.219L80.2645 58.2392C87.1114 54.2593 95.8557 47.5875 100.582 42.0204L83.8096 27.783ZM69.1969 39.2258C63.8566 42.3388 56.8968 44.8776 50.3937 44.8718L50.3742 66.8718C62.013 66.8821 72.8255 62.5755 80.2762 58.2324L69.1969 39.2258ZM50.3941 44.8718C44.289 44.8662 37.5122 42.5685 31.0911 38.9127C24.6975 35.2726 19.5905 30.8167 16.9379 27.731L0.254889 42.0725C4.68873 47.2302 11.8103 53.2512 20.2062 58.0313C28.5747 62.7957 39.1484 66.8614 50.3737 66.8718L50.3941 44.8718ZM16.9629 42.0433C19.6335 38.9146 24.7463 34.4686 31.1453 30.845C37.5675 27.2083 44.3437 24.9321 50.4314 24.9236L50.4007 2.9236C39.2383 2.93919 28.6881 6.95402 20.3047 11.7013C11.898 16.4618 4.72607 22.4928 0.229874 27.7602L16.9629 42.0433ZM50.4422 24.9236C52.7489 24.9181 55.1966 25.2528 57.7648 25.912L63.234 4.60265C59.1656 3.55846 54.8483 2.91303 50.3899 2.92362L50.4422 24.9236ZM69.7601 21.1936C70.3239 20.314 70.8812 19.4639 71.4428 18.6359L53.2357 6.28672C52.544 7.30663 51.88 8.32051 51.2387 9.32099L69.7601 21.1936ZM65.3136 1.87104C60.6631 0.564962 55.6612 -0.222159 50.3577 -0.201761L50.4423 21.7981C53.4947 21.7863 56.463 22.2365 59.365 23.0516L65.3136 1.87104ZM50.3549 -0.201751C25.9074 -0.101515 7.2543 16.7597 -1.37002 25.7396L14.4973 40.9786C22.633 32.5075 35.7002 21.8585 50.4451 21.7981L50.3549 -0.201751ZM-1.42947 25.802C-2.61452 27.0554 -4.70581 29.6739 -5.11473 33.5795C-5.57775 38.0018 -3.66129 41.4973 -1.64171 43.6722L14.4797 28.7023C15.5593 29.8649 17.1303 32.3881 16.7657 35.8704C16.4552 38.836 14.9062 40.5466 14.5568 40.9162L-1.42947 25.802Z" fill="url(#paint1_linear_1062_10064)" mask="url(#path-1-inside-1_1062_10064)"/>
<path fill-rule="evenodd" clip-rule="evenodd" d="M50.8024 36.5077C56.0007 28.1437 62.2516 11.4239 73.6365 4C76.6414 7.39057 77.2601 7.59947 82.1852 10.8534C69.089 16.3571 60.5161 26.2396 51.2684 44.2449L50.6176 45.5063L50.007 44.2208C48.8982 41.8346 47.5645 39.6411 45.9817 37.6807C44.3908 35.7283 42.5429 33.9848 40.3896 32.5065C44.8167 28.8829 50.0712 33.4787 50.8024 36.5077Z" fill="url(#paint2_linear_1062_10064)"/>
<path fill-rule="evenodd" clip-rule="evenodd" d="M50.3831 16.292C53.3559 16.292 56.1599 16.991 58.6426 18.2203C57.8231 19.5942 57.1321 20.6467 56.2242 22.4946C54.4566 21.6591 52.4801 21.193 50.3831 21.193C42.8146 21.193 36.6843 27.3314 36.6843 34.8999C36.6843 42.1471 42.3084 48.0846 49.435 48.5667L50.6322 50.6315L51.3392 48.5667C58.4658 48.0766 64.09 42.1471 64.09 34.8999C64.09 32.6021 63.5276 30.4327 62.5233 28.5286C62.9893 27.8938 64.4355 25.8531 65.9379 24.68C67.8662 27.6126 68.9911 31.1237 68.9911 34.8999C68.9911 45.1761 60.6593 53.4999 50.3831 53.4999C40.115 53.4999 31.7832 45.1761 31.7832 34.8999C31.7832 24.6238 40.115 16.292 50.3831 16.292Z" fill="#2C692C"/>
</g>
<g filter="url(#filter1_d_1062_10064)">
<path d="M17.894 78.14C17.1287 78.14 16.424 78.0187 15.78 77.776C15.1453 77.524 14.59 77.174 14.114 76.726C13.638 76.2687 13.2693 75.732 13.008 75.116C12.7467 74.5 12.616 73.828 12.616 73.1C12.616 72.372 12.7467 71.7 13.008 71.084C13.2693 70.468 13.638 69.936 14.114 69.488C14.5993 69.0307 15.164 68.6807 15.808 68.438C16.452 68.186 17.1567 68.06 17.922 68.06C18.7527 68.06 19.4993 68.1953 20.162 68.466C20.834 68.7367 21.3987 69.1333 21.856 69.656L20.708 70.776C20.3253 70.3933 19.91 70.1133 19.462 69.936C19.0233 69.7493 18.538 69.656 18.006 69.656C17.4927 69.656 17.0167 69.74 16.578 69.908C16.1393 70.076 15.7613 70.314 15.444 70.622C15.1267 70.93 14.8793 71.294 14.702 71.714C14.534 72.134 14.45 72.596 14.45 73.1C14.45 73.5947 14.534 74.052 14.702 74.472C14.8793 74.892 15.1267 75.2607 15.444 75.578C15.7613 75.886 16.1347 76.124 16.564 76.292C16.9933 76.46 17.4693 76.544 17.992 76.544C18.4773 76.544 18.944 76.4693 19.392 76.32C19.8493 76.1613 20.2833 75.9 20.694 75.536L21.73 76.894C21.2167 77.3047 20.6193 77.6173 19.938 77.832C19.266 78.0373 18.5847 78.14 17.894 78.14ZM20.008 76.656V72.988H21.73V76.894L20.008 76.656ZM27.3225 78.098C26.5571 78.098 25.8758 77.9347 25.2785 77.608C24.6811 77.272 24.2098 76.8147 23.8645 76.236C23.5191 75.6573 23.3465 74.9993 23.3465 74.262C23.3465 73.5153 23.5191 72.8573 23.8645 72.288C24.2098 71.7093 24.6811 71.2567 25.2785 70.93C25.8758 70.6033 26.5571 70.44 27.3225 70.44C28.0971 70.44 28.7831 70.6033 29.3805 70.93C29.9871 71.2567 30.4585 71.7047 30.7945 72.274C31.1398 72.8433 31.3125 73.506 31.3125 74.262C31.3125 74.9993 31.1398 75.6573 30.7945 76.236C30.4585 76.8147 29.9871 77.272 29.3805 77.608C28.7831 77.9347 28.0971 78.098 27.3225 78.098ZM27.3225 76.6C27.7518 76.6 28.1345 76.5067 28.4705 76.32C28.8065 76.1333 29.0678 75.8627 29.2545 75.508C29.4505 75.1533 29.5485 74.738 29.5485 74.262C29.5485 73.7767 29.4505 73.3613 29.2545 73.016C29.0678 72.6613 28.8065 72.3907 28.4705 72.204C28.1345 72.0173 27.7565 71.924 27.3365 71.924C26.9071 71.924 26.5245 72.0173 26.1885 72.204C25.8618 72.3907 25.6005 72.6613 25.4045 73.016C25.2085 73.3613 25.1105 73.7767 25.1105 74.262C25.1105 74.738 25.2085 75.1533 25.4045 75.508C25.6005 75.8627 25.8618 76.1333 26.1885 76.32C26.5245 76.5067 26.9025 76.6 27.3225 76.6ZM34.7688 78L31.5628 70.524H33.3828L36.1408 77.118H35.2448L38.1008 70.524H39.7808L36.5748 78H34.7688ZM43.1286 78L39.9506 68.2H42.8066L45.4806 76.684H44.0386L46.8526 68.2H49.4006L52.0606 76.684H50.6746L53.4326 68.2H56.0786L52.9006 78H49.9326L47.6646 70.79H48.4626L46.0966 78H43.1286ZM61.0193 78V76.586L60.8373 76.236V73.632C60.8373 73.212 60.7066 72.89 60.4453 72.666C60.1933 72.4327 59.7873 72.316 59.2272 72.316C58.8633 72.316 58.4946 72.3767 58.1213 72.498C57.7479 72.61 57.4306 72.7687 57.1693 72.974L56.2733 71.168C56.7026 70.888 57.2159 70.6733 57.8133 70.524C58.4199 70.3653 59.0219 70.286 59.6193 70.286C60.8513 70.286 61.8033 70.5707 62.4753 71.14C63.1566 71.7 63.4973 72.582 63.4973 73.786V78H61.0193ZM58.7793 78.126C58.1726 78.126 57.6593 78.0233 57.2393 77.818C56.8193 77.6127 56.4973 77.3327 56.2733 76.978C56.0586 76.6233 55.9513 76.2267 55.9513 75.788C55.9513 75.3213 56.0679 74.92 56.3013 74.584C56.5439 74.2387 56.9126 73.9773 57.4073 73.8C57.9019 73.6133 58.5413 73.52 59.3253 73.52H61.1173V74.906H59.6893C59.2599 74.906 58.9566 74.976 58.7793 75.116C58.6113 75.256 58.5273 75.4427 58.5273 75.676C58.5273 75.9093 58.6159 76.096 58.7933 76.236C58.9706 76.376 59.2133 76.446 59.5213 76.446C59.8106 76.446 60.0719 76.376 60.3053 76.236C60.5479 76.0867 60.7253 75.8627 60.8373 75.564L61.2013 76.544C61.0613 77.0667 60.7859 77.4633 60.3753 77.734C59.9739 77.9953 59.4419 78.126 58.7793 78.126ZM68.5643 78.126C67.5936 78.126 66.8376 77.888 66.2963 77.412C65.7549 76.9267 65.4843 76.1987 65.4843 75.228V68.718H68.1443V75.2C68.1443 75.4707 68.2189 75.6853 68.3683 75.844C68.5176 75.9933 68.7089 76.068 68.9423 76.068C69.2596 76.068 69.5303 75.9887 69.7543 75.83L70.4123 77.692C70.1883 77.8413 69.9129 77.9487 69.5863 78.014C69.2596 78.0887 68.9189 78.126 68.5643 78.126ZM64.3783 72.68V70.692H69.8803V72.68H64.3783ZM75.0972 78.126C74.2572 78.126 73.5059 77.958 72.8432 77.622C72.1899 77.286 71.6766 76.824 71.3032 76.236C70.9299 75.6387 70.7432 74.9573 70.7432 74.192C70.7432 73.4267 70.9299 72.75 71.3032 72.162C71.6766 71.574 72.1899 71.1167 72.8432 70.79C73.5059 70.454 74.2572 70.286 75.0972 70.286C75.9559 70.286 76.6979 70.468 77.3232 70.832C77.9486 71.196 78.3919 71.7093 78.6532 72.372L76.5952 73.422C76.4179 73.0673 76.1986 72.8107 75.9372 72.652C75.6759 72.484 75.3912 72.4 75.0832 72.4C74.7752 72.4 74.4952 72.47 74.2432 72.61C73.9912 72.75 73.7906 72.9553 73.6412 73.226C73.5012 73.4873 73.4312 73.8093 73.4312 74.192C73.4312 74.584 73.5012 74.9153 73.6412 75.186C73.7906 75.4567 73.9912 75.662 74.2432 75.802C74.4952 75.942 74.7752 76.012 75.0832 76.012C75.3912 76.012 75.6759 75.9327 75.9372 75.774C76.1986 75.606 76.4179 75.3447 76.5952 74.99L78.6532 76.04C78.3919 76.7027 77.9486 77.216 77.3232 77.58C76.6979 77.944 75.9559 78.126 75.0972 78.126ZM84.5694 70.286C85.1574 70.286 85.6894 70.4073 86.1654 70.65C86.6414 70.8833 87.0148 71.2473 87.2854 71.742C87.5654 72.2367 87.7054 72.876 87.7054 73.66V78H85.0454V74.094C85.0454 73.5527 84.9334 73.1607 84.7094 72.918C84.4948 72.666 84.1914 72.54 83.7994 72.54C83.5194 72.54 83.2628 72.6053 83.0294 72.736C82.7961 72.8573 82.6141 73.0487 82.4834 73.31C82.3528 73.5713 82.2874 73.912 82.2874 74.332V78H79.6274V67.612H82.2874V72.568L81.6714 71.938C81.9608 71.3873 82.3574 70.9767 82.8614 70.706C83.3654 70.426 83.9348 70.286 84.5694 70.286Z" fill="#212121"/>
</g>
<defs>
<filter id="filter0_d_1062_10064" x="0.317383" y="0.7" width="100.366" height="66.001" filterUnits="userSpaceOnUse" color-interpolation-filters="sRGB">
<feFlood flood-opacity="0" result="BackgroundImageFix"/>
<feColorMatrix in="SourceAlpha" type="matrix" values="0 0 0 0 0 0 0 0 0 0 0 0 0 0 0 0 0 0 127 0" result="hardAlpha"/>
<feOffset dy="2.2"/>
<feGaussianBlur stdDeviation="2.75"/>
<feComposite in2="hardAlpha" operator="out"/>
<feColorMatrix type="matrix" values="0 0 0 0 0 0 0 0 0 0.501961 0 0 0 0 0 0 0 0 0.25 0"/>
<feBlend mode="normal" in2="BackgroundImageFix" result="effect1_dropShadow_1062_10064"/>
<feBlend mode="normal" in="SourceGraphic" in2="effect1_dropShadow_1062_10064" result="shape"/>
</filter>
<filter id="filter1_d_1062_10064" x="7.61621" y="65.6123" width="85.0889" height="20.5273" filterUnits="userSpaceOnUse" color-interpolation-filters="sRGB">
<feFlood flood-opacity="0" result="BackgroundImageFix"/>
<feColorMatrix in="SourceAlpha" type="matrix" values="0 0 0 0 0 0 0 0 0 0 0 0 0 0 0 0 0 0 127 0" result="hardAlpha"/>
<feOffset dy="3"/>
<feGaussianBlur stdDeviation="2.5"/>
<feComposite in2="hardAlpha" operator="out"/>
<feColorMatrix type="matrix" values="0 0 0 0 0 0 0 0 0 0.501961 0 0 0 0 0 0 0 0 0.25 0"/>
<feBlend mode="normal" in2="BackgroundImageFix" result="effect1_dropShadow_1062_10064"/>
<feBlend mode="normal" in="SourceGraphic" in2="effect1_dropShadow_1062_10064" result="shape"/>
</filter>
<linearGradient id="paint0_linear_1062_10064" x1="9.68907" y1="27.7029" x2="91.3142" y2="42.0956" gradientUnits="userSpaceOnUse">
<stop stop-color="#008000"/>
<stop offset="0.234411" stop-color="#07B007"/>
<stop offset="0.578925" stop-color="#025C02"/>
<stop offset="1" stop-color="#8BE38B"/>
</linearGradient>
<linearGradient id="paint1_linear_1062_10064" x1="50.5004" y1="10.7979" x2="50.5004" y2="59.0005" gradientUnits="userSpaceOnUse">
<stop stop-color="#008000"/>
<stop offset="0.270057" stop-color="#006800"/>
<stop offset="0.535057" stop-color="#004900"/>
<stop offset="1" stop-color="#001A00"/>
</linearGradient>
<linearGradient id="paint2_linear_1062_10064" x1="41.6884" y1="31.8854" x2="80.8829" y2="17.6198" gradientUnits="userSpaceOnUse">
<stop stop-color="#C20000"/>
<stop offset="0.431373" stop-color="#DB4500"/>
<stop offset="0.721569" stop-color="#B42C00"/>
<stop offset="1" stop-color="#700000"/>
</linearGradient>
</defs>
</svg>
