<svg width="320" height="334" viewBox="0 0 320 334" fill="none" xmlns="http://www.w3.org/2000/svg">
<g clip-path="url(#clip0_1062_11060)">
<rect width="320" height="333" transform="matrix(-1 0 0 1 320 0.5)" fill="#008000"/>
<rect width="74.9803" height="74.0632" transform="matrix(-0.80435 0.594156 0.594156 0.80435 147.698 -12.625)" fill="#4F634F"/>
<path d="M176.883 27.0108L144.639 5.29947L107.694 17.386L103.005 51.0954L135.248 72.8067L172.194 60.7202L176.883 27.0108Z" fill="#CEF3CE" stroke="#4F634F" strokeWidth="0.65625"/>
<path d="M173.467 44.6981L161.534 11.2274L127.831 6.11407L106.061 34.4714L117.995 67.9421L151.698 73.0554L173.467 44.6981Z" fill="#A9C112"/>
<rect width="33.7117" height="31.4324" transform="matrix(-0.893678 0.448709 0.448709 0.893678 148.046 19.2979)" fill="#F4F4F4" fill-opacity="0.8744"/>
<rect width="23.4054" height="23.7655" transform="matrix(-0.893678 0.448709 0.448709 0.893678 145.5 24.8271)" fill="#4F634F"/>
<rect width="74.9803" height="74.0632" transform="matrix(-0.80435 0.594156 0.594156 0.80435 175.589 151.438)" fill="#4F634F"/>
<path d="M204.774 191.073L172.53 169.362L135.585 181.448L130.895 215.158L163.139 236.869L200.084 224.783L204.774 191.073Z" fill="#CEF3CE" stroke="#4F634F" strokeWidth="0.65625"/>
<path d="M201.358 208.761L189.425 175.29L155.722 170.177L133.952 198.534L145.885 232.005L179.588 237.118L201.358 208.761Z" fill="#A9C112"/>
<rect width="33.7117" height="31.4324" transform="matrix(-0.893678 0.448709 0.448709 0.893678 175.937 183.36)" fill="#F4F4F4" fill-opacity="0.8744"/>
<rect width="23.4054" height="23.7655" transform="matrix(-0.893678 0.448709 0.448709 0.893678 173.39 188.89)" fill="#4F634F"/>
<rect width="74.9803" height="74.0632" transform="matrix(-0.80435 0.594156 0.594156 0.80435 41.3857 221.328)" fill="#4F634F"/>
<path d="M70.5706 260.964L38.3268 239.253L1.38147 251.339L-3.30782 285.049L28.9359 306.76L65.8813 294.673L70.5706 260.964Z" fill="#CEF3CE" stroke="#4F634F" strokeWidth="0.65625"/>
<path d="M67.155 278.651L55.2215 245.181L21.5184 240.067L-0.251227 268.425L11.6822 301.895L45.3853 307.009L67.155 278.651Z" fill="#A9C112"/>
<rect width="33.7117" height="31.4324" transform="matrix(-0.893678 0.448709 0.448709 0.893678 41.7339 253.251)" fill="#F4F4F4" fill-opacity="0.8744"/>
<rect width="23.4054" height="23.7655" transform="matrix(-0.893678 0.448709 0.448709 0.893678 39.187 258.78)" fill="#4F634F"/>
<rect width="74.9803" height="74.0632" transform="matrix(-0.80435 0.594156 0.594156 0.80435 145.073 235.766)" fill="#4F634F"/>
<path d="M174.258 275.401L142.014 253.69L105.069 265.777L100.38 299.486L132.623 321.197L169.569 309.111L174.258 275.401Z" fill="#CEF3CE" stroke="#4F634F" strokeWidth="0.65625"/>
<path d="M170.842 293.089L158.909 259.618L125.206 254.505L103.436 282.862L115.37 316.333L149.073 321.446L170.842 293.089Z" fill="#A9C112"/>
<rect width="33.7117" height="31.4324" transform="matrix(-0.893678 0.448709 0.448709 0.893678 145.421 267.688)" fill="#F4F4F4" fill-opacity="0.8744"/>
<rect width="23.4054" height="23.7655" transform="matrix(-0.893678 0.448709 0.448709 0.893678 142.875 273.218)" fill="#4F634F"/>
<rect width="74.9803" height="74.0632" transform="matrix(-0.80435 0.594156 0.594156 0.80435 233.339 229.203)" fill="#4F634F"/>
<path d="M262.524 268.839L230.28 247.128L193.335 259.214L188.645 292.924L220.889 314.635L257.834 302.548L262.524 268.839Z" fill="#CEF3CE" stroke="#4F634F" strokeWidth="0.65625"/>
<path d="M259.108 286.526L247.175 253.056L213.472 247.942L191.702 276.3L203.635 309.77L237.338 314.884L259.108 286.526Z" fill="#A9C112"/>
<rect width="33.7117" height="31.4324" transform="matrix(-0.893678 0.448709 0.448709 0.893678 233.687 261.126)" fill="#F4F4F4" fill-opacity="0.8744"/>
<rect width="23.4054" height="23.7655" transform="matrix(-0.893678 0.448709 0.448709 0.893678 231.14 266.655)" fill="#4F634F"/>
<rect width="74.9803" height="74.0632" transform="matrix(-0.80435 0.594156 0.594156 0.80435 264.183 145.203)" fill="#4F634F"/>
<path d="M293.367 184.839L261.124 163.128L224.178 175.214L219.489 208.924L251.733 230.635L288.678 218.548L293.367 184.839Z" fill="#CEF3CE" stroke="#4F634F" strokeWidth="0.65625"/>
<path d="M289.952 202.526L278.018 169.056L244.315 163.942L222.546 192.3L234.479 225.77L268.182 230.884L289.952 202.526Z" fill="#A9C112"/>
<rect width="33.7117" height="31.4324" transform="matrix(-0.893678 0.448709 0.448709 0.893678 264.531 177.126)" fill="#F4F4F4" fill-opacity="0.8744"/>
<rect width="23.4054" height="23.7655" transform="matrix(-0.893678 0.448709 0.448709 0.893678 261.984 182.655)" fill="#4F634F"/>
<rect width="74.9803" height="74.0632" transform="matrix(-0.80435 0.594156 0.594156 0.80435 236.948 -17.5469)" fill="#4F634F"/>
<path d="M266.133 22.0889L233.889 0.377597L196.944 12.4641L192.255 46.1735L224.498 67.8849L261.444 55.7984L266.133 22.0889Z" fill="#CEF3CE" stroke="#4F634F" strokeWidth="0.65625"/>
<path d="M262.717 39.7762L250.784 6.30555L217.081 1.1922L195.311 29.5495L207.245 63.0202L240.948 68.1336L262.717 39.7762Z" fill="#A9C112"/>
<rect width="33.7117" height="31.4324" transform="matrix(-0.893678 0.448709 0.448709 0.893678 237.296 14.376)" fill="#F4F4F4" fill-opacity="0.8744"/>
<rect width="23.4054" height="23.7655" transform="matrix(-0.893678 0.448709 0.448709 0.893678 234.75 19.9053)" fill="#4F634F"/>
<rect width="74.9803" height="74.0632" transform="matrix(-0.80435 0.594156 0.594156 0.80435 296.011 62.5156)" fill="#4F634F"/>
<path d="M325.196 102.151L292.952 80.4401L256.006 92.5266L251.317 126.236L283.561 147.947L320.506 135.861L325.196 102.151Z" fill="#CEF3CE" stroke="#4F634F" strokeWidth="0.65625"/>
<path d="M321.78 119.839L309.847 86.368L276.143 81.2547L254.374 109.612L266.307 143.083L300.01 148.196L321.78 119.839Z" fill="#A9C112"/>
<rect width="33.7117" height="31.4324" transform="matrix(-0.893678 0.448709 0.448709 0.893678 296.359 94.4385)" fill="#F4F4F4" fill-opacity="0.8744"/>
<rect width="23.4054" height="23.7655" transform="matrix(-0.893678 0.448709 0.448709 0.893678 293.812 99.9678)" fill="#4F634F"/>
<rect width="74.9803" height="74.0632" transform="matrix(-0.80435 0.594156 0.594156 0.80435 117.839 72.6875)" fill="#4F634F"/>
<path d="M147.024 112.323L114.78 90.612L77.8346 102.698L73.1453 136.408L105.389 158.119L142.334 146.033L147.024 112.323Z" fill="#CEF3CE" stroke="#4F634F" strokeWidth="0.65625"/>
<path d="M143.608 130.011L131.675 96.5399L97.9715 91.4266L76.2019 119.784L88.1354 153.255L121.838 158.368L143.608 130.011Z" fill="#A9C112"/>
<rect width="33.7117" height="31.4324" transform="matrix(-0.893678 0.448709 0.448709 0.893678 118.187 104.61)" fill="#F4F4F4" fill-opacity="0.8744"/>
<rect width="23.4054" height="23.7655" transform="matrix(-0.893678 0.448709 0.448709 0.893678 115.64 110.14)" fill="#4F634F"/>
<rect width="74.9803" height="74.0632" transform="matrix(-0.80435 0.594156 0.594156 0.80435 86.0107 155.703)" fill="#4F634F"/>
<path d="M115.196 195.339L82.9518 173.628L46.0065 185.714L41.3172 219.424L73.5609 241.135L110.506 229.048L115.196 195.339Z" fill="#CEF3CE" stroke="#4F634F" strokeWidth="0.65625"/>
<path d="M111.78 213.026L99.8465 179.556L66.1434 174.442L44.3738 202.8L56.3072 236.27L90.0103 241.384L111.78 213.026Z" fill="#A9C112"/>
<rect width="33.7117" height="31.4324" transform="matrix(-0.893678 0.448709 0.448709 0.893678 86.3589 187.626)" fill="#F4F4F4" fill-opacity="0.8744"/>
<rect width="23.4054" height="23.7655" transform="matrix(-0.893678 0.448709 0.448709 0.893678 83.812 193.155)" fill="#4F634F"/>
<rect width="74.9803" height="74.0632" transform="matrix(-0.80435 0.594156 0.594156 0.80435 58.7764 -7.04688)" fill="#4F634F"/>
<path d="M87.9612 32.5889L55.7174 10.8776L18.7721 22.9641L14.0828 56.6735L46.3266 78.3849L83.2719 66.2984L87.9612 32.5889Z" fill="#CEF3CE" stroke="#4F634F" strokeWidth="0.65625"/>
<path d="M84.5456 50.2762L72.6122 16.8055L38.909 11.6922L17.1394 40.0495L29.0729 73.5202L62.776 78.6336L84.5456 50.2762Z" fill="#A9C112"/>
<rect width="33.7117" height="31.4324" transform="matrix(-0.893678 0.448709 0.448709 0.893678 59.1245 24.876)" fill="#F4F4F4" fill-opacity="0.8744"/>
<rect width="23.4054" height="23.7655" transform="matrix(-0.893678 0.448709 0.448709 0.893678 56.5776 30.4053)" fill="#4F634F"/>
<rect width="74.9803" height="74.0632" transform="matrix(-0.80435 0.594156 0.594156 0.80435 27.6045 76.9531)" fill="#4F634F"/>
<path d="M56.7893 116.589L24.5456 94.8776L-12.3998 106.964L-17.0891 140.674L15.1547 162.385L52.1 150.298L56.7893 116.589Z" fill="#CEF3CE" stroke="#4F634F" strokeWidth="0.65625"/>
<path d="M53.3737 134.276L41.4403 100.806L7.73717 95.6922L-14.0325 124.05L-2.09901 157.52L31.6041 162.634L53.3737 134.276Z" fill="#A9C112"/>
<rect width="33.7117" height="31.4324" transform="matrix(-0.893678 0.448709 0.448709 0.893678 27.9526 108.876)" fill="#F4F4F4" fill-opacity="0.8744"/>
<rect width="23.4054" height="23.7655" transform="matrix(-0.893678 0.448709 0.448709 0.893678 25.4058 114.405)" fill="#4F634F"/>
<rect width="74.9803" height="74.0632" transform="matrix(-0.80435 0.594156 0.594156 0.80435 207.089 68.0938)" fill="#4F634F"/>
<path d="M236.274 107.73L204.03 86.0182L167.085 98.1047L162.395 131.814L194.639 153.525L231.584 141.439L236.274 107.73Z" fill="#CEF3CE" stroke="#4F634F" strokeWidth="0.65625"/>
<path d="M232.858 125.417L220.925 91.9462L187.222 86.8328L165.452 115.19L177.385 148.661L211.088 153.774L232.858 125.417Z" fill="#A9C112"/>
<rect width="33.7117" height="31.4324" transform="matrix(-0.893678 0.448709 0.448709 0.893678 207.437 100.017)" fill="#F4F4F4" fill-opacity="0.8744"/>
<rect width="23.4054" height="23.7655" transform="matrix(-0.893678 0.448709 0.448709 0.893678 204.89 105.546)" fill="#4F634F"/>
<rect width="74.9803" height="74.0632" transform="matrix(-0.80435 0.594156 0.594156 0.80435 -18.0049 140.938)" fill="#4F634F"/>
<path d="M11.1799 180.573L-21.0638 158.862L-58.0092 170.948L-62.6984 204.658L-30.4547 226.369L6.49064 214.283L11.1799 180.573Z" fill="#CEF3CE" stroke="#4F634F" strokeWidth="0.65625"/>
<path d="M7.76437 198.261L-4.1691 164.79L-37.8722 159.677L-59.6419 188.034L-47.7084 221.505L-14.0053 226.618L7.76437 198.261Z" fill="#A9C112"/>
<rect width="74.9803" height="74.0632" transform="matrix(-0.80435 0.594156 0.594156 0.80435 -30.4736 -1.79688)" fill="#4F634F"/>
<path d="M-1.28882 37.8389L-33.5326 16.1276L-70.4779 28.2141L-75.1672 61.9235L-42.9234 83.6349L-5.97811 71.5484L-1.28882 37.8389Z" fill="#CEF3CE" stroke="#4F634F" strokeWidth="0.65625"/>
<path d="M-4.70438 55.5262L-16.6378 22.0555L-50.341 16.9422L-72.1106 45.2995L-60.1771 78.7702L-26.474 83.8836L-4.70438 55.5262Z" fill="#A9C112"/>
<rect width="74.9803" height="74.0632" transform="matrix(-0.80435 0.594156 0.594156 0.80435 352.448 140.938)" fill="#4F634F"/>
<path d="M381.633 180.573L349.389 158.862L312.444 170.948L307.755 204.658L339.998 226.369L376.944 214.283L381.633 180.573Z" fill="#CEF3CE" stroke="#4F634F" strokeWidth="0.65625"/>
<path d="M378.217 198.261L366.284 164.79L332.581 159.677L310.811 188.034L322.745 221.505L356.448 226.618L378.217 198.261Z" fill="#A9C112"/>
<rect width="74.9803" height="74.0632" transform="matrix(-0.80435 0.594156 0.594156 0.80435 326.198 -22.7969)" fill="#4F634F"/>
<path d="M355.383 16.8389L323.139 -4.8724L286.194 7.21409L281.505 40.9235L313.748 62.6349L350.694 50.5484L355.383 16.8389Z" fill="#CEF3CE" stroke="#4F634F" strokeWidth="0.65625"/>
<path d="M351.967 34.5262L340.034 1.05555L306.331 -4.0578L284.561 24.2995L296.495 57.7702L330.198 62.8836L351.967 34.5262Z" fill="#A9C112"/>
<rect width="33.7117" height="31.4324" transform="matrix(-0.893678 0.448709 0.448709 0.893678 326.546 9.12598)" fill="#F4F4F4" fill-opacity="0.8744"/>
<rect width="23.4054" height="23.7655" transform="matrix(-0.893678 0.448709 0.448709 0.893678 324 14.6553)" fill="#4F634F"/>
<rect width="74.9803" height="74.0632" transform="matrix(-0.80435 0.594156 0.594156 0.80435 322.261 223.625)" fill="#4F634F"/>
<path d="M351.446 263.261L319.202 241.549L282.256 253.636L277.567 287.345L309.811 309.057L346.756 296.97L351.446 263.261Z" fill="#CEF3CE" stroke="#4F634F" strokeWidth="0.65625"/>
<path d="M348.03 280.948L336.097 247.477L302.393 242.364L280.624 270.721L292.557 304.192L326.26 309.305L348.03 280.948Z" fill="#A9C112"/>
<rect width="33.7117" height="31.4324" transform="matrix(-0.893678 0.448709 0.448709 0.893678 322.609 255.548)" fill="#F4F4F4" fill-opacity="0.8744"/>
<rect width="23.4054" height="23.7655" transform="matrix(-0.893678 0.448709 0.448709 0.893678 320.062 261.077)" fill="#4F634F"/>
<rect width="74.9803" height="74.0632" transform="matrix(-0.80435 0.594156 0.594156 0.80435 290.761 306.641)" fill="#4F634F"/>
<path d="M319.946 346.276L287.702 324.565L250.756 336.652L246.067 370.361L278.311 392.072L315.256 379.986L319.946 346.276Z" fill="#CEF3CE" stroke="#4F634F" strokeWidth="0.65625"/>
<path d="M316.53 363.964L304.597 330.493L270.893 325.38L249.124 353.737L261.057 387.208L294.76 392.321L316.53 363.964Z" fill="#A9C112"/>
<rect width="74.9803" height="74.0632" transform="matrix(-0.80435 0.594156 0.594156 0.80435 202.823 313.859)" fill="#4F634F"/>
<path d="M232.008 353.495L199.764 331.784L162.819 343.87L158.13 377.58L190.373 399.291L227.319 387.205L232.008 353.495Z" fill="#CEF3CE" stroke="#4F634F" strokeWidth="0.65625"/>
<path d="M228.592 371.182L216.659 337.712L182.956 332.598L161.186 360.956L173.12 394.426L206.823 399.54L228.592 371.182Z" fill="#A9C112"/>
<rect width="74.9803" height="74.0632" transform="matrix(-0.80435 0.594156 0.594156 0.80435 99.792 300.406)" fill="#4F634F"/>
<path d="M128.977 340.042L96.7331 318.331L59.7877 330.417L55.0984 364.127L87.3422 385.838L124.288 373.751L128.977 340.042Z" fill="#CEF3CE" stroke="#4F634F" strokeWidth="0.65625"/>
<path d="M125.561 357.729L113.628 324.259L79.9247 319.145L58.155 347.503L70.0885 380.973L103.792 386.087L125.561 357.729Z" fill="#A9C112"/>
<rect width="33.7117" height="31.4324" transform="matrix(-0.893678 0.448709 0.448709 0.893678 100.14 332.329)" fill="#F4F4F4" fill-opacity="0.8744"/>
<rect width="74.9803" height="74.0632" transform="matrix(-0.80435 0.594156 0.594156 0.80435 9.55762 304.344)" fill="#4F634F"/>
<path d="M38.7424 343.98L6.49868 322.268L-30.4467 334.355L-35.1359 368.064L-2.89219 389.775L34.0531 377.689L38.7424 343.98Z" fill="#CEF3CE" stroke="#4F634F" strokeWidth="0.65625"/>
<path d="M35.3269 361.667L23.3934 328.196L-10.3097 323.083L-32.0794 351.44L-20.1459 384.911L13.5572 390.024L35.3269 361.667Z" fill="#A9C112"/>
<rect width="74.9803" height="74.0632" transform="matrix(-0.80435 0.594156 0.594156 0.80435 89.6201 -91.375)" fill="#4F634F"/>
<rect width="74.9803" height="74.0632" transform="matrix(-0.80435 0.594156 0.594156 0.80435 178.542 -96.625)" fill="#4F634F"/>
<rect width="74.9803" height="74.0632" transform="matrix(-0.80435 0.594156 0.594156 0.80435 0.370117 -84.4844)" fill="#4F634F"/>
<path d="M29.5549 -44.8486L-2.68882 -66.5599L-39.6342 -54.4734L-44.3234 -20.764L-12.0797 0.94736L24.8656 -11.1391L29.5549 -44.8486Z" fill="#CEF3CE" stroke="#4F634F" strokeWidth="0.65625"/>
<path d="M26.1394 -27.1613L14.2059 -60.632L-19.4972 -65.7453L-41.2669 -37.388L-29.3334 -3.91728L4.36972 1.19607L26.1394 -27.1613Z" fill="#A9C112"/>
</g>
<rect x="-0.164062" y="0.164062" width="319.672" height="332.672" transform="matrix(-1 0 0 1 319.672 0.5)" stroke="black" strokeWidth="0.328125"/>
<defs>
<clipPath id="clip0_1062_11060">
<rect width="320" height="333" transform="matrix(-1 0 0 1 320 0.5)" fill="white"/>
</clipPath>
</defs>
</svg>
