<svg width="24" height="24" viewBox="0 0 24 24" fill="none" xmlns="http://www.w3.org/2000/svg">
<g clip-path="url(#clip0_1062_12359)">
<path d="M15.5 15H18.5V18H15.5V15ZM15.5 8H18.5V5H15.5V8ZM15.5 13H18.5V10H15.5V13ZM24 3.5V24H0V9.329C0 8.394 0.364 7.515 1.025 6.854L3.732 4.147C5.211 2.668 7.789 2.668 9.267 4.147L9.999 4.879V3.5C9.999 1.57 11.569 0 13.499 0H20.499C22.429 0 24 1.57 24 3.5ZM10 9.329C10 9.195 9.948 9.07 9.854 8.975L7.147 6.268C6.806 5.928 6.195 5.928 5.854 6.268L3.147 8.975C3.053 9.07 3.001 9.195 3.001 9.329V21H10.001V9.329H10ZM21 3.5C21 3.224 20.776 3 20.5 3H13.5C13.224 3 13 3.224 13 3.5V21H21V3.5ZM5 13H8V10H5V13ZM5 18H8V15H5V18Z" fill="#F9F9F9"/>
</g>
<defs>
<clipPath id="clip0_1062_12359">
<rect width="24" height="24" fill="white"/>
</clipPath>
</defs>
</svg>
