<svg width="26" height="32" viewBox="0 0 26 32" fill="none" xmlns="http://www.w3.org/2000/svg">
<path d="M25.8345 25.4034V26.8501H0.0844727V25.4034L2.94558 22.5101V13.8301C2.94558 9.34539 5.84961 5.39599 10.0984 4.12293V3.70339C10.0984 2.93603 10.3998 2.2001 10.9364 1.6575C11.4729 1.11489 12.2007 0.810059 12.9595 0.810059C13.7183 0.810059 14.446 1.11489 14.9826 1.6575C15.5191 2.2001 15.8206 2.93603 15.8206 3.70339V4.12293C20.0693 5.39599 22.9734 9.34539 22.9734 13.8301V22.5101L25.8345 25.4034ZM15.8206 28.2967C15.8206 29.0641 15.5191 29.8 14.9826 30.3426C14.446 30.8852 13.7183 31.1901 12.9595 31.1901C12.2007 31.1901 11.4729 30.8852 10.9364 30.3426C10.3998 29.8 10.0984 29.0641 10.0984 28.2967" fill="#151515"/>
</svg>
