<svg width="19" height="21" viewBox="0 0 19 21" fill="none" xmlns="http://www.w3.org/2000/svg">
<path d="M14 21C12.6167 21 11.4377 20.5123 10.463 19.537C9.48833 18.5617 9.00067 17.3827 9 16C9 14.6167 9.48767 13.4377 10.463 12.463C11.4383 11.4883 12.6173 11.0007 14 11C15.3833 11 16.5627 11.4877 17.538 12.463C18.5133 13.4383 19.0007 14.6173 19 16C19 17.3833 18.5123 18.5627 17.537 19.538C16.5617 20.5133 15.3827 21.0007 14 21ZM15.675 18.375L16.375 17.675L14.5 15.8V13H13.5V16.2L15.675 18.375ZM2 20C1.45 20 0.979333 19.8043 0.588 19.413C0.196667 19.0217 0.000666667 18.5507 0 18V4C0 3.45 0.196 2.97933 0.588 2.588C0.98 2.19667 1.45067 2.00067 2 2H6.175C6.35833 1.41667 6.71667 0.937667 7.25 0.563C7.78333 0.188333 8.36667 0.000666667 9 0C9.66667 0 10.2627 0.187667 10.788 0.563C11.3133 0.938333 11.6673 1.41733 11.85 2H16C16.55 2 17.021 2.196 17.413 2.588C17.805 2.98 18.0007 3.45067 18 4V10.25C17.7 10.0333 17.3833 9.85 17.05 9.7C16.7167 9.55 16.3667 9.41667 16 9.3V4H14V7H4V4H2V18H7.3C7.41667 18.3667 7.55 18.7167 7.7 19.05C7.85 19.3833 8.03333 19.7 8.25 20H2ZM9 4C9.28333 4 9.521 3.904 9.713 3.712C9.905 3.52 10.0007 3.28267 10 3C10 2.71667 9.904 2.47933 9.712 2.288C9.52 2.09667 9.28267 2.00067 9 2C8.71667 2 8.47933 2.096 8.288 2.288C8.09667 2.48 8.00067 2.71733 8 3C8 3.28333 8.096 3.521 8.288 3.713C8.48 3.905 8.71733 4.00067 9 4Z" fill="#F9F9F9"/>
</svg>
