<svg width="569" height="83" viewBox="0 0 569 83" fill="none" xmlns="http://www.w3.org/2000/svg">
<rect width="569" height="83" fill="url(#paint0_linear_1062_17470)"/>
<g filter="url(#filter0_d_1062_17470)">
<rect x="21" y="19.3019" width="115" height="43.3962" rx="10.8491" fill="#008000"/>
<path d="M33.91 47.9812C33.7508 47.9812 33.6206 47.9306 33.5194 47.8293C33.4181 47.7281 33.3675 47.5979 33.3675 47.4387V33.335C33.3675 33.1759 33.4181 33.0457 33.5194 32.9444C33.6206 32.8431 33.7508 32.7925 33.91 32.7925H39.9854C41.1861 32.7925 42.2276 32.9806 43.11 33.3567C44.0068 33.7183 44.7011 34.268 45.193 35.0057C45.6993 35.7435 45.9524 36.6765 45.9524 37.8048C45.9524 38.9186 45.6993 39.8372 45.193 40.5604C44.7011 41.2837 44.0068 41.8189 43.11 42.1661C42.2276 42.5133 41.1861 42.6869 39.9854 42.6869H37.4034V47.4387C37.4034 47.5979 37.3455 47.7281 37.2298 47.8293C37.1285 47.9306 36.9983 47.9812 36.8392 47.9812H33.91ZM37.3383 39.6925H39.8769C40.4989 39.6925 40.9908 39.5334 41.3524 39.2152C41.7285 38.8969 41.9166 38.4123 41.9166 37.7614C41.9166 37.2117 41.7574 36.7488 41.4392 36.3727C41.121 35.9966 40.6002 35.8086 39.8769 35.8086H37.3383V39.6925ZM48.3345 47.9812C48.1753 47.9812 48.0451 47.9306 47.9439 47.8293C47.8426 47.7281 47.792 47.5979 47.792 47.4387V37.2406C47.792 37.096 47.8426 36.973 47.9439 36.8718C48.0451 36.756 48.1753 36.6982 48.3345 36.6982H50.8297C50.9889 36.6982 51.119 36.756 51.2203 36.8718C51.3216 36.973 51.3722 37.096 51.3722 37.2406V38.1086C51.7628 37.6601 52.2256 37.313 52.7609 37.067C53.3106 36.8211 53.9253 36.6982 54.6052 36.6982H55.5599C55.7046 36.6982 55.8275 36.7488 55.9288 36.8501C56.0445 36.9513 56.1024 37.0815 56.1024 37.2406V39.4755C56.1024 39.6202 56.0445 39.7504 55.9288 39.8661C55.8275 39.9674 55.7046 40.018 55.5599 40.018H53.4552C52.8621 40.018 52.3992 40.1843 52.0665 40.517C51.7483 40.8353 51.5892 41.2909 51.5892 41.884V47.4387C51.5892 47.5979 51.5313 47.7281 51.4156 47.8293C51.3143 47.9306 51.1841 47.9812 51.025 47.9812H48.3345ZM62.8981 48.1982C61.683 48.1982 60.656 48.0029 59.817 47.6123C58.9925 47.2218 58.356 46.6648 57.9076 45.9416C57.4736 45.2038 57.2277 44.3287 57.1698 43.3161C57.1554 43.0268 57.1481 42.7013 57.1481 42.3397C57.1481 41.9636 57.1554 41.6381 57.1698 41.3633C57.2277 40.3362 57.4881 39.4611 57.951 38.7378C58.4138 38.0145 59.0576 37.4576 59.8821 37.067C60.7211 36.6765 61.7264 36.4812 62.8981 36.4812C64.0843 36.4812 65.0896 36.6765 65.9142 37.067C66.7532 37.4576 67.4041 38.0145 67.867 38.7378C68.3299 39.4611 68.5903 40.3362 68.6481 41.3633C68.6626 41.6381 68.6698 41.9636 68.6698 42.3397C68.6698 42.7013 68.6626 43.0268 68.6481 43.3161C68.5903 44.3287 68.3371 45.2038 67.8887 45.9416C67.4547 46.6648 66.8183 47.2218 65.9793 47.6123C65.1547 48.0029 64.1277 48.1982 62.8981 48.1982ZM62.8981 45.551C63.5491 45.551 64.0192 45.3557 64.3085 44.9652C64.6123 44.5746 64.7859 43.9887 64.8293 43.2076C64.8437 42.9906 64.851 42.7013 64.851 42.3397C64.851 41.9781 64.8437 41.6887 64.8293 41.4718C64.7859 40.7051 64.6123 40.1265 64.3085 39.7359C64.0192 39.3309 63.5491 39.1284 62.8981 39.1284C62.2616 39.1284 61.7915 39.3309 61.4877 39.7359C61.184 40.1265 61.0176 40.7051 60.9887 41.4718C60.9742 41.6887 60.967 41.9781 60.967 42.3397C60.967 42.7013 60.9742 42.9906 60.9887 43.2076C61.0176 43.9887 61.184 44.5746 61.4877 44.9652C61.7915 45.3557 62.2616 45.551 62.8981 45.551ZM71.3463 47.9812C71.1872 47.9812 71.057 47.9306 70.9558 47.8293C70.8545 47.7281 70.8039 47.5979 70.8039 47.4387V37.2406C70.8039 37.0815 70.8545 36.9513 70.9558 36.8501C71.057 36.7488 71.1872 36.6982 71.3463 36.6982H73.7114C73.8705 36.6982 74.0007 36.7488 74.102 36.8501C74.2032 36.9513 74.2539 37.0815 74.2539 37.2406V37.9784C74.5432 37.5878 74.9482 37.2479 75.469 36.9586C75.9897 36.6548 76.6045 36.4957 77.3133 36.4812C78.9768 36.4523 80.1196 37.0815 80.7416 38.3689C81.0743 37.8193 81.5517 37.3708 82.1737 37.0237C82.7957 36.662 83.4756 36.4812 84.2133 36.4812C84.9655 36.4812 85.6381 36.6548 86.2312 37.002C86.8388 37.3347 87.3234 37.8554 87.685 38.5642C88.0466 39.2586 88.2275 40.1626 88.2275 41.2765V47.4387C88.2275 47.5979 88.1696 47.7281 88.0539 47.8293C87.9526 47.9306 87.8297 47.9812 87.685 47.9812H85.168C85.0089 47.9812 84.8715 47.9306 84.7558 47.8293C84.6545 47.7281 84.6039 47.5979 84.6039 47.4387V41.4284C84.6039 40.9221 84.5315 40.5243 84.3869 40.235C84.2422 39.9312 84.0469 39.7142 83.801 39.584C83.5551 39.4538 83.2731 39.3887 82.9548 39.3887C82.6944 39.3887 82.4341 39.4538 82.1737 39.584C81.9278 39.7142 81.7253 39.9312 81.5661 40.235C81.4215 40.5243 81.3492 40.9221 81.3492 41.4284V47.4387C81.3492 47.5979 81.2985 47.7281 81.1973 47.8293C81.096 47.9306 80.9658 47.9812 80.8067 47.9812H78.2897C78.1306 47.9812 78.0004 47.9306 77.8992 47.8293C77.7979 47.7281 77.7473 47.5979 77.7473 47.4387V41.4284C77.7473 40.9221 77.6677 40.5243 77.5086 40.235C77.3495 39.9312 77.1469 39.7142 76.901 39.584C76.6551 39.4538 76.3803 39.3887 76.0765 39.3887C75.8161 39.3887 75.5558 39.4538 75.2954 39.584C75.0495 39.7142 74.8469 39.9312 74.6878 40.235C74.5432 40.5243 74.4708 40.9148 74.4708 41.4067V47.4387C74.4708 47.5979 74.413 47.7281 74.2973 47.8293C74.196 47.9306 74.0658 47.9812 73.9067 47.9812H71.3463ZM91.2009 47.9812C91.0418 47.9812 90.9116 47.9306 90.8104 47.8293C90.7091 47.7281 90.6585 47.5979 90.6585 47.4387V37.2406C90.6585 37.0815 90.7091 36.9513 90.8104 36.8501C90.9116 36.7488 91.0418 36.6982 91.2009 36.6982H93.7613C93.906 36.6982 94.0289 36.7488 94.1302 36.8501C94.2459 36.9513 94.3038 37.0815 94.3038 37.2406V47.4387C94.3038 47.5979 94.2459 47.7281 94.1302 47.8293C94.0289 47.9306 93.906 47.9812 93.7613 47.9812H91.2009ZM91.1792 35.0708C91.0201 35.0708 90.8899 35.0202 90.7887 34.9189C90.6874 34.8177 90.6368 34.6875 90.6368 34.5284V32.5972C90.6368 32.4381 90.6874 32.3079 90.7887 32.2067C90.8899 32.0909 91.0201 32.0331 91.1792 32.0331H93.7613C93.9204 32.0331 94.0506 32.0909 94.1519 32.2067C94.2676 32.3079 94.3255 32.4381 94.3255 32.5972V34.5284C94.3255 34.6875 94.2676 34.8177 94.1519 34.9189C94.0506 35.0202 93.9204 35.0708 93.7613 35.0708H91.1792ZM101.892 48.1982C100.952 48.1982 100.149 48.0969 99.4833 47.8944C98.8324 47.6774 98.2972 47.4171 97.8777 47.1133C97.4727 46.8095 97.1689 46.4985 96.9664 46.1803C96.7639 45.8476 96.6554 45.5655 96.6409 45.334C96.6264 45.1749 96.6771 45.0447 96.7928 44.9435C96.9085 44.8277 97.0315 44.7699 97.1617 44.7699H99.6352C99.6786 44.7699 99.7148 44.7771 99.7437 44.7916C99.7727 44.806 99.8161 44.835 99.8739 44.8784C100.062 44.9796 100.25 45.1098 100.438 45.2689C100.626 45.4136 100.843 45.5438 101.089 45.6595C101.335 45.7752 101.631 45.8331 101.979 45.8331C102.384 45.8331 102.724 45.7535 102.998 45.5944C103.273 45.4353 103.411 45.1966 103.411 44.8784C103.411 44.6469 103.346 44.4589 103.215 44.3142C103.085 44.1551 102.818 44.0032 102.413 43.8586C102.022 43.7139 101.429 43.5693 100.633 43.4246C99.8811 43.251 99.223 43.0268 98.6588 42.752C98.0947 42.4626 97.6607 42.0938 97.3569 41.6454C97.0532 41.1825 96.9013 40.6255 96.9013 39.9746C96.9013 39.396 97.0893 38.8391 97.4654 38.3038C97.8415 37.7686 98.3912 37.3347 99.1145 37.002C99.8378 36.6548 100.727 36.4812 101.783 36.4812C102.622 36.4812 103.346 36.5825 103.953 36.785C104.575 36.973 105.096 37.2189 105.515 37.5227C105.949 37.8265 106.275 38.1375 106.492 38.4557C106.709 38.774 106.825 39.0633 106.839 39.3237C106.853 39.4683 106.81 39.5985 106.709 39.7142C106.608 39.8155 106.492 39.8661 106.362 39.8661H104.105C104.047 39.8661 103.989 39.8589 103.931 39.8444C103.874 39.8155 103.823 39.7865 103.78 39.7576C103.606 39.6708 103.432 39.5551 103.259 39.4104C103.085 39.2658 102.883 39.1356 102.651 39.0199C102.42 38.9042 102.131 38.8463 101.783 38.8463C101.393 38.8463 101.089 38.9331 100.872 39.1067C100.655 39.2803 100.547 39.5045 100.547 39.7793C100.547 39.9674 100.604 40.1409 100.72 40.3001C100.85 40.4592 101.103 40.6038 101.48 40.734C101.87 40.8642 102.47 41.0089 103.281 41.168C104.279 41.3271 105.074 41.5875 105.667 41.9491C106.26 42.2963 106.68 42.7086 106.926 43.1859C107.172 43.6488 107.295 44.1406 107.295 44.6614C107.295 45.3557 107.085 45.9705 106.665 46.5057C106.26 47.0409 105.653 47.4604 104.843 47.7642C104.033 48.0535 103.049 48.1982 101.892 48.1982ZM114.449 48.1982C112.742 48.1982 111.383 47.7353 110.37 46.8095C109.357 45.8837 108.829 44.5095 108.786 42.6869C108.786 42.5856 108.786 42.4554 108.786 42.2963C108.786 42.1372 108.786 42.0142 108.786 41.9274C108.829 40.7847 109.083 39.8082 109.546 38.9982C110.023 38.1737 110.674 37.5516 111.498 37.1321C112.337 36.6982 113.314 36.4812 114.428 36.4812C115.701 36.4812 116.749 36.7343 117.574 37.2406C118.413 37.7469 119.042 38.434 119.462 39.302C119.881 40.1699 120.091 41.1608 120.091 42.2746V42.7954C120.091 42.9545 120.033 43.0847 119.917 43.1859C119.816 43.2872 119.693 43.3378 119.548 43.3378H112.605C112.605 43.3523 112.605 43.374 112.605 43.4029C112.605 43.4318 112.605 43.4608 112.605 43.4897C112.619 43.9092 112.692 44.2925 112.822 44.6397C112.952 44.9869 113.155 45.2617 113.429 45.4642C113.704 45.6667 114.037 45.768 114.428 45.768C114.717 45.768 114.956 45.7246 115.144 45.6378C115.346 45.5365 115.512 45.4281 115.643 45.3123C115.773 45.1821 115.874 45.0737 115.946 44.9869C116.077 44.8422 116.178 44.7554 116.25 44.7265C116.337 44.6831 116.467 44.6614 116.641 44.6614H119.331C119.476 44.6614 119.592 44.7048 119.679 44.7916C119.78 44.8639 119.823 44.9724 119.809 45.1171C119.794 45.363 119.671 45.6595 119.44 46.0067C119.208 46.3538 118.868 46.701 118.42 47.0482C117.986 47.3809 117.436 47.6557 116.771 47.8727C116.106 48.0897 115.332 48.1982 114.449 48.1982ZM112.605 41.1897H116.272V41.1463C116.272 40.6834 116.2 40.2784 116.055 39.9312C115.925 39.584 115.715 39.3164 115.426 39.1284C115.151 38.9403 114.818 38.8463 114.428 38.8463C114.037 38.8463 113.704 38.9403 113.429 39.1284C113.169 39.3164 112.967 39.584 112.822 39.9312C112.677 40.2784 112.605 40.6834 112.605 41.1463V41.1897Z" fill="#F9F9F9"/>
</g>
<g filter="url(#filter1_d_1062_17470)">
<rect width="279" height="62" transform="translate(269 10)" fill="#323232"/>
<path d="M294.492 44.28C293.148 44.28 291.981 44.0933 290.992 43.72C290.003 43.328 289.181 42.796 288.528 42.124C287.893 41.452 287.408 40.668 287.072 39.772C286.736 38.876 286.54 37.9147 286.484 36.888C286.465 36.384 286.447 35.8147 286.428 35.18C286.428 34.5267 286.428 33.8733 286.428 33.22C286.447 32.548 286.465 31.9507 286.484 31.428C286.54 30.4013 286.736 29.4493 287.072 28.572C287.427 27.676 287.931 26.9013 288.584 26.248C289.256 25.576 290.077 25.0533 291.048 24.68C292.037 24.3067 293.185 24.12 294.492 24.12C295.817 24.12 296.965 24.3067 297.936 24.68C298.907 25.0533 299.719 25.576 300.372 26.248C301.044 26.9013 301.557 27.676 301.912 28.572C302.267 29.4493 302.463 30.4013 302.5 31.428C302.537 31.9507 302.556 32.548 302.556 33.22C302.575 33.8733 302.575 34.5267 302.556 35.18C302.556 35.8147 302.537 36.384 302.5 36.888C302.463 37.9147 302.267 38.876 301.912 39.772C301.576 40.668 301.081 41.452 300.428 42.124C299.793 42.796 298.981 43.328 297.992 43.72C297.021 44.0933 295.855 44.28 294.492 44.28ZM294.492 40.22C295.463 40.22 296.163 39.912 296.592 39.296C297.04 38.6613 297.273 37.812 297.292 36.748C297.329 36.2067 297.348 35.6373 297.348 35.04C297.367 34.4427 297.367 33.8453 297.348 33.248C297.348 32.6507 297.329 32.1 297.292 31.596C297.273 30.5693 297.04 29.7387 296.592 29.104C296.163 28.4693 295.463 28.1427 294.492 28.124C293.521 28.1427 292.821 28.4693 292.392 29.104C291.963 29.7387 291.729 30.5693 291.692 31.596C291.673 32.1 291.655 32.6507 291.636 33.248C291.636 33.8453 291.636 34.4427 291.636 35.04C291.655 35.6373 291.673 36.2067 291.692 36.748C291.729 37.812 291.972 38.6613 292.42 39.296C292.868 39.912 293.559 40.22 294.492 40.22ZM307.979 44C307.811 44 307.671 43.944 307.559 43.832C307.447 43.7013 307.391 43.552 307.391 43.384C307.391 43.3093 307.41 43.2253 307.447 43.132L313.915 28.628H305.515C305.329 28.628 305.161 28.5627 305.011 28.432C304.881 28.2827 304.815 28.1053 304.815 27.9V25.1C304.815 24.8947 304.881 24.7267 305.011 24.596C305.161 24.4653 305.329 24.4 305.515 24.4H318.619C318.843 24.4 319.021 24.4653 319.151 24.596C319.282 24.7267 319.347 24.8947 319.347 25.1V27.592C319.347 27.872 319.319 28.1053 319.263 28.292C319.207 28.4787 319.133 28.6653 319.039 28.852L312.571 43.328C312.515 43.44 312.413 43.58 312.263 43.748C312.114 43.916 311.89 44 311.591 44H307.979Z" fill="white"/>
<path d="M293.76 62C293.701 62 293.653 61.9813 293.616 61.944C293.579 61.9067 293.56 61.8587 293.56 61.8V56.6C293.56 56.5413 293.579 56.4933 293.616 56.456C293.653 56.4187 293.701 56.4 293.76 56.4H295.84C296.363 56.4 296.808 56.4853 297.176 56.656C297.544 56.8213 297.827 57.0667 298.024 57.392C298.221 57.712 298.328 58.1093 298.344 58.584C298.349 58.8187 298.352 59.024 298.352 59.2C298.352 59.376 298.349 59.5787 298.344 59.808C298.323 60.304 298.216 60.7147 298.024 61.04C297.837 61.3653 297.563 61.608 297.2 61.768C296.843 61.9227 296.403 62 295.88 62H293.76ZM294.992 60.848H295.84C296.069 60.848 296.259 60.8133 296.408 60.744C296.563 60.6693 296.677 60.5547 296.752 60.4C296.832 60.2453 296.875 60.0427 296.88 59.792C296.891 59.6373 296.896 59.4987 296.896 59.376C296.901 59.2533 296.901 59.1307 296.896 59.008C296.896 58.8853 296.891 58.7493 296.88 58.6C296.869 58.2373 296.773 57.9733 296.592 57.808C296.416 57.6373 296.152 57.552 295.8 57.552H294.992V60.848ZM298.849 62C298.807 62 298.767 61.984 298.729 61.952C298.697 61.9147 298.681 61.8747 298.681 61.832C298.681 61.8053 298.684 61.7813 298.689 61.76L300.569 56.624C300.585 56.5653 300.617 56.5147 300.665 56.472C300.719 56.424 300.791 56.4 300.881 56.4H302.065C302.156 56.4 302.225 56.424 302.273 56.472C302.327 56.5147 302.361 56.5653 302.377 56.624L304.249 61.76C304.26 61.7813 304.265 61.8053 304.265 61.832C304.265 61.8747 304.247 61.9147 304.209 61.952C304.177 61.984 304.137 62 304.089 62H303.105C303.025 62 302.964 61.9813 302.921 61.944C302.884 61.9013 302.86 61.864 302.849 61.832L302.537 61.016H300.401L300.097 61.832C300.087 61.864 300.063 61.9013 300.025 61.944C299.988 61.9813 299.924 62 299.833 62H298.849ZM300.729 59.864H302.217L301.465 57.752L300.729 59.864ZM305.888 62C305.834 62 305.786 61.9813 305.743 61.944C305.706 61.9067 305.688 61.8587 305.688 61.8V60.08L303.832 56.656C303.826 56.64 303.821 56.6267 303.816 56.616C303.81 56.6 303.808 56.584 303.808 56.568C303.808 56.5253 303.824 56.488 303.856 56.456C303.893 56.4187 303.936 56.4 303.984 56.4H304.984C305.064 56.4 305.125 56.4213 305.168 56.464C305.216 56.5013 305.245 56.536 305.256 56.568L306.408 58.632L307.56 56.568C307.576 56.536 307.605 56.5013 307.648 56.464C307.696 56.4213 307.76 56.4 307.84 56.4H308.84C308.888 56.4 308.928 56.4187 308.96 56.456C308.992 56.488 309.008 56.5253 309.008 56.568C309.008 56.584 309.005 56.6 309 56.616C309 56.6267 308.997 56.64 308.992 56.656L307.128 60.08V61.8C307.128 61.8587 307.109 61.9067 307.072 61.944C307.034 61.9813 306.986 62 306.928 62H305.888ZM311.586 62.08C311.052 62.08 310.61 62.0053 310.258 61.856C309.906 61.7013 309.639 61.5013 309.458 61.256C309.276 61.0107 309.18 60.7493 309.17 60.472C309.17 60.4293 309.186 60.392 309.218 60.36C309.255 60.3227 309.298 60.304 309.346 60.304H310.354C310.428 60.304 310.484 60.3173 310.522 60.344C310.564 60.3707 310.602 60.4053 310.634 60.448C310.676 60.528 310.735 60.6053 310.81 60.68C310.89 60.7547 310.991 60.816 311.114 60.864C311.242 60.9067 311.399 60.928 311.586 60.928C311.895 60.928 312.127 60.88 312.282 60.784C312.442 60.688 312.522 60.5573 312.522 60.392C312.522 60.2747 312.479 60.1787 312.394 60.104C312.308 60.024 312.17 59.9547 311.978 59.896C311.791 59.832 311.54 59.768 311.226 59.704C310.82 59.6187 310.474 59.5093 310.186 59.376C309.903 59.2373 309.687 59.0587 309.538 58.84C309.388 58.616 309.314 58.3387 309.314 58.008C309.314 57.6827 309.404 57.392 309.586 57.136C309.772 56.88 310.031 56.68 310.362 56.536C310.692 56.392 311.084 56.32 311.538 56.32C311.906 56.32 312.228 56.368 312.506 56.464C312.788 56.56 313.026 56.688 313.218 56.848C313.41 57.008 313.554 57.1787 313.65 57.36C313.751 57.536 313.804 57.7093 313.81 57.88C313.81 57.9227 313.794 57.9627 313.762 58C313.73 58.032 313.69 58.048 313.641 58.048H312.586C312.527 58.048 312.476 58.0373 312.434 58.016C312.391 57.9947 312.354 57.96 312.322 57.912C312.29 57.7947 312.204 57.6933 312.066 57.608C311.932 57.5173 311.756 57.472 311.538 57.472C311.303 57.472 311.119 57.5147 310.986 57.6C310.858 57.68 310.794 57.8053 310.794 57.976C310.794 58.0827 310.828 58.176 310.898 58.256C310.972 58.336 311.092 58.4053 311.258 58.464C311.428 58.5227 311.66 58.584 311.954 58.648C312.439 58.7387 312.831 58.8533 313.13 58.992C313.428 59.1253 313.647 59.3013 313.786 59.52C313.924 59.7333 313.994 60.0027 313.994 60.328C313.994 60.6907 313.89 61.0053 313.682 61.272C313.479 61.5333 313.196 61.7333 312.834 61.872C312.471 62.0107 312.055 62.08 311.586 62.08Z" fill="#F9F9F9"/>
<path d="M335.296 34.2C335.109 34.2 334.941 34.1347 334.792 34.004C334.661 33.8733 334.596 33.7053 334.596 33.5V30.112C334.596 29.9253 334.661 29.7667 334.792 29.636C334.941 29.4867 335.109 29.412 335.296 29.412H338.852C339.057 29.412 339.225 29.4867 339.356 29.636C339.487 29.7667 339.552 29.9253 339.552 30.112V33.5C339.552 33.7053 339.487 33.8733 339.356 34.004C339.225 34.1347 339.057 34.2 338.852 34.2H335.296ZM335.296 44C335.109 44 334.941 43.9347 334.792 43.804C334.661 43.6733 334.596 43.5053 334.596 43.3V39.912C334.596 39.7253 334.661 39.5667 334.792 39.436C334.941 39.2867 335.109 39.212 335.296 39.212H338.852C339.057 39.212 339.225 39.2867 339.356 39.436C339.487 39.5667 339.552 39.7253 339.552 39.912V43.3C339.552 43.5053 339.487 43.6733 339.356 43.804C339.225 43.9347 339.057 44 338.852 44H335.296Z" fill="white"/>
<path d="M353.876 44C353.671 44 353.493 43.9347 353.344 43.804C353.213 43.6733 353.148 43.5053 353.148 43.3V41.312C353.148 41.1813 353.185 40.9853 353.26 40.724C353.335 40.444 353.531 40.1827 353.848 39.94L356.76 37.084C358.253 35.9453 359.476 34.984 360.428 34.2C361.399 33.3973 362.117 32.688 362.584 32.072C363.051 31.456 363.284 30.8773 363.284 30.336C363.284 29.7013 363.116 29.1787 362.78 28.768C362.463 28.3387 361.903 28.124 361.1 28.124C360.559 28.124 360.101 28.2453 359.728 28.488C359.373 28.712 359.103 29.0107 358.916 29.384C358.729 29.7573 358.599 30.14 358.524 30.532C358.449 30.7747 358.319 30.9427 358.132 31.036C357.964 31.1293 357.777 31.176 357.572 31.176H354.072C353.904 31.176 353.764 31.12 353.652 31.008C353.54 30.896 353.484 30.756 353.484 30.588C353.503 29.692 353.689 28.852 354.044 28.068C354.417 27.284 354.931 26.5933 355.584 25.996C356.256 25.38 357.049 24.904 357.964 24.568C358.897 24.232 359.943 24.064 361.1 24.064C362.687 24.064 364.031 24.316 365.132 24.82C366.252 25.324 367.101 26.0333 367.68 26.948C368.259 27.844 368.548 28.8987 368.548 30.112C368.548 31.0267 368.343 31.8853 367.932 32.688C367.54 33.472 366.971 34.228 366.224 34.956C365.496 35.6653 364.628 36.4027 363.62 37.168L361.044 39.772H368.24C368.445 39.772 368.613 39.8373 368.744 39.968C368.893 40.0987 368.968 40.2667 368.968 40.472V43.3C368.968 43.5053 368.893 43.6733 368.744 43.804C368.613 43.9347 368.445 44 368.24 44H353.876ZM379.703 44.28C378.359 44.28 377.192 44.0933 376.203 43.72C375.214 43.328 374.392 42.796 373.739 42.124C373.104 41.452 372.619 40.668 372.283 39.772C371.947 38.876 371.751 37.9147 371.695 36.888C371.676 36.384 371.658 35.8147 371.639 35.18C371.639 34.5267 371.639 33.8733 371.639 33.22C371.658 32.548 371.676 31.9507 371.695 31.428C371.751 30.4013 371.947 29.4493 372.283 28.572C372.638 27.676 373.142 26.9013 373.795 26.248C374.467 25.576 375.288 25.0533 376.259 24.68C377.248 24.3067 378.396 24.12 379.703 24.12C381.028 24.12 382.176 24.3067 383.147 24.68C384.118 25.0533 384.93 25.576 385.583 26.248C386.255 26.9013 386.768 27.676 387.123 28.572C387.478 29.4493 387.674 30.4013 387.711 31.428C387.748 31.9507 387.767 32.548 387.767 33.22C387.786 33.8733 387.786 34.5267 387.767 35.18C387.767 35.8147 387.748 36.384 387.711 36.888C387.674 37.9147 387.478 38.876 387.123 39.772C386.787 40.668 386.292 41.452 385.639 42.124C385.004 42.796 384.192 43.328 383.203 43.72C382.232 44.0933 381.066 44.28 379.703 44.28ZM379.703 40.22C380.674 40.22 381.374 39.912 381.803 39.296C382.251 38.6613 382.484 37.812 382.503 36.748C382.54 36.2067 382.559 35.6373 382.559 35.04C382.578 34.4427 382.578 33.8453 382.559 33.248C382.559 32.6507 382.54 32.1 382.503 31.596C382.484 30.5693 382.251 29.7387 381.803 29.104C381.374 28.4693 380.674 28.1427 379.703 28.124C378.732 28.1427 378.032 28.4693 377.603 29.104C377.174 29.7387 376.94 30.5693 376.903 31.596C376.884 32.1 376.866 32.6507 376.847 33.248C376.847 33.8453 376.847 34.4427 376.847 35.04C376.866 35.6373 376.884 36.2067 376.903 36.748C376.94 37.812 377.183 38.6613 377.631 39.296C378.079 39.912 378.77 40.22 379.703 40.22Z" fill="white"/>
<path d="M352.76 62C352.701 62 352.653 61.9813 352.616 61.944C352.579 61.9067 352.56 61.8587 352.56 61.8V56.6C352.56 56.5413 352.579 56.4933 352.616 56.456C352.653 56.4187 352.701 56.4 352.76 56.4H353.792C353.851 56.4 353.899 56.4187 353.936 56.456C353.973 56.4933 353.992 56.5413 353.992 56.6V58.528H355.968V56.6C355.968 56.5413 355.987 56.4933 356.024 56.456C356.061 56.4187 356.109 56.4 356.168 56.4H357.2C357.259 56.4 357.307 56.4187 357.344 56.456C357.381 56.4933 357.4 56.5413 357.4 56.6V61.8C357.4 61.8587 357.381 61.9067 357.344 61.944C357.307 61.9813 357.259 62 357.2 62H356.168C356.109 62 356.061 61.9813 356.024 61.944C355.987 61.9067 355.968 61.8587 355.968 61.8V59.808H353.992V61.8C353.992 61.8587 353.973 61.9067 353.936 61.944C353.899 61.9813 353.851 62 353.792 62H352.76ZM360.809 62.08C360.318 62.08 359.892 62 359.529 61.84C359.166 61.68 358.884 61.44 358.681 61.12C358.478 60.7947 358.366 60.3893 358.345 59.904C358.34 59.6747 358.337 59.4453 358.337 59.216C358.337 58.9867 358.34 58.7547 358.345 58.52C358.366 58.04 358.478 57.6373 358.681 57.312C358.889 56.9813 359.174 56.7333 359.537 56.568C359.9 56.4027 360.324 56.32 360.809 56.32C361.289 56.32 361.71 56.4027 362.073 56.568C362.441 56.7333 362.729 56.9813 362.937 57.312C363.145 57.6373 363.257 58.04 363.273 58.52C363.284 58.7547 363.289 58.9867 363.289 59.216C363.289 59.4453 363.284 59.6747 363.273 59.904C363.252 60.3893 363.14 60.7947 362.937 61.12C362.734 61.44 362.452 61.68 362.089 61.84C361.726 62 361.3 62.08 360.809 62.08ZM360.809 60.928C361.092 60.928 361.321 60.8427 361.497 60.672C361.678 60.5013 361.774 60.2293 361.785 59.856C361.796 59.6213 361.801 59.4 361.801 59.192C361.801 58.984 361.796 58.768 361.785 58.544C361.774 58.2933 361.726 58.0907 361.641 57.936C361.561 57.776 361.449 57.6587 361.305 57.584C361.161 57.5093 360.996 57.472 360.809 57.472C360.628 57.472 360.465 57.5093 360.321 57.584C360.177 57.6587 360.062 57.776 359.977 57.936C359.892 58.0907 359.844 58.2933 359.833 58.544C359.828 58.768 359.825 58.984 359.825 59.192C359.825 59.4 359.828 59.6213 359.833 59.856C359.849 60.2293 359.945 60.5013 360.121 60.672C360.297 60.8427 360.526 60.928 360.809 60.928ZM366.56 62.08C366.08 62.08 365.659 62.0027 365.296 61.848C364.939 61.688 364.662 61.4453 364.464 61.12C364.267 60.7893 364.168 60.3707 364.168 59.864V56.6C364.168 56.5413 364.187 56.4933 364.224 56.456C364.262 56.4187 364.31 56.4 364.368 56.4H365.4C365.459 56.4 365.507 56.4187 365.544 56.456C365.582 56.4933 365.6 56.5413 365.6 56.6V59.856C365.6 60.2027 365.683 60.464 365.848 60.64C366.019 60.8107 366.256 60.896 366.56 60.896C366.859 60.896 367.091 60.8107 367.256 60.64C367.427 60.464 367.512 60.2027 367.512 59.856V56.6C367.512 56.5413 367.531 56.4933 367.568 56.456C367.611 56.4187 367.659 56.4 367.712 56.4H368.752C368.806 56.4 368.851 56.4187 368.888 56.456C368.931 56.4933 368.952 56.5413 368.952 56.6V59.864C368.952 60.3707 368.854 60.7893 368.656 61.12C368.459 61.4453 368.182 61.688 367.824 61.848C367.467 62.0027 367.046 62.08 366.56 62.08ZM370.213 62C370.154 62 370.106 61.9813 370.069 61.944C370.032 61.9067 370.013 61.8587 370.013 61.8V56.6C370.013 56.5413 370.032 56.4933 370.069 56.456C370.106 56.4187 370.154 56.4 370.213 56.4H372.389C373.077 56.4 373.618 56.56 374.013 56.88C374.413 57.1947 374.613 57.6427 374.613 58.224C374.613 58.6027 374.52 58.9227 374.333 59.184C374.152 59.4453 373.912 59.6427 373.613 59.776L374.717 61.744C374.733 61.776 374.741 61.8053 374.741 61.832C374.741 61.8747 374.722 61.9147 374.685 61.952C374.653 61.984 374.613 62 374.565 62H373.509C373.408 62 373.333 61.976 373.285 61.928C373.237 61.8747 373.202 61.8267 373.181 61.784L372.269 60.024H371.445V61.8C371.445 61.8587 371.426 61.9067 371.389 61.944C371.352 61.9813 371.304 62 371.245 62H370.213ZM371.445 58.896H372.373C372.624 58.896 372.81 58.8347 372.933 58.712C373.061 58.5893 373.125 58.4213 373.125 58.208C373.125 58 373.064 57.832 372.941 57.704C372.824 57.576 372.634 57.512 372.373 57.512H371.445V58.896ZM377.632 62.08C377.099 62.08 376.656 62.0053 376.304 61.856C375.952 61.7013 375.686 61.5013 375.504 61.256C375.323 61.0107 375.227 60.7493 375.216 60.472C375.216 60.4293 375.232 60.392 375.264 60.36C375.302 60.3227 375.344 60.304 375.392 60.304H376.4C376.475 60.304 376.531 60.3173 376.568 60.344C376.611 60.3707 376.648 60.4053 376.68 60.448C376.723 60.528 376.782 60.6053 376.856 60.68C376.936 60.7547 377.038 60.816 377.16 60.864C377.288 60.9067 377.446 60.928 377.632 60.928C377.942 60.928 378.174 60.88 378.328 60.784C378.488 60.688 378.568 60.5573 378.568 60.392C378.568 60.2747 378.526 60.1787 378.44 60.104C378.355 60.024 378.216 59.9547 378.024 59.896C377.838 59.832 377.587 59.768 377.272 59.704C376.867 59.6187 376.52 59.5093 376.232 59.376C375.95 59.2373 375.734 59.0587 375.584 58.84C375.435 58.616 375.36 58.3387 375.36 58.008C375.36 57.6827 375.451 57.392 375.632 57.136C375.819 56.88 376.078 56.68 376.408 56.536C376.739 56.392 377.131 56.32 377.584 56.32C377.952 56.32 378.275 56.368 378.552 56.464C378.835 56.56 379.072 56.688 379.264 56.848C379.456 57.008 379.6 57.1787 379.696 57.36C379.798 57.536 379.851 57.7093 379.856 57.88C379.856 57.9227 379.84 57.9627 379.808 58C379.776 58.032 379.736 58.048 379.688 58.048H378.632C378.574 58.048 378.523 58.0373 378.48 58.016C378.438 57.9947 378.4 57.96 378.368 57.912C378.336 57.7947 378.251 57.6933 378.112 57.608C377.979 57.5173 377.803 57.472 377.584 57.472C377.35 57.472 377.166 57.5147 377.032 57.6C376.904 57.68 376.84 57.8053 376.84 57.976C376.84 58.0827 376.875 58.176 376.944 58.256C377.019 58.336 377.139 58.4053 377.304 58.464C377.475 58.5227 377.707 58.584 378 58.648C378.486 58.7387 378.878 58.8533 379.176 58.992C379.475 59.1253 379.694 59.3013 379.832 59.52C379.971 59.7333 380.04 60.0027 380.04 60.328C380.04 60.6907 379.936 61.0053 379.728 61.272C379.526 61.5333 379.243 61.7333 378.88 61.872C378.518 62.0107 378.102 62.08 377.632 62.08Z" fill="#F9F9F9"/>
<path d="M405.296 34.2C405.109 34.2 404.941 34.1347 404.792 34.004C404.661 33.8733 404.596 33.7053 404.596 33.5V30.112C404.596 29.9253 404.661 29.7667 404.792 29.636C404.941 29.4867 405.109 29.412 405.296 29.412H408.852C409.057 29.412 409.225 29.4867 409.356 29.636C409.487 29.7667 409.552 29.9253 409.552 30.112V33.5C409.552 33.7053 409.487 33.8733 409.356 34.004C409.225 34.1347 409.057 34.2 408.852 34.2H405.296ZM405.296 44C405.109 44 404.941 43.9347 404.792 43.804C404.661 43.6733 404.596 43.5053 404.596 43.3V39.912C404.596 39.7253 404.661 39.5667 404.792 39.436C404.941 39.2867 405.109 39.212 405.296 39.212H408.852C409.057 39.212 409.225 39.2867 409.356 39.436C409.487 39.5667 409.552 39.7253 409.552 39.912V43.3C409.552 43.5053 409.487 43.6733 409.356 43.804C409.225 43.9347 409.057 44 408.852 44H405.296Z" fill="white"/>
<path d="M431.1 44.28C429.644 44.28 428.403 44.112 427.376 43.776C426.349 43.4213 425.509 42.9733 424.856 42.432C424.203 41.872 423.717 41.284 423.4 40.668C423.083 40.0333 422.915 39.4267 422.896 38.848C422.896 38.68 422.952 38.54 423.064 38.428C423.195 38.316 423.344 38.26 423.512 38.26H427.152C427.376 38.26 427.553 38.3067 427.684 38.4C427.815 38.4747 427.936 38.6053 428.048 38.792C428.197 39.1467 428.412 39.436 428.692 39.66C428.991 39.884 429.345 40.0427 429.756 40.136C430.167 40.2107 430.615 40.248 431.1 40.248C432.052 40.248 432.789 40.0333 433.312 39.604C433.853 39.156 434.124 38.5493 434.124 37.784C434.124 36.9813 433.872 36.412 433.368 36.076C432.864 35.7213 432.145 35.544 431.212 35.544H428.104C427.899 35.544 427.731 35.4787 427.6 35.348C427.469 35.2173 427.404 35.0493 427.404 34.844V33.276C427.404 33.052 427.451 32.856 427.544 32.688C427.637 32.52 427.74 32.3987 427.852 32.324L432.444 28.432H424.66C424.473 28.432 424.305 28.3667 424.156 28.236C424.025 28.1053 423.96 27.9373 423.96 27.732V25.1C423.96 24.8947 424.025 24.7267 424.156 24.596C424.305 24.4653 424.473 24.4 424.66 24.4H437.54C437.745 24.4 437.913 24.4653 438.044 24.596C438.193 24.7267 438.268 24.8947 438.268 25.1V27.48C438.268 27.6853 438.221 27.872 438.128 28.04C438.035 28.1893 437.932 28.3107 437.82 28.404L433.564 32.352L433.76 32.408C434.824 32.5387 435.776 32.828 436.616 33.276C437.456 33.7053 438.119 34.312 438.604 35.096C439.089 35.88 439.332 36.8787 439.332 38.092C439.332 39.3613 438.968 40.4627 438.24 41.396C437.531 42.3107 436.56 43.02 435.328 43.524C434.096 44.028 432.687 44.28 431.1 44.28ZM449.949 44.28C448.605 44.28 447.438 44.0933 446.449 43.72C445.46 43.328 444.638 42.796 443.985 42.124C443.35 41.452 442.865 40.668 442.529 39.772C442.193 38.876 441.997 37.9147 441.941 36.888C441.922 36.384 441.904 35.8147 441.885 35.18C441.885 34.5267 441.885 33.8733 441.885 33.22C441.904 32.548 441.922 31.9507 441.941 31.428C441.997 30.4013 442.193 29.4493 442.529 28.572C442.884 27.676 443.388 26.9013 444.041 26.248C444.713 25.576 445.534 25.0533 446.505 24.68C447.494 24.3067 448.642 24.12 449.949 24.12C451.274 24.12 452.422 24.3067 453.393 24.68C454.364 25.0533 455.176 25.576 455.829 26.248C456.501 26.9013 457.014 27.676 457.369 28.572C457.724 29.4493 457.92 30.4013 457.957 31.428C457.994 31.9507 458.013 32.548 458.013 33.22C458.032 33.8733 458.032 34.5267 458.013 35.18C458.013 35.8147 457.994 36.384 457.957 36.888C457.92 37.9147 457.724 38.876 457.369 39.772C457.033 40.668 456.538 41.452 455.885 42.124C455.25 42.796 454.438 43.328 453.449 43.72C452.478 44.0933 451.312 44.28 449.949 44.28ZM449.949 40.22C450.92 40.22 451.62 39.912 452.049 39.296C452.497 38.6613 452.73 37.812 452.749 36.748C452.786 36.2067 452.805 35.6373 452.805 35.04C452.824 34.4427 452.824 33.8453 452.805 33.248C452.805 32.6507 452.786 32.1 452.749 31.596C452.73 30.5693 452.497 29.7387 452.049 29.104C451.62 28.4693 450.92 28.1427 449.949 28.124C448.978 28.1427 448.278 28.4693 447.849 29.104C447.42 29.7387 447.186 30.5693 447.149 31.596C447.13 32.1 447.112 32.6507 447.093 33.248C447.093 33.8453 447.093 34.4427 447.093 35.04C447.112 35.6373 447.13 36.2067 447.149 36.748C447.186 37.812 447.429 38.6613 447.877 39.296C448.325 39.912 449.016 40.22 449.949 40.22Z" fill="white"/>
<path d="M422.76 62C422.707 62 422.659 61.9813 422.616 61.944C422.579 61.9067 422.56 61.8587 422.56 61.8V56.6C422.56 56.5413 422.579 56.4933 422.616 56.456C422.659 56.4187 422.707 56.4 422.76 56.4H423.624C423.709 56.4 423.773 56.424 423.816 56.472C423.864 56.5147 423.893 56.5493 423.904 56.576L425.312 59.104L426.72 56.576C426.736 56.5493 426.763 56.5147 426.8 56.472C426.843 56.424 426.909 56.4 427 56.4H427.856C427.915 56.4 427.963 56.4187 428 56.456C428.043 56.4933 428.064 56.5413 428.064 56.6V61.8C428.064 61.8587 428.043 61.9067 428 61.944C427.963 61.9813 427.915 62 427.856 62H426.904C426.845 62 426.795 61.9813 426.752 61.944C426.715 61.9067 426.696 61.8587 426.696 61.8V58.8L425.792 60.472C425.771 60.52 425.739 60.5627 425.696 60.6C425.653 60.6373 425.595 60.656 425.52 60.656H425.104C425.029 60.656 424.971 60.6373 424.928 60.6C424.885 60.5627 424.851 60.52 424.824 60.472L423.92 58.8V61.8C423.92 61.8587 423.901 61.9067 423.864 61.944C423.827 61.9813 423.779 62 423.72 62H422.76ZM431.521 62.08C431.041 62.08 430.62 62.0027 430.257 61.848C429.9 61.688 429.623 61.4453 429.425 61.12C429.228 60.7893 429.129 60.3707 429.129 59.864V56.6C429.129 56.5413 429.148 56.4933 429.185 56.456C429.223 56.4187 429.271 56.4 429.329 56.4H430.361C430.42 56.4 430.468 56.4187 430.505 56.456C430.543 56.4933 430.561 56.5413 430.561 56.6V59.856C430.561 60.2027 430.644 60.464 430.809 60.64C430.98 60.8107 431.217 60.896 431.521 60.896C431.82 60.896 432.052 60.8107 432.217 60.64C432.388 60.464 432.473 60.2027 432.473 59.856V56.6C432.473 56.5413 432.492 56.4933 432.529 56.456C432.572 56.4187 432.62 56.4 432.673 56.4H433.713C433.767 56.4 433.812 56.4187 433.849 56.456C433.892 56.4933 433.913 56.5413 433.913 56.6V59.864C433.913 60.3707 433.815 60.7893 433.617 61.12C433.42 61.4453 433.143 61.688 432.785 61.848C432.428 62.0027 432.007 62.08 431.521 62.08ZM435.174 62C435.115 62 435.067 61.9813 435.03 61.944C434.993 61.9067 434.974 61.8587 434.974 61.8V56.6C434.974 56.5413 434.993 56.4933 435.03 56.456C435.067 56.4187 435.115 56.4 435.174 56.4H436.022C436.113 56.4 436.177 56.4213 436.214 56.464C436.257 56.5013 436.283 56.5307 436.294 56.552L438.246 59.632V56.6C438.246 56.5413 438.265 56.4933 438.302 56.456C438.339 56.4187 438.387 56.4 438.446 56.4H439.406C439.465 56.4 439.513 56.4187 439.55 56.456C439.587 56.4933 439.606 56.5413 439.606 56.6V61.8C439.606 61.8533 439.587 61.9013 439.55 61.944C439.513 61.9813 439.465 62 439.406 62H438.55C438.465 62 438.401 61.9787 438.358 61.936C438.321 61.8933 438.297 61.864 438.286 61.848L436.334 58.888V61.8C436.334 61.8587 436.315 61.9067 436.278 61.944C436.241 61.9813 436.193 62 436.134 62H435.174ZM440.924 62C440.865 62 440.817 61.9813 440.78 61.944C440.743 61.9067 440.724 61.8587 440.724 61.8V56.6C440.724 56.5413 440.743 56.4933 440.78 56.456C440.817 56.4187 440.865 56.4 440.924 56.4H441.996C442.055 56.4 442.103 56.4187 442.14 56.456C442.177 56.4933 442.196 56.5413 442.196 56.6V61.8C442.196 61.8587 442.177 61.9067 442.14 61.944C442.103 61.9813 442.055 62 441.996 62H440.924ZM444.75 62C444.691 62 444.643 61.9813 444.606 61.944C444.568 61.9067 444.55 61.8587 444.55 61.8V57.656H443.126C443.067 57.656 443.019 57.6373 442.982 57.6C442.944 57.5573 442.926 57.5093 442.926 57.456V56.6C442.926 56.5413 442.944 56.4933 442.982 56.456C443.019 56.4187 443.067 56.4 443.126 56.4H447.43C447.488 56.4 447.536 56.4187 447.574 56.456C447.611 56.4933 447.63 56.5413 447.63 56.6V57.456C447.63 57.5093 447.611 57.5573 447.574 57.6C447.536 57.6373 447.488 57.656 447.43 57.656H446.006V61.8C446.006 61.8587 445.987 61.9067 445.95 61.944C445.912 61.9813 445.864 62 445.806 62H444.75ZM448.557 62C448.498 62 448.45 61.9813 448.413 61.944C448.376 61.9067 448.357 61.8587 448.357 61.8V56.6C448.357 56.5413 448.376 56.4933 448.413 56.456C448.45 56.4187 448.498 56.4 448.557 56.4H452.293C452.352 56.4 452.4 56.4187 452.437 56.456C452.474 56.4933 452.493 56.5413 452.493 56.6V57.352C452.493 57.4107 452.474 57.4587 452.437 57.496C452.4 57.5333 452.352 57.552 452.293 57.552H449.741V58.632H452.117C452.176 58.632 452.224 58.6533 452.261 58.696C452.298 58.7333 452.317 58.7813 452.317 58.84V59.536C452.317 59.5893 452.298 59.6373 452.261 59.68C452.224 59.7173 452.176 59.736 452.117 59.736H449.741V60.848H452.357C452.416 60.848 452.464 60.8667 452.501 60.904C452.538 60.9413 452.557 60.9893 452.557 61.048V61.8C452.557 61.8587 452.538 61.9067 452.501 61.944C452.464 61.9813 452.416 62 452.357 62H448.557ZM455.554 62.08C455.021 62.08 454.578 62.0053 454.226 61.856C453.874 61.7013 453.608 61.5013 453.426 61.256C453.245 61.0107 453.149 60.7493 453.138 60.472C453.138 60.4293 453.154 60.392 453.186 60.36C453.224 60.3227 453.266 60.304 453.314 60.304H454.322C454.397 60.304 454.453 60.3173 454.49 60.344C454.533 60.3707 454.57 60.4053 454.602 60.448C454.645 60.528 454.704 60.6053 454.778 60.68C454.858 60.7547 454.96 60.816 455.082 60.864C455.21 60.9067 455.368 60.928 455.554 60.928C455.864 60.928 456.096 60.88 456.25 60.784C456.41 60.688 456.49 60.5573 456.49 60.392C456.49 60.2747 456.448 60.1787 456.362 60.104C456.277 60.024 456.138 59.9547 455.946 59.896C455.76 59.832 455.509 59.768 455.194 59.704C454.789 59.6187 454.442 59.5093 454.154 59.376C453.872 59.2373 453.656 59.0587 453.506 58.84C453.357 58.616 453.282 58.3387 453.282 58.008C453.282 57.6827 453.373 57.392 453.554 57.136C453.741 56.88 454 56.68 454.33 56.536C454.661 56.392 455.053 56.32 455.506 56.32C455.874 56.32 456.197 56.368 456.474 56.464C456.757 56.56 456.994 56.688 457.186 56.848C457.378 57.008 457.522 57.1787 457.618 57.36C457.72 57.536 457.773 57.7093 457.778 57.88C457.778 57.9227 457.762 57.9627 457.73 58C457.698 58.032 457.658 58.048 457.61 58.048H456.554C456.496 58.048 456.445 58.0373 456.402 58.016C456.36 57.9947 456.322 57.96 456.29 57.912C456.258 57.7947 456.173 57.6933 456.034 57.608C455.901 57.5173 455.725 57.472 455.506 57.472C455.272 57.472 455.088 57.5147 454.954 57.6C454.826 57.68 454.762 57.8053 454.762 57.976C454.762 58.0827 454.797 58.176 454.866 58.256C454.941 58.336 455.061 58.4053 455.226 58.464C455.397 58.5227 455.629 58.584 455.922 58.648C456.408 58.7387 456.8 58.8533 457.098 58.992C457.397 59.1253 457.616 59.3013 457.754 59.52C457.893 59.7333 457.962 60.0027 457.962 60.328C457.962 60.6907 457.858 61.0053 457.65 61.272C457.448 61.5333 457.165 61.7333 456.802 61.872C456.44 62.0107 456.024 62.08 455.554 62.08Z" fill="#F9F9F9"/>
<path d="M476.296 34.2C476.109 34.2 475.941 34.1347 475.792 34.004C475.661 33.8733 475.596 33.7053 475.596 33.5V30.112C475.596 29.9253 475.661 29.7667 475.792 29.636C475.941 29.4867 476.109 29.412 476.296 29.412H479.852C480.057 29.412 480.225 29.4867 480.356 29.636C480.487 29.7667 480.552 29.9253 480.552 30.112V33.5C480.552 33.7053 480.487 33.8733 480.356 34.004C480.225 34.1347 480.057 34.2 479.852 34.2H476.296ZM476.296 44C476.109 44 475.941 43.9347 475.792 43.804C475.661 43.6733 475.596 43.5053 475.596 43.3V39.912C475.596 39.7253 475.661 39.5667 475.792 39.436C475.941 39.2867 476.109 39.212 476.296 39.212H479.852C480.057 39.212 480.225 39.2867 480.356 39.436C480.487 39.5667 480.552 39.7253 480.552 39.912V43.3C480.552 43.5053 480.487 43.6733 480.356 43.804C480.225 43.9347 480.057 44 479.852 44H476.296Z" fill="white"/>
<path d="M500.756 44C500.569 44 500.401 43.9347 500.252 43.804C500.121 43.6733 500.056 43.5053 500.056 43.3V29.972L496.22 32.912C496.052 33.0427 495.875 33.0893 495.688 33.052C495.52 33.0147 495.371 32.912 495.24 32.744L493.588 30.588C493.476 30.42 493.429 30.2427 493.448 30.056C493.485 29.8507 493.597 29.692 493.784 29.58L500.224 24.596C500.336 24.5213 500.439 24.4747 500.532 24.456C500.644 24.4187 500.765 24.4 500.896 24.4H504.396C504.583 24.4 504.741 24.4653 504.872 24.596C505.021 24.7267 505.096 24.8947 505.096 25.1V43.3C505.096 43.5053 505.021 43.6733 504.872 43.804C504.741 43.9347 504.583 44 504.396 44H500.756ZM515.878 44.308C514.123 44.308 512.658 44.0373 511.482 43.496C510.306 42.936 509.41 42.2173 508.794 41.34C508.197 40.444 507.879 39.4827 507.842 38.456C507.842 38.288 507.898 38.148 508.01 38.036C508.122 37.924 508.262 37.868 508.43 37.868H512.182C512.425 37.868 512.611 37.924 512.742 38.036C512.891 38.1293 513.003 38.2507 513.078 38.4C513.246 38.8293 513.461 39.184 513.722 39.464C514.002 39.744 514.319 39.9493 514.674 40.08C515.047 40.2107 515.458 40.276 515.906 40.276C516.429 40.276 516.914 40.164 517.362 39.94C517.81 39.716 518.165 39.3893 518.426 38.96C518.706 38.512 518.846 37.98 518.846 37.364C518.846 36.804 518.715 36.3187 518.454 35.908C518.211 35.4973 517.866 35.1707 517.418 34.928C516.97 34.6853 516.466 34.564 515.906 34.564C515.458 34.564 515.094 34.62 514.814 34.732C514.534 34.8253 514.301 34.9467 514.114 35.096C513.927 35.2453 513.759 35.376 513.61 35.488C513.461 35.5813 513.293 35.628 513.106 35.628H509.438C509.27 35.628 509.121 35.572 508.99 35.46C508.878 35.3293 508.822 35.18 508.822 35.012L509.83 25.24C509.867 24.96 509.97 24.7547 510.138 24.624C510.306 24.4747 510.511 24.4 510.754 24.4H521.982C522.187 24.4 522.355 24.4653 522.486 24.596C522.617 24.7267 522.682 24.8947 522.682 25.1V27.732C522.682 27.9373 522.617 28.1053 522.486 28.236C522.355 28.3667 522.187 28.432 521.982 28.432H513.862L513.498 32.072C513.909 31.792 514.385 31.568 514.926 31.4C515.486 31.2133 516.242 31.12 517.194 31.12C518.09 31.12 518.939 31.2693 519.742 31.568C520.563 31.8667 521.291 32.296 521.926 32.856C522.579 33.416 523.083 34.088 523.438 34.872C523.811 35.6373 523.998 36.5053 523.998 37.476C523.998 38.8013 523.671 39.9773 523.018 41.004C522.383 42.0307 521.459 42.8427 520.246 43.44C519.033 44.0187 517.577 44.308 515.878 44.308Z" fill="white"/>
<path d="M495.648 62.08C495.115 62.08 494.672 62.0053 494.32 61.856C493.968 61.7013 493.701 61.5013 493.52 61.256C493.339 61.0107 493.243 60.7493 493.232 60.472C493.232 60.4293 493.248 60.392 493.28 60.36C493.317 60.3227 493.36 60.304 493.408 60.304H494.416C494.491 60.304 494.547 60.3173 494.584 60.344C494.627 60.3707 494.664 60.4053 494.696 60.448C494.739 60.528 494.797 60.6053 494.872 60.68C494.952 60.7547 495.053 60.816 495.176 60.864C495.304 60.9067 495.461 60.928 495.648 60.928C495.957 60.928 496.189 60.88 496.344 60.784C496.504 60.688 496.584 60.5573 496.584 60.392C496.584 60.2747 496.541 60.1787 496.456 60.104C496.371 60.024 496.232 59.9547 496.04 59.896C495.853 59.832 495.603 59.768 495.288 59.704C494.883 59.6187 494.536 59.5093 494.248 59.376C493.965 59.2373 493.749 59.0587 493.6 58.84C493.451 58.616 493.376 58.3387 493.376 58.008C493.376 57.6827 493.467 57.392 493.648 57.136C493.835 56.88 494.093 56.68 494.424 56.536C494.755 56.392 495.147 56.32 495.6 56.32C495.968 56.32 496.291 56.368 496.568 56.464C496.851 56.56 497.088 56.688 497.28 56.848C497.472 57.008 497.616 57.1787 497.712 57.36C497.813 57.536 497.867 57.7093 497.872 57.88C497.872 57.9227 497.856 57.9627 497.824 58C497.792 58.032 497.752 58.048 497.704 58.048H496.648C496.589 58.048 496.539 58.0373 496.496 58.016C496.453 57.9947 496.416 57.96 496.384 57.912C496.352 57.7947 496.267 57.6933 496.128 57.608C495.995 57.5173 495.819 57.472 495.6 57.472C495.365 57.472 495.181 57.5147 495.048 57.6C494.92 57.68 494.856 57.8053 494.856 57.976C494.856 58.0827 494.891 58.176 494.96 58.256C495.035 58.336 495.155 58.4053 495.32 58.464C495.491 58.5227 495.723 58.584 496.016 58.648C496.501 58.7387 496.893 58.8533 497.192 58.992C497.491 59.1253 497.709 59.3013 497.848 59.52C497.987 59.7333 498.056 60.0027 498.056 60.328C498.056 60.6907 497.952 61.0053 497.744 61.272C497.541 61.5333 497.259 61.7333 496.896 61.872C496.533 62.0107 496.117 62.08 495.648 62.08ZM499.057 62C498.998 62 498.95 61.9813 498.913 61.944C498.876 61.9067 498.857 61.8587 498.857 61.8V56.6C498.857 56.5413 498.876 56.4933 498.913 56.456C498.95 56.4187 498.998 56.4 499.057 56.4H502.793C502.852 56.4 502.9 56.4187 502.937 56.456C502.974 56.4933 502.993 56.5413 502.993 56.6V57.352C502.993 57.4107 502.974 57.4587 502.937 57.496C502.9 57.5333 502.852 57.552 502.793 57.552H500.241V58.632H502.617C502.676 58.632 502.724 58.6533 502.761 58.696C502.798 58.7333 502.817 58.7813 502.817 58.84V59.536C502.817 59.5893 502.798 59.6373 502.761 59.68C502.724 59.7173 502.676 59.736 502.617 59.736H500.241V60.848H502.857C502.916 60.848 502.964 60.8667 503.001 60.904C503.038 60.9413 503.057 60.9893 503.057 61.048V61.8C503.057 61.8587 503.038 61.9067 503.001 61.944C502.964 61.9813 502.916 62 502.857 62H499.057ZM506.215 62.08C505.709 62.08 505.274 61.9973 504.911 61.832C504.554 61.6667 504.274 61.424 504.071 61.104C503.874 60.784 503.765 60.3867 503.743 59.912C503.738 59.6933 503.735 59.4587 503.735 59.208C503.735 58.9573 503.738 58.7173 503.743 58.488C503.765 58.024 503.877 57.632 504.079 57.312C504.282 56.9867 504.565 56.7413 504.927 56.576C505.29 56.4053 505.719 56.32 506.215 56.32C506.567 56.32 506.893 56.3653 507.191 56.456C507.49 56.5413 507.751 56.6693 507.975 56.84C508.199 57.0053 508.373 57.208 508.495 57.448C508.623 57.6827 508.69 57.9493 508.695 58.248C508.701 58.296 508.685 58.336 508.647 58.368C508.615 58.4 508.575 58.416 508.527 58.416H507.447C507.378 58.416 507.325 58.4027 507.287 58.376C507.25 58.344 507.218 58.288 507.191 58.208C507.117 57.9253 506.994 57.7333 506.823 57.632C506.658 57.5253 506.453 57.472 506.207 57.472C505.914 57.472 505.682 57.5547 505.511 57.72C505.341 57.88 505.247 58.1493 505.231 58.528C505.215 58.9653 505.215 59.4133 505.231 59.872C505.247 60.2507 505.341 60.5227 505.511 60.688C505.682 60.848 505.914 60.928 506.207 60.928C506.453 60.928 506.661 60.8747 506.831 60.768C507.002 60.6613 507.122 60.4693 507.191 60.192C507.213 60.112 507.242 60.0587 507.279 60.032C507.322 60 507.378 59.984 507.447 59.984H508.527C508.575 59.984 508.615 60 508.647 60.032C508.685 60.064 508.701 60.104 508.695 60.152C508.69 60.4507 508.623 60.72 508.495 60.96C508.373 61.1947 508.199 61.3973 507.975 61.568C507.751 61.7333 507.49 61.8613 507.191 61.952C506.893 62.0373 506.567 62.08 506.215 62.08ZM511.825 62.08C511.334 62.08 510.907 62 510.545 61.84C510.182 61.68 509.899 61.44 509.697 61.12C509.494 60.7947 509.382 60.3893 509.361 59.904C509.355 59.6747 509.353 59.4453 509.353 59.216C509.353 58.9867 509.355 58.7547 509.361 58.52C509.382 58.04 509.494 57.6373 509.697 57.312C509.905 56.9813 510.19 56.7333 510.553 56.568C510.915 56.4027 511.339 56.32 511.825 56.32C512.305 56.32 512.726 56.4027 513.089 56.568C513.457 56.7333 513.745 56.9813 513.953 57.312C514.161 57.6373 514.273 58.04 514.289 58.52C514.299 58.7547 514.305 58.9867 514.305 59.216C514.305 59.4453 514.299 59.6747 514.289 59.904C514.267 60.3893 514.155 60.7947 513.953 61.12C513.75 61.44 513.467 61.68 513.105 61.84C512.742 62 512.315 62.08 511.825 62.08ZM511.825 60.928C512.107 60.928 512.337 60.8427 512.513 60.672C512.694 60.5013 512.79 60.2293 512.801 59.856C512.811 59.6213 512.817 59.4 512.817 59.192C512.817 58.984 512.811 58.768 512.801 58.544C512.79 58.2933 512.742 58.0907 512.657 57.936C512.577 57.776 512.465 57.6587 512.321 57.584C512.177 57.5093 512.011 57.472 511.825 57.472C511.643 57.472 511.481 57.5093 511.337 57.584C511.193 57.6587 511.078 57.776 510.993 57.936C510.907 58.0907 510.859 58.2933 510.849 58.544C510.843 58.768 510.841 58.984 510.841 59.192C510.841 59.4 510.843 59.6213 510.849 59.856C510.865 60.2293 510.961 60.5013 511.137 60.672C511.313 60.8427 511.542 60.928 511.825 60.928ZM515.432 62C515.373 62 515.325 61.9813 515.288 61.944C515.251 61.9067 515.232 61.8587 515.232 61.8V56.6C515.232 56.5413 515.251 56.4933 515.288 56.456C515.325 56.4187 515.373 56.4 515.432 56.4H516.28C516.371 56.4 516.435 56.4213 516.472 56.464C516.515 56.5013 516.541 56.5307 516.552 56.552L518.504 59.632V56.6C518.504 56.5413 518.523 56.4933 518.56 56.456C518.597 56.4187 518.645 56.4 518.704 56.4H519.664C519.723 56.4 519.771 56.4187 519.808 56.456C519.845 56.4933 519.864 56.5413 519.864 56.6V61.8C519.864 61.8533 519.845 61.9013 519.808 61.944C519.771 61.9813 519.723 62 519.664 62H518.808C518.723 62 518.659 61.9787 518.616 61.936C518.579 61.8933 518.555 61.864 518.544 61.848L516.592 58.888V61.8C516.592 61.8587 516.573 61.9067 516.536 61.944C516.499 61.9813 516.451 62 516.392 62H515.432ZM521.182 62C521.123 62 521.075 61.9813 521.038 61.944C521.001 61.9067 520.982 61.8587 520.982 61.8V56.6C520.982 56.5413 521.001 56.4933 521.038 56.456C521.075 56.4187 521.123 56.4 521.182 56.4H523.262C523.785 56.4 524.23 56.4853 524.598 56.656C524.966 56.8213 525.249 57.0667 525.446 57.392C525.643 57.712 525.75 58.1093 525.766 58.584C525.771 58.8187 525.774 59.024 525.774 59.2C525.774 59.376 525.771 59.5787 525.766 59.808C525.745 60.304 525.638 60.7147 525.446 61.04C525.259 61.3653 524.985 61.608 524.622 61.768C524.265 61.9227 523.825 62 523.302 62H521.182ZM522.414 60.848H523.262C523.491 60.848 523.681 60.8133 523.83 60.744C523.985 60.6693 524.099 60.5547 524.174 60.4C524.254 60.2453 524.297 60.0427 524.302 59.792C524.313 59.6373 524.318 59.4987 524.318 59.376C524.323 59.2533 524.323 59.1307 524.318 59.008C524.318 58.8853 524.313 58.7493 524.302 58.6C524.291 58.2373 524.195 57.9733 524.014 57.808C523.838 57.6373 523.574 57.552 523.222 57.552H522.414V60.848ZM528.796 62.08C528.263 62.08 527.82 62.0053 527.468 61.856C527.116 61.7013 526.85 61.5013 526.668 61.256C526.487 61.0107 526.391 60.7493 526.38 60.472C526.38 60.4293 526.396 60.392 526.428 60.36C526.466 60.3227 526.508 60.304 526.556 60.304H527.564C527.639 60.304 527.695 60.3173 527.732 60.344C527.775 60.3707 527.812 60.4053 527.844 60.448C527.887 60.528 527.946 60.6053 528.02 60.68C528.1 60.7547 528.202 60.816 528.324 60.864C528.452 60.9067 528.61 60.928 528.796 60.928C529.106 60.928 529.338 60.88 529.492 60.784C529.652 60.688 529.732 60.5573 529.732 60.392C529.732 60.2747 529.69 60.1787 529.604 60.104C529.519 60.024 529.38 59.9547 529.188 59.896C529.002 59.832 528.751 59.768 528.436 59.704C528.031 59.6187 527.684 59.5093 527.396 59.376C527.114 59.2373 526.898 59.0587 526.748 58.84C526.599 58.616 526.524 58.3387 526.524 58.008C526.524 57.6827 526.615 57.392 526.796 57.136C526.983 56.88 527.242 56.68 527.572 56.536C527.903 56.392 528.295 56.32 528.748 56.32C529.116 56.32 529.439 56.368 529.716 56.464C529.999 56.56 530.236 56.688 530.428 56.848C530.62 57.008 530.764 57.1787 530.86 57.36C530.962 57.536 531.015 57.7093 531.02 57.88C531.02 57.9227 531.004 57.9627 530.972 58C530.94 58.032 530.9 58.048 530.852 58.048H529.796C529.738 58.048 529.687 58.0373 529.644 58.016C529.602 57.9947 529.564 57.96 529.532 57.912C529.5 57.7947 529.415 57.6933 529.276 57.608C529.143 57.5173 528.967 57.472 528.748 57.472C528.514 57.472 528.33 57.5147 528.196 57.6C528.068 57.68 528.004 57.8053 528.004 57.976C528.004 58.0827 528.039 58.176 528.108 58.256C528.183 58.336 528.303 58.4053 528.468 58.464C528.639 58.5227 528.871 58.584 529.164 58.648C529.65 58.7387 530.042 58.8533 530.34 58.992C530.639 59.1253 530.858 59.3013 530.996 59.52C531.135 59.7333 531.204 60.0027 531.204 60.328C531.204 60.6907 531.1 61.0053 530.892 61.272C530.69 61.5333 530.407 61.7333 530.044 61.872C529.682 62.0107 529.266 62.08 528.796 62.08Z" fill="#F9F9F9"/>
</g>
<defs>
<filter id="filter0_d_1062_17470" x="17" y="19.3019" width="123" height="51.3962" filterUnits="userSpaceOnUse" color-interpolation-filters="sRGB">
<feFlood flood-opacity="0" result="BackgroundImageFix"/>
<feColorMatrix in="SourceAlpha" type="matrix" values="0 0 0 0 0 0 0 0 0 0 0 0 0 0 0 0 0 0 127 0" result="hardAlpha"/>
<feOffset dy="4"/>
<feGaussianBlur stdDeviation="2"/>
<feComposite in2="hardAlpha" operator="out"/>
<feColorMatrix type="matrix" values="0 0 0 0 0.196078 0 0 0 0 0.196078 0 0 0 0 0.196078 0 0 0 0.25 0"/>
<feBlend mode="normal" in2="BackgroundImageFix" result="effect1_dropShadow_1062_17470"/>
<feBlend mode="normal" in="SourceGraphic" in2="effect1_dropShadow_1062_17470" result="shape"/>
</filter>
<filter id="filter1_d_1062_17470" x="264" y="9" width="289" height="72" filterUnits="userSpaceOnUse" color-interpolation-filters="sRGB">
<feFlood flood-opacity="0" result="BackgroundImageFix"/>
<feColorMatrix in="SourceAlpha" type="matrix" values="0 0 0 0 0 0 0 0 0 0 0 0 0 0 0 0 0 0 127 0" result="hardAlpha"/>
<feMorphology radius="1" operator="dilate" in="SourceAlpha" result="effect1_dropShadow_1062_17470"/>
<feOffset dy="4"/>
<feGaussianBlur stdDeviation="2"/>
<feComposite in2="hardAlpha" operator="out"/>
<feColorMatrix type="matrix" values="0 0 0 0 0 0 0 0 0 0.501961 0 0 0 0 0 0 0 0 0.25 0"/>
<feBlend mode="normal" in2="BackgroundImageFix" result="effect1_dropShadow_1062_17470"/>
<feBlend mode="normal" in="SourceGraphic" in2="effect1_dropShadow_1062_17470" result="shape"/>
</filter>
<linearGradient id="paint0_linear_1062_17470" x1="0" y1="41.5" x2="569" y2="41.5" gradientUnits="userSpaceOnUse">
<stop stop-color="#88CF88"/>
<stop offset="0.595" stop-color="#0D7723"/>
</linearGradient>
</defs>
</svg>
