<svg width="24" height="24" viewBox="0 0 24 24" fill="none" xmlns="http://www.w3.org/2000/svg">
<path d="M11.9999 0.00708008C10.0213 0.00730341 8.08728 0.59445 6.44254 1.69422C4.79779 2.79398 3.51625 4.35694 2.76009 6.1853C2.00393 8.01366 1.80714 10.0252 2.19462 11.9655C2.5821 13.9057 3.53643 15.6874 4.93685 17.0851L11.9999 23.9931L19.0709 17.0771C20.469 15.6785 21.4211 13.8968 21.8067 11.9572C22.1924 10.0175 21.9943 8.00711 21.2374 6.18007C20.4806 4.35303 19.1991 2.79141 17.5548 1.69265C15.9106 0.59388 13.9774 0.00730461 11.9999 0.00708008ZM17.6649 15.6551L11.9999 21.2001L6.34285 15.6631C5.22442 14.5446 4.46265 13.1196 4.15382 11.5683C3.84499 10.017 4.00297 8.40897 4.60778 6.94742C5.2126 5.48587 6.2371 4.23641 7.55182 3.35695C8.86654 2.47749 10.4125 2.0075 11.9942 2.00638C13.576 2.00526 15.1225 2.47306 16.4385 3.35067C17.7545 4.22827 18.7807 5.47628 19.3876 6.93698C19.9945 8.39768 20.1547 10.0055 19.8481 11.5572C19.5415 13.109 18.7817 14.535 17.6649 15.6551ZM16.0179 7.42308L13.5179 5.51308C13.0815 5.18129 12.5485 5.00164 12.0004 5.00164C11.4522 5.00164 10.9192 5.18129 10.4829 5.51308L7.98285 7.42308C7.67811 7.65696 7.43104 7.9576 7.26063 8.30188C7.09022 8.64616 7.00101 9.02493 6.99985 9.40908V14.0001H16.9999V9.40908C16.9987 9.02504 16.9095 8.64638 16.7393 8.30212C16.5691 7.95787 16.3223 7.65717 16.0179 7.42308ZM14.9999 12.0001H12.9999V10.0001H10.9999V12.0001H8.99985V9.40908C8.99985 9.33146 9.01793 9.2549 9.05264 9.18547C9.08735 9.11604 9.13775 9.05565 9.19985 9.00908L11.6999 7.10008C11.7871 7.03326 11.894 6.99705 12.0039 6.99705C12.1138 6.99705 12.2206 7.03326 12.3079 7.10008L14.8079 9.01008C14.87 9.05665 14.9204 9.11704 14.9551 9.18647C14.9898 9.2559 15.0079 9.33246 15.0079 9.41008L14.9999 12.0001Z" fill="#F9F9F9"/>
</svg>
