<svg width="40" height="39" viewBox="0 0 40 39" fill="none" xmlns="http://www.w3.org/2000/svg">
<path d="M13.7326 2.08887C11.7302 2.08908 9.75698 2.56899 7.97813 3.4884C6.19928 4.40781 4.66656 5.73999 3.50828 7.3734C2.35001 9.0068 1.59988 10.8939 1.32069 12.8768C1.0415 14.8596 1.24138 16.8805 1.90359 18.7702C2.5658 20.66 3.67107 22.3636 5.12688 23.7384C6.58269 25.1133 8.34668 26.1194 10.2712 26.6725C12.1957 27.2257 14.2247 27.3097 16.1883 26.9177C18.152 26.5256 19.9931 25.6689 21.5577 24.4192L30.855 33.7165C31.1177 33.9702 31.4695 34.1106 31.8347 34.1074C32.1999 34.1042 32.5493 33.9578 32.8075 33.6995C33.0658 33.4413 33.2123 33.0919 33.2154 32.7267C33.2186 32.3615 33.0782 32.0097 32.8245 31.747L23.5272 22.4497C25.0008 20.6053 25.9237 18.3824 26.1896 16.0366C26.4555 13.6909 26.0537 11.3177 25.0303 9.19034C24.0069 7.06294 22.4036 5.26776 20.4049 4.01142C18.4062 2.75508 16.0934 2.08866 13.7326 2.08887ZM3.9826 14.6246C3.9826 12.0387 5.00983 9.55877 6.83831 7.73029C8.66679 5.90181 11.1467 4.87458 13.7326 4.87458C16.3185 4.87458 18.7984 5.90181 20.6269 7.73029C22.4554 9.55877 23.4826 12.0387 23.4826 14.6246C23.4826 17.2104 22.4554 19.6904 20.6269 21.5189C18.7984 23.3474 16.3185 24.3746 13.7326 24.3746C11.1467 24.3746 8.66679 23.3474 6.83831 21.5189C5.00983 19.6904 3.9826 17.2104 3.9826 14.6246Z" fill="white"/>
</svg>
