<svg width="35" height="35" viewBox="0 0 35 35" fill="none" xmlns="http://www.w3.org/2000/svg">
<path d="M17.5 0C27.1653 0 35 7.83475 35 17.5C35 27.1653 27.1653 35 17.5 35C7.83475 35 0 27.1653 0 17.5C0 7.83475 7.83475 0 17.5 0ZM17.5 3.5C13.787 3.5 10.226 4.975 7.60051 7.60051C4.975 10.226 3.5 13.787 3.5 17.5C3.5 21.213 4.975 24.774 7.60051 27.3995C10.226 30.025 13.787 31.5 17.5 31.5C21.213 31.5 24.774 30.025 27.3995 27.3995C30.025 24.774 31.5 21.213 31.5 17.5C31.5 13.787 30.025 10.226 27.3995 7.60051C24.774 4.975 21.213 3.5 17.5 3.5ZM22.4 20.7498C22.5633 20.585 22.7577 20.4544 22.9718 20.3655C23.186 20.2766 23.4158 20.2311 23.6477 20.2318C23.8796 20.2324 24.1091 20.2791 24.3228 20.3692C24.5365 20.4593 24.7301 20.591 24.8925 20.7566C25.0548 20.9222 25.1827 21.1185 25.2685 21.3339C25.3544 21.5493 25.3965 21.7797 25.3926 22.0116C25.3886 22.2435 25.3386 22.4722 25.2455 22.6846C25.1523 22.897 25.0179 23.0888 24.85 23.2488C22.8889 25.1751 20.249 26.2531 17.5 26.25C14.751 26.2531 12.1111 25.1751 10.15 23.2488C9.8263 22.9222 9.64412 22.4814 9.64286 22.0216C9.64159 21.5618 9.82133 21.12 10.1432 20.7916C10.4651 20.4633 10.9033 20.2748 11.363 20.267C11.8228 20.2592 12.2671 20.4326 12.6 20.7498C13.9069 22.0346 15.6672 22.7532 17.5 22.75C19.4075 22.75 21.1348 21.9888 22.4 20.7498ZM11.375 10.5C12.0712 10.5 12.7389 10.7766 13.2312 11.2688C13.7234 11.7611 14 12.4288 14 13.125C14 13.8212 13.7234 14.4889 13.2312 14.9812C12.7389 15.4734 12.0712 15.75 11.375 15.75C10.6788 15.75 10.0111 15.4734 9.51884 14.9812C9.02656 14.4889 8.75 13.8212 8.75 13.125C8.75 12.4288 9.02656 11.7611 9.51884 11.2688C10.0111 10.7766 10.6788 10.5 11.375 10.5ZM23.625 10.5C24.3212 10.5 24.9889 10.7766 25.4812 11.2688C25.9734 11.7611 26.25 12.4288 26.25 13.125C26.25 13.8212 25.9734 14.4889 25.4812 14.9812C24.9889 15.4734 24.3212 15.75 23.625 15.75C22.9288 15.75 22.2611 15.4734 21.7688 14.9812C21.2766 14.4889 21 13.8212 21 13.125C21 12.4288 21.2766 11.7611 21.7688 11.2688C22.2611 10.7766 22.9288 10.5 23.625 10.5Z" fill="#212121"/>
</svg>
