<svg width="22" height="22" viewBox="0 0 22 22" fill="none" xmlns="http://www.w3.org/2000/svg">
<g clip-path="url(#clip0_1062_12351)">
<path d="M22 2.29173V1.91407C22 1.15599 21.549 0.473069 20.8505 0.174235C20.1603 -0.122765 19.3664 0.0202353 18.8228 0.537235C18.5671 0.781985 18.2307 0.916735 17.875 0.916735H6.59358C3.75192 0.916735 1.24117 2.62448 0.198 5.26723C-0.144833 6.13623 -0.0339167 7.11982 0.495917 7.8999C0.829583 8.39032 1.298 8.7579 1.83333 8.96782V17.4626C0.787417 17.6752 0 18.5992 0 19.7084C0 20.9743 1.02575 22.0001 2.29167 22.0001H20.625C21.384 22.0001 22 21.3841 22 20.6251V18.7917C22 18.0327 21.384 17.4167 20.625 17.4167H18.3333V8.37107C20.5123 7.21698 22 4.92532 22 2.29173ZM6.41667 17.4167H4.58333V9.16673H6.41667V17.4167ZM11 17.4167H9.16667V9.16673H11V17.4167ZM15.5833 17.4167H13.75V9.16673H15.1268C15.2799 9.16673 15.4321 9.16123 15.5833 9.15115V17.4167ZM15.1268 6.41673H2.88567C2.82608 6.41673 2.79033 6.3819 2.7555 6.2774C3.38158 4.69248 4.88767 3.66673 6.59358 3.66673H17.875C18.2857 3.66673 18.689 3.60715 19.0731 3.49074C18.5579 5.1829 16.984 6.41673 15.1268 6.41673Z" fill="#F9F9F9"/>
</g>
<defs>
<clipPath id="clip0_1062_12351">
<rect width="22" height="22" fill="white"/>
</clipPath>
</defs>
</svg>
