<svg width="30" height="31" viewBox="0 0 30 31" fill="none" xmlns="http://www.w3.org/2000/svg">
<g clip-path="url(#clip0_1062_12973)">
<path d="M28.75 6.125C28.75 5.08947 27.9106 4.25 26.875 4.25H22.155C21.3652 2.0092 19.2509 0.507617 16.875 0.5H13.125C10.7491 0.507617 8.63486 2.0092 7.84502 4.25H3.125C2.08947 4.25 1.25 5.08947 1.25 6.125C1.25 7.16053 2.08947 8 3.125 8H3.75002V23.625C3.75002 27.422 6.82807 30.5 10.625 30.5H19.375C23.172 30.5 26.25 27.422 26.25 23.625V8H26.875C27.9106 8 28.75 7.16053 28.75 6.125ZM22.5 23.625C22.5 25.3509 21.1009 26.75 19.375 26.75H10.625C8.89912 26.75 7.50002 25.3509 7.50002 23.625V8H22.5V23.625Z" fill="#010101"/>
<path d="M11.875 23C12.9105 23 13.75 22.1605 13.75 21.125V13.625C13.75 12.5895 12.9105 11.75 11.875 11.75C10.8395 11.75 10 12.5895 10 13.625V21.125C10 22.1605 10.8395 23 11.875 23Z" fill="#010101"/>
<path d="M18.125 23C19.1605 23 20 22.1605 20 21.125V13.625C20 12.5895 19.1605 11.75 18.125 11.75C17.0895 11.75 16.25 12.5895 16.25 13.625V21.125C16.25 22.1605 17.0895 23 18.125 23Z" fill="#010101"/>
</g>
<defs>
<clipPath id="clip0_1062_12973">
<rect width="30" height="30" fill="white" transform="translate(0 0.5)"/>
</clipPath>
</defs>
</svg>
