<!-- <svg
  xmlns="http://www.w3.org/2000/svg"
  width="24"
  height="24"
  fill="grey"
  viewBox="0 0 24 24"
>
  <path d="M12 4.5C6.48 4.5 2 12 2 12s4.48 7.5 10 7.5 10-7.5 10-7.5-4.48-7.5-10-7.5zm0 11.25c-2.07 0-3.75-1.68-3.75-3.75S9.93 8.25 12 8.25 15.75 9.93 15.75 12 14.07 15.75 12 15.75zm0-7.5c-1.38 0-2.5 1.12-2.5 2.5s1.12 2.5 2.5 2.5 2.5-1.12 2.5-2.5-1.12-2.5-2.5-2.5z"/>
</svg> -->


<svg fill="none" height="18" viewBox="0 0 18 18" width="18" xmlns="http://www.w3.org/2000/svg"><path clip-rule="evenodd" d="M8.99662 2.79999C8.97838 2.80001 8.9603 2.80108 8.94208 2.8012C8.84124 2.80186 8.74058 2.80313 8.64028 2.8068C8.61097 2.80787 8.58194 2.81028 8.55268 2.81161C8.46266 2.81569 8.37267 2.81993 8.28314 2.82642C8.24495 2.82918 8.20696 2.83323 8.16887 2.83643C8.09215 2.84287 8.01546 2.84945 7.93914 2.85764C7.89056 2.86285 7.84222 2.86895 7.79381 2.87486C7.72479 2.88329 7.65584 2.89182 7.58717 2.90168C7.53693 2.90888 7.48711 2.91734 7.43707 2.9253C7.37406 2.93532 7.31103 2.94531 7.24834 2.95652C7.19416 2.96621 7.14023 2.97678 7.0863 2.98734C7.0262 2.99912 6.9661 3.01091 6.90633 3.02377C6.85363 3.03511 6.80111 3.04723 6.74867 3.0594C6.68611 3.07393 6.6237 3.08893 6.56154 3.10463C6.51419 3.11659 6.46691 3.12882 6.41979 3.14146C6.35009 3.16017 6.28073 3.17972 6.21156 3.19991C6.1715 3.21159 6.1316 3.22376 6.09172 3.23594C6.02039 3.25773 5.94943 3.28024 5.87871 3.30359C5.84068 3.31614 5.80268 3.32862 5.76484 3.34162C5.69005 3.36731 5.61554 3.39425 5.54147 3.42168C5.50687 3.43449 5.472 3.44692 5.43756 3.46011C5.3528 3.49257 5.26887 3.52667 5.18513 3.56139C5.16662 3.56906 5.14784 3.57603 5.12939 3.5838C5.03586 3.62324 4.94327 3.66448 4.85108 3.7067C4.83708 3.71311 4.82285 3.71904 4.80888 3.72551C4.70509 3.77363 4.6023 3.82363 4.50031 3.87523C4.49995 3.87542 4.49951 3.87542 4.49911 3.87563C4.28867 3.98212 4.08179 4.09577 3.87959 4.2167C3.77849 4.27716 3.67868 4.33966 3.57978 4.40364C3.48305 4.46622 3.38726 4.53031 3.29272 4.59619C3.28106 4.60431 3.2697 4.61284 3.25808 4.62101C3.17604 4.6787 3.09471 4.73741 3.01441 4.79755C2.99626 4.81114 2.97832 4.82506 2.96026 4.83878C2.88498 4.89596 2.81058 4.954 2.7369 5.01331C2.72142 5.02577 2.70612 5.03839 2.69071 5.05094C2.61683 5.11115 2.54354 5.17235 2.47133 5.23468C2.45101 5.25222 2.431 5.27022 2.41081 5.28792C2.34782 5.3432 2.28534 5.39917 2.22368 5.45605C2.19572 5.48185 2.16815 5.508 2.14047 5.53412C2.08225 5.58907 2.02462 5.64466 1.96767 5.70104C1.94486 5.72363 1.9222 5.74628 1.89959 5.7691C1.83643 5.83285 1.77397 5.89734 1.71246 5.96285C1.69681 5.97951 1.68102 5.99611 1.66548 6.01289C1.59945 6.08418 1.53443 6.15655 1.47038 6.22985C1.45747 6.24463 1.4446 6.25942 1.43176 6.27429C1.36362 6.35321 1.29689 6.43329 1.2311 6.51447C1.22478 6.52227 1.21828 6.52988 1.21198 6.53769C1.139 6.6283 1.06736 6.72015 0.99738 6.8135C0.925686 6.90914 0.855213 7.00608 0.786759 7.10453C0.577172 7.40596 0.383665 7.72104 0.206256 8.04766C0.118213 8.20333 -0.00149383 8.58406 1.41063e-05 8.98118C0.00161211 9.4013 0.14053 9.83004 0.238108 9.99997C1.87802 12.9807 4.91935 14.9397 8.31896 15.176C8.43228 15.1838 8.5461 15.1896 8.66018 15.1936C8.77426 15.1976 8.88863 15.1999 9.00338 15.2C9.11587 15.1998 9.22799 15.1975 9.33982 15.1936C9.4539 15.1896 9.56772 15.1838 9.68104 15.176C13.0807 14.9397 16.122 12.9807 17.7619 9.99997C17.8595 9.83004 17.9984 9.4013 18 8.98118C18.0015 8.58406 17.8818 8.20333 17.7937 8.04766C17.6163 7.72104 17.4228 7.40596 17.2132 7.10453C17.146 7.00781 17.077 6.91271 17.0066 6.81871C17.0053 6.81702 17.0043 6.81519 17.003 6.8135C16.9992 6.80841 16.9953 6.80338 16.9915 6.79829C16.9252 6.71024 16.8574 6.62329 16.7884 6.53769C16.7866 6.53541 16.7847 6.53317 16.7828 6.53089C16.7783 6.52529 16.7734 6.52006 16.7689 6.51447C16.7031 6.43329 16.6364 6.35321 16.5682 6.27429C16.5554 6.25942 16.5425 6.24464 16.5296 6.22985C16.4645 6.15534 16.3985 6.08171 16.3313 6.00928C16.3192 5.99623 16.3069 5.98344 16.2947 5.97045C16.2287 5.90006 16.1619 5.83065 16.094 5.76229C16.0751 5.74326 16.0561 5.72432 16.0371 5.70545C15.9787 5.6475 15.9193 5.59055 15.8595 5.53412C15.8319 5.508 15.8043 5.48185 15.7763 5.45605C15.7147 5.39917 15.6522 5.3432 15.5892 5.28792C15.569 5.27022 15.549 5.25222 15.5287 5.23468C15.4565 5.17235 15.3832 5.11115 15.3093 5.05094C15.2939 5.03839 15.2786 5.02577 15.2631 5.01331C15.1894 4.954 15.115 4.89596 15.0397 4.83878C15.0217 4.82506 15.0037 4.81114 14.9856 4.79755C14.9053 4.73741 14.824 4.6787 14.7419 4.62101C14.7303 4.61284 14.7189 4.6043 14.7073 4.59619C14.6127 4.53031 14.517 4.46622 14.4202 4.40364C14.3213 4.33966 14.2215 4.27716 14.1204 4.2167C13.9182 4.09577 13.7113 3.98212 13.5009 3.87563C13.5005 3.87544 13.5001 3.87544 13.4997 3.87523C13.3977 3.82363 13.2949 3.77363 13.1911 3.72551C13.1772 3.71904 13.1629 3.71311 13.1489 3.7067C13.0567 3.66448 12.9641 3.62324 12.8706 3.5838C12.8522 3.57602 12.8334 3.56906 12.8149 3.56139C12.7311 3.52667 12.6472 3.49257 12.5624 3.46011C12.528 3.44692 12.4931 3.43449 12.4585 3.42168C12.3845 3.39425 12.31 3.36731 12.2352 3.34162C12.1973 3.32862 12.1593 3.31614 12.1213 3.30359C12.0506 3.28024 11.9796 3.25773 11.9083 3.23594C11.8684 3.22376 11.8285 3.21159 11.7884 3.19991C11.7193 3.17972 11.6499 3.16017 11.5802 3.14146C11.5331 3.12882 11.4858 3.11659 11.4385 3.10463C11.3758 3.08879 11.3128 3.07364 11.2497 3.059C11.1988 3.04719 11.148 3.03559 11.0969 3.02457C11.0342 3.01106 10.9712 2.99846 10.9081 2.98614C10.8571 2.97618 10.8061 2.9661 10.7548 2.95692C10.6899 2.94529 10.6246 2.93486 10.5593 2.92449C10.5107 2.91678 10.4621 2.90868 10.4132 2.90168C10.3444 2.8918 10.2753 2.88331 10.2062 2.87486C10.1578 2.86894 10.1094 2.86285 10.0609 2.85764C9.98454 2.84945 9.90785 2.84287 9.83113 2.83643C9.79304 2.83323 9.75505 2.82918 9.71686 2.82642C9.62733 2.81993 9.53733 2.81569 9.44731 2.81161C9.41806 2.81028 9.38903 2.80787 9.35972 2.8068C9.25942 2.80314 9.15876 2.80185 9.05792 2.8012C9.03745 2.80107 9.01712 2.80001 8.99662 2.79999ZM9.06829 5.06694C10.7191 5.08054 12.2397 6.16221 12.742 7.83388C12.7423 7.83467 12.7426 7.83549 12.7428 7.83628C12.743 7.83695 12.743 7.83763 12.7432 7.8383C13.361 9.89586 12.2027 12.0677 10.1552 12.6896C8.10758 13.3115 5.94598 12.1477 5.32767 10.09C5.32747 10.0894 5.32748 10.0887 5.32727 10.088C5.32703 10.0872 5.32669 10.0864 5.32647 10.0856C4.7086 8.02783 5.86792 5.85554 7.91564 5.23387C8.29956 5.11734 8.68733 5.0638 9.06829 5.06694ZM9.03484 5.96283C8.24352 5.96287 7.48462 6.27886 6.92507 6.84129C6.36552 7.40373 6.05115 8.16654 6.05111 8.96195C6.05115 9.75736 6.36552 10.5202 6.92507 11.0826C7.48462 11.6451 8.24352 11.961 9.03484 11.9611C9.82617 11.961 10.5851 11.6451 11.1446 11.0826C11.7042 10.5202 12.0185 9.75736 12.0186 8.96195C12.0185 8.16654 11.7042 7.40373 11.1446 6.84129C10.5851 6.27886 9.82617 5.96287 9.03484 5.96283Z" fill="#00000040
" fill-rule="evenodd"></path></svg>